<svg width="1024" height="1024" viewBox="0 0 1024 1024" fill="none" xmlns="http://www.w3.org/2000/svg">
<g clip-path="url(#clip0_16_5006)">
<rect width="1024" height="1024" fill="white"/>
<path d="M568.685 203.336C557 201.006 549.25 195.479 546.09 183.288C544.275 176.275 545.365 168.766 549.115 162.594C552.74 156.629 559.015 153.075 563.625 147.992C583.39 125.599 599.26 103.242 630.5 96.348C646.425 92.8345 656.315 93.9445 670.1 102.65C677.82 100.708 685.425 101.458 693.01 104.27C726.445 116.671 732.16 155.718 734.53 186.788C735.715 202.295 732.98 218.729 734.685 234.322C734.99 237.136 733.775 241.495 734.055 244.477C735.395 250.4 738.625 257.233 741.185 262.769C753.745 263.883 755.035 266.363 761.19 276.641C769.49 279.213 770.81 281.488 777.07 286.651C782.25 290.585 793.245 301.631 799.1 303.413C826.1 311.61 853.02 319.751 880.005 328.113C888.815 330.845 909.495 337.331 914.66 344.901C921.775 355.332 922.895 371.066 926.345 383.094C941.24 435.053 949.475 488.798 957.05 542.23C962.29 579.46 967.35 617.225 968.485 654.815C969.08 677.8 968.83 700.8 967.745 723.765C966.7 742.405 964.225 763.5 963.375 782.24C962.97 791.03 960.255 832.82 958.345 838.06C956.345 840.27 953.24 840.005 950.28 840.165C949.72 845.675 950.51 847.445 944.505 848.695C945.88 872.225 949.32 894.44 939.905 916.51C937.26 922.71 936.84 922.33 931.535 926.715C930.35 927.69 927.235 932.605 926.18 933.245C918.86 937.665 905.055 944.58 897.585 947.62C897.6 955.175 897.725 981.03 895.13 986.69L894.61 986.59C893.35 981.445 894.765 955.515 895.015 948.56C893.41 948.995 886.615 951.005 885.965 950.615C882.87 948.77 870.35 950.78 869.125 947.24C865.46 936.63 883.56 927.44 886.2 919.465C890.325 907 891.42 895.305 888.61 882.79C885.405 894.03 885.13 912.76 874.775 920.34C872.285 922.165 868.79 923.095 865.725 922.495C864.435 922.24 863.33 921.53 862.625 920.42C859.92 916.185 865.3 896.42 866.33 890.935C848.33 896.615 820.57 907.09 803.86 895.675C770.275 872.73 754.38 807.79 744.75 771.005C738.6 771.98 730.03 772.455 723.88 771.58C722.01 780.695 720.61 790.43 718.78 799.705C715.595 815.845 711.595 831.81 706.8 847.545C701.46 864.755 692.105 889.89 675.47 898.47C656.53 908.24 614.615 895.26 595.015 888.855C595.925 895.64 596.28 905.775 597.07 913.185L601.91 957.12C602.61 963.215 605.295 982.13 604.415 987.405C600.08 976.29 598.09 946.005 596.48 932.665C594.88 919.42 592.92 901.445 592.5 888.235C575.14 880.7 578.855 874.83 580.205 857.715C581.17 845.985 582.255 834.265 583.46 822.555L588.065 776.5C589.4 762.85 590.51 750.325 592.815 736.69C590.205 734.34 589.185 732.455 589.59 728.9C590.82 718.075 593.89 706.43 596.675 695.955C585.755 691.195 572.69 686.94 561.205 682.18C557.835 684.995 554.76 687.335 550.695 689.045C533.275 696.39 519.99 673.78 514.9 660.75C503.395 653.575 499.57 647.795 495.231 634.71C491.68 651.29 488.727 676.85 491.835 693.36C492.672 697.81 504.95 717.925 508.22 723.87C513.095 732.775 517.64 741.86 521.845 751.1C548.155 808.69 568.015 870.92 584.81 931.91C588.085 943.805 595.215 967.195 595.77 978.355C592.565 971.79 587.1 950.11 584.885 942.09C579.8 923.94 574.55 905.835 569.15 887.775C550.12 824.15 526.765 759.52 492.554 702.455C486.784 692.835 487.893 682.32 487.944 671.49C488.078 643.025 496.779 617.2 504.445 590.17C501.955 590.06 500.03 589.755 497.582 589.4L493.513 594.235C496.957 598.37 499.011 603.48 492.473 605.955C482.287 609.82 478.833 613.415 477.784 600.125C475.148 599.035 474.806 600.505 471.705 599.67C466.214 595.79 468.199 586.79 474.743 587.245C474.822 588.83 468.607 592.825 470.94 596.205C474.264 601.015 477.411 596.005 480.685 596.68L481.154 597.515C479.629 601.23 478.745 604.005 482.094 607.155C486.223 608.44 485.555 605.79 488.528 604.525C490.699 603.6 493.868 603.925 494.818 600.67C496.231 595.83 487.811 595.375 485.684 592.96C485.397 592.635 487.041 591.1 486.271 589.465C484.734 589.355 483.688 589.255 482.17 589.005L482.295 588.3C483.99 587 483.449 587 485.185 586.98C487.907 588.935 486.761 592.35 490.837 592.595C492.917 591.81 494.046 590.55 495.719 589.06C494.762 586.36 494.061 583.51 491.697 581.925C487.571 581.925 488.215 584.535 485.069 586.26C484.596 583.62 487.215 580.57 486.766 576.775C485.358 574.42 483.241 573.94 480.785 575.045C477.586 578.455 480.618 583.43 478.437 585.385C476.124 583.24 477.508 581.385 476.407 579.435C466.961 581.605 463.227 581.59 455.974 574.825L455.147 574.9L454.055 577.03L453.406 576.92C448.689 570.055 443.37 557.78 447.179 549.615C448.366 547.07 452.408 544.6 454.936 546.82C457.911 549.43 460.461 546.065 463.604 546.075C466.935 546.23 471.888 550.795 473.875 553.27C486.87 554.695 477.272 559.83 483.102 566.265C485.413 568.82 482.775 570.225 484.319 572.645L486.262 572.985C487.968 570.775 487.631 563.52 492.882 561.12C493.841 560.285 497.714 558.735 498.964 559.595C507.665 565.57 490.027 576.925 488.726 579.285L489.188 579.905C495.517 580.325 495.438 577.575 501.315 576.4C503.435 576.945 504.845 577.63 506.82 578.5C507.34 572.22 508.135 565.63 508.09 559.35C507.83 523.935 501.515 488.699 500.14 453.314C499.784 444.106 498.064 434.273 498.33 425.151C493.94 424.147 487.385 423.014 482.984 422.817C481.924 432.879 481.243 443.285 479.746 453.423C476.607 474.686 467.372 518.14 454.917 535.11C457.02 534.88 460.66 534.58 462.479 535.68C465.382 537.44 467.021 541.93 465.274 544.925C461.593 532.24 458.516 538.775 452.938 536.885C451.168 533.205 449.57 531 444.735 531.52C442.035 531.805 441.122 535.2 438.89 536.75C437.879 536.27 437.616 536 436.742 535.29C435.893 536.925 437.886 542.595 437.029 545.885C433.841 545.27 437.091 535.64 433.072 531.925C430.941 531.35 431.903 531.26 430.067 531.795C428.901 534.65 431.048 538.465 432.068 541.865L431.623 542.385C428.904 541.185 426.073 532.75 428.699 529.465C433.334 527.855 437.32 534.91 438.322 533.96C442.215 530.27 446.838 525.85 454.049 534.08C471.257 492.988 476.237 467.692 480.319 423.445C464.599 420.335 445.491 414.173 432.685 404.565C431.701 410.533 431.449 416.927 431.063 422.988C427.834 411.673 429.737 395.148 437.485 386.025C426.038 379.862 409.728 371.132 401.517 361.052C398.216 357 393.53 348.568 394.195 343.141L394.649 343.36C398.745 357.176 404.087 362.966 415.948 370.703C427.356 378.145 438.286 385.049 451.611 388.52C473.848 394.312 472.148 379.728 478.428 364.5C482.463 355.493 487.474 346.758 491.784 337.893C497.095 326.969 492.977 318.106 492.946 306.717C492.72 301.482 496.107 296.153 496.748 291.247C499.707 268.579 492.427 250.879 480.887 232.364L485.697 234.579L485.2 235.678C497.302 250.342 501.935 274.149 499.181 292.75C498.499 297.352 495.511 301.262 495.473 306.754C495.409 315.882 499.137 324.84 496.504 333.781C493.307 343.488 487.01 353.092 482.63 362.482C479.821 368.149 477.941 374.379 476.068 380.432C470.466 398.532 452.607 392.323 439.741 387.494C437.665 389.684 432.085 399.176 434.439 401.583C444.489 411.859 463.241 415.626 476.888 419.428C481.099 420.602 487.282 419.704 491.713 420.875C507.95 424.989 517.975 426.892 527.65 440.824C528.72 433.263 531.755 423.472 533.265 415.716C534.545 409.109 537.705 381.962 542.68 378.622C559.555 367.297 578.145 358.177 596.075 348.599C607.915 342.276 621.025 331.585 632.875 326.465C626.305 315.526 621.705 308.154 612.1 299.432C601.075 298.223 602.69 294.223 601.23 284.667C593.235 274.367 592.425 265.738 586.88 254.555C585.07 251.83 576.985 246.934 576.34 243.774C573.8 231.336 569.81 215.742 568.685 203.336ZM725.395 612.665C737.16 615.505 749.28 614.71 760.87 619.79C763.88 621.11 778.985 617.735 775.73 627.685C774.04 632.265 769.71 634.675 765.425 636.715C772.08 640.75 773.28 646.65 770.51 653.705C767.285 656.54 767.445 655.93 768.045 660.335C768.475 663.49 768.9 667.2 766.76 669.81C765.5 671.35 763.295 672.81 761.72 674.075C759.655 682.835 764.36 685.765 751.28 690.075C750.01 701.39 744.42 703.38 733.83 704.115C743.005 749.765 763.895 865.3 803.02 891.66C813.01 898.39 824.165 898.955 835.685 896.59C845.3 894.615 858.14 889.15 866.825 888.215C868.96 878.985 868.245 869.665 871.87 860.85C873.98 855.73 877.05 850.94 879.9 846.2C882.055 842.62 885.07 839.07 886.13 834.99C887.3 830.495 884.35 825.09 883.445 820.755C883.25 819.825 883.645 815.91 883.74 814.65C885.975 785.175 890.625 756.03 888.465 726.44C878.335 731.69 867.485 735.83 856.5 738.945C848.05 741.335 834.47 746.31 830.365 735.01C828.635 730.235 822.305 710.18 823.95 706.14C829.345 711.46 828.925 741.315 840.65 739.735C856.22 737.64 874.18 730.505 888.42 723.81C887.97 711.885 885.075 698.525 882.32 686.84C870.07 693.915 838.155 704.49 824.345 706.01C829.33 703.61 837.065 701.585 842.535 699.925C852.11 697.12 861.59 694.02 870.97 690.62C873.765 689.575 879.5 687.49 881.75 685.905C881.98 684.22 881.845 684.66 880.95 682.825C864.57 690.915 840.33 697.81 822.415 701.715C829.41 697.335 847.4 693.5 856.115 690.425C861.275 688.61 876.675 682.235 880.995 681.735C872.89 648.135 867.34 614.255 869.465 579.755C869.875 573.165 870.42 566.575 870.54 559.975C870.63 538.74 869.565 509.53 870.195 489.115C871.195 456.451 883.34 370.31 899.315 344.654C899.82 343.85 900.355 343.064 900.91 342.297L900.76 342.849C899.565 347.101 897.35 352.146 895.815 356.515C892.985 364.417 890.55 372.453 888.51 380.595C876.765 426.495 871.08 475.557 872.965 522.9C873.715 541.73 872.785 557.545 877.7 576.275C881.44 590.52 882.37 606.48 883.985 621.07C885.23 630.93 889.73 637.99 889.695 649.365C889.58 685.22 892.315 721.315 891.48 757.115C890.975 778.73 886.79 801.05 886.395 822.435C904.2 813.89 940.63 825.14 956.895 834.91C958.225 800.105 961.985 764.54 964.29 729.875C968.935 661.285 962.525 594.43 951.69 526.72C944.875 484.105 938.98 439.546 927.275 397.837C924.07 386.425 918.03 352.082 910.815 344.961C901.955 336.215 871.045 328.915 858.64 324.758C839.03 318.207 819.64 313.097 800.47 306.87C806.03 314.894 815.405 328.595 819.925 336.947C814.325 341.495 807.255 345.008 801.515 349.353C821.755 358.034 830.565 357.39 819.325 381.246C818.97 381.996 818.67 382.195 818.01 382.611L817.48 382.111C817.405 377.29 823.88 364.161 820.94 361.934C814.685 357.199 803.795 354.006 797.135 349.41C803.235 344.509 809.72 340.107 816.53 336.25C810.13 326.938 804.45 316.695 797.715 307.739C794.63 303.639 785.485 297.806 781.135 294.151C775.635 289.533 769.145 282.791 762.705 280.16C766.27 285.077 769.68 289.844 770.43 296.07C772.425 312.698 769.705 331.105 767.865 347.542C764.21 380.459 759.605 413.262 754.045 445.911C748.11 483.003 741.115 520.205 734.8 557.25C731.65 575.72 727.205 594.035 725.395 612.665ZM675.16 326.814C671.015 330.221 667.43 333.169 662.58 335.557C666.12 355.455 668.47 361.967 676.75 380.429C678.57 376.857 680.32 373.252 682 369.615C685.95 362.375 689.79 354.785 695 348.37C698.17 344.466 699.855 344.009 704.365 342.392C695.975 339.593 688.52 336.03 681.19 331.014C679.815 330.075 676.455 327.203 675.16 326.814ZM621.93 358.319C626.875 361.014 631.915 362.409 637.205 364.107C638.1 364.395 638.36 365.059 638.665 365.796C636.6 370.842 620.27 379.46 618.095 384.772C617.415 386.435 620.08 392.924 620.9 394.922C628.935 414.383 636.98 433.878 645.7 453.065C655.135 473.478 665.155 493.619 675.74 513.46C683.52 527.965 691.66 542.27 700.15 556.37C708.045 569.55 718.305 584.245 722.72 598.64L722.345 597.905C718.45 590.33 710.105 577.835 705.33 570.205C697.41 557.385 689.7 544.44 682.205 531.37C660.815 493.06 641.795 453.471 625.265 412.826C622.43 406.007 614.905 390.873 615.4 383.771C615.595 380.918 631.305 369.353 634.785 366.124C629.69 364.568 616.73 362.421 620.195 355.032C621.91 351.377 634.38 331.659 633.985 329.156L633.24 328.905C620.3 336.939 607.5 345.86 594.255 353.237C581.24 360.38 567.695 366.623 554.975 374.31C553.43 375.242 546.43 379.005 545.735 379.803C539.345 387.179 538.19 406.053 536.405 414.966L521.885 485.04C520.685 490.8 517.675 497.433 516.74 502.75C515.225 511.355 511.47 522.735 510.75 531.21C509.24 549.01 512.265 563.28 508.49 581.575C509.35 583.21 510.1 584.115 509.805 585.9C508.795 587.37 508.605 587.56 507.41 588.775C502.795 609.485 491.279 626.88 503.325 646C505.93 650.2 509.44 653.765 513.605 656.43C519.93 660.485 528.15 663.83 535.01 667.145C557.555 678.035 581.11 686.955 604.595 695.615C615.59 699.665 628.54 706.065 639.51 709.25C632.6 685.65 636.445 654.12 647.76 632.38C651.065 626.035 654.32 622.64 661.46 621.34C643.545 618.185 626.21 614.67 608.625 610.045C604.915 609.065 599.345 610.3 595.5 608.9C590.01 607.33 585.79 603.49 581.14 601.4C576.085 599.13 569.865 597.93 564.44 595.53C557.645 592.52 553.005 588.92 546.685 585.115C537.175 579.39 526.69 575.375 519.97 565.985C517.44 562.455 519.745 559.345 519.07 557.93C517.51 554.64 514.09 555.695 513.37 550.225C513.92 548.23 514.165 548.015 515.35 546.25C509.24 537.865 514.26 536.64 522.285 535.205C508.61 523.655 534.41 521.96 541.165 522.595C551.9 523.61 562.395 528.27 572.32 532.225C570.04 530.195 547.64 512.435 560.805 506.13C563.115 505.02 578.61 517.735 581.015 519.43C584.665 522.86 589.57 528.81 593.25 532.5C588 519.26 584.475 503.155 579.99 489.345C569.25 456.315 554.535 417.984 550.135 383.596L550.665 383.091C551.94 384.434 552.505 387.986 552.795 389.875C557.77 421.787 570.92 451.787 579.355 482.619C580.79 487.514 582.62 492.076 584.23 496.893C590.665 516.15 595.63 535.92 601.98 555.205C604.385 562.505 610.28 569.735 611.77 577.545C613.32 587.08 612.205 597.63 612.59 607.65C628.255 611.885 643.725 614.955 659.575 618.33C663.72 619.21 671.455 626.075 674.575 625.85C690.405 624.72 707.025 611.43 722.955 612.135C723.045 608.465 725.64 589.04 725.24 587.725C719.055 567.195 712.69 546.59 706.41 526.055C690.46 475.273 677.2 423.686 666.68 371.508C665.16 363.585 660.69 343.478 660.135 336.326C650.11 338.883 643.37 339.074 635.64 331.17C631.66 339.952 625.125 350.777 621.93 358.319ZM691 359.372C694.31 365.314 697.57 371.317 701.065 377.151C702.9 380.21 703.595 379.626 706.88 378.711C711.29 377.855 714.405 377.951 718.91 378.109C721.36 370.643 723.76 362.701 727.465 355.784C722.995 352.438 717.25 347.142 711.875 347.703C707.145 348.311 703.67 348.807 698.865 348.762C695.305 352.53 693.565 354.802 691 359.372ZM655.645 681.76C656.575 687.19 657.3 689.925 660.6 694.625C661.79 693.4 663.345 691.9 664.445 690.645L668.01 684.87C663.77 683.705 659.94 682.7 655.645 681.76ZM707.615 345.359L709.485 345.247L709.9 344.584C708.725 343.321 707.29 342.724 705.56 342.995C703.91 344.033 703.375 343.978 702.61 345.458C704.075 346.033 705.975 345.577 707.615 345.359ZM461.639 547.225C456.414 552.305 444.924 568.095 454.517 573.665C455.72 573.17 455.367 573.4 456.293 572.595C457.168 573.155 457.829 573.72 458.399 574.61C460.84 578.405 466.21 575.805 468.729 573.405C470.536 571.685 471.415 570.27 471.647 567.635C470.706 565.72 469.397 563.905 468.983 562.02C469.379 560.465 469.286 559.5 470.28 558.765C471.435 560.985 471.372 562.76 472.902 565.735C477.422 567.14 486.407 556.165 472.437 555.355C471.25 553.055 469.83 549.445 466.672 550.135C466.738 553.62 469.46 552.255 470.612 555.255L470.443 556.22L469.674 556.47C466.899 554.77 464.817 551.47 463.853 548.38C462.856 547.47 462.952 547.455 461.639 547.225ZM579.605 244.81C582.59 247.388 585.215 248.838 587.845 251.837C592.43 257.071 593.37 263.516 595.885 269.983C597.51 274.168 599.56 278.172 602.01 281.935C601.025 275.24 601.22 267.35 600.2 260.518C599.775 257.667 597.935 256.13 597.625 254.102L598.245 254.105C605.24 259.411 602.81 285.092 605.13 293.062C606.08 296.32 614.3 297.595 617.805 300.905C625.915 308.723 631.415 319.427 637.74 328.624C645.26 339.56 662.515 334.476 670.805 326.645C683.895 314.278 701.68 295.108 706.57 277.359C708.165 271.558 705.975 261.765 706.675 255.566L707.21 255.85C708.815 262.065 709.37 276.682 707.125 282.591C701.315 297.911 688.01 312.689 677.065 324.69C687.325 332.229 696.33 336.73 708.305 340.908C724.375 325.226 744.335 306.109 750.52 284.111C741.905 272.092 735.295 258.761 730.935 244.633C726.55 241.025 725.255 238.267 723.03 233.332C719.91 240.066 715.855 247.092 706.995 244.763C710.39 240.907 715.575 244.269 719.95 233.23C724.46 221.853 727.435 197.675 713.975 190.924C705.935 186.892 698.305 197.976 697.47 204.714C697.365 205.569 696.6 208.029 695.585 208.563C694.925 206.721 695.51 202.457 695.92 200.548C696.84 196.106 699.53 192.229 703.365 189.808C706.17 188.031 708.975 186.748 712.24 187.557C730.49 192.077 726.99 217.541 724.11 230.639C726.675 235.516 727.695 238.291 732.105 241.654C731.325 232.441 731.085 223.191 731.375 213.951C731.59 205.099 732.405 193.417 731.58 184.834C729.165 161.095 725.685 132.05 706.635 115.57C693.735 104.413 684.395 104.981 668.84 104.194C667.815 104.143 662.24 101.513 660.87 100.777C654.605 97.412 647.605 97.385 640.675 97.75C608.905 99.9785 588.955 122.794 569.845 145.402C564.06 151.498 558.355 155.737 552.73 162.18C541.76 174.746 551.765 202.509 569.78 199.725C575.63 198.821 586.26 197.907 591.285 194.519L591.78 195.232C585.755 199.816 578.59 201.327 571.18 201.497C571.675 209.334 574.255 218.622 575.79 226.518C576.865 232.079 577.94 239.593 579.605 244.81ZM554.485 683.915L558.34 681.21C550.535 677.67 542.765 674.045 535.035 670.35C530.895 668.365 522.625 664.21 518.6 662.835C521.86 669.595 524.79 674.51 529.98 679.955C538.53 688.93 544.005 689.7 554.485 683.915ZM873.165 570.305C869.29 604.815 874.875 643.45 883.045 676.87C883.945 680.535 886.02 691.99 887.295 694.45C887.7 677.445 887.31 658.735 885.985 641.76C885.45 634.97 881.72 627.015 880.98 620.1C879.155 604.165 877.4 586.605 873.805 570.92L873.165 570.305ZM655.265 697.34L639.36 692.52C639.745 696.015 640.255 706.235 642.63 708.39C643.245 708.945 643.67 708.765 644.62 708.81C647.12 707.81 648.605 705.86 650.42 703.795C652.27 701.51 653.59 699.765 655.265 697.34ZM889.97 823.88L888.22 833.7C904.435 831.96 923.545 835.22 938.62 841.305C941.765 842.57 943.8 843.505 946.815 845.06C947.45 841.445 948.065 837.49 948.805 833.93C937.87 828.505 914.06 821.455 901.845 822.245C897.15 822.595 894.53 822.81 889.97 823.88ZM497.53 561.325C492.98 563.275 486.867 569.72 488.006 574.795L488.904 575.505C492.769 573.07 500.645 567.46 498.654 562.035L497.53 561.325ZM497.645 587.38C499.953 587.39 502.45 587.45 504.74 587.4C506.68 586.02 506.31 586.66 507.25 584.71C506.715 580.015 501.645 578.9 497.638 579.055C495.472 580.085 495.51 579.615 494.782 581.275C495.33 583.845 496.585 584.8 497.645 587.38ZM468.597 579.03C473.796 577.98 481.854 574.635 482.797 568.73C481.941 566.67 480.099 565.97 477.899 565.855C472.158 569.555 474.193 570.85 469.931 575.305C468.376 576.93 465.488 575.805 463.734 577.895L464.104 578.505C465.62 578.705 467.07 578.93 468.597 579.03ZM645.49 711.795C644.95 717.325 644.245 723.215 643.18 728.65C641.68 736.32 640.625 748.35 629.855 746.31C618.025 744.07 606.455 741.35 595.215 737.04L585.61 830.285C585.05 836.115 580.045 876.375 583.265 879.26C593.215 888.185 621.115 893.475 634.255 896.295C648.395 898.925 664.93 902.63 677.695 893.645C704.595 874.71 717.385 793.765 722.265 762.015C725.185 743.02 728.105 723.65 729.125 704.455C711.315 704.91 693.8 700.34 678.665 690.645C676.255 689.095 673.185 687.285 670.53 686.2C667.3 692.33 665.71 696.335 658.285 697.565C655.37 702.685 651.22 709.545 645.49 711.795ZM739.985 509.36C742.375 499.225 744.11 486.202 745.88 475.749C749.49 455.444 752.845 435.096 755.95 414.709C758.735 397.205 761.195 379.652 763.34 362.058C764.18 355.379 766.02 342.547 766.2 336.057L765.65 335.368C764.44 339.405 754.12 376.582 748.855 373.051C744.72 370.278 734.27 360.981 729.445 357.452C725.955 365.493 724.18 372.709 721.15 380.445C723.955 390.48 727.155 400.917 729.055 411.151C732.29 428.58 733.7 446.528 735.885 464.12C736.35 467.862 736.97 472.443 737.085 476.118C738.35 487.145 739.11 498.289 739.985 509.36ZM724.155 769.01L730.095 769.085C735.355 769.035 738.99 768.91 744.295 768.375C742.475 760.535 740.785 752.67 739.225 744.775L738.675 744.83C734.45 745.11 731.925 745.14 727.69 744.955L724.155 769.01ZM449.737 564.095C449.946 562.38 450.18 560.125 450.834 558.525C452.028 555.61 455.6 552.57 455.629 549.535C454.535 548.205 453.589 547.945 451.897 547.6C446.737 550.71 446.276 561.905 449.637 565.4C449.831 564.355 449.86 564.79 449.737 564.095ZM520.79 555.37C526.965 558.85 550.635 569.51 552.61 571.62L552.755 572.625C547.83 574.285 527.665 561.84 522.435 560.785C521.37 561.81 521.695 561.19 521.555 562.765C525.005 571.67 540.26 577.465 547.525 582.335C557.32 589.42 568.295 594.445 579.725 597.605C584.91 599.04 597.66 609.71 602.455 606.32C610.065 600.94 612.045 580.785 606.85 572.595C603.115 566.715 601.935 562.28 599.255 556.305C597.5 551.53 595.88 544.73 594.06 540.32C591.47 534.045 582.41 524.425 577.145 519.855C574.725 517.755 569.69 514.885 566.855 512.71C565.15 511.4 562.435 508.98 560.855 507.915C556.355 519.695 571.51 525.44 576.85 533.95C577.125 534.385 583.635 537.355 585.28 538.85L585.055 539.455C582.795 539.685 577.65 536.895 575.15 535.965C559.615 530.185 537.845 519.975 521.75 528.815L521.245 529.78C523.375 533.88 531.495 533.495 535.885 534.225C543.815 535.535 554.95 539.355 561.28 544.22L561.505 544.89C556.98 546.1 542.805 539.655 537.365 538.98C533.66 538.52 514.565 535.73 515.465 542.34C518.87 546.645 550.09 551.37 555.585 558.01L555.21 558.55C548.765 558.9 522.555 545.87 516.81 548.475C515.26 551.69 518.54 553.68 520.79 555.37ZM742.635 265.543C744.32 269.959 748.76 277.075 751.345 281.369C751.105 278.93 750.14 273.149 751.505 271.383C753.495 273.956 753.835 280.403 753.38 283.501C750.33 304.207 725.585 328.548 710.975 342.475C720.445 346.338 724.655 349.823 732.65 356.085C738.055 360.283 745.615 367.619 750.06 370.755C756.955 355.375 764.485 334.286 767.86 317.857C771.69 299.23 764.105 286.759 754.835 271.668C752.36 267.634 747.11 266.301 742.635 265.543ZM666.56 625.785C663.815 625.215 661.215 624.545 658.42 624.455C649.015 630.64 643.77 648.915 641.655 659.3C639.6 669.325 638.765 679.565 639.16 689.79C643.765 691.025 648.45 692.215 652.98 693.69C654.545 694.09 655.435 694.665 656.56 694.135C655.695 690.38 653.805 687.395 653.17 683.195C650.48 665.485 652.46 638.68 666.56 625.785ZM643.575 712.55C633.93 712.165 608.62 700.645 599.17 696.81C598.065 702.19 590.89 729.435 593.27 732.16C597.63 737.145 623.76 742.39 631.28 743.535C633.055 743.805 634.5 743.425 636.055 742.645C639.535 736.565 642.095 720.265 643.575 712.55ZM697.24 482.906C693.74 446.72 693.85 417.458 700.555 381.798C698.225 378.299 691.14 364.171 689.295 362.353C687.22 366.145 680.49 380.323 677.765 381.64C673.375 381.267 670.94 373.699 669.225 369.945C675.235 400.948 682.51 431.693 691.025 462.103C692.58 467.903 694.975 477.787 697.24 482.906ZM526.455 444.315C519.345 433.949 513.1 429.415 500.655 426.659C502.96 459.871 505.68 493.053 508.815 526.195C509.925 520.61 511.025 514.525 512.285 509.005C514.025 499.658 516.765 493.028 519.29 484.138C519.965 481.777 521 473.171 521.495 470.256C523.015 461.584 524.665 452.936 526.455 444.315ZM731.52 704.325C731.625 712.4 729.64 734.325 727.93 742.055L736.125 742.05L737.715 741.88C738.905 739.605 735.895 730.355 735.445 727.4C734.32 720.055 732.905 712.655 732.28 705.245L731.52 704.325ZM713.3 380.711C708.795 380.98 707.545 381.355 703.205 382.312C697.265 410.597 697.14 440.111 698.84 468.788C699.125 473.553 699.49 489.832 700.36 493.391C703.92 507.885 708.73 524.74 713.395 539.015C717.82 552.56 721.83 568.89 726.43 581.83L726.91 582.345C727.71 581.095 730.065 565.775 730.64 562.68L735.41 536.275C736.155 532.28 738.825 519.2 738.64 516.015C738.17 507.95 736.47 497.346 735.575 489.015C732.625 461.563 730.54 433.409 725.12 406.347C723.455 398.026 720.295 389.286 718.53 380.982C717.135 380.905 714.59 380.68 713.3 380.711ZM890.565 836.175C886.34 839.955 873.115 862.205 872.615 868.32C871.585 880.98 868.885 894.33 866.345 907.04C865.755 909.99 863.745 916.51 865.21 918.825C881.725 928.12 884.245 876.89 889.145 873.17C890.86 874.735 892.935 890.61 893.15 893.72C893.72 901.99 891.375 911.275 889.215 919.27C886.47 929.435 874.015 933.92 871.44 943.935C871.145 945.085 872.11 945.75 872.82 946.4C879.255 948.625 890.94 937.355 895.505 934.41C906.315 927.445 906.29 905.135 912.155 898.635L912.875 898.59C914.365 902.475 905.165 928.83 901.31 932.945C897.85 936.1 894.37 939.38 890.68 942.28C888.935 943.65 883.215 946.13 882.26 947.355C887.25 950.755 911.16 939.045 914.645 933.48C920.005 924.915 923.135 905.12 929.365 897.835L929.96 897.86C930.55 900.755 919.535 930.8 917.41 934.925C919.175 934.06 922.09 932.74 923.475 931.43C931.98 923.41 930.71 909.155 937.32 900.115L937.915 900.09C938.345 904.665 933.055 919.855 931.135 924.36C937.15 917.17 937.51 914.62 940.26 905.805C946.375 886.21 941.38 866.18 941.8 845.67C927.17 839.335 906.57 834.825 890.565 836.175ZM736.5 673.565C734.285 673.43 734.17 673.47 732.375 672.29L732.125 671.835C737.66 667.725 764 677.525 765.33 664.805C765.555 662.67 765.545 660.24 764.43 658.34C759.255 655.35 738.005 657.915 735.95 652.73C736.875 651.84 737.225 652.065 738.475 652.095C745.2 652.245 762.49 657.06 767.495 652.605C768.705 651.53 769.245 649.985 769.195 648.395C769.11 645.49 767.545 642.575 765.37 640.7C758.245 634.55 726.745 634.975 715.975 626.695L715.985 626.12C720.515 625.255 748.38 634.675 755.74 634.29C761.64 633.98 773.32 633.8 772.265 624.835C771.585 624.01 770.89 623.34 769.67 623.49C762.45 624.355 753.275 619.44 747.035 618.99C739.79 618.465 724.7 614.79 718.555 615.13C706.99 617.375 694.46 623.895 683.2 627.64C676.205 629.965 667.535 626.395 663.465 633.555C655.915 647.3 654.08 663.98 655.395 679.345C670.845 681.445 674.79 685 688.165 692.535C699.89 699.14 717.68 702.485 731.09 701.075C740.35 700.1 746.57 701.21 748.615 690.17C743.145 690.15 731.18 690.53 726.63 688.965L726.48 688.38C731.08 685.735 745.39 689.105 755.2 685.49C767.705 670.59 744.68 674.4 736.5 673.565Z" fill="black" fill-opacity="0.988235"/>
<path d="M785.98 380.172C786.09 366.107 795.64 371.936 803.33 375.457C809.175 378.135 815.215 379.147 818.935 385.531C820.695 388.556 819.375 389.503 818.985 392.509C821.07 394.111 821.025 394.033 820.985 396.498C819.46 399.601 816.675 400.425 813.525 401.939C817.795 401.298 826.825 399.656 829.75 403.528C830.135 410.279 816.88 413.899 811.525 414.27C814.96 418.112 815.455 419.336 816.875 424.071C812.085 427.393 809.47 427.545 803.81 427.475C801.32 438.487 794.73 455.43 791.02 466.791C806.46 462.598 821.805 458.064 837.04 453.194C841.125 451.911 854.265 447.207 857.41 446.875L856.79 447.762C844.17 455.268 805.67 466.049 790.385 468.97C788.56 472.974 786.57 479.505 784.97 483.943C782.055 491.789 779.07 499.608 776.015 507.4C766.875 530.72 756.93 553.715 746.2 576.345C740.75 587.905 735.735 599.115 729.265 610.15C731.31 599.475 742.84 576.655 747.85 565.87C754.085 552.43 760.045 538.86 765.73 525.18C779.535 492.133 790.055 460.613 801.645 426.869C797.495 424.974 795.35 422.987 791.92 420.069C789.175 425.545 779.985 446.021 775.705 448.523C774.965 448.957 774.52 448.728 773.75 448.509C772.99 448.295 771.75 447.618 771.45 446.874C770.005 443.312 780.305 419.203 781.835 413.667C768.32 410.2 765.85 399.843 766.045 387.51C771.25 389.122 774.06 391.544 778.41 394.663C777.79 390.068 774.6 377.656 779.99 375.389C782.925 375.804 784.205 377.936 785.98 380.172ZM816.73 397.927C818.55 396.709 818.1 397.457 818.845 395.855C817.13 394.189 803.98 398.157 799.44 397.678C800.31 394.793 813.22 395.304 816.325 392.415L815.82 391.155C819.4 385.152 812.255 381.935 807.96 379.05C806.905 378.343 803.065 377.896 801.64 377.698C797.61 373.919 794.51 373.377 789.075 374.013C783.48 384.803 804.81 395.108 797.555 408.636C796.075 411.401 792.43 413.146 792.01 415.011C794.73 417.717 803.785 414.709 806.28 411.82C810.53 406.902 810.9 401.074 816.73 397.927ZM777.355 442.594C781.38 434.628 784.755 427.698 789.57 420.127C786.935 418.757 787.31 420.078 785.53 418.241C784.835 414.887 787.035 416.246 785.85 413.929L784.075 413.107C781.295 425.526 775.195 437.958 773.175 448.794C774.545 446.777 776.06 444.642 777.355 442.594ZM779.915 377.345C778.53 380.519 778.66 386.782 779.8 389.961L780.38 390.153L781.165 389.282C782.56 386.368 783.52 384.465 784.47 381.372C782.63 379.048 782.475 378.491 779.915 377.345ZM807.73 414.118C801.205 417.909 799.845 418.144 792.205 418.106C795.085 420.066 798.405 422.445 801.34 424.223C806.44 425.327 809.37 425.144 814.405 423.005C812.91 419.89 810.905 415.788 807.73 414.118ZM820.425 403.24C812.195 403.747 812.85 406.416 808.7 412.966C811.295 412.527 813.86 412.165 816.395 411.453C822.14 409.084 823.425 408.11 828.11 403.954C826.335 403.77 821.95 403.205 820.425 403.24ZM789.73 413.109C801.205 407.644 795.83 395.367 790.055 387.717C788.8 386.057 786.53 381.834 785.505 380.778C785.555 391.553 772.9 398.864 783.39 409.598C785.385 411.639 786.805 412.883 789.73 413.109ZM767.84 390.308C768.82 399.198 771.635 409.789 781.99 411.684C777.85 406.189 776.755 403.832 777.11 396.6C774.15 394.199 771.36 391.868 767.84 390.308Z" fill="black"/>
<path d="M793.33 376.823C797.905 378.339 809.595 381.846 809.98 387.331L809.39 387.993C805.93 387.241 801.55 379.885 795.25 379.215L794.67 379.77C795.195 381.589 795.665 381.978 796.84 383.427C800.74 386.734 804.955 389.119 810.155 389.302C812.055 389.368 812.465 389.468 814.22 390.03L814.4 390.548C807.03 393.55 789.915 385.909 793.33 376.823Z" fill="black"/>
<path d="M855.645 468.829L856.155 469.575C840.29 478.223 804.81 487.663 786.6 490.073C789.43 488.789 812.63 482.758 817.595 481.428C831.28 477.761 842.61 472.963 855.645 468.829Z" fill="black"/>
<path d="M857.41 446.875C859.815 449.909 858.97 466.499 856.155 469.576L855.645 468.829C856.865 467.039 856.64 451.362 856.79 447.762L857.41 446.875Z" fill="black"/>
<path d="M540.49 590.07C542.32 590.05 543.78 589.805 545.335 590.675L545.22 591.49C531.62 593.595 518.69 599.34 511.75 611.81C510.465 614.605 510.08 615.115 508.145 617.525C512.985 600.72 524.4 594.44 540.49 590.07Z" fill="black"/>
<path d="M530.89 584.705C537.335 584.055 543.315 584.84 548.82 588.425C539.015 585.845 532.66 585.73 522.635 587.92C519.58 588.565 512 592.73 508.585 594.335C515.855 587.31 521.18 585.715 530.89 584.705Z" fill="black"/>
<path d="M634.225 173.703C641.405 175.955 643.54 194.1 646.81 199.89C650.71 206.786 659.77 205.935 666.735 207.916C676.775 210.77 681.015 222.898 685.805 231.545C687.56 230.104 689.48 228.779 691.325 227.452C690.705 222.667 689.825 204.519 693.98 201.579L694.25 202.233C692.31 212.589 692.46 218.124 692.95 228.401C690.015 230.503 688.785 232.426 685.48 232.18C681.93 230.169 679.905 225.663 678.07 222.262C670.805 208.772 666.84 210.828 653.56 207.771C643.725 205.508 642.5 193.1 639.505 185.157C637.885 180.857 636.39 177.876 634.225 173.703Z" fill="black" fill-opacity="0.988235"/>
<path d="M570.385 166.273C572.415 167.201 575.65 173.905 580.695 177.417C595.195 187.507 609.695 187.353 624.15 177.34C625.825 176.179 630.29 172.361 631.82 172.102L631.69 173.162C614.795 193.949 581.485 191.3 570.385 166.273Z" fill="black" fill-opacity="0.984314"/>
<path d="M666.365 122.041C665.895 123.989 660.875 127.922 659.125 129.606C647.985 140.322 642.265 153.23 635.53 166.762C635.255 165.822 635.16 165.844 635.485 164.806C640.3 149.321 652.45 130.416 666.365 122.041Z" fill="black" fill-opacity="0.968627"/>
<path d="M640.745 233.185C643.12 232.966 646.4 233.269 648.85 233.406C632 237.101 630.505 235.723 613.575 244.609C611.125 246.017 609.15 246.82 606.575 247.912C616.35 240.117 628.18 234.339 640.745 233.185Z" fill="black" fill-opacity="0.988235"/>
<path d="M880.995 681.735C881.09 682.67 881.215 682.325 880.95 682.825C864.57 690.915 840.33 697.81 822.415 701.715C829.41 697.335 847.4 693.5 856.115 690.425C861.275 688.61 876.675 682.235 880.995 681.735Z" fill="black"/>
<path d="M591.285 194.52C580.065 194.812 571.065 194.215 562.255 186.139C558.505 182.704 551.625 171.145 554.595 166.568C555.625 168.296 555.515 172.179 556.38 174.242C565.05 194.963 588.19 196.873 605.845 187.113C599.505 192.996 597.125 191.97 591.78 195.232L591.285 194.52Z" fill="black" fill-opacity="0.980392"/>
<path d="M346.2 224.056C349.074 219.111 351.272 215.861 355.04 211.484C367.501 197.234 385.115 188.521 404.004 187.263C419.538 186.22 431.143 190.847 446.248 192.753C456.253 194.015 464.741 201.66 472.439 207.227C478.8 210.859 484.149 214.558 489.807 219.244C513.8 239.119 518.57 282.997 496.647 307.899C501.175 297.665 504.82 291.246 504.955 279.997L506.765 280.08L506.835 280.399C507.295 279.828 507.45 278.211 507.56 277.338C509.66 261.028 505.97 243.523 496.157 230.211C489.202 220.293 479.878 215.291 470.154 208.824C460.648 202.503 454.764 196.524 442.757 194.862C443.549 196.331 448.493 198.612 450.089 200.293C451.372 201.645 452.032 202.523 453.134 204.029C412.46 174.121 353.543 193.607 341.509 243.511C340.855 246.223 338.525 256.149 339.274 258.617L340.745 259.236C339.739 261.522 338.344 263.053 337.802 264.641C339.832 265.709 346.81 264.284 349.27 264.015C389.499 259.62 412.326 200.613 455.099 210.398C399.222 209.973 394.333 267.072 336.825 266.613C332.952 276.562 336.413 287.988 343.97 295.323C352.51 303.61 367.511 303.331 378.303 300.629C396.164 296.158 412.215 285.377 423.65 270.97C429.105 264.259 434.066 255.631 439.817 249.421C439.723 252.455 438.561 251.889 438.075 254.135C429.07 267.64 421.676 278.399 409.289 289.277C405.692 292.436 401.891 298.45 398.246 301.919C387.187 313.857 376.72 328.312 380.629 345.481C383.884 359.506 390.378 364.453 392.158 380.015C391.836 381.269 391.548 382.284 391.381 383.579C391.242 382.678 391.247 381.786 390.765 381.133C389.784 362.697 374.355 352.663 378.092 332.105C375.762 330.822 373.779 329.753 371.563 328.248C372.875 340.498 370.066 346.85 367.116 358.242C363.392 372.624 359.396 387.403 349.895 399.294C340.311 411.287 328.53 416.314 316.179 423.636C314.971 432.403 313.881 442.483 312.308 451.041C325.559 471.878 336.381 490.763 351.589 510.53C355.716 515.895 374.371 536.625 375.629 540.03L375.183 540.31C369.694 537.07 364.444 530.445 360.263 525.53C349.188 512.435 338.923 498.679 329.525 484.335C323.452 474.974 317.723 464.833 311.626 455.658C309.869 467.402 307.921 479.117 305.783 490.797C303.922 500.945 301.609 508.58 302.236 518.925C303.109 533.325 302.707 548.545 299.258 562.565C298.012 567.4 298.211 568.905 293.319 570.725C295.194 580.115 299.327 588.105 301.94 596.745C307.72 615.855 318.026 642.65 320.313 662.055C331.843 662.415 363.03 662.875 373.078 658.08C389.653 650.175 385.925 642.855 408.543 639.75C406.565 635.365 403.475 630.805 400.386 627.135C394.909 645.425 381.919 641.13 367.221 644.355C362.741 642.55 371.787 626.165 374.533 623.74C377.573 621.055 381.905 619.35 385.795 618.47C386.144 618.395 386.494 618.32 386.845 618.255C382.022 615.215 383.552 615.075 380.444 612.04C379.306 610.93 375.521 610.52 372.419 607.7L372.013 607.335C371.733 607.065 371.452 606.8 371.172 606.53C368.322 597.71 369.098 600.29 371.93 592.27C374.764 584.24 370.239 584.98 379.748 579.765C383.817 567.955 386.091 572.93 395.68 567.69C423.755 570.09 404.091 598.83 393.494 599.13L393.231 598.5C395.214 596.6 397.409 596.015 399.237 594.54C402.399 591.995 408.718 584.18 408.806 580.285C408.946 574.165 398.589 565.945 393.37 571.605C392.795 572.225 391.313 572.33 390.565 572.465C383.402 572.795 383.96 573.775 381.47 580.83C375.988 584.205 374.609 584.535 375.284 591.22C371.95 597.54 367.554 603.605 376.624 607.86C383.185 610.935 389.683 608.445 396.267 611.74C395.404 612.635 384.23 611.705 381.873 611.735C383.74 613.875 385.39 615.78 387.403 617.795C391.273 618.6 397.396 619.735 399.836 623.015L400.076 624.035C398.628 623.875 397.071 623.025 395.704 622.405C380.185 617.755 372.956 625.255 368.964 639.72L368.456 641.59L369.118 641.44C382.972 638.375 392.143 643.545 398.675 626.2L399.621 625.02L400.039 624.91C406.012 628.735 407.782 638.005 411.793 639.4L412.455 638.945C411.424 633.9 398.387 615.545 398.381 615.18C401.983 615.9 406.783 625.355 409.165 628.415C406.246 620.685 405.43 620.305 407.61 612.865C402.028 612.315 397.308 611.67 393.432 606.935C392.568 605.875 391.748 604.78 390.977 603.65C387.772 603.775 384.151 604.235 381.665 601.77C379.713 599.835 379.512 597.785 380.939 595.465L381.827 595.21C382.037 597.365 381.72 599.665 383.25 600.715C384.942 601.875 388.712 601.66 390.789 601.695C398.241 607.705 398.46 611.025 408.401 610.365C412.088 607.995 414.634 606.335 416.478 601.92C419.303 595.16 409.817 584.35 413.31 578.31C414.943 580.96 415.421 585.395 416.533 588.43C418.642 594.185 419.544 597.775 418.304 603.88C421.246 605.77 422.435 606.42 424.677 609.265C427.825 613.26 429.417 624.485 436.162 623.595L437.237 622.08C441.008 624.38 439.841 624.735 445.265 624.14C448.442 624.59 453.835 615.92 455.264 616.205C459.056 616.96 464.132 619.61 466.943 614.95C469.005 611.535 468.993 607.145 466.984 603.72C464.345 603.67 461.246 608.375 458.882 609.455C454.572 611.42 447.697 608.905 444.572 605.85L444.361 605.18C447.573 604.565 450.717 608.645 454.341 608.35C461.907 607.74 467.503 599.93 464.932 592.61C463.782 589.33 463.196 585.155 460.111 582.865C458.547 581.5 454.705 583.04 453.138 582.545C448.575 581.105 445.518 575.805 439.693 577.965C430.994 581.195 432.038 589.945 433.966 596.97C435.57 602.815 441.834 605.005 442.478 607C436.679 607.95 430.743 597.22 431.121 592.28C431.227 590.9 430.467 587.265 429.825 586.14C427.347 584.855 423.705 589.455 423.031 591.625C422.088 594.67 421.979 599.12 423.516 602.02C426.029 606.615 433.057 607.55 435.465 612.215C436.448 614.12 437.513 618.825 438.082 621.1C436.66 618.585 434.255 612.735 432.566 611.42C426.291 606.545 421.455 606.575 420.642 597.94C419.555 586.385 422.819 587.57 431.323 583.465C432.721 582.79 434.99 574.82 440.549 575.845C446.819 574.865 449.056 579.555 452.364 579.96C459.244 580.45 462.032 579.82 465.387 586.895C467.881 592.15 465.933 599.16 468.599 603.38C470.768 606.815 471.215 608.795 470.136 612.985C480.001 613.005 486.845 614.555 492.302 623.83C461.813 638.645 459.48 616.905 454.957 618.36C449.871 626.64 450.409 622.74 444.389 627.035L443.193 626.325C441.195 626.095 437.99 625.525 436.176 626L435.459 625.735C434.047 624.815 432.477 624.335 430.89 623.74C430.738 625.845 429.404 636.93 429.542 637.645C430.479 637.89 430.061 637.905 430.792 637.75L431.916 638.09C433.197 638.31 434.599 638.51 435.851 638.815L437.067 638.49C439.004 639.165 438.192 639.305 439.678 638.675C442.508 632.78 443.326 629.92 450.067 626.87C462.437 621.275 476.033 637.265 474.723 648.935C474.424 649.4 474.198 650.13 473.595 650.015C460.137 647.51 450.918 643.96 447.295 629.705C444.88 633.035 442.712 636.05 440.503 639.515C441.48 639.875 445.915 641.47 446.569 642.05C449.469 644.615 457.6 650.535 459.158 653.745C461.637 658.85 454.87 659.92 451.332 660.48C451.344 664.68 452.14 664.76 449.209 668.685C447.912 670.42 450.737 674.735 448.774 677.2C447.602 678.675 445.438 680.295 444.987 681.71C447.748 688.63 441.188 694.44 436.063 698.185C438.117 707.355 451.507 748.22 451.08 753.155C444.407 760.405 439.929 740.085 438.689 736.13C438.014 733.63 437.382 731.16 436.56 728.705C436.917 731.845 437.315 734.975 437.756 738.105C438.737 743.855 441.584 756.42 438.589 760.93C437.06 762.01 437.024 761.88 435.21 761.87C432.277 759.87 429.432 731.89 428.189 725.88C427.643 733.47 431.035 760.375 425.373 764.01C423.581 764.005 423.666 764.105 422.184 763.14C418.75 758.42 419.981 740.3 420.023 733.405C420.079 730.96 420.241 730.22 419.513 727.955C418.674 729.15 418.853 729.82 418.693 731.44C417.438 737.765 417.043 744.15 416.017 750.48C415.287 754.985 415.49 764.66 408.554 759.995C406.195 756.615 410.394 734.475 410.757 728.09L410.804 727.2C408.63 733.13 405.574 747.475 401.843 752.685C401.262 753.495 399.653 753.27 398.73 753.185C396.186 751.615 395.807 750.14 396.617 747.19C400.512 732.995 404.459 718.795 408.046 704.52C392.271 707.18 385.672 705.11 370.015 702.63C366.906 702.14 357.065 703.99 353.465 704.565L353.576 705.245L353.412 706.165C348.129 704.615 319.237 709.75 312.396 711.15C308.1 715.49 301.286 726.09 297.6 731.625C272.301 769.605 251.426 811.145 232.287 852.535C217.205 885.81 202.456 919.24 188.042 952.81C185.76 958.105 176.129 983.235 173.321 985.43L172.594 985.17C171.745 980.08 230.51 848.905 238.858 831.735C244.53 819.955 250.398 808.27 256.457 796.68C261.111 787.87 266.345 778.81 270.705 769.91L270.686 770.09L270.507 769.19C268.109 772.36 264.528 778.35 262.3 781.82C255.569 792.325 248.956 802.905 242.464 813.555C237.122 822.205 230.952 831.47 225.981 840.245C224.4 843.04 224.207 850.59 221.438 855.47C217.812 863.875 208.911 869.7 204.265 876.665C186.866 902.75 172.796 931.765 156.311 958.45C151.25 966.64 144.74 980.01 138.176 986.14C140.347 978.955 155.351 955.015 159.718 947.305C172.2 925.27 184.7 902.905 197.736 881.205C185.394 892.585 166.952 904.74 152.161 912.675C157.659 917.535 165.003 920.355 170.952 925.19C163.54 921.99 157.222 918.57 151.18 913.185C139.899 920.145 122.28 925.845 113.005 934.24C102.273 943.955 136.684 957.125 142.036 961.465L141.322 961.615C133.038 958.8 114.128 949.175 109.185 941.535C106.815 937.87 112.855 921.94 114.405 917.24L124.574 886.45C111.382 875.395 92.515 866.44 85.3435 850.015C82.419 843.32 85.585 836.05 88.1405 829.74C94.8545 813.16 100.742 795.965 108.347 779.765C93.6685 765.34 71.0335 740.225 72.3125 719.07C72.7355 712.08 86.428 686.9 90.442 678.795C98.3965 662.74 106.065 646.545 113.445 630.22C136.917 579.695 159.441 528.74 181.005 477.371C199.674 433.166 218.16 386.1 240.098 343.698C251.203 322.095 263.38 301.059 276.583 280.671C292.643 255.742 312.809 223.164 346.2 224.056ZM110.376 779.555C117.861 787.565 131.241 803.725 122.525 814.815L121.869 813.885C122.708 812.355 123.533 810.81 124.342 809.26C123.744 796.74 117.312 790.405 109.631 781.25C102.553 798.2 95.766 815.275 89.2725 832.455C89.845 833.26 89.543 833.01 90.036 833.35C75.1055 854.29 111.743 874.23 125.568 884.715C126.869 878.795 130.825 867.81 132.79 861.71L145.39 821.785C156.575 786.11 167.043 750.215 176.79 714.12C185.066 683.455 192.77 652.64 199.898 621.69L207.069 589.915C208.056 585.44 209.252 577.795 210.749 573.77C211.511 577.15 199.002 631.47 197.273 639.14C188.17 679.35 177.855 719.275 166.344 758.86C154.61 799.715 140.826 845.87 126.873 886.085C135.946 894.975 141.834 901.615 150.045 911.155C162.405 905.32 188.833 887.605 198.607 877.91C202.2 874.345 220.344 844.87 222.774 839.47C220.189 828.705 214.934 823.645 209.197 814.625C207.276 811.425 205.841 807.375 206.135 803.6C207.496 786.085 212.498 768.72 216.106 751.565C219.213 736.795 222.913 722.25 226.742 707.68C208.689 701.105 206.263 684.03 207.184 667.02C208.773 637.695 214.756 608.525 219.608 579.58C225.342 545.375 227.986 510.295 239.77 477.471C246.775 457.947 252.968 447.745 272.417 438.753C277.347 434.64 282.588 433.281 284.297 431.76C284.903 426.473 286.814 418.144 287.927 412.741C290.785 398.668 294.016 384.673 297.617 370.771C299.731 362.429 302.028 354.134 304.507 345.893C306.42 339.461 309.956 330.257 309.283 323.699L310.789 324.028L311.39 323.144L311.794 322.655L312.915 322.999C310.785 331.865 316.86 340.138 321.798 346.979C324.728 320.532 327.231 293.632 333.904 267.744C338.126 251.363 336.977 241.809 345.082 225.973C312.005 226.621 288.45 266.648 272.884 291.762C258.17 315.371 244.733 339.753 232.632 364.801C215.666 400.213 201.078 437.197 185.735 473.39C168.844 513.565 151.406 553.51 133.426 593.215C121.487 619.415 109.328 645.515 96.952 671.51C92.4745 680.6 87.9485 689.665 83.374 698.705C80.8255 703.775 76.883 711.11 75.0865 716.23C72.833 722.65 76.2885 733.63 79.147 739.445C85.917 753.215 98.298 767.015 109.068 778.01C140.015 705 175.129 635.435 197.161 558.965C198.521 554.245 212.469 506.34 213.705 504.58C213.96 506.34 207.818 527.685 206.885 531C198.168 562.515 188.245 593.685 177.137 624.435C167.09 651.59 153.719 681.4 141.908 707.99C131.599 731.2 121.036 756.725 110.376 779.555ZM219.681 700.77C222.812 702.885 224.209 703.425 227.669 704.905C229.667 694.605 233.207 683.34 236.05 673.165C246.94 634.19 259.327 594.72 265.886 554.695C268.933 536.105 270.841 516.605 273.597 497.81C275.211 486.77 276.918 475.744 278.72 464.732C279.588 459.385 281.165 451.323 281.675 446.116C280.205 443.758 279.273 441.923 277.181 440.087L276.337 440.015C258.309 448.163 250.711 456.52 243.782 475.123C232.805 504.595 228.293 538.755 224.184 569.815C220.632 596.665 202.91 669.095 213.191 691.745C214.725 695.16 216.932 698.23 219.681 700.77ZM262.358 710.005C287.087 711.84 314.008 707.72 338.433 704C348.969 702.4 357.915 700.205 368.68 699.795C376.219 699.505 381.431 702.05 387.038 702.425C396.919 704.03 405.475 701.79 415.254 700.585C427.187 699.115 438.739 697.935 443.36 684.72L443.103 683.655C439.581 683.02 434.487 687.96 430.401 689.39C425.506 691.105 415.899 692.2 411.761 688.68L411.315 687.545C413.708 683.215 441.843 684.965 445.721 676.62C447.048 673.765 446.985 673.16 445.743 670.725C440.766 670.22 416.687 675.46 411.994 671.97C416.618 668.235 447.906 671.26 449.046 663.465C450.616 652.73 413.798 661.13 410.33 656.115C412.506 652.605 428.745 651.435 433.068 651.3C436.799 651.18 446.341 653.855 448.99 652C453.757 642.215 429.523 640.28 423.934 640.715C412.444 641.735 397.37 642.28 388.908 650.615C377.289 662.055 368.629 663.245 352.981 664.53C326.042 666.745 295.471 664.575 269.793 655.555C267.476 673.89 264.158 691.235 262.358 710.005ZM257.444 651.365C261.181 651.54 263.556 651.85 267.268 652.62C268.047 644.29 270.242 635.245 272.386 627.05C279.693 599.135 285.852 570.96 292.234 542.815C294.641 532.205 297.986 521 298.832 510.19C298.371 497.415 294.28 482.378 290.981 470.071C290.17 467.043 285.053 451.156 283.258 449.327C281.083 458.777 279.792 469.424 278.143 479.104C273.534 506.155 270.617 534.27 266.079 561.27C260.859 592.335 251.503 624.805 243.037 655.185C248.121 652.635 251.601 651.43 257.444 651.365ZM262.118 712.91C261.289 719.84 260.533 726.78 259.851 733.725C258.462 747.365 257.997 760.27 246.226 769.395C234.982 778.115 211.597 786.51 208.695 802.17C206.943 811.625 216.126 819.875 220.509 827.775C222.553 831.535 223.311 832.93 224.518 837.15C229.959 829.215 234.716 820.625 239.834 812.455C254.618 788.86 269.169 764.98 285.06 742.105C287.219 739 307.319 712.355 307.401 711.835C306.004 711.215 306.504 711.505 304.595 711.72C292.324 712.745 274.155 714.51 262.118 712.91ZM208.348 796.085C213.31 788.72 218.21 784.31 225.704 779.435C237.335 772.5 252.076 765.91 254.98 752.01C257.586 739.535 258.036 725.375 259.836 712.69C249.674 711.67 238.197 710.63 228.382 707.775C221.125 737.075 214.445 766.52 208.348 796.085ZM270.442 652.76C278.954 655.625 291.354 658.155 300.283 660.11C305.914 660.835 311.953 661.725 317.582 662.16C313.502 637.54 303.152 610.4 295.189 586.73C294.165 583.685 290.526 570.045 289.677 568.35C286.187 585.025 281.787 602.065 277.893 618.695C275.225 630.08 273.076 641.47 270.442 652.76ZM310.761 329.81C307.659 341.413 304.127 352.884 301.056 364.491C295.224 386.509 290.305 408.759 286.311 431.184C293.747 431.437 303.883 426.172 310.819 423.152C311.984 422.476 313.67 421.928 313.827 420.465C316.353 396.845 319.716 372.949 321.606 349.289C315.854 343.64 312.928 337.447 310.761 329.81ZM332.324 297.85L330.548 298.115C329.586 300.367 326.7 324.471 327.366 327.392L326.416 328.336C325.712 333.547 324.588 343.666 324.364 348.898C331.586 353.833 336.254 356.148 345.479 354.762C353.614 353.54 361.417 346.914 363.249 338.744C364.078 338.432 363.759 338.354 364.213 338.545C360.446 356.092 344.446 359.189 329.343 354.964C340.537 362.441 352.429 365.422 363.97 356.331C368.893 344.082 369.335 338.884 369.542 326.059C363.194 318.93 361.984 314.391 360.912 305.062C345.727 301.989 336.858 295.965 333.487 280.246C332.292 286.949 330.921 291.14 332.324 297.85ZM343.288 402.406C355.18 389.215 359.383 376.862 363.873 359.716C349.041 369.804 334.714 364.116 324.034 351.782C322.58 366.855 321.001 381.917 319.298 396.965C318.533 403.761 317.655 413.413 316.346 419.936C326.771 414.721 334.31 410.147 343.288 402.406ZM245.809 708.315C249.827 708.78 256.437 709.34 260.211 710.125C261.437 693.01 264.88 671.895 267.628 654.8C262.549 653.77 260.05 653.29 254.816 653.66C250.126 654.3 247.262 655.3 242.736 656.67C237.499 672.71 233.587 688.915 229.242 705.165C234.021 706.38 240.884 707.85 245.809 708.315ZM283.793 445.277C291.584 461.493 298.672 488.107 299.832 506.19C303.574 492.434 307.699 465.771 309.724 451.412C308.743 450.038 307.678 448.599 306.763 447.193C302.545 441.514 299.414 437.618 294.406 432.642C291.671 433.146 288.509 433.946 285.76 434.572C285.284 438.302 284.567 441.594 283.793 445.277ZM312.873 424.865C307.784 427.427 302.644 430.051 297.181 431.725C300.651 435.514 305.329 440.935 307.905 445.456C308.684 446.622 308.666 446.662 309.718 447.564C310.958 444.224 312.918 428.588 312.873 424.865ZM478.875 626.325C482.298 625.21 485.715 624.075 489.127 622.925C483.054 616.105 478.755 614.71 469.71 615.145C465.871 619.085 465.438 618.95 460.37 620.535C466.19 626.645 470.386 628.035 478.875 626.325ZM433.211 699.165L431.661 700.645C431.91 707.535 443.767 749.2 447.967 753.05C448.901 751.625 448.936 751.84 448.408 749.595C444.792 734.22 436.647 714.95 434.302 699.665L433.211 699.165ZM410.25 703.82C409.499 711.045 398.387 748.575 399.064 750.36C400.167 750.5 399.899 750.545 400.97 750.395C403.565 743.11 414.645 709.805 412.899 704.18C411.62 703.735 411.624 703.805 410.25 703.82ZM409.023 628.27L411.517 632.695C412.347 634.585 413.193 636.64 414.11 638.475L414.101 638.695C418.715 638.415 423.331 638.17 427.949 637.955C428.259 634.85 430.422 623.455 428.194 621.705C427.048 627.44 425.659 631.08 422.465 636.095C417.311 633.335 413.614 631.925 409.023 628.27ZM284.026 435.212C282.206 435.786 279.198 436.553 277.759 437.613C280.003 439.665 280.842 440.683 282.696 442.985C283.045 439.794 283.287 438.33 284.026 435.212ZM221.801 847.375C219.896 850.32 209.967 865.795 209.67 867.985C212.626 864.725 222.837 851.565 221.801 847.375ZM426.867 702.785C428.825 720.565 433.419 738.295 435.106 756.185C435.214 757.325 435.962 758.53 436.662 759.415L437.336 759.475C439.449 755.21 431.607 708.505 429.779 701.33L429.479 701.11C425.819 702.23 424.337 702.39 420.51 702.85C421.978 711.23 421.347 758.225 423.647 761.39L424.466 761.565C425.878 760.365 425.877 758.535 426.03 756.725C426.616 749.77 424.748 705 426.627 702.99C426.699 702.91 426.787 702.855 426.867 702.785ZM442.121 655.1C438.095 654.195 434.174 653.16 430.039 653.695C428.283 653.905 426.318 653.89 425.064 655.005L425.625 654.445L424.339 654.955C427.109 655.47 430.03 655.2 432.875 655.1C435.973 655.175 439.033 655.33 442.121 655.1ZM420.378 688.255C423.401 688.19 427.914 688.05 430.526 686.39L430.144 686L428.858 686.2C426.601 686.49 420.201 687.11 418.494 687.915C419.602 688.27 419.235 688.24 420.378 688.255ZM378.254 329.878C384.145 310.228 393.401 305.966 405.204 291.912L404.905 291.561C391.899 300.052 379.134 305.113 363.457 305.051C364.89 313.155 365.664 316.382 370.814 323.058C373.402 325.676 375.28 327.694 378.254 329.878ZM417.264 606.97C414.716 609.135 413.17 610.24 410.392 612.105C405.111 623.275 411.463 628.485 420.94 632.935L421.374 633.135L422.18 632.95C429.009 621.83 427.465 614.485 418.841 605.5L418.202 605.31L417.264 606.97ZM290.987 562.35L293.569 567.785L294.341 568.315C297.602 564.19 302.61 527.01 299.234 523.845C296.657 535.805 292.933 550.625 290.987 562.35ZM110.984 933.04C116.525 928.125 118.842 926.92 125.624 923.785C133.159 920.22 142.099 915.815 149.291 911.56C143.963 905.965 131.697 891.735 126.099 888.18L116.624 916.4C114.893 921.6 113.01 928.04 110.984 933.04ZM452.3 658.4C454.12 657.75 454.945 657.65 456.185 656.165C456.814 653.22 454.423 652.36 452.146 651.215C451.061 654.56 450.291 653.775 448.159 656.225C449.087 657.56 450.536 657.83 452.3 658.4ZM415.951 702.925C414.567 704.045 414.724 703.505 414.614 705.46C413.653 722.525 411.921 739.57 409.83 756.53C409.773 756.99 409.982 757.755 410.095 758.19C411.305 759.07 410.637 758.865 412.185 758.75C413.938 751.545 419.661 709.56 419.262 703.335C417.689 702.945 417.582 702.955 415.951 702.925ZM452.421 628.08C450.357 628.795 449.966 628.49 449.166 629.92C452.445 641.44 460.532 644.395 470.88 647.2L472.004 647.365C472.744 645.795 471.786 643.735 471.288 642.18C468.337 632.975 462.657 627.25 452.421 628.08Z" fill="black"/>
<path d="M335.161 237.901L335.594 238.031C335.626 238.61 329.358 242.549 328.035 243.557C300.218 264.765 284.568 296.607 270.667 327.764C250.157 373.734 234.84 421.32 220.044 469.339L219.854 469.543L219.509 469.167C221.488 459.542 228.013 439.291 231.125 429.27C241.705 394.819 254.265 361.007 268.74 328.002C283.007 295.776 302.668 255.017 335.161 237.901Z" fill="black" fill-opacity="0.976471"/>
<path d="M332.695 253.006C332.807 253.908 329.853 257.637 328.996 258.964C322.831 268.515 315.971 278.817 310.78 288.915C286.849 335.466 268.977 385.377 253.333 435.172C252.587 432.6 259.33 412.733 260.603 408.825C276.147 361.098 293.776 312.653 320.289 269.828C323.412 264.784 328.597 257.069 332.695 253.006Z" fill="black" fill-opacity="0.976471"/>
<path d="M272.457 715.895C273.426 719.64 266.276 749.81 264.821 755.18C263.899 752.755 271.205 719.98 272.457 715.895Z" fill="black" fill-opacity="0.960784"/>
<path d="M287.115 597.29C288.104 599.78 281.726 644.74 280.754 651.155C279.53 645.915 285.657 603.735 287.115 597.29Z" fill="black" fill-opacity="0.956863"/>
<path d="M286.311 431.184C293.747 431.436 303.883 426.172 310.819 423.151L312.461 423.825L312.874 424.865C307.785 427.427 302.644 430.05 297.181 431.724C300.651 435.514 305.329 440.935 307.905 445.456L306.763 447.193C302.545 441.513 299.415 437.618 294.406 432.642C291.671 433.146 288.509 433.946 285.76 434.572L284.026 435.211C282.206 435.786 279.198 436.552 277.759 437.612L277.487 438.953C275.812 439.982 273.86 440.354 272.417 438.753C277.347 434.64 282.588 433.281 284.297 431.76L286.311 431.184Z" fill="#383739"/>
<path d="M324.56 283.89C325.71 280.962 331.665 265.083 333.148 263.905C331.904 268.906 327.286 280.319 325.316 285.803C320.928 298.021 317.283 310.957 312.915 322.999L311.794 322.655C314.643 310.369 320.636 296.763 324.371 284.548C315.032 292.873 307.608 310.918 311.39 323.144L310.789 324.028L309.283 323.699C307.802 308.696 311.181 292.536 324.56 283.89Z" fill="black" fill-opacity="0.972549"/>
<path d="M428.194 621.705C430.422 623.455 428.259 634.85 427.949 637.955C423.331 638.17 418.715 638.415 414.1 638.695L414.11 638.475C413.193 636.64 412.347 634.585 411.517 632.695L409.023 628.27C413.614 631.925 417.31 633.335 422.465 636.095C425.658 631.08 427.048 627.44 428.194 621.705Z" fill="black" fill-opacity="0.01"/>
<path d="M327.366 327.391C331.168 334.326 335.196 339.514 343.119 341.703C355.542 345.135 362.337 339.783 366.228 328.981C365.808 332.059 365.375 335.674 364.213 338.544C363.759 338.353 364.077 338.432 363.249 338.744C353.838 347.706 341.373 346.18 332.326 337.254C329.464 334.43 328.224 331.847 326.416 328.336L327.366 327.391Z" fill="black" fill-opacity="0.980392"/>
<path d="M332.324 297.85C335.32 308.626 341.711 317.88 353.628 318.95C355.646 319.131 360.058 317.243 360.943 317.852C360.212 319.054 358.718 319.759 357.376 320.024C342.571 322.952 334.404 309.918 330.548 298.114L332.324 297.85Z" fill="black" fill-opacity="0.976471"/>
<path d="M121.869 813.885L122.525 814.815C116.378 821.075 106.558 824.1 98.822 828.325C97.0745 829.28 91.2275 832.87 90.036 833.35C95.391 825.285 113.749 822.47 121.869 813.885Z" fill="black" fill-opacity="0.941176"/>
<path d="M221.801 847.375C222.837 851.565 212.626 864.725 209.67 867.985C209.967 865.795 219.896 850.32 221.801 847.375Z" fill="black" fill-opacity="0.0431373"/>
<path d="M430.039 653.695C434.174 653.16 438.095 654.195 442.121 655.1C439.033 655.33 435.973 655.175 432.875 655.1C430.03 655.2 427.109 655.47 424.339 654.955L425.625 654.445L425.064 655.005C426.317 653.89 428.283 653.905 430.039 653.695Z" fill="black" fill-opacity="0.0156863"/>
<path d="M417.264 606.97C418.562 609.23 418.247 621.21 417.642 623.545C416.192 617.75 416.116 612.775 417.264 606.97Z" fill="black" fill-opacity="0.937255"/>
<path d="M428.858 686.2L430.143 686L430.526 686.39C427.914 688.05 423.401 688.19 420.378 688.255C419.235 688.24 419.602 688.27 418.493 687.915C420.201 687.11 426.601 686.49 428.858 686.2Z" fill="black" fill-opacity="0.0862745"/>
<path d="M388.251 527.66C385.703 523 379.314 508.275 387.537 505.955C394.381 507.635 391.053 522.925 390.392 528.1C386.925 523.375 392.785 512.5 387.679 507.81C381.621 509.335 388.916 527.89 390.1 531.515C391.594 533.92 394.823 535.105 396.907 532.715C399.485 529.765 401.332 532.145 403.845 531.25C401.296 527.495 397.633 517.185 404.322 516.23C406.157 516.775 406.415 517.175 407.933 518.485L408.414 518.91C409.899 517.705 409.089 513.41 412.742 512.15C417.976 510.345 424.805 510.6 430.156 511.775C431.314 512.03 431.923 514.735 432.272 515.725C434.648 517.695 435.531 514.63 438.061 517.21C439.263 520.75 437.375 526.62 434.953 529.295L434.187 529.3C433.648 526.515 437.755 522.08 436.358 518.46L435.539 518.12C431.499 519.115 427.195 518.735 424.808 520.915C420.829 524.55 421.55 536.11 421.466 541.565C418.967 532.35 416.488 527.98 409.11 521.775C407.188 520.16 406.592 518.94 404.131 517.745L403.28 518.165C402.539 519.72 402.582 521.445 402.622 522.96C402.855 531.8 405.408 529.21 410.063 533.325C411.99 535.025 410.64 546.49 410.464 549.96L410.487 549.99C412.726 549.965 414.039 550.48 416.017 550.52C418.345 547.945 415.712 538.685 425.819 539.92C430.286 540.465 429.55 545.5 431.445 548.135C431.937 548.82 438.635 545.755 440.241 546.73C444.863 547.655 445.712 553.465 444.294 557.14C443.757 558.53 439.781 560.285 439.347 562C441.716 563.895 444.551 566.685 442.847 569.725C437.634 579.035 433.232 575.76 427.072 573.575C424.486 573.955 423.399 575.935 421.213 577C419.756 577.71 418.354 577.625 416.886 577.06C405.857 572.8 413.3 567.8 411.389 565.02C409.843 562.77 405.59 562.72 404.34 558.98C402.411 553.21 407.118 553.55 408.319 550.135C409.468 546.87 408.033 541.815 406.761 538.68C406.146 537.17 404.954 534.525 403.261 533.975C401.215 533.31 399.064 534.21 397.194 535.02C395.242 535.87 394.215 536.08 392.032 535.955C391.816 535.945 391.599 535.925 391.383 535.91C379.131 543.575 381.588 546.47 392.057 554.96C388.272 553.585 381.687 548.045 378.679 550.26C377.705 554.165 382.851 557.365 385.53 559.595C394.694 553.22 393.017 562.195 399.519 564.35C401.561 564.265 405.645 561.795 407.892 560.665C398.377 570.065 399.102 566.23 391.378 559.905C388.432 557.49 386.564 563.625 384.573 564.61C382.859 564.22 382.297 564.125 380.553 563.97C377.206 565.065 375.735 572.365 370.54 572.43C368.984 570.385 369.028 564.81 368.459 562.455C366.86 555.835 371.155 556.44 372.327 552.825C371.895 549.995 370.618 547.74 367.566 547.225C362.794 549.03 365.416 551.87 365.672 555.755C364.006 557.535 363.978 555.715 362.147 557.135C362.55 562.08 365.738 567.485 367.605 572.305L367.367 572.775C364.182 569.88 357.24 557.92 361.216 554.745L363.228 555.005C364.045 554.16 359.867 547.075 366.925 544.525C371.667 544.73 373.475 549.235 374.306 553.21L374.453 553.94C371.132 556.515 371.103 557.245 369.827 561.235C370.31 563.775 370.842 568.365 373.573 569.3C375.591 568.12 375.702 565.445 377.237 563.65C379.544 560.945 382.157 562.45 384.745 561.475C384.251 558.825 374.627 557.26 376.428 549.655C378.114 547.85 378.376 548.46 381.095 547.41C381.699 546.265 381.843 546 381.562 544.585C380.493 539.2 385.477 536.93 389.83 534.1C387.507 530.145 381.69 519.31 375.617 522.585C374.956 527.825 381.196 529.47 384.913 530.515L384.537 531.185C382.442 531.71 380.741 532.15 378.646 530.955C376.042 529.135 371.355 523.815 374.93 520.9C376.973 519.24 380.5 520.11 382.476 521.52C384.537 522.985 386.563 525.595 388.251 527.66ZM421.434 558.06C418.116 554.635 416.318 552.39 411.089 552.33C404.448 552.25 405.337 558.185 409.147 561.335C411.785 563.52 416.076 561.725 418.909 563.37L419.005 563.95C416.648 565.27 413.21 565.995 412.698 568.735C411.839 573.34 418.974 576.78 422.42 573.93C424.332 572.35 425.006 570 426.461 568.265C427.717 570.67 428.242 572.25 431.196 573.51C435.709 575.43 443.527 569.755 439.93 565.055C439.025 563.875 433.708 562.355 431.707 561.545C435.653 560.65 439.395 560.12 441.685 556.51C445.162 551.025 439.842 546.9 434.696 549.745C431.471 551.525 430.07 553.835 428.134 556.705C429.067 550.6 431.389 543.725 423.625 541.935C415.385 544.765 419.618 552.095 421.434 558.06ZM420.485 525.02L420.677 524.4C424.127 513.56 428.906 520.71 431.431 515.29C429.893 512.475 424.84 513.67 422.041 513.555C419.714 513.46 418.006 512.785 415.631 513.05C411.726 515 409.39 517.815 412.402 522.07C415.674 526.695 417.936 528.29 420.201 533.795C420.195 531.18 420.04 527.505 420.485 525.02ZM409.495 539.685C409.503 537.715 409.743 535.86 408.789 534.19C406.949 533.04 407.431 533.405 404.928 533.35C406.02 535.055 408.037 538.58 409.495 539.685Z" fill="black"/>
<path d="M423.954 556.725C425.388 556.15 427.022 556.405 428.211 557.395C429.401 558.38 429.954 559.94 429.653 561.455C429.352 562.97 428.245 564.2 426.769 564.66C424.61 565.325 422.309 564.175 421.553 562.045C420.798 559.915 421.857 557.57 423.954 556.725ZM426.265 562.87C427.495 562.46 428.191 561.16 427.852 559.91C427.513 558.66 426.257 557.89 424.989 558.16C424.102 558.345 423.392 559.01 423.144 559.88C422.895 560.75 423.149 561.69 423.803 562.315C424.458 562.94 425.405 563.155 426.265 562.87Z" fill="black"/>
<path d="M725.09 776.295L726.04 777.245C727.185 781.135 727.345 810.045 727.64 816.125C728.65 842.265 729.78 867.915 733.045 893.88C734.74 907.34 739.745 917.795 742.465 928.575C744.575 936.935 755.11 978.55 753.895 984.705L753.26 985.035C752.945 984.84 752.63 984.64 752.315 984.445C748.935 971.63 745.215 951.91 742.1 939.63L740.57 932.8C740.48 938.69 736.91 983.25 734.13 984.98C731.5 978.375 738.815 938.155 738.505 928.18C738.36 920.7 734.88 913.575 733.53 906.29C727.14 871.775 726.63 836.35 725.42 801.36C725.13 792.98 725.47 784.63 725.09 776.295Z" fill="black"/>
<path d="M464.072 213.005C474.061 218.478 478.679 222.276 480.725 234.032C472.114 235.507 465.639 239.666 460.968 247.07C447.554 268.333 438.536 294.073 415.341 307.29C399.612 316.253 382.131 320.891 386.387 344.11C388.906 357.967 398.315 368.698 393.323 383.528L392.405 380.029C397.03 355.835 368.933 346.591 393.077 315.059L393.966 316.199L394.707 316.193L395.331 315.759C399.653 312.792 404.817 310.252 409.464 307.704C429.429 296.76 440.699 278.85 450.586 259.133C456.786 246.769 463.925 233.538 479.143 232.679C474.917 220.34 472.393 221.171 464.072 213.005Z" fill="black"/>
<path d="M473.461 714.255C476.952 718.16 482.308 732.895 484.176 738.21C501.215 786.705 513.735 837.64 524.82 887.78C528.05 902.32 531.12 916.895 534.035 931.505C536.235 941.995 538.83 953.22 540.575 963.69C538.31 959.905 523.715 889.55 521.775 880.915C517.575 862.22 513.095 843.585 508.335 825.025C501.65 798.525 494.011 772.275 485.433 746.33C482.703 738.095 479.83 730.01 476.278 722.095C475.103 719.475 474.084 717.08 473.461 714.255Z" fill="black"/>
<path d="M354.582 719.79C355.436 721.685 349.538 746.39 348.611 750.605L335.661 808.98C323.878 863.12 311.768 917.19 299.332 971.185C298.558 968.725 305.545 938.765 306.537 934.26L319.638 874.45C331.029 823.375 341.99 770.48 354.582 719.79Z" fill="black" fill-opacity="0.984314"/>
<path d="M352.85 716.91C352.922 719.07 343.71 736.1 342.14 739.54C336.678 751.51 331.797 763.7 326.875 775.9C313.535 809.285 300.934 842.96 289.08 876.9C283.201 893.605 277.564 911.655 271.357 928.075C270.999 926.04 276.938 908.855 278.137 905.165C296.274 849.41 316.723 794.21 340.068 740.415C342.258 735.37 349.164 720.23 352.85 716.91Z" fill="black" fill-opacity="0.988235"/>
<path d="M393.716 576.57C395.722 576.44 397.909 576.32 399.69 577.405C400.886 578.13 401.744 579.305 402.073 580.665C402.78 583.585 401.314 587.695 399.572 589.99C396.159 594.49 394.95 595.02 389.836 596.035C373.378 593.985 383.247 579.6 393.716 576.57ZM389.59 594.02C393.98 593.275 395.94 592.175 398.396 588.385C401.802 583.13 401.702 578.95 394.785 578.02C390.089 579.565 382.477 584.74 383.19 590.36C384.788 593.35 386.418 593.43 389.59 594.02Z" fill="black"/>
<path d="M392.228 581.395C394.627 581.465 396.142 581.28 396.759 583.815C395.487 587.215 393.129 588.24 390.082 590.1C387.995 591.11 388.256 591.05 386.814 590.545C385.275 586.625 389.126 583.12 392.228 581.395ZM390.255 588.785C392.042 587.58 393.59 586.79 394.739 585.01L394.661 583.87C393.515 582.99 393.61 583.03 392.184 582.79C390.586 584.175 388.219 586.19 388.179 588.47C389.345 589.22 388.697 589.005 390.255 588.785Z" fill="black" fill-opacity="0.960784"/>
<path d="M367.82 610.46C371.916 610.49 374.913 613.275 377.95 615.73C376.469 619.13 376.088 619.98 373.923 622.985C372.356 623.69 370.527 624.285 368.885 624.865C354.238 628.545 356.599 615.455 367.82 610.46ZM369.293 622.59C372.159 621.36 373.541 620.85 374.783 618.005C374.538 613.675 370.247 612.67 366.555 612.98C363.739 615.23 359.155 618.985 362.263 622.715C364.659 623.8 366.716 623.13 369.293 622.59Z" fill="black"/>
<path d="M343.801 549.4C352.788 549.275 355.742 558.21 357.814 565.37C354.56 561.29 351.058 551.26 345.028 551.615L344.334 552.455C343.606 559.355 358.757 565.765 363.026 571.4C366.344 575.78 371.853 573.8 373.661 581.415L373.201 581.68C370.833 579.08 369.465 577.65 366.6 575.615C363.792 577.435 363.527 577.39 361.52 580.16C361.871 588.335 357.212 588.3 364.078 594.805C364.98 602.85 365.28 601.245 370.137 606.255L370.113 607.065C364.519 607.53 362.336 600.89 362.394 596.35C353.42 587.52 360.018 581.775 363.208 574.455C364.554 571.37 336.055 559.805 343.801 549.4Z" fill="black"/>
<path d="M439.817 249.421C444.314 243.191 455.891 227.631 464.384 228.638C463.905 229.543 459.5 230.65 458.336 231.541C436.683 248.13 436.779 277.743 417.182 296.337C413.156 300.157 395.514 312.499 394.707 316.193L393.966 316.199L393.077 315.059C398.918 308.994 403.337 305.872 409.781 300.866C420.451 292.577 428.178 280.391 432.98 267.919C434.52 263.92 437.503 258.413 438.075 254.135C438.561 251.889 439.723 252.455 439.817 249.421Z" fill="black" fill-opacity="0.968627"/>
<path d="M467.09 525.905C473.489 527 470.199 530.565 477.554 526.44C480.597 524.73 481.97 531.14 483.703 532.57C495.046 535.79 486.433 537.23 491.345 543.215C492.867 545.07 493.677 545.765 493.642 548.175C492.09 550.795 489.75 551.73 487.004 552.82C482.155 552.12 478.235 550.96 474.383 547.585L474.707 547.13C478.749 547.35 478.826 548.11 482.386 549.645C485.33 550.815 489.992 550.94 491.696 547.865C491.236 545.005 488.735 544.2 486.315 542.225C486.981 540.24 487.959 538.56 487.451 536.505C485.954 534.74 484.811 534.91 482.3 534.575C479.544 532.615 479.953 528.955 477.199 528.365C474.789 529.915 473.686 532.69 472.429 535.235C471.588 532.23 471.428 530.045 469.091 528.26C466.981 527.785 467.982 527.715 465.974 528.445C464.432 529.965 464.19 532.48 463.463 534.815L462.171 534.29C460.533 530.965 464.21 527.33 467.09 525.905Z" fill="black"/>
<path d="M472.46 715.29C473.034 716.575 475.797 731.405 476.228 733.56C482.464 763.92 488.106 794.405 493.15 824.985C494.058 830.585 497.224 848.125 496.888 852.77C495.9 849.7 494.458 839.055 493.871 835.385C492.222 825.195 490.476 815.02 488.634 804.865C483.615 776.765 477.95 748.885 472.487 720.875C472.073 718.755 471.925 717.385 472.46 715.29Z" fill="black" fill-opacity="0.964706"/>
<path d="M348.643 597.56C356.9 597.065 361.98 600.94 365.847 607.93C353.578 597.325 348.637 596.735 335.349 607.085C341.996 611.99 345.699 613.04 353.793 613.385C359.219 612.295 361.226 609.235 369.283 607.765C354.815 618.285 346.437 618.085 332.224 607.675C336.702 602.11 341.84 599.27 348.643 597.56Z" fill="black"/>
<path d="M401.848 278.516L402.199 278.773C401.984 279.029 401.769 279.284 401.555 279.539C385.922 291.06 363.747 296.91 346.051 286.542C342.583 284.51 340.534 282.591 338.012 280.361C337.205 279.906 337.555 280.229 337.031 279.322C338.703 279.012 341.899 282.042 343.473 283.102C346.767 285.3 350.368 286.999 354.159 288.144C372.19 293.457 386.578 286.874 401.848 278.516Z" fill="black" fill-opacity="0.976471"/>
<path d="M320.499 441.603C323.977 441.299 337.734 444.741 342.249 445.535C355.948 447.944 369.894 449.147 383.387 452.403C385.911 453.012 388.189 454.89 390.018 456.635C384.903 455.26 381.603 453.364 375.49 452.398C364.641 450.684 329.712 446.484 320.499 441.603Z" fill="black"/>
<path d="M339.274 258.616C340.378 257.313 344.679 248.528 346.632 245.752C357.293 230.462 372.377 218.798 389.857 212.324L390.148 213.236C366.44 223.542 353.34 236.616 340.745 259.235L339.274 258.616Z" fill="black" fill-opacity="0.964706"/>
<path d="M443.436 587.97C450.726 587.565 454.901 592.8 451.465 599.425C446.016 599.025 439.696 593.55 443.436 587.97ZM450.374 597.495C452.456 592.655 448.66 589.615 443.928 589.385C442.71 594.62 446.104 595.91 450.374 597.495Z" fill="black" fill-opacity="0.984314"/>
<path d="M485.02 362.815C486.821 367.261 488.816 375.312 490.376 380.211C494.767 393.992 498.654 408.204 503.8 421.724C499.483 419.362 484.932 369.58 485.02 362.815Z" fill="black" fill-opacity="0.984314"/>
<path d="M469.487 430.972L470.153 431.244C464.288 437.837 431.558 446.158 422.66 450.329L422.059 450.262C425.114 445.982 437.266 443.499 442.493 441.732C451.661 438.585 460.669 434.994 469.487 430.972Z" fill="black"/>
<path d="M485.697 234.578C497.201 239.424 503.58 256.575 505.42 267.965C506.075 272.033 506.15 276.137 506.765 280.079L504.955 279.996C504.725 270.011 503.62 263.026 499.745 253.599C497.296 247.639 491.319 238.124 485.2 235.678L485.697 234.578Z" fill="black" fill-opacity="0.972549"/>
<path d="M390.1 531.515C388.916 527.89 381.621 509.335 387.679 507.81C392.785 512.5 386.925 523.375 390.392 528.1L391.388 528.975L390.894 531.255L390.1 531.515Z" fill="black" fill-opacity="0.01"/>
<path d="M444.027 513.5C448.319 512.895 451.621 514.09 453.413 518.27C454.549 520.925 455.696 527.27 454.661 530.03L453.886 529.86C453.088 528.25 452.874 523.2 452.142 520.315C447.85 509.19 443.119 517.045 439.512 522.345L438.991 522.24C438.104 518.39 441.122 515.345 444.027 513.5Z" fill="black"/>
<path d="M484.569 697.94L485.009 698.1L485.223 698.735C479.083 704.12 457 706.975 448.915 707.03L448.337 706.895C449.707 706.105 453.238 705.89 455.007 705.585C464.924 703.875 475.254 701.76 484.569 697.94Z" fill="black" fill-opacity="0.984314"/>
<path d="M354.461 572.1C356.761 572.015 358.779 571.735 360.517 573.31C358.76 574.86 350.077 572.64 351.893 579.29C353.359 581.065 352.48 580.405 354.681 581.275C355.865 581.69 356.703 581.825 357.454 582.805L357.021 583.52C350.515 585.435 345.162 575.885 354.461 572.1Z" fill="black"/>
<path d="M443.017 583.495C445.518 583.495 446.618 583.595 448.971 584.285L448.767 584.915C443.365 586.305 435.095 586.335 440.95 594.935C442.33 595.85 442.703 595.72 443.047 596.93L442.2 597.11C434.03 593.48 435.619 587.11 443.017 583.495Z" fill="black"/>
<path d="M394.859 623.98L399.621 625.02L398.674 626.2C385.933 623.85 378.916 634.43 376.251 635.005C375.571 629.625 390.486 624.41 394.859 623.98Z" fill="black" fill-opacity="0.976471"/>
<path d="M451.54 586.935C460.985 587.86 462.113 599.875 450.141 604.22L449.23 604.275C449.628 601.23 465.308 599.42 451.54 586.935Z" fill="black" fill-opacity="0.956863"/>
<path d="M391.388 528.975C392.629 524.97 393.176 520.52 396.491 518.395C400.156 518.595 400.368 525.21 397.739 526.79C397.091 524.49 398.386 523.25 397.617 520.625C394.281 520.325 394.236 529.65 391.963 531.875C391.036 531.445 391.356 531.705 390.894 531.255L391.388 528.975Z" fill="black"/>
<path d="M341.294 560.595L342.39 561C343.185 562.77 341.312 562.255 341.391 565.125C345.489 568.62 351.128 564.33 354.037 567.725C349.276 568.545 333.034 569.765 341.294 560.595Z" fill="black"/>
<path d="M392.158 380.015L392.405 380.029L393.323 383.528C389.774 390.984 386.514 395.916 379.728 400.835C385.019 394.242 390.023 389.609 390.764 381.133C391.246 381.786 391.241 382.678 391.38 383.578C391.548 382.284 391.836 381.269 392.158 380.015Z" fill="black" fill-opacity="0.956863"/>
<path d="M465.492 534.85C472.392 535.355 472.407 543.83 472.63 548.87C471.554 548.355 471.612 548.305 470.81 547.395C469.99 541.635 469.532 538.78 465.492 534.85Z" fill="black" fill-opacity="0.988235"/>
<path d="M443.193 626.325L444.389 627.035C441.763 630.95 439.487 634.42 437.066 638.49L435.85 638.815C436.327 634.705 440.617 629.47 443.193 626.325Z" fill="black" fill-opacity="0.976471"/>
<path d="M465.552 395.423C467.344 397.315 471.152 411.747 472.046 415.112C469.333 412.687 466.107 399.36 465.552 395.423Z" fill="black" fill-opacity="0.933333"/>
<path d="M435.459 625.735L436.176 626C435.046 629.58 433.567 634.875 431.916 638.09L430.792 637.75C432.103 633.725 433.345 629.36 435.459 625.735Z" fill="black" fill-opacity="0.980392"/>
<path d="M353.576 705.245C359.554 706.655 366.619 707.405 372.776 708.065L371.381 708.67C366.473 708.105 357.917 707.62 353.412 706.165L353.576 705.245Z" fill="black" fill-opacity="0.815686"/>
<path d="M395.704 622.405C397.071 623.025 398.628 623.875 400.076 624.035L400.039 624.91L399.621 625.02L394.859 623.98L395.704 622.405Z" fill="black" fill-opacity="0.0666667"/>
<path d="M418.693 731.44C418.853 729.82 418.674 729.15 419.513 727.955C420.241 730.22 420.079 730.96 420.023 733.405L418.693 731.44Z" fill="black" fill-opacity="0.0980392"/>
<path d="M372.776 708.065C375.995 707.995 377.31 707.99 380.547 708.4C378.969 708.5 376.682 708.575 375.221 708.925C373.748 709.095 372.869 708.86 371.381 708.67L372.776 708.065Z" fill="black" fill-opacity="0.47451"/>
<path d="M380.547 708.4C382.175 708.555 383.282 708.57 384.834 709.135C381.216 709.295 378.848 709.165 375.221 708.925C376.682 708.575 378.969 708.5 380.547 708.4Z" fill="black" fill-opacity="0.878431"/>
<path d="M436.56 728.705C437.382 731.16 438.014 733.63 438.689 736.13L437.755 738.105C437.315 734.975 436.916 731.845 436.56 728.705Z" fill="black" fill-opacity="0.101961"/>
<path d="M389.857 212.324C391.284 211.783 392.86 210.939 394.259 211.21C393.251 212.26 391.572 212.696 390.148 213.236L389.857 212.324Z" fill="black" fill-opacity="0.764706"/>
</g>
<defs>
<clipPath id="clip0_16_5006">
<rect width="1024" height="1024" fill="white"/>
</clipPath>
</defs>
</svg>
