<svg width="1024" height="1024" viewBox="0 0 1024 1024" fill="none" xmlns="http://www.w3.org/2000/svg">
<g clip-path="url(#clip0_16_5258)">
<rect width="1024" height="1024" fill="white"/>
<path d="M146.506 467.213C162.898 466.094 183.966 477.886 192.632 491.601C185.076 486.094 180.718 480.691 171.396 476.011C158.33 469.452 148.52 467.799 134.631 471.942C126.178 474.067 114.865 483.254 110.535 490.878C108.374 494.684 105.453 500.89 102.849 504.095L103.089 503.735L102.572 503.115C109.422 482.246 124.065 468.804 146.506 467.213Z" fill="black" fill-opacity="0.988235"/>
<path d="M259.38 660.015L259.802 660.45L259.426 661.35C252.361 665.4 222.793 687.63 226.88 695.76C234.365 696.675 250.033 673.715 259.23 668.76L259.845 669.105L258.949 670.325C253.153 675.98 247.905 682.535 241.987 688.055C238.714 691.11 228.969 702.06 224.429 696.735C221.649 684.375 249.318 663.995 259.38 660.015Z" fill="black" fill-opacity="0.988235"/>
<path d="M266.375 663.695L267.319 664.325C267.835 671.42 251.181 700.87 246.386 708.36L245.835 708.385C245.333 706.47 254.432 689.56 255.973 686.52C259.788 678.995 262.918 671.335 266.375 663.695Z" fill="black" fill-opacity="0.988235"/>
<path d="M341.095 246.985C344.682 247.64 346.638 247.842 349.801 249.828C354.462 252.708 357.736 257.376 358.857 262.739C361.222 274.092 354.396 283.738 343.199 286.112C344.844 295.083 346.835 330.273 342.065 336.322C327.557 354.715 335.416 357.448 336.299 380.03C336.696 390.172 327.038 389.039 319.686 389.089C315.659 396.811 314.771 404.128 304.343 399.629C301.747 398.509 297.076 397.024 294.37 396.447C303.654 401.805 314.001 402.439 304.523 413.939C305.209 417.033 305.231 420.121 306.54 423.067C309.596 429.822 314.152 437.634 321.427 440.362C324.32 441.448 327.246 441.559 330.047 442.808C317.339 447.312 307.662 432.77 303.804 422.618C302.864 420.141 303.047 417.206 303.126 414.583C299.049 428.92 296.149 439.479 278.342 434.273C272.97 432.703 266.168 429.882 260.848 428.689C254.63 433.829 252.342 439.98 247.724 442.715C250.514 446.103 254.286 450.464 256.8 453.945L256.546 454.639C253.188 463.666 245.945 472.976 240.739 481.103C240.097 482.106 241.214 483.785 241.495 484.738C259.93 520.55 276.05 558.53 287.451 597.195C288.296 599.22 289.653 603.82 290.4 606.085C290.086 602.95 289.525 599.47 289.081 596.32C285.043 572.855 279.591 549.65 272.753 526.84C270.596 519.665 268.287 512.535 265.83 505.455C263.943 500.105 258.351 487.18 258.194 482.281C258.015 476.686 263.798 465.566 265.538 459.041L265.728 458.312C263.449 451.571 254.331 443.521 253.236 439.227L253.876 438.748C256.371 439.657 266.524 453.554 268.097 456.377C267.425 464.511 262.977 473.906 259.96 481.857C261.644 489.106 265.966 497.743 268.345 505.115C272.956 519.39 277.133 533.65 281 548.14C285.064 563.25 288.328 578.56 290.78 594.01C292.358 603.36 293.433 612.055 295.371 621.445C298.274 635.515 305.287 654.59 305.75 668.41C303.424 663.79 301.032 653.29 299.694 648.07C297.737 640.33 295.657 632.615 293.457 624.94C272.841 552.28 236.879 461.845 184.246 406.799C178.487 400.776 165.504 389.047 158.18 384.961C154.602 389.274 146.642 402.65 143.91 407.653C146.07 409.72 150.322 412.689 152.898 414.609C159.735 419.704 165.725 424.308 171.327 430.844C174.605 434.694 177.721 438.679 180.668 442.788C182.953 445.988 191.572 459.443 193.714 460.641C199.24 463.733 209.714 465.616 216.941 468.672C216.467 472.731 214.006 481.739 212.905 486.261C218.675 496.224 230.422 511.46 237.336 521.86C250.765 542.4 262.636 563.915 272.849 586.225C275.539 592.155 298.166 645.13 296.734 648.94C294.728 646.715 279.058 606.265 276.769 600.98C271.994 590.025 266.881 579.22 261.437 568.585C252.027 550.01 241.385 532.09 229.584 514.94C223.313 505.66 215.701 495.993 210.186 486.502L214.466 469.675C210.356 468.67 195.544 465.433 192.848 463.201C185.867 457.422 180.076 444.932 173.469 437.202C163.194 425.178 156.135 419.507 143.342 410.839C141.016 414.4 134.775 421.011 131.706 424.631C122.244 435.792 111.636 447.157 103.537 459.402C87.7946 483.204 77.2441 516.74 73.9381 544.995C71.0866 569.365 72.6616 597.625 74.5046 621.935L78.4471 677.01C79.9491 699.14 81.4196 720.605 79.8986 742.765C78.2741 766.43 75.5371 789.555 72.7696 813.11C71.2316 826.195 70.3711 839.565 68.8531 852.715L63.2931 901.825C62.7736 906.635 60.6571 922.395 61.4466 926.48C65.1671 930.105 76.1991 932.745 81.4076 934.205C118.539 944.63 156.779 950.59 195.32 951.965C212.557 952.475 258.248 952.94 272.883 948.435C277.707 946.9 282.12 944.29 285.791 940.8C294.55 932.42 297.479 919.305 299.074 907.72C305.736 859.33 306.314 808.665 307.493 760.005C281.275 757.93 244.941 756.565 219.828 748.96C206.657 744.97 186.341 717.655 177.436 705.845C153.363 673.925 131.037 638.525 111.488 603.585C109.59 600.205 102.442 589.12 102.861 585.97C105.232 587.445 124.468 621.585 127.085 626.01C144.916 655.98 164.495 684.87 185.72 712.54C193.034 721.905 200.4 731.36 209.158 739.43C218.494 748.035 230.937 749.905 243.062 751.48C255.056 752.93 267.072 754.19 279.107 755.245C322.064 758.81 365.506 760.705 408.566 763.02C410.388 763.115 412.782 762.885 414.447 762.155C417.308 758.955 418.989 749.215 420.13 744.855C424.225 729.21 426.956 693.26 418.451 679.67C392.849 678.41 361.431 679.045 336.509 676.39C324.595 675.04 312.727 673.31 300.923 671.205C290.005 669.15 283.986 665.2 273.174 669.965C271.149 665.67 270.618 663.645 267.193 660.285L261.328 659.355C260.786 656.885 260.362 653.3 259.587 651.055C257.499 645.01 254.315 639.285 251.922 633.27L233.146 587.055C225.192 567.265 222.188 546.8 214.113 527.11C211.635 521.07 208.137 515.02 206.256 508.795C220.69 526.505 225.361 559.055 233.035 580.04C236.642 589.65 241.195 599.025 245.019 608.52C250.558 622.275 255.227 636.19 262.017 649.42C262.632 650.615 262.833 654.62 263.542 656.615C270.711 659 271.778 660.345 274.262 667.07C283.04 662.86 299.202 668.305 309.461 669.83C305.987 628.98 302.322 594.655 289.637 555.11C284.711 539.755 279.592 525.385 273.992 510.31C272.166 505.395 262.231 481.744 262.013 478.576L262.509 478.226C264.826 479.672 269.613 492.483 271.066 495.956C275.781 492.88 280.024 489.443 285.04 486.585C308.921 472.979 319.398 469.124 330.047 442.808C332.057 436.844 337.354 422.024 334.158 416.609C329.306 408.39 326.161 403.545 326.995 393.036C327.035 392.528 327.352 392.102 327.627 391.665L328.435 391.544C330.101 394.277 329.324 398.744 329.96 401.96C330.822 406.323 333.159 410.659 335.85 414.149C346.256 410.515 347.92 421.138 341.858 423.733C339.467 423.622 339.084 423.155 337.604 424.237C332.281 447.549 325.768 466.918 303.763 478.94C292.721 484.972 282.437 491.498 271.792 498.078C293.816 550.62 310.583 613.03 311.182 670.24C323.338 671.685 336.082 674.45 348.347 674.86C370.492 675.59 392.71 676.435 414.868 676.68C417.16 676.705 420.121 679.04 422.338 679.64C427.033 680.785 429.295 678.22 433.24 681.495C436.874 681.11 440.492 679.38 443.622 678.01C460.061 670.795 473.171 661.775 491.908 667.125C495.206 668.065 511.495 674.735 513.47 673.74C509.3 670.61 471.516 661.09 483.759 651.195C482.397 648.49 479.74 646.3 479.822 644.95C481.197 643.525 485.815 640.94 485.836 640.01C485.947 634.985 487.734 634.59 492.128 633.29C486.594 624.28 484.647 620.02 477.383 612.58C467.606 614.45 457.33 614.65 448.343 609.04C446.399 607.83 444.221 604.15 447.146 602.56C449.02 601.545 452.258 601.8 454.353 601.615C461.113 601.32 466.255 602.995 472.036 606.45C467.098 601.28 464.159 597.62 458.004 593.85C454.709 596.53 448.247 600.66 444.848 595.945C444.945 592.045 449.135 591.06 452.318 590.13L444.569 587.045L436.821 591.265C442.815 605.905 446.556 619.02 442.929 634.75C442.04 638.61 437.659 648.645 438.591 651.185C440.212 655.605 443.369 672.5 442.423 676.82C439.175 675.155 438.11 656.015 437.426 651.6C435.987 654.935 427.78 677.285 427.098 677.89C425.921 677.265 426.369 677.72 425.932 676.305C438.365 633.63 449.223 636 434.67 590.95C432.55 590.55 431.958 590.61 430.36 589.305L430.108 588.25C431.252 586.735 432.089 586.34 433.662 585.315C433.006 583.8 430.946 581.135 429.962 579.565C428.25 576.825 425.802 567.61 426.16 564.75C428.15 566.54 429.745 573.065 430.596 575.93C437.15 576.02 441.431 577.305 443.559 583.9L450.033 586.845C448.869 583.78 447.843 581.81 448.763 578.58L449.718 577.58C455.613 577.435 456.965 586.03 457.237 590.44L462.906 594.845L463.521 594.68C462.615 592.165 461.083 588.695 462.015 586.175C467.649 583.195 471.381 597.92 470.947 602.32C476.04 609.805 485.835 617.545 490.49 626.285C491.704 628.56 492.231 633.015 495.139 632.975C500.39 632.9 503.065 632.45 508.445 632.94C506.495 625.235 502.74 605.54 499.37 598.92C497.15 597.91 492.25 601.73 489.727 602.785C484.703 604.88 475.167 604.39 472.765 598.665C471.874 596.37 473.271 592.9 473.041 590.535C470.578 586.19 465.653 587.55 466.31 580.925C466.684 577.16 467.229 575.915 470.413 573.67C472.884 561.92 479.145 557.56 490.948 561.985C501.67 551.565 511.22 558.645 510.505 572.565C513.255 574.595 513.62 575.025 515.745 577.64C516.085 579.43 516.495 581.24 516.565 583.055C514.92 591.655 510.235 597.84 501.14 598.795C503.315 604.255 505.09 609.865 506.46 615.58C506.495 611.47 506.535 607.83 508.065 603.925C509.495 600.275 513.595 590.055 518.665 594.49C519.955 599.225 514.755 620.88 509.685 622.495C508.875 621.455 509.095 622.07 508.905 620.66C513.73 616.9 517.29 600.68 516.745 594.775C508.67 599.565 507.365 612.22 508.905 620.66L508.005 620.98C508.455 623.8 509.475 630.775 510.91 632.795C512.41 633.23 512.705 633.44 514.26 633.275C515.19 630.865 514.415 626.95 514.97 625.09C516.125 621.23 519.13 601.14 522.59 600.29C523.53 601.8 521.54 606.265 521.015 608.005C518.505 616.335 516.7 625.12 516.275 633.795C517.975 634.12 518.865 634.37 520.62 634.3C521.185 632.885 519.71 630.68 519.525 629.005C518.98 624.12 521.785 612.03 527.555 611.095C528.405 611.53 528.7 611.47 529.045 612.58C530.185 616.28 531.21 623.6 529.535 627.065C527.995 630.24 526.54 631.56 525.195 635.125C526.16 635.895 525.6 635.6 527.185 635.555C528.28 634.845 535.06 619.465 537.045 617.385C537.475 616.935 541.15 611.985 541.3 611.615C540.965 610.105 541.16 609.615 540.23 608.835C539.33 610.81 538.875 611.99 536.85 612.775C534.175 612.73 533.08 611.855 531.105 610.135C525.145 604.945 520.23 603.21 527.91 596.22C516.535 592.165 518.575 589.195 523.15 583.26C525.235 580.565 521.395 575.525 529.52 574.54C531.45 575.03 532.89 576.535 534.45 577.84C535.845 577.295 533.925 572.555 535.835 570.775C539.32 567.515 550.855 569.84 553.875 572.735C554.79 574.865 554.335 578.205 554.215 580.675C561.565 577.675 564.87 579.09 563.88 587.59C564.705 589.035 565.135 590.095 566.465 591.085C572.03 591.35 570.825 566.955 582.11 569.335C585.265 572.915 579.09 582.565 576.82 585.71C579.1 584.695 581.6 583.76 583.93 582.835C588 577.105 597.705 571.78 603.495 577.82C604.81 582.525 592.595 585.465 589.63 585.025C582.98 584.04 578.83 587.035 572.66 589.875C580.56 589.69 584.895 590.31 591.34 595.665C592.365 596.515 592.595 597.405 592.64 598.685C590.605 605.2 581.785 600.875 577.895 598.79C574.595 597.02 572.785 594.955 570.64 591.995C563.02 593.93 568.685 600.115 558.19 599.83L557.565 599.805C556.985 600.79 559.25 604.58 559.36 606.775C559.725 613.815 541.775 613.915 540.71 615.52C538.83 618.345 529.57 633.735 529.585 635.875L530.67 636.32C532.355 635.6 533.065 633.19 534.165 631.56C543.635 617.595 559.57 614.42 575.34 617.415C576.66 617.665 576.65 617.83 577.23 618.85C576.265 621.595 573.475 623.25 571.345 625.07C564.685 630.765 558.3 632.665 549.89 634.125C565.84 639.675 572.935 653.955 585.615 663.335C591.71 667.245 598.595 669.64 605.24 672.38C624.32 680.245 643.725 685.555 663.645 690.76C660.34 685.865 658.205 680.7 654.49 675.37C645.87 663.02 634.71 652.6 628.84 638.61C620.245 619.06 629.535 599.54 636.535 581.15C640.575 570.52 641.84 567.63 641.23 556.055C640.68 545.615 640.125 532.725 644.09 522.92C647.62 514.205 654.875 508.135 663.54 504.6C660.695 508.02 658.51 510.855 657.125 515.185C651.85 531.615 649.615 548.88 644.655 565.39C640.13 580.45 633.565 594.66 629.4 609.765C622.49 634.845 639.935 652.46 654.115 670.61C658.85 676.67 662.7 683.89 665.8 690.99C677.915 694.75 695.16 696.025 708.4 699.67C708.24 672.145 710.18 644.115 709.11 616.35C707.935 585.68 697.225 546.365 719.195 520.035C729.625 507.945 750.44 506.935 761.165 520.53C754.82 517.81 747.565 512.34 740.51 513.185C693.725 518.79 711.28 591.755 711.705 622.895C712.015 648.645 711.61 674.4 710.48 700.125C714.485 702.045 716.335 702.795 719.355 706.205L719.11 706.615C713.48 705.14 708.46 702.1 702.68 700.71C691.61 698.05 680.05 696.895 668.88 694.505C648.095 690.06 592.975 674.74 578.59 660.83C567.88 650.47 557.325 635.48 541.09 634.545C538.855 634.415 536.65 634.225 534.51 634.97L533.285 636.145L533.375 636.725C537.795 638.115 549.865 639.755 551.87 643.15L551.69 643.885C548.905 644.025 542.725 641.66 539.595 640.725C529.52 637.725 497.54 632.405 489.226 637.11L488.537 638.1C490.518 643.665 521.9 645.4 526.335 649.6C523.65 653.33 489.412 639.325 482.605 645.41C485.229 653.28 516.83 657.125 523.845 662.41L523.725 662.815C517.51 663.225 508.64 659.155 502.505 657.81C497.925 656.805 487.088 650.91 483.406 654.465C487.042 664.1 513.925 669.275 523.21 675.095L523.89 675.515L524.3 675.775C511.04 677 505.15 674.7 493.156 669.7C491.431 668.98 490.466 668.4 489.39 669.635C490.623 678.295 514.24 683.855 521.5 685.855C531.615 688.64 541.245 694.105 551.91 695.12C558.45 696.19 572.63 695.31 577.875 697.555C611.435 711.92 642.825 729.39 677.035 742.66C689.965 747.63 703.165 751.88 716.565 755.395C719.37 756.14 721.885 756.83 724.76 757.31C726.755 757.64 729.685 757.265 731.025 758.05C725.63 761.63 717.145 757.815 711.555 756.56C700.16 754.005 689.635 749.7 678.6 746.03C674.37 744.785 668.555 742.06 664.26 740.345C634.515 728.45 606.685 711.935 577.135 699.815C572.145 697.77 561.335 698.95 555.755 698.11C553.465 697.77 549.78 697.075 547.545 697.195C546.84 707.675 542.755 700.985 540.36 708.21C538.86 712.745 536.84 713.44 532.55 715.935C530.06 723.51 526.415 726.84 518.72 729.125C515.01 734.265 512.055 736.615 505.665 738.185C505.53 744.95 502.685 768.6 499.005 772.95L498.005 772.99C497.235 771.58 497.915 771.675 498.045 769.765C498.22 767.17 497.21 769.675 494.739 767.12C493.676 761.865 496.751 747.555 497.88 741.715L498.295 741.575C500.655 748.14 493.983 764.255 497.855 766.96C501.125 763.275 503.05 744.48 504.115 738.585C500.955 739.47 497.255 739.705 494.585 740.855C494.519 741.345 494.449 741.84 494.376 742.335C493.718 746.68 489.542 762.37 486.282 764.745C486.133 761.445 491.741 744.98 493.234 741.13C469.097 744.105 458.169 737.135 436.731 732.59C433.881 744.995 436.249 748.865 421.899 749.02C416.33 769.495 415.701 765.92 395.249 764.97L358.861 762.925C360.372 765.225 362.239 766.965 363.789 769.24C364.849 770.8 364.379 771.12 363.945 773.23C373.914 789.17 387.208 806.47 399.127 821.04C402.35 824.98 408.742 829.885 412.825 833.265C414.182 821.775 417.579 817.72 424.078 808.425C422.345 793.05 422.39 776.405 421.24 760.885C421.036 758.14 421.554 754.775 421.975 752.035C425.044 760.875 424.471 785.255 425.603 795.705C425.939 798.805 425.534 801.62 426.228 805.195C427.395 803.78 426.934 803.795 428.234 803.41C429.926 808.045 420.623 816.55 418.684 821.445C416.856 826.06 415.955 830.045 414.269 834.535C418.031 838.005 421.731 841.54 425.366 845.14C426.742 839.335 427.244 837.875 430.515 832.92C430.318 836.99 428.658 842.19 426.897 845.885C431.189 851.8 432.254 853.735 435.17 860.515L436.179 859.225C437.73 857.25 441.133 852.27 443.546 851.98C443.471 855.045 438.255 860.365 436.059 862.765L438.607 871.545C441.839 867.59 443.018 865.065 447.134 861.58L447.441 862.01C445.804 866.44 442.67 870.32 439.628 873.845L440.403 880.275C453.414 860.84 452.729 856.975 449.51 834.55C448.447 827.15 449.888 815.275 449.37 807.255C448.479 793.44 444.494 775.885 446.608 762.285C439.654 758.285 435.431 758.245 427.93 759.265C426.926 759.4 425.835 759.425 425.122 758.745L425.719 757.785C432.972 753.585 442.767 756.945 449.071 761.46C448.267 758.475 445.658 739.27 447.519 737.35C448.528 738.97 448.863 741.235 449.14 743.125C449.868 748.08 452.554 760.885 449.659 764.79C445.909 769.855 451.746 802.155 452.023 810.25C452.26 817.185 451.283 824.025 451.775 831.01C452.419 840.155 455.786 853.07 453.074 861.83C450.699 869.5 445.827 875.585 441.898 882.415C440.237 885.305 439.322 888.915 436.978 891.335C434.546 893.85 431.668 892.635 429.482 896.1C428.586 897.52 428.128 898.255 426.6 899.05C423.719 900.555 413.686 904.48 410.685 904.005C408.883 903.72 406.674 902.595 404.909 902.67C402.037 902.79 399.842 905.16 396.778 904.03C394.672 903.25 391.34 900.65 390.569 898.43C389.946 896.64 390.226 895.415 390.977 893.77L391.73 892.125L392.118 891.295C388.907 883.3 381.756 874.34 377.233 866.395C372.695 858.425 370.882 846.93 367.088 840.53C363.981 835.29 351.328 822.73 346.657 817.95C340.394 811.51 334.253 804.95 328.237 798.28C326.663 799.1 324.096 800.55 322.314 800.37C319.492 800.085 316.806 798.54 317.594 795.335L318.255 795.225C319.609 796.52 320.429 797.655 322.216 797.93C333.879 794.295 352.567 779.41 361.928 770.895C359.919 767.885 358.306 766.08 356.367 762.745L325.973 761.195C321.112 760.94 314.477 760.78 309.792 760.075C309.488 795.37 308.174 830.645 305.852 865.86C304.371 886.535 303.233 909.025 296.688 928.92C294.802 934.65 291.072 939.09 287.19 943.61C286.937 948.68 283.078 983.855 281.082 986.01L280.56 985.72C279.31 983.01 284.248 949.95 284.966 945.305C283.889 946.01 282.788 946.68 281.666 947.31C267.253 955.46 244.852 954.355 228.456 954.67C200.66 955.195 172.073 954.135 144.545 950.18C122.758 946.875 101.186 942.285 79.9406 936.44C80.0391 946.61 81.7721 956.5 83.2641 966.5C83.8816 970.64 86.6106 981.805 85.7156 985.395L85.0816 985.725L84.1286 985.01C81.3591 972.77 77.6781 948.525 77.4741 935.97C73.3021 934.705 62.4056 931.345 59.7651 928.805C56.9276 926.075 60.3041 905.19 60.7616 901.06L66.3226 852.33C67.9426 837.96 69.0846 823.6 70.6561 809.25C74.5981 773.26 80.1006 736.96 77.4186 700.675C76.9391 694.18 76.6221 687.595 76.1931 681.085L72.1611 623.55C69.5726 587.935 67.3581 551.74 76.5066 516.775C79.8621 503.82 84.3511 491.089 89.6546 478.822C99.2436 456.643 115.613 439.125 131.285 421.186C134.64 417.345 138.322 413.756 141.874 410.093C142.078 409.883 141.641 406.456 141.974 405.967C145.152 399.529 149.441 393.518 153.121 387.34C154.963 384.248 157.204 384.094 160.473 383.563C163.076 383.204 163.977 379.847 165.225 377.737C168.286 372.561 169.865 372.517 174.429 376.392C176.996 371.562 178.48 367.367 180.369 362.311C180.73 361.346 182.17 358.074 182.937 357.875C186.951 356.832 190.877 356.262 194.708 354.61C203.619 350.77 205.816 346.536 209.767 338.129C210.889 335.385 213.164 331.921 213.573 328.949C214.812 319.933 215.571 308.933 225.729 305.026C229.363 303.591 233.425 303.707 236.972 305.344C242.415 307.869 243.499 311.198 245.506 316.219L244.647 316.95C239.943 312.237 238.524 305.889 230.801 306.674C210.359 308.751 215.129 345.116 225.22 355.635C225.957 356.404 231.669 358.048 233.615 359.7L233.117 360.226C219.316 361.912 215.988 343.824 214.11 333.741C210.767 340.07 206.455 354.353 199.652 357.079C197.982 355.638 200.175 356.573 199.505 354.241C193.266 358.183 191.158 358.545 184.118 359.284C182.361 366.269 179.765 371.625 176.415 377.929C201.755 397.122 225.374 418.487 247.003 441.782C261.899 413.165 269.774 436.158 290.867 432.25C295.589 431.375 298.448 420.445 300.52 416.301C302.329 412.685 305.35 409.056 306.781 405.398C302.738 403.062 288.844 396.282 288.395 391.704L289.301 390.956C291.653 391.446 299.279 396.55 302.756 397.684C317.694 402.56 310.508 392.749 319.151 387.31C321.417 385.883 328.083 387.333 330.982 385.483C337.795 381.135 329.538 360.978 330.666 353.105C332.347 341.363 340.47 340.316 341.459 328.432C342.445 316.593 343.759 304.604 341.821 292.852C341.42 290.422 340.274 286.53 340.808 284.332C346.627 283.489 350.699 281.446 353.951 276.227C356.684 271.83 357.46 266.491 356.09 261.498C353.974 253.764 347.407 250.617 341.095 246.985ZM330.178 797.255C341.179 807.98 351.5 819.985 362.285 830.69C374.363 842.67 372.204 852.165 379.861 865.835C386.62 877.905 393.97 884.96 397.064 899.035C395.486 897.105 394.331 895.01 392.255 894.05L391.895 894.155C392.459 897.585 397.093 902.175 400.824 902.465C407.64 899.57 401.526 884.085 402.7 881.595C407.296 881.75 406.773 897.055 406.137 900.51C406.071 900.875 408.33 901.46 408.577 901.33C417.416 902.53 416.597 897.19 415.898 890.89C415.31 887.635 413.596 879.775 414.651 876.97C417.366 880.675 419.227 895.015 418.627 899.59C425.267 897.33 428.778 895.63 428.216 887.52C427.941 883.57 424.513 871.235 426.017 868.2C428.965 872.78 430.595 887.11 430.707 892.595C434.916 889.565 436.214 888.745 438.363 883.845C435.566 847.175 413.961 841.78 392.633 817.36C381.562 804.68 372.317 787.745 361.817 774.495C351.428 783.275 342.266 790.67 330.178 797.255ZM469.617 611.8L476.116 611.245C468.055 605.725 463.937 603.235 453.692 603.66C451.261 604.055 449.563 604.315 447.165 605.01C453.94 609.71 461.004 613.04 469.617 611.8ZM422.498 746.805L427.513 746.345C428.708 746.04 430.32 745.835 430.935 744.455C436.087 732.89 437.982 692.925 430.381 682.7C429.228 682.29 429.4 682.165 428.323 682.265C426.844 682.36 424.47 682.35 423.257 682.97C424.29 689.89 426.25 698.615 426.545 705.565C427.102 718.71 425.315 733.93 422.498 746.805ZM590.485 599.35C586.05 592.11 580.405 591.665 572.54 591.67C577.695 597.95 582.625 599.61 590.485 599.35ZM503.545 581.495L504.3 582.14C503.21 583.51 501.325 585.235 500.03 586.495C500.205 589.67 499.495 592.755 498.94 595.9C508.125 600.86 521.79 580.4 509.515 574.575L508.665 575.375L507.765 575.36C508.86 569.685 509.515 560.975 501.27 559.115C497.56 558.275 493.964 561.21 491.826 564.195C484.844 562.365 475.684 560.165 473.033 570.315C472.909 570.79 473.249 574.195 473.285 574.96C471.496 576.625 466.993 578.655 467.714 581.475C469.611 588.88 483.961 591.83 489.576 590.615C493.952 589.645 497.735 586.915 500.045 583.075C502.81 578.555 502.925 571.945 499.315 567.865L498.695 568.18C497.615 572.735 498.14 575.33 493.671 578.105C490.127 580.305 483.373 581.985 480.885 577.535C480.39 574.565 482.06 572.005 484.489 570.425C487.938 570.43 488.725 576 490.854 569.895L490.499 568.835C485.809 566.82 474.618 572.19 476.975 578.815C478.337 582.64 489.86 584.25 489.905 587.135C485.863 587.29 479.643 583.855 476.943 581.72C467.054 573.9 492.704 558.155 492.22 571.29C492.176 572.49 491.181 573.8 490.383 574.525C487.378 575.44 486.244 572.54 483.649 573.85C482.904 575.475 482.932 575.35 483.146 577.13C487.342 581.72 498.21 575.425 496.144 566.255C497.155 565.005 496.523 565.37 498.1 565.115C506.96 568.805 502 577.31 503.545 581.495ZM436.825 730.29L437.822 730.44C457.119 733.51 474.682 743.12 495.307 737.995C502.035 736.325 507.99 735.81 513.885 731.555C514.84 730.85 515.775 730.12 516.68 729.355C512.275 729.65 499.785 730.925 496.116 729.695L496.071 729.615L496.823 729.035L496.55 729.805C501.65 723.615 519.795 734.045 530.285 716.58C523.27 717.94 519.61 717.69 512.375 717.495C509.06 717.35 504.875 717.345 501.765 716.5L501.26 715.885C507.715 711.085 530.105 722.74 539.61 705.53L539.835 705.11C534.44 705.055 507.85 702.685 504.825 700.09L505.155 699.54C513.675 697.595 532.71 704.815 542.345 702.195C543.96 701.75 545.21 699.135 545.375 697.575C543.54 694.945 501.51 682.67 495.307 681.315C490.827 680.34 484.428 679.925 479.723 677.28L480.048 676.825C486.143 676.595 490.573 677.83 496.454 679.565C492.609 676.925 489.657 675.185 487.05 671.25L486.881 668.53C485.224 667.755 477.285 667.875 475.359 668.105C460.149 671.875 448.291 680.3 433.895 684.185C438.788 697.265 438.601 716.605 436.825 730.29ZM573.445 587.03C576.615 582.525 580.475 577.845 580.525 572.21C579.91 571.285 580.3 571.545 579.49 571.24C576.795 573.9 570.075 583.54 573.11 586.96L573.445 587.03ZM526.74 613.3C522.555 619.665 518.995 627.145 523.425 634.535C526.93 630.015 530.875 617.93 526.74 613.3ZM498.415 588.51C486.899 597.805 478.704 589.19 474.239 592.075C473.288 594.015 474.315 596.905 475.281 598.715C478.593 601.225 481.5 602.315 485.771 601.79C489.841 601.295 493.518 599.12 495.907 595.79C497.36 593.74 498.18 590.995 498.415 588.51ZM163.507 385.516C197.221 409.468 219.43 445.246 239.327 480.615C240.514 477.764 240.923 476.89 242.568 474.242C246.008 468.608 251.712 459.781 254.372 454.127C231.499 427.478 209.367 406.725 181.589 385.109C178.866 382.99 171.857 376.886 169.439 375.726C167.443 378.978 165.466 382.242 163.507 385.516ZM594.46 582.85C598.015 581.345 598.89 580.645 601.97 578.23C598.21 577.605 597.175 577.49 593.38 577.625C591.285 578.775 589.7 579.435 588.1 581.2L587.885 582.26C589.935 583.67 591.82 583.105 594.46 582.85ZM462.986 588.21C464.133 592.51 466.351 598.425 470.058 601.08C469.384 597.005 467.321 589.68 462.986 588.21ZM644.055 559.02C647.46 547.92 648.91 534.23 652.415 522.795C653.985 517.675 654.94 516.055 656.84 511.42L656.315 510.895C647.015 519.7 643.81 526.625 643.405 539.715C643.33 542.3 642.97 557.935 643.995 559.02H644.055ZM340.502 421.697C341.646 421.447 342.554 420.579 342.856 419.448C343.158 418.317 342.803 417.112 341.937 416.324C341.07 415.537 339.837 415.299 338.74 415.708C337.201 416.282 336.367 417.948 336.831 419.524C337.294 421.1 338.897 422.049 340.502 421.697ZM450.479 596.1C452.754 595.035 453.387 594.9 455.082 593.15L455.002 592.32C453.594 591.755 453.48 591.895 451.925 591.98C449.799 592.905 448.38 593.315 446.764 594.99L446.799 595.76C448.053 596.45 449.023 596.205 450.479 596.1ZM438.567 586.04C436.503 586.58 435.382 586.68 433.734 587.94L433.885 588.54C435.038 588.835 435.021 588.865 436.199 588.96C437.896 588.205 439.682 587.705 440.775 586.4C439.694 585.925 439.758 585.975 438.567 586.04ZM455.399 588.74C454.714 584.54 454.154 581.295 450.112 579.23C450.03 583.55 451.047 587.155 455.399 588.74ZM431.032 577.825C433.783 583.72 434.65 583.305 440.781 584.035C437.382 580.26 436.168 578.135 431.032 577.825ZM574.535 619.63C570.505 619.075 566.39 618.535 562.305 618.715C550.76 619.48 543.67 623.335 536.075 632.09C539.205 632.195 545.62 632.62 548.455 632.31C559.38 630.42 566.2 627.365 574.535 619.63ZM539.445 570.36C532.415 576.51 540.715 582.68 539.16 586.505C535.85 585.795 530.735 571.08 525.68 579.11C524.515 588.315 525.72 582.815 521.97 588.92C518.575 594.45 534.95 592.9 535.88 593.815C534.875 596.405 524.17 597.6 526.405 602.735C527.33 604.865 533.04 609.365 535.355 610.37C538.99 608.805 539.84 602.31 542.095 600.97C542.84 602.63 542.585 604.745 542.55 606.625C542.82 608.965 542.76 609.36 543.795 611.405C544.575 612 545.815 612.875 546.625 612.335C550.255 609.905 556.06 610.38 557.505 606.3C557.375 601.295 551.345 598.69 550.63 596.08C553.035 594.75 556.87 599.015 561.725 598.03C565.665 595.14 561.885 587.45 561.65 582.465C558.9 578.725 551.38 585.58 549.38 587.895L548.605 587.885L547.985 586.57C549.805 582.485 553.92 578.505 552.61 574.205C550.62 571.615 547.67 572.34 544.825 572.735C543.07 571.85 541.34 570.86 539.445 570.36Z" fill="black"/>
<path d="M541.405 587.84C543.83 586.705 546.715 587.73 547.88 590.14C549.045 592.555 548.055 595.45 545.66 596.645C544.085 597.43 542.205 597.31 540.745 596.325C539.285 595.34 538.47 593.645 538.605 591.89C538.74 590.135 539.81 588.59 541.405 587.84ZM544.73 594.825C546.235 594.21 546.965 592.495 546.365 590.98C545.765 589.465 544.055 588.72 542.535 589.305C541.54 589.69 540.825 590.58 540.665 591.635C540.505 592.695 540.93 593.755 541.77 594.415C542.61 595.075 543.74 595.23 544.73 594.825Z" fill="black"/>
<path d="M507.765 575.36L508.665 575.375C507.505 578.28 506.445 579.81 504.3 582.14L503.545 581.495C505.235 579.35 506.32 577.64 507.765 575.36Z" fill="black" fill-opacity="0.87451"/>
<path d="M699.95 243.733C701.485 244.96 701.785 253.921 702.145 256.476C702.905 261.658 704.48 266.687 706.81 271.378C713.475 284.739 721.605 289.866 735.1 294.468C728.865 289.237 723.12 282.226 720.44 274.373C719.495 271.596 715.18 262.019 718.09 260.153C719.055 260.757 722.125 267.281 723.635 269.571C727.125 274.875 731.53 279.516 736.64 283.277C741.95 287.191 749.855 290.545 756.4 291.735C758.545 292.125 761.955 292.15 763.585 293.521L763.325 294.102C761.725 294.709 759.255 294.509 757.525 294.254C739.885 291.646 731.005 283.007 720.645 270.034C726.35 283.507 729.27 285.874 739.04 296.155C720.925 294.95 714.46 287.496 704.515 273.362C705.255 280.564 704.39 289.918 706.47 296.671C708.57 303.488 713.43 307.414 713.355 315.76C713.26 326.199 708.745 334.758 707.585 344.669C706.925 350.339 717.915 350.135 720.67 352.953C725.625 358.013 722.785 361.151 728.8 367.073C733.88 364.521 741.945 359.949 746.96 358.304C741.42 363.685 736.51 365.459 729.575 368.495C731.105 372.463 734.555 376.743 736.66 380.945C737.865 383.342 741.58 392.698 742.635 394.041C752.9 407.109 770.585 387.193 780.205 389.5C784.55 390.542 793.235 407.907 795.615 412.473C811.365 395.264 826.9 382.062 846.48 369.128C851.505 365.81 857.885 361.369 863.275 358.852C861.02 353.677 859.09 348.369 857.485 342.957C847.725 341.047 840.2 336.774 836.875 326.737C836.395 325.283 836.26 325.675 836.965 324.444C838.575 325.919 841.085 331.12 843.17 333.205C847.855 337.889 852.24 340.128 858.775 340.247L859.48 340.254C861.115 346.119 863.06 351.891 865.32 357.545C866.94 356.557 867.4 356.31 869.14 355.566C874.25 356.025 872.815 361.856 876.29 365.555C877.98 367.356 880.89 365.406 881.825 367.063C886.295 375.189 892.05 384.53 894.45 393.422C896.075 399.439 902.84 406.364 906.945 411.513C912.92 418.906 918.525 426.589 923.745 434.533C930.415 444.705 936.11 455.482 940.765 466.72C972.805 545.2 951.62 628.88 949.6 710.45C948.66 748.43 954 784.24 958.875 821.69L964.645 868.675C965.46 875.03 970.72 910.49 969.19 916.675C968.415 919.825 949.325 926.135 944.075 927.93C943.67 934.36 936.615 981.725 934.375 985.135C933.485 983.6 933.735 978.805 934.02 976.91C935.915 964.415 938.375 952.01 940.17 939.495C940.665 936.02 941.165 932.055 942.115 928.72C932.54 931.34 891.18 942.245 884.075 939.025C885.42 936.715 895.49 936.29 898.785 935.8C919.4 932.71 949.5 925.55 967.66 915.625C967.155 903.755 964.155 884.27 962.615 871.945L952.545 792.2C950.32 773.79 947.855 755.15 947.165 736.61C943.57 640.265 978.44 538.275 928.945 448.121C918.765 429.576 905.06 413.148 892.035 396.584C885.72 400.678 879.59 403.956 873.37 408.472C859.03 418.877 848.33 434.105 838.695 448.815C833.26 451.265 825.205 452.322 819.165 453.35C820.45 458.128 822.165 465.382 822.635 470.23C817.285 479.74 810.045 490.507 804.325 500.145C793.735 517.695 784.4 535.97 776.405 554.84C767.67 575.355 760.125 596.35 753.795 617.73C751.28 626.27 748.86 634.835 746.535 643.43C745.36 647.86 742.915 658.86 740.985 662.495L740.715 661.89C741.775 649.54 744.835 640.15 748.155 628.21C758.795 589.9 772.94 551.515 791.875 516.49C796.93 507.255 802.22 498.157 807.745 489.199C811.935 482.48 816.505 475.878 820.325 468.973C819.34 463.545 817.925 457.897 816.88 452.321C821.585 450.012 831.005 448.588 836.65 447.097C846.375 432.024 858.015 416.064 872.74 405.695C878.745 401.466 886.21 397.347 892.595 393.313C890.315 388.191 882.68 372.794 879.87 368.203C872.005 373.356 860.355 380.883 853.255 387.392C809.57 427.421 781.11 494.854 761.915 549.79C754.84 570.395 750.855 591.945 745.485 612.935C737.525 644.045 736.205 666.43 737 697.925C737.165 707.695 737.055 717.47 736.665 727.235C735.53 761.435 732.63 794.94 732.395 829.495C732.035 857.43 730.81 885.855 737.055 913.3C744.07 944.135 767.085 941.07 792.055 942.815C781.425 946.855 770.5 944.51 759.61 942.495C760.825 947.645 765.4 982.52 764.885 986.545L764.35 986.58C761.46 981.055 758.16 949.12 757.845 941.93C748.18 937.48 741.38 932.44 737.315 922.235C721.955 883.71 733.17 759.705 734.785 712.865C735.205 700.695 733.85 688.76 733.755 676.63C733.685 668.275 734.66 659.845 735.815 651.585C738.665 631.255 743.65 611.495 747.595 591.39C750.005 579.08 751.24 566.555 753.84 554.25C759.155 529.125 766.845 503.94 775.37 479.737C778.25 471.564 781.005 463.28 784.38 455.3C782.5 445.356 779.065 434.755 779.03 424.659C781.965 420.594 786.22 414.923 790.13 411.891C787.585 418.376 785.205 419.745 781.525 425.349L781.265 425.757C781.675 433.505 785.1 447.783 786.865 455.89C777.19 479.47 758.015 535.545 755.785 560.25C768.66 521.24 778.955 494.639 798.235 457.918C795.215 452.539 786.41 433.016 784.7 427.292C788.035 421.382 789.72 419.114 794.205 413.966C790.305 408.932 784.33 395.737 780.485 392.487C776.365 389.006 761.36 400.763 754.455 400.891C750.255 400.969 748.09 401.868 743.465 398.456C737.96 394.394 737.385 387.402 734.57 381.746C731.885 376.353 728.765 375.588 727.76 368.976C719.24 361.487 724.3 354.215 711.855 352.228C701.17 350.65 705.45 338.979 707.59 332.836C713.525 315.799 710.705 311.201 703.665 295.918C701.395 290.995 703.49 275.871 702.625 269.885C701.325 260.863 696.95 253.563 699.95 243.733ZM797.59 451.331L799.6 455.619C820.975 417.436 837.1 392.645 874.59 368.612C873.715 366.607 870.54 358.506 869.165 357.931C838.145 376.897 808.265 397.374 786.9 427.534C790.24 435.565 794.155 443.331 797.59 451.331Z" fill="black"/>
<path d="M877.945 452.645C903.375 450.01 923.295 467.162 930.16 490.857C920.01 475.452 913.025 460.35 893.04 455.814C882.28 453.465 871.025 455.504 861.77 461.479C825.52 484.565 828.85 543.45 831.405 580.76L834.935 628.815C835.815 644.62 836.515 660.435 837.04 676.255C837.745 695.94 838.5 713.38 836.56 732.965C832.7 768.71 826.49 804.165 817.98 839.1C812.17 863.515 805.095 888.925 799.85 913.29C814.545 923.215 857.06 936.725 874.64 936.56C885.115 898.825 895.29 861.005 905.165 823.11C912.36 795.555 921.825 761.35 925.715 733.37C928.98 709.86 931.41 682.625 933.725 658.885C936.545 632.415 939.11 605.92 941.42 579.4C942.265 569.465 942.505 560.01 942.5 550.04C942.5 548.77 943.025 546.9 943.715 545.82C946.2 549.465 943.925 581.03 943.425 587.615C941.735 598.805 940.63 615.5 939.51 626.995L931.975 700.25C931.455 704.975 930.82 709.85 930.43 714.575C928.06 743.22 921.235 770.58 914.185 798.415C907.35 825.3 900.31 852.135 893.07 878.91L883.17 915.73C881.78 920.86 878.57 934.09 876.205 938.32C873.65 940.16 869.595 939.125 866.37 938.735C864.235 946.585 864.815 948.65 856.27 948.66C856.33 955.06 855.08 981.48 850.28 984.935L849.22 984.62C849.595 980.655 851.61 973.49 852.33 969.15C853.53 961.945 853.94 955.97 854.085 948.69C835.695 945.48 821.14 942.78 804.095 933.405C798.81 945.455 790.83 958.695 787.48 970.9C786.62 974.045 786.935 983.505 785.985 988.485L785.85 989.175C782.245 973.065 786.305 963.115 793.67 949.025C796.61 943.395 799.2 937.94 802.455 932.34C801.465 931.215 800.53 929.995 799.595 928.82C800.165 924.14 800.645 922.025 802.01 917.57L801.4 917.105C800.31 916.28 798.16 914.86 797.9 913.55C797.085 909.475 799.435 904.385 800.315 900.5C808.275 865.245 818.44 830.425 824.925 794.85C828.855 772.41 832.735 749.875 834.57 727.14C836.16 707.51 834.79 687.425 834.175 667.755C833.79 655.49 833.24 643.265 832.72 631.025C830.84 586.8 819.13 530.24 836.98 488.227C837.685 486.559 838.455 484.916 839.28 483.302C840.48 480.935 841.82 478.642 843.295 476.436C852.075 463.371 862.445 455.727 877.945 452.645ZM801.855 928.595C812.305 936.535 847.07 947.625 859.61 946.165C860.22 946.095 860.825 945.96 861.415 945.775L864.515 938.28C850.305 936.2 816.105 926.025 803.805 918.815C802.98 922.31 802.43 925.05 801.855 928.595Z" fill="black"/>
<path d="M543.95 362.377C544.515 350.011 551.695 339.005 560.53 330.766C574.725 317.7 593.475 310.727 612.755 311.348C629.205 311.943 643.145 317.742 654.345 329.801L655.635 330.472C677.745 374.451 689.745 424.788 718.36 466.521C733.055 487.956 752.135 487.283 764.725 508.035C752.165 502.435 740.605 496.479 726.48 501.78C709.205 508.42 701.415 526.83 694.175 542.17C689.8 551.43 684.58 569.955 675.785 574.96C668.46 579.13 658.94 588.77 652.51 592.37C647.38 588.365 649.26 566.5 650.84 560.14C655.17 542.745 657.63 524.425 665.225 508.045C665.44 507.575 663.87 505.11 663.54 504.6C660.175 496.242 649.46 487.968 641.225 484.635C637.255 490.433 630.915 497.661 624.68 500.745C614.995 505.525 609.29 497.751 603.43 491.555C601.335 489.339 597.6 487.904 596.24 484.909C597.15 482.832 599.175 482.388 601.025 480.49C603.32 478.138 605.065 475.731 607.025 473.118C599.545 478.39 590.33 487.161 585.64 476.545C583.845 472.481 572.005 475.566 570.425 472.452C566.665 467.005 569.325 447.893 564.94 443.16C550.68 427.767 538.72 412.18 544.515 388.426C545.15 392.413 544.895 397.443 545.285 401.676C546.295 412.649 550.495 422.977 557.57 431.417C560.47 434.878 566.34 440.089 567.78 443.817C570.85 451.753 570.075 460.976 571.37 469.001C572.05 473.211 581.82 471.154 584.655 472.729C587.705 474.425 587.565 477.49 590.755 479.238C596.875 480.33 603.745 471.658 608.875 469.959L609.53 470.564C610.62 475.231 601.42 482.923 597.645 484.796C604.375 488.918 606.765 493.065 612.14 497.233C627.705 509.305 643.235 475.229 649.385 466.779L649.845 466.154C648.19 472.952 645.985 477.274 641.92 482.957C652.675 485.933 658.675 492.966 664.975 501.74C666.94 504.47 672.57 517.235 668.96 518.985C668.265 517.765 667.075 511.065 666.485 508.765C661.94 521.72 659.29 534.96 656.055 548.21C652.23 563.89 649.955 573.5 653.095 589.665C661.475 581.08 666.805 578.595 675.3 572.16C683.01 566.32 690.245 543.345 695.325 533.58C702.545 519.7 710.665 504.605 726.73 499.057C738.335 495.05 748.115 498.198 758.535 503.19C750.97 495.271 742.92 490.768 733.79 484.927C729.82 482.387 724.18 477.97 720.265 475.895C700.385 465.36 692.02 461.562 681.395 441.407C669.355 434.727 665.265 426.174 661.515 413.606C660.69 419.247 659.29 425.873 654.93 429.882L654.34 429.64C653.855 426.04 657.585 421.26 658.355 417.486C660.165 408.632 658.25 403.082 654.09 395.799C650.455 398.882 647.255 400.165 642.945 402.113C637.92 410.315 633.57 410.252 624.705 409.827C628.535 408.999 638.18 407.333 639.805 403.578C638.145 403.476 632.535 405.012 629.905 405.223C621.79 405.873 615.115 404.775 607.19 403.568C613.485 406.496 621.285 408.421 627.865 411.067C639.505 415.751 651.21 422.857 656.2 434.972C660.55 445.541 660.46 458.393 656.13 468.932C657.91 455.264 658.065 445.616 648.945 434.481C633.59 415.735 610.135 423.948 590.59 415.42C578.47 410.133 568.53 401.112 558.28 392.985C555.94 391.152 549.86 388.298 546.57 386.189C548.1 386.462 551.81 387.101 553.03 387.72C567.205 394.924 573.145 404.194 588.43 411.666C609.21 421.822 627.7 413.515 645.685 428.302C649.705 431.607 652.065 434.825 655.375 438.729C643.29 412.008 622.21 414.427 599.435 402.698C592.795 399.278 574.3 385.81 567.04 380.51C579.635 384.828 588.325 394.93 600.36 399.985C607.34 402.917 615.735 403.564 623.23 403.415C661.355 402.654 665.765 372.476 669.01 371.171C671.16 378.337 660.66 390.02 655.8 394.455C660.46 401.601 660.5 403.985 661.86 412.105C664.455 413.907 664.725 416.312 665.76 419.204C669.04 428.407 673.55 433.014 681.03 439.002C678.125 431.016 675.545 421.912 670.84 414.889C668.515 411.419 664.82 408.817 662.365 405.466C683.445 418.298 677.455 438.719 693.85 455.672C701.955 464.056 711.875 468.546 721.755 474.43C699.035 448.165 681.46 396.905 668.085 364.836C663.89 354.77 659.295 342.451 654.12 332.778C651.285 328.819 645.885 324.809 641.905 322.379C611.5 303.827 567.97 316.863 550.63 347.401C547.915 352.18 546.995 357.604 543.95 362.377Z" fill="black"/>
<path d="M554.795 499.34C560.71 499.709 558.285 505.675 556.31 508.815C553.245 513.68 549.19 515.22 546.52 520.455C549.91 518.665 556.115 516.235 559.715 518.46C560.68 520.31 560.43 519.33 560.305 521.55C556.965 527.7 545.445 523.4 544.17 527.285C548.065 535.515 555.125 528.955 561.77 538.415C572.45 541.915 570.025 545.5 566.375 553.405C572.43 561.435 559.08 566.625 553.07 567.38C549.7 567.805 548.03 567.56 544.81 566.64C541.925 565.215 540.7 564.675 538.12 562.63C535.14 565.84 534.975 568.635 532.28 571.235L532.005 570.96C532.97 566.67 534.085 564.915 536.37 561.345C531.78 558.09 528.235 554.965 526.49 549.23C525.42 545.71 525.69 540.825 528.69 538.095C529.26 537.575 531.94 536.345 532.38 535.78C533.435 534.425 533.61 530.92 534.625 529.6C538.05 525.13 541.105 527.47 543.11 527.13C542.89 526.185 540.345 521.485 539.57 520.44C537.435 517.57 534.905 506.58 540.775 506.48C543.705 508.595 543.915 513.965 545.84 517.55C548.775 514.795 544.095 506.44 554.795 499.34ZM538.025 547.605C537.55 543.865 536.725 540.68 538.315 537.29C542.25 533.685 562.235 537.34 558.545 547.88C560.9 550.17 560.56 549.665 560.53 553.12C561.42 553.42 562.48 553.68 563.265 553.015C571.42 546.1 565.605 541.735 559.31 539.32C554.745 529.02 549.685 539.815 545.415 532.095C544.005 529.545 541.555 528.99 538.735 528.945C531.865 533.79 534.665 541.54 538.025 547.605ZM548.56 539.47C550.91 542.365 553.555 543.18 557.285 543.065C554.605 540.37 552.51 539.215 548.56 539.47ZM553.28 519.53C550.75 520.405 550.08 520.53 547.925 522.005L547.645 522.865C548.955 523.83 550.785 523.54 552.51 523.51C554.88 522.78 555.72 522.7 557.59 521.19L557.865 520.355C556.425 519.385 555.11 519.39 553.28 519.53ZM539.835 508.73C539.2 513.87 539.1 518.775 543.395 522.465C543.55 518.75 543.39 510.865 539.835 508.73ZM543.615 560.675C546.84 558.815 548.745 557.855 552.155 556.365C554.5 555.38 556.49 554.82 558.21 553.01L558.55 551.955C556.235 548.835 550.085 549.685 546.255 546.675C543.04 544.145 541.86 538.735 540.06 537.695C536.705 545.975 543.275 551.165 543.615 560.675ZM549.86 513.22C552.705 510.6 557.685 505.94 555.93 501.655L555.16 501.305C552.18 503.605 548.385 509.43 549.185 513.165L549.86 513.22ZM542.035 537.07C544.91 542.525 550.465 549.675 557.68 547.47V545.17C553.715 543.825 550.45 545.575 548.14 540.76C547.285 538.99 547.27 538.09 545.57 537.105C544.005 536.975 543.595 536.96 542.035 537.07ZM542.745 563.22C549.97 568.525 561.87 564.36 566.39 557C565.62 555.535 566.145 556.13 564.7 555.21C560.11 554.61 546.725 560.65 542.745 563.22C542.285 555 535.46 547.32 532.535 539.445L532.27 538.72C530.765 538.415 531.14 538.605 529.395 539.715C525.945 550.075 531.26 555.145 538.66 561.48C540.385 562.96 540.49 562.77 542.745 563.22Z" fill="black"/>
<path d="M446.168 349.348C456.555 355.535 454.644 387.538 451.643 397.475C451.161 401.321 447.124 410.254 446.942 413.591C445.625 437.781 434.96 448.11 419.845 465.653C408.869 478.392 404.42 484.775 385.75 477.56C383.445 481.808 382.51 484.106 380.907 488.647C392.128 494.097 406.446 500.675 416.269 507.89C427.52 516.155 431.217 528.69 432.343 541.945C432.499 543.775 432.823 543.81 431.98 544.865C430.314 543.84 428.717 534.12 428.218 531.575C424.229 511.215 406.521 504.35 389.261 495.443C385.965 493.572 383.617 492.309 380.174 490.759C379.765 493.756 379.222 502.95 378.352 504.765L377.724 504.745C374.254 496.804 379.55 483.558 383.656 476.437C372.024 469.435 360.918 460.057 353.532 448.012C352.837 446.878 353.026 446.567 353.368 445.737C354.997 446.463 360.931 454.442 362.811 456.438C370.507 464.415 379.385 472.605 389.968 476.541C400.834 480.582 407.716 476.47 414.467 468.169C418.554 463.144 423.967 455.894 428.335 451.392C440.055 439.313 442.458 428.534 444.872 412.403C445.412 408.848 448.023 401.805 449.361 397.819C445.449 397.235 436.555 397.386 434.655 396.557C438.025 393.516 445.667 394.93 449.641 396.243C451.897 384.134 453.182 372.728 450.074 360.633C449.177 357.14 446.501 352.682 446.168 349.348Z" fill="black"/>
<path d="M573.66 555.73C569.89 549.18 571.415 528 579.465 527.24C584.17 530.505 579.205 548.06 577.05 552.935C584.155 546.795 582.715 541.45 589.55 536.21C592.37 534.045 603.055 528.515 605.565 532.205C605.665 536.265 599.8 541.94 596.98 544.655C592.835 548.64 588.7 548.835 583.285 549.665C580.2 552.415 577.62 554.53 575.13 557.87C580.19 556.11 593.535 553.995 597.52 558.35C598.84 564.875 586.29 565.515 582.03 565.205C577.79 564.895 575.075 563.875 571.68 561.46C568.81 564.395 565.95 568.64 564.17 572.35L564.085 573.32C561.625 575.32 562.095 574.36 561.42 577.03C560.69 577.215 560.46 577.15 559.695 577.155L559.275 576.11C560.385 570.625 569.825 561.115 573.66 555.73ZM585.635 547.43C592.43 546 596.795 543.43 600.73 537.45C601.475 536.295 602.19 535.12 602.875 533.925C602.575 533.225 602.8 533.4 602.455 533.185C595.74 534.33 585.51 539.24 585.07 546.93L585.635 547.43ZM573.1 560.715C577.835 562.57 579.085 563.05 584.325 563.28C589.35 562.795 591.41 562.15 596.055 560.085C592.02 558.485 590.115 557.6 585.655 557.695C580.655 558.13 577.805 558.8 573.1 560.715ZM574.84 553.475C576.95 549.085 581.56 533.775 578.08 529.795C573.575 537.55 572.36 544.73 574.84 553.475Z" fill="black"/>
<path d="M518.98 508.47C524.875 509.065 522.395 511.77 525.465 514.07C529.535 514.515 531.18 514.265 532.26 518.64C532.055 520.585 530.455 521.94 529.165 523.805L530.565 525.995C530.15 533.13 518.145 535.275 512.53 534.94C510.825 534.205 504.72 529.71 502.955 528.555C500.465 526.93 497.965 521.625 497.975 518.485C497.965 516.825 498.65 515.24 499.855 514.1C505.645 508.675 513.855 510.71 518.98 508.47ZM506.805 525.49C506.52 523.58 506.17 522.655 506.94 520.895C512.86 514.64 527.57 530.68 529.925 519.04C529.465 517.355 529.575 517.21 528.19 516.11C526.505 515.735 525.675 516.09 524 516.49L523.145 516.135C522.29 513.46 522.125 511.645 519.58 510.33C516.39 512.455 516.865 512.775 513.235 511.065C510.515 511.565 510.39 513.935 509.695 513.945C507.12 513.99 506.45 511.09 504.225 513.765C504.125 515.315 504.16 516.105 503.625 517.585L503.01 517.98C501.84 517.305 501.76 517.22 500.755 516.31L500.1 516.49C498.47 520.435 502.975 526.465 506.14 528.555L507.145 528.505C507.515 527.17 507.235 526.83 506.805 525.49ZM525.455 529.66C526.795 528.655 527.67 528.205 528.39 526.695C527.235 524.27 521.935 526.09 520.57 525.26C515.195 521.995 514.87 521.485 508.405 521.365C509.285 534.97 514.585 534.765 525.455 529.66Z" fill="black"/>
<path d="M443.726 539.225C452.062 540.825 452.587 557.345 450.293 563.81C452.877 566.965 455.457 570.47 457.944 573.73C457.378 569.9 457.375 562.465 460.98 560.115C466.786 560.85 466.327 575.615 463.412 577.72L461.961 577.16L461.528 577.45C463.479 581.85 463.652 581.27 464.991 586.185C460.974 581.505 458.279 576.31 453.887 571.725C453.344 571.9 452.798 572.07 452.251 572.23C446.742 573.855 442.289 573.23 437.27 570.495C435.634 569.195 434.526 568.35 434.077 566.335C436.38 561.48 447.493 565.68 451.011 567.32L449.631 565.93C437.445 553.605 434.653 561.325 422.356 554.155C420.74 553.21 417.953 550.25 417.582 548.005C419.534 544.975 422.49 545.805 425.871 546.08C435.311 546.84 438.013 555.19 445.03 559.67L445.75 560.125C441.64 553.23 439.611 546.62 443.726 539.225ZM438.048 556.09C432.316 549.71 428.451 547.365 419.584 548.095C424.406 555.255 430.165 555.66 438.048 556.09ZM449.146 561.8C450.038 556.37 449.812 544.65 444.508 541.655C443.076 547.685 443.777 557.85 449.146 561.8ZM451.2 570.925C450.426 566.91 439.186 565.82 435.682 566.19C437.424 570.775 447.001 571.355 451.2 570.925ZM461.888 576.8C463.449 572.97 464.805 565.25 461.119 562.24C459.967 566.125 457.798 574.165 461.888 576.8Z" fill="black"/>
<path d="M593.65 986.545C593.38 983.38 600.26 961.345 601.47 957.24C617.88 899.285 637.475 842.28 660.155 786.48C663.53 778.32 673.97 753.125 678.6 746.03C677.105 755.155 671.065 767.135 667.225 775.95C662.815 786.265 658.575 796.655 654.51 807.11C639.815 844.88 626.525 883.185 614.67 921.94C610.485 935.635 606.375 949.36 602.345 963.1C600.285 970.055 598.245 977.445 595.78 984.265C595.165 985.97 595.045 985.725 593.65 986.545Z" fill="black"/>
<path d="M516.04 572.96C515.44 569.89 513.71 561.215 512.67 558.575C506.915 555.72 489.597 552.815 497.26 544.41C498.42 543.14 499.915 543.175 501.515 542.995C503.29 540.925 501.04 535.045 506.495 534.315C509.335 533.94 511.5 538.05 513.255 539.65L514.08 539.195C517.78 537.18 520.485 536.76 522.325 541.45C522.92 542.97 522.65 546.28 521.82 547.83C518.84 551.22 518.655 549.27 518.12 554.735C516.895 556.42 516.56 556.44 514.605 557.38C515.54 561.935 516.89 567.695 517.49 572.21C518.55 567.75 520.795 560.415 525.695 558.995C529.11 560.015 528.32 564.945 527.465 567.575C526.19 571.435 523.855 574.855 520.72 577.44C519.44 577.505 519.525 577.51 518.325 577.045C517.53 579.43 518.855 583.67 518.14 586.835L517.57 586.99C516.9 585.335 516.985 584.885 516.95 583.14C517.14 579.26 516.685 576.72 516.04 572.96ZM512.66 555.81C514.23 555.16 515.625 554.845 516.515 553.485C515.735 546.04 521.345 547.735 520.965 542.205C520.04 540.69 519.955 540.775 518.43 539.985C515.965 539.985 514.42 541.485 512.43 542.995C510.605 539.015 510.405 536.74 505.41 536.885C503.295 542.135 505.83 543.27 504.845 545.65C502.06 545.52 497.44 544.785 497.555 548.64C501.345 554.93 503.315 550.69 506.84 553.06C508.125 554.99 507.83 555.195 509.61 556.105C511.16 556.07 511.18 556.16 512.66 555.81ZM520.05 574.97C522.545 572.395 528.82 564.445 525.04 561.255C522.5 563.88 518.655 571.04 519.615 574.63L520.05 574.97Z" fill="black"/>
<path d="M782.35 180.214C788.67 179.741 795.02 180.181 801.215 181.518C808.97 183.269 815.1 185.566 819.415 192.447C804.255 183.249 793.375 180.823 775.195 183.734C757.925 186.499 745.7 196.016 731.175 204.143C718.77 210.51 704.735 213.667 696.705 226.172C691.3 234.586 693.885 241.407 687.88 250.554C683.3 257.525 683.63 268.185 685.21 276.378C686.97 283.93 690.675 290.638 696.825 295.538C699.045 297.305 700.87 297.756 702.91 299.912C701.91 300.917 702.485 300.499 700.94 300.858C698.6 300.384 696.95 299.043 695.215 297.457C685.935 288.955 681.865 281.048 681.38 268.476C680.645 260.44 683.16 253.378 687.12 246.505C689.895 242.052 690.305 239.625 690.94 234.545C693.445 214.489 716.58 209.1 730.935 201.267C742.105 195.169 749.505 189.361 761.125 184.881C767.92 182.244 775.075 180.67 782.35 180.214Z" fill="black"/>
<path d="M741.73 275.798C744.735 276.08 750.05 280.994 753.135 282.781C756.9 284.963 762.975 286.693 766.12 288.239C772.755 291.5 779.845 309.237 782.1 315.871C782.92 309.334 783.7 299.917 786.75 294.159C788.155 291.504 793.045 285.298 794.92 282.601C799.165 276.509 808.455 275.367 813.83 280.967C819.43 286.808 820.05 293.17 820.17 300.853C827.58 307.027 828.885 320.356 834.09 328.72C837.34 333.934 842.26 336.875 845.005 341.666C832.135 335.389 829.18 324.706 824.49 312.058C822.895 308.402 821.88 306.118 819.87 302.711C818.52 311.638 815.875 324.267 806.81 328.816C804.51 329.97 801.835 330.277 799.385 329.396L799.13 328.71C800.985 327.193 804.19 327.454 806.165 326.155C818.01 318.377 823.79 285.346 807.075 280.014C803.27 278.8 798.65 281.679 796.3 284.436C794.3 286.788 794.06 291.868 792.26 292.954L791.72 291.696L791.085 291.516C785.89 297.49 786.19 316.21 781.335 315.526C778.43 313.236 771.005 296.896 767.485 291.491C759.965 287.227 747.09 285.534 741.73 275.798Z" fill="black"/>
<path d="M387.075 291.713C407.021 290.269 432.676 300.054 444.824 316.494C446.172 318.318 449.423 326.519 450.705 327.443C455.004 330.542 459.846 332.382 462.66 337.634C470.163 349.998 472.722 368.066 469.123 382.028C466.342 393.19 459.156 402.747 449.205 408.518C451.183 405.413 453.946 402.338 456.415 399.584C463.603 391.567 466.517 385.215 467.958 374.622C469.268 361.17 465.796 339.975 454.313 331.685C446.996 328.401 446.553 323.079 442.139 317.297C424.397 294.059 385.854 287.972 360.224 300.647C355.376 303.045 351.236 306.433 346.605 308.878L345.994 309.198C346.544 308.475 347.114 307.768 347.705 307.079C356.929 296.34 373.616 292.626 387.075 291.713Z" fill="black"/>
<path d="M477.548 524.325C483.848 524.54 483.427 530.47 483.999 535.37C485.59 533.02 486.914 530.635 489.972 532.175C493.025 536.795 490.958 550.96 485.125 551.64C484.884 548.57 491.882 542.57 488.734 533.48L487.984 533.235C484.683 535.33 483.045 546.95 481.224 551.79C480.847 547.195 484.529 527.42 478.308 527.22C476.406 528.175 475.65 529.88 474.458 531.745C472.128 532.8 468.048 534.375 466.617 536.38C462.466 542.195 473.996 547.355 477.801 549.345C480.649 551.06 484.738 554.895 485.081 558.38C484.276 558.16 479.939 553.99 479.229 552.95C476.353 548.72 459.129 545.685 457.535 551.23C461.977 557.24 474.968 554.45 481.204 553.455C472.959 558.71 464.573 558.295 456.425 553.405C455.24 552.695 455.374 552.805 455.198 551.585C456.479 550.03 458.059 548.405 458.435 546.47C456.467 544.635 454.839 543.485 453.988 541C454.716 536.22 457.974 537.995 458.671 536.46C462.175 528.74 464.396 525.73 473.468 527.235C475.014 527.49 476.362 525.565 477.548 524.325ZM461.318 546.5L467.925 546.285L468.391 545.825C464.604 542.29 459.999 539.665 465.473 534.45C467.261 532.745 471.847 531.015 472.779 529.365C471.382 528.295 469.632 528.535 467.827 528.605C461.742 531.685 463.789 532.985 460.179 538.28C459.739 538.925 457.358 538.595 456.171 540.29C456.576 542.475 459.518 544.79 461.318 546.5Z" fill="black"/>
<path d="M822.35 190.585C850.675 189.156 876.7 227.021 876.48 252.437C876.295 273.331 867.13 298.229 864.935 319.212C864.49 323.456 865.095 335.76 862.7 338.376L861.49 338.347C861.825 327.449 862.15 317.459 864.34 306.694C867.29 292.194 871.49 278.011 872.265 263.154C872.395 260.619 871.94 254.119 872.49 252.137L873.66 253.254L874.055 252.902C873.865 228.934 851.72 195.14 825.72 193.064C824.02 192.928 822.605 193.327 821.67 191.824L822.35 190.585Z" fill="black"/>
<path d="M313.472 763.795L313.971 764.26C314.937 766.41 318.727 865.535 318.669 876.05C318.638 881.76 318.672 899.29 317.841 905.77C317.022 912.155 316.587 924.045 310.688 928.29C307.069 930.895 304.754 931.095 300.619 930.73C298.989 930.05 299.618 930.56 298.578 929.255C300.318 927.525 310.951 931.07 313.571 917.85C316.143 904.88 316.132 892.905 316.192 879.75C316.332 848.88 313.824 818.15 313.141 787.305C313.037 782.685 312.489 767.83 313.472 763.795Z" fill="black"/>
<path d="M444.331 344.361C445.837 344.667 445.988 344.534 447.091 345.528L446.826 346.234L444.859 346.824C441.959 347.666 439.818 349.986 438.01 352.228C420.711 373.681 397.919 384.61 370.184 381.772C366.294 381.374 357.509 392.289 352.853 392.412C349.402 392.504 340.387 386.653 337.342 384.445L337.206 383.581C339.213 383.147 342.838 384.988 345.432 385.243C347.644 385.461 349.047 385.544 351.305 385.586C358.513 385.326 361.295 384.521 367.765 381.304C361.065 380.111 351.9 378.039 346.628 373.46L346.79 372.909C350.225 373.483 355.435 376.204 359.079 377.192C364.285 378.699 369.825 379.109 375.137 379.491C398.261 381.15 419.002 370.804 433.715 353.296C436.811 349.612 439.915 346.598 444.331 344.361ZM357.788 388.52L358.031 387.68C355.14 387.244 350.641 387.909 346.744 387.543C350.586 391.213 353.19 390.869 357.788 388.52Z" fill="black"/>
<path d="M220.817 227.583L223.34 227.246L224.051 228.194C225.052 227.928 224.668 227.858 225.21 228.02C224.56 228.664 224.743 228.645 223.95 228.873C214.755 231.516 205.77 235.251 198.75 242.18C187.214 253.567 180.701 273.683 177.958 289.375C176.802 295.985 177.798 304.922 178.486 311.462C179.178 318.044 180.183 324.612 180.878 331.167C181.656 338.96 181.885 346.798 181.563 354.624C181.575 355.905 181.63 355.474 181.262 356.675L180.43 356.686C178.184 353.761 179.198 339.72 178.692 334.904C176.081 310.842 171.471 292.197 180.579 268.731C188.477 248.386 197.601 232.56 220.817 227.583Z" fill="black"/>
<path d="M542.35 362.953L542.7 363.343C542.41 365.145 536.36 371.695 535.11 374.484C524.76 397.576 527.84 424.929 551.195 438.118L550.3 437.224C541.22 428.095 535.195 417.971 535.2 404.75C535.205 398.641 537.48 387.294 545.495 387.626C544.34 389.935 541.015 391.706 538.855 395.604C534.995 408.902 537.935 416.115 544.465 427.806C550.715 438.991 555.33 436.27 560.7 442.034L560.07 442.532C556.86 442.851 556.35 441.969 553.51 441.276C543.135 438.849 536.995 429.834 532.04 421.353C523.725 407.122 526.09 370.959 542.35 362.953Z" fill="black" fill-opacity="0.988235"/>
<path d="M296.728 483.622C304.815 482.92 313.612 491.761 319.799 496.624C325.628 501.295 331.673 505.695 337.912 509.805C347.551 516.03 370.502 526.01 382.917 520.485C393.774 515.655 381.556 496.844 382.331 494.179C383.862 494.507 383.123 494.211 384.386 495.751C397.928 518.545 386.301 528.595 362.734 523.05C340.468 517.805 324.709 503.66 307.326 489.771C304.084 487.181 299.967 486.159 296.728 483.622Z" fill="black" fill-opacity="0.988235"/>
<path d="M256.781 213.216C261.056 212.659 268.393 213.142 272.691 213.832C278.927 214.87 285.039 216.552 290.928 218.852C306.206 224.696 319.512 233.823 334.822 239.213C337.014 239.984 341.006 242.017 342.36 243.877C338.048 244.873 319.784 235.481 315.318 233.219C293.028 220.99 265.816 208.978 240.339 219.526C237.628 220.648 231.402 225.117 228.646 226.874L228.311 226.279C229.839 218.308 249.509 213.632 256.781 213.216Z" fill="black"/>
<path d="M480.68 499.13C492.301 502.435 498.91 526.895 497.09 537.82C495.528 536.875 493.477 533.845 492.261 532.325C485.948 524.44 479.321 509.425 480.68 499.13ZM495.565 532.3C494.598 522.99 490.835 507.435 482.254 502.115C483.173 509.675 488.8 528.475 495.565 532.3Z" fill="black"/>
<path d="M387.772 441.379C403.174 445.625 403.324 447.523 420.471 447.55C418.644 450.583 417.751 451.846 415.512 454.59C404.6 463.511 388.865 453.669 387.772 441.379ZM413.919 453.206L417.01 449.591C403.937 449.674 401.578 447.012 390.117 444.357C395.284 452.852 404.273 460.558 413.919 453.206Z" fill="black"/>
<path d="M480.884 605.99C482.358 606.115 483.822 606.335 485.266 606.65C494.668 608.745 507.565 619.42 505.21 629.84C505.34 629.875 503.835 629.525 504.025 629.54C496.835 629.06 478.612 613.27 480.884 605.99ZM503.755 627.47C500.73 615.865 493.497 610.9 482.45 607.73C486.911 616.785 493.922 624.375 503.755 627.47Z" fill="black"/>
<path d="M308.908 553.735C317.632 559.65 321.339 652.27 322.8 668.405L321.528 668.295C317.026 661.62 317.256 583.97 312.024 570.76C311.405 569.2 309.087 556.055 308.908 553.735Z" fill="black"/>
<path d="M658.4 350.993L658.755 351.368C657.995 353.684 651.61 358.058 649.32 359.426C634.495 368.282 618.285 370.679 601.37 369.044C583.625 367.329 569.815 360.709 553.44 369.316L553.25 368.828C555.36 363.703 567.68 362.335 572.825 362.735C582.55 363.491 592.31 365.698 602.01 366.699C608.235 367.31 614.51 367.245 620.72 366.506C636.83 364.52 645.25 359.722 658.4 350.993Z" fill="black"/>
<path d="M676.72 365.306C679.335 366.99 689.09 384.817 691.565 388.977C697.185 398.251 702.89 407.472 708.68 416.639C717.79 430.837 726.675 445.178 735.33 459.655C738.075 464.315 743.07 472.407 745.18 477.136C740.37 474.091 681.525 376.338 676.72 365.306Z" fill="black" fill-opacity="0.976471"/>
<path d="M346.974 260.392L347.548 261.058C347.005 262.558 345.775 263.314 344.445 264.222C334.369 271.096 324.448 271.665 312.872 269.627C323.156 275.395 335.324 281.703 346.633 273.744C348.44 272.472 349.775 271.034 351.713 269.783L352.52 269.977C351.98 273.422 347.104 276.114 344.23 277.721C331.55 282.528 323.804 278.473 312.756 272.253C309.37 270.347 305.964 268.949 302.728 266.636C303.129 266.185 310.014 267.468 311.236 267.615C326.882 269.501 333.941 268.337 346.974 260.392Z" fill="black"/>
<path d="M433.712 894.105L434.853 894.9C436.66 899.375 442.614 978.005 442.288 984C442.14 983.82 441.985 983.645 441.845 983.455C440.274 981.34 432.595 901.015 433.712 894.105Z" fill="black"/>
<path d="M660.3 351.332C661.2 352.577 661.27 353.563 660.89 355.184C658.355 366.021 647.9 377.277 639.04 383.346C624.61 393.237 610.63 396.696 593.63 393.705C592.775 393.439 593.22 393.673 592.415 392.819C593.91 392.268 599.76 392.579 601.575 392.657C627.42 393.759 652.3 375.396 660.3 351.332Z" fill="black"/>
<path d="M610.39 329.708C617.11 328.947 646.345 332.52 651.63 337.301L651.65 337.992C647.325 337.327 643.215 335.804 638.825 334.809C621.205 330.819 609.785 330.459 592.52 335.273C577.305 340.537 572.12 343.751 561.15 354.994C567.98 338.767 594.5 331.132 610.39 329.708Z" fill="black"/>
<path d="M429.764 330.564C432.287 330.455 438.975 330.046 439.937 332.748C436.598 332.848 432.98 332.058 429.661 332.839C414.501 336.405 404.26 350.292 392.633 359.561C387.54 363.622 382.538 366.385 376.625 368.765C372.139 370.521 370.25 370.721 365.648 370.874C373.471 367.847 382.556 364.299 389.244 359.254C403.614 348.413 411.246 335.069 429.764 330.564Z" fill="black"/>
<path d="M576.88 654.385C580.52 654.645 596.52 661.135 600.885 662.655C608.37 665.205 616.01 667.29 623.75 668.9C632.415 670.65 641.135 671.505 649.77 673.135C650.84 673.335 651.875 674.275 652.615 675.06C637.44 676.545 587.955 663.915 576.88 654.385Z" fill="black"/>
<path d="M513.83 768.01C514.065 763.38 513.295 739.825 514.125 738.065C516.245 741.15 515.975 759.76 515.93 764.525C515.605 767.04 516.09 772.42 514.905 773.86C512.55 771.985 510.09 759.14 509.475 755.72C508.72 762.1 509.635 766.435 508.195 773.21L507.77 773.44C506.485 767.72 508.04 745.27 508.065 737.72L509.245 738.385C510.225 740.16 511.115 753.125 511.62 756.545C512.175 760.4 512.91 764.225 513.83 768.01Z" fill="black"/>
<path d="M716.53 383.378C721.29 386.024 764.54 459.425 769.98 469.651C766.98 468.033 721.205 392.499 716.53 383.378Z" fill="black" fill-opacity="0.968627"/>
<path d="M659.625 315.636C661.105 315.547 664.795 315.345 666.05 315.552C676.59 317.283 698.075 331.781 704.32 339.644C699.9 337.603 698.22 336.168 694.235 333.241C690.55 330.322 686.785 328.246 682.755 325.772C672.71 319.605 667.475 315.784 655.23 318.922C652.85 319.534 649.425 322.018 647.24 321.788C648.23 317.676 656.045 316.259 659.625 315.636Z" fill="black"/>
<path d="M242.708 235.597C263.718 234.252 282.509 251.914 296.878 264.835C294.134 263.604 292.91 262.821 290.438 261.237C275.451 249.62 267.252 239.706 245.657 237.938C240.913 237.55 237.097 238.215 232.472 238.14C235.864 237.214 239.277 236.366 242.708 235.597Z" fill="black" fill-opacity="0.984314"/>
<path d="M292.737 298.956C293.303 308.629 270.96 313.192 266.413 321.975C264.617 325.445 258.203 336.828 255.409 338.277L255.071 336.769C258.715 330.668 259.864 326.316 264.412 320.457C271.134 311.797 278.301 310.8 286.76 304.77C288.552 303.492 291.161 300.64 292.737 298.956Z" fill="black"/>
<path d="M468.22 618.605C475.169 617.97 481.792 619.63 486.441 625.01C480.709 622.435 466.435 617.88 461.233 622.995L461.573 623.815C464.019 625.7 468.251 626.695 471.271 627.415C474.196 627.69 483.457 627.125 484.502 627.645C479.52 631.755 460.072 629.15 457.427 623.125L457.952 622.12C460.823 619.93 464.717 619.295 468.22 618.605Z" fill="black"/>
<path d="M654.345 329.8C667.19 319.488 692.9 357.383 698.525 366.881L698.055 366.393C691.505 359.495 667.565 324.175 655.635 330.472L654.345 329.8Z" fill="black" fill-opacity="0.972549"/>
<path d="M426.27 405.385L426.874 406.261C424.575 413.457 425.288 420.994 425.824 428.423C426.478 437.487 422.647 438.514 414.612 438.662L414.322 437.988C416.048 436.132 422.733 436.305 423.286 434.184C425.441 425.925 419.841 413.674 426.27 405.385Z" fill="black"/>
<path d="M296.801 268.904C298.779 271.394 293.928 277.042 292.236 278.737C285.443 285.539 278.241 289.055 268.569 289.049L268.069 288.557C268.381 287.066 273.277 287.259 275.063 286.687C277.041 286.413 278.697 285.469 280.51 284.833C288.947 281.877 291.426 274.195 296.801 268.904Z" fill="black"/>
<path d="M522.025 728.77L522.855 729.42C523.69 731.235 532.02 764.155 532.05 765.725C528.08 763.09 521.66 734.075 522.025 728.77Z" fill="black"/>
<path d="M517.53 731.885C517.61 731.955 517.695 732.02 517.77 732.09C519.74 734.02 524.345 765.43 524.28 769.37C523.84 769.15 523.295 768.755 522.865 768.47C521.37 764.22 516.455 735.25 517.53 731.885Z" fill="black"/>
<path d="M324.788 246.453C325.501 246.531 325.143 246.399 325.801 246.98C325.322 247.832 324.932 248.217 324.11 248.734C314.172 254.98 304.32 255.645 293.175 253.709L291.836 253.081L291.734 252.581C294.596 252.058 298.435 252.488 301.467 252.51C310.543 252.577 316.788 250.315 324.788 246.453Z" fill="black"/>
<path d="M312.68 327.655C321.378 326.678 328.062 329.506 332.99 336.664C329.915 335.332 327.956 334.042 325.117 332.272C316.532 328.544 310.277 330.409 301.657 332.318C306.137 328.604 306.968 328.496 312.68 327.655Z" fill="black"/>
<path d="M561.95 602.51C566.655 602.175 574.895 602.78 571.65 609.74C566.235 610.655 559.76 609.685 561.95 602.51ZM570.43 608.24C569.11 603.965 566.73 604.62 562.81 604.565C564.285 608.3 566.82 608.205 570.43 608.24Z" fill="black"/>
<path d="M754.82 404.843C758.96 406.109 775.96 430.445 777.135 435.103C774.455 433.325 756.335 408.367 754.82 404.843Z" fill="black" fill-opacity="0.976471"/>
<path d="M261.562 956.75C262.88 959.545 257.404 983.525 255.613 986.655C253.589 982.11 259.517 961.505 261.562 956.75Z" fill="black"/>
<path d="M394.261 386.204C398.398 385.703 412.505 387.545 412.971 391.909C411.5 392.183 410.835 391.707 409.424 391.114L408.854 390.87C405.413 389.543 404.733 389.438 401.277 388.801C397.721 388.146 389.155 389.637 386.797 388.237C388.5 386.309 391.677 386.41 394.261 386.204Z" fill="black"/>
<path d="M450.552 347.958C453.316 348.108 456.097 350.29 457.668 352.449C463.382 360.304 463.986 369.484 462.848 378.72C462.587 378.644 462.327 378.568 462.066 378.492C461.81 375.553 462.076 372.91 461.919 369.896C461.524 362.625 458.098 355.517 452.877 350.494C451.743 349.403 451.508 349.299 450.552 347.958Z" fill="black" fill-opacity="0.988235"/>
<path d="M580.6 420.107C582.31 419.995 583.73 419.667 585.175 420.459C583.545 421.82 576.46 423.429 573.965 424.46C571.095 425.647 570.21 426.155 567.575 427.8C566.7 428.543 566.22 428.874 565.285 429.544L564.535 429.397V428.366C568.15 423.068 574.7 421.353 580.6 420.107Z" fill="black"/>
<path d="M292.442 279.742C293.71 282.271 292.147 293.556 291.736 296.814C288.371 300.573 287.543 301.44 282.827 303.258C282.665 301.8 284.751 300.936 286.164 299.912C292.765 295.129 288.886 286.378 292.442 279.742Z" fill="black" fill-opacity="0.988235"/>
<path d="M302.416 344.628C306.632 344.054 320.625 344.417 320.883 349.954C317.586 348.812 302.922 346.244 302.339 345.857L302.416 344.628Z" fill="black"/>
<path d="M385.599 402.196C389.433 401.743 404.517 403.904 406.763 407.07C403.188 407.812 388.025 404.749 385.599 402.196Z" fill="black"/>
<path d="M245.992 314.284C249.631 317.629 251.731 332.735 253.017 338.311C249.385 336.602 246.889 318.98 245.992 314.284Z" fill="black"/>
<path d="M564.17 572.35C568.01 570.19 571.365 568.48 575.465 566.805C571.45 572.61 568.62 575.14 561.42 577.03C562.095 574.36 561.625 575.32 564.085 573.32L564.17 572.35Z" fill="black" fill-opacity="0.980392"/>
<path d="M293.404 380.457C293.821 380.825 293.547 380.541 293.985 381.49C293.193 382.942 288.402 384.653 285.813 387.169C282.249 390.633 282.03 391.487 279.089 395.323L278.478 394.755C278.321 388.41 288.481 382.769 293.404 380.457Z" fill="black"/>
<path d="M590.595 433.3L591.66 433.848L591.54 434.98C588.905 439.073 584.02 442.001 579.705 444.085L578.65 443.926L578.395 443.23C579.13 442.127 588.435 435.228 590.595 433.3Z" fill="black"/>
<path d="M390.618 434.318L391.228 434.382L391.647 434.917C389.829 437.549 384.596 438.791 380.226 444.73L379.446 444.907L379.313 443.983C380.855 438.97 386.123 436.849 390.618 434.318Z" fill="black" fill-opacity="0.980392"/>
<path d="M431.913 410.083C435.225 410.209 440.702 410.345 442.84 413.003L442.358 414.065C439.384 413.111 432.66 413.096 431.196 411.036L431.913 410.083Z" fill="black"/>
<path d="M287.524 339.507C291.239 339.497 294.014 341.833 296.654 344.1C293.78 343.922 289.59 341.488 287.524 339.507Z" fill="black" fill-opacity="0.972549"/>
<path d="M287.713 346.227C289.814 345.995 295.597 345.182 296.666 347.259C294.4 347.516 289.02 348.123 287.713 346.227Z" fill="black" fill-opacity="0.952941"/>
<path d="M287.451 597.195L289.081 596.32C289.524 599.47 290.086 602.95 290.4 606.085C289.652 603.82 288.296 599.22 287.451 597.195Z" fill="black" fill-opacity="0.0784314"/>
<path d="M516.04 572.96C516.685 576.72 517.14 579.26 516.95 583.14L516.565 583.055C516.495 581.24 516.085 579.43 515.745 577.64L516.04 572.96Z" fill="black" fill-opacity="0.113725"/>
<path d="M551.65 371.783L552.27 372.556C551.75 374.308 551.29 375.508 550.615 377.211L549.995 376.753C550.025 375.011 550.925 373.409 551.65 371.783Z" fill="black" fill-opacity="0.890196"/>
</g>
<defs>
<clipPath id="clip0_16_5258">
<rect width="1024" height="1024" fill="white"/>
</clipPath>
</defs>
</svg>
