<svg width="32" height="32" viewBox="0 0 32 32" fill="none" xmlns="http://www.w3.org/2000/svg">
<path d="M0 10C0 4.47715 4.47715 0 10 0H22C27.5228 0 32 4.47715 32 10V22C32 27.5228 27.5228 32 22 32H10C4.47715 32 0 27.5228 0 22V10Z" fill="#AAC7E1" fill-opacity="0.3"/>
<path d="M9.20701 7.99062C9.38877 7.97033 9.59781 7.97438 9.78149 7.97534C10.6329 7.97984 11.4842 7.98012 12.3356 7.98005L18.3639 7.98043L21.2191 7.98015C22.5178 7.97675 23.5535 7.87409 24.5975 8.87255C25.8221 10.0437 25.5704 11.2931 25.6145 12.8125C24.794 12.8408 23.9103 13.1565 23.3368 13.7499C22.326 14.7959 22.4201 15.8223 22.4223 17.1424L22.4228 17.5999L9.5701 17.597L9.57135 17.5826C9.59281 17.3059 9.57038 16.9206 9.57706 16.639C9.60217 15.5801 9.50441 14.7046 8.76995 13.8789C8.09917 13.1248 7.36145 12.8864 6.38403 12.8143C6.46098 11.4878 6.14936 10.6207 6.99249 9.3616C7.5186 8.57593 8.28643 8.17186 9.20701 7.99062Z" fill="#AAC7E1"/>
<path d="M6.17623 14.4143C6.26243 14.4048 6.37593 14.3977 6.46218 14.4062C8.15634 14.5716 7.99757 16.006 7.98423 17.2941C7.97767 17.9271 7.99963 18.5541 7.97744 19.1747C8.51577 19.2076 9.23877 19.1876 9.79262 19.1873L12.991 19.187L24.0127 19.1912C24.0097 19.1642 24.0062 19.133 24.0065 19.1058C24.0145 18.3694 24.0058 17.6311 24.0092 16.8949C24.0109 16.5289 23.9929 16.1452 24.0423 15.7844C24.076 15.5382 24.2185 15.0565 24.4063 14.8913C24.7732 14.5685 25.2898 14.3309 25.7849 14.42C26.1411 14.4749 26.4906 14.6205 26.7508 14.876C27.2565 15.3727 27.2037 16.1461 27.2036 16.8L27.2035 18.1501L27.2027 23.02C27.2065 23.478 27.2796 24.1454 27.0018 24.5241C26.6602 24.9897 26.1761 24.8591 25.7825 24.5689C25.5597 24.0878 25.5898 23.756 25.6099 23.2334L13.28 23.2266L8.62373 23.2269C7.9694 23.227 7.01563 23.2593 6.38781 23.2292C6.39384 23.4544 6.40614 23.7051 6.38319 23.9277C6.30766 24.6605 6.05061 24.8702 5.34684 24.8093C5.01377 24.5673 4.83097 24.4735 4.80561 24.0252C4.77915 23.5572 4.79166 23.0924 4.79179 22.6238L4.79249 19.9163L4.79193 17.263C4.79181 16.4452 4.66695 15.5587 5.22878 14.8921C5.42842 14.6553 5.87133 14.4452 6.17623 14.4143Z" fill="#AAC7E1"/>
</svg>
