<svg width="32" height="32" viewBox="0 0 32 32" fill="none" xmlns="http://www.w3.org/2000/svg">
<path d="M0 10C0 4.47715 4.47715 0 10 0H22C27.5228 0 32 4.47715 32 10V22C32 27.5228 27.5228 32 22 32H10C4.47715 32 0 27.5228 0 22V10Z" fill="#AAC7E1" fill-opacity="0.3"/>
<path d="M12.622 12.4016C12.5072 11.9669 12.254 11.411 12.0314 11.023C11.7857 10.5946 11.5104 10.2469 11.3655 9.76667C11.0437 8.6791 11.2825 7.481 11.8234 6.49892C12.1278 5.94622 12.4415 5.30457 13.2038 5.70065C13.9829 6.10548 13.3409 6.92938 13.4088 7.16769C13.6055 7.31916 14.2473 7.35144 14.5812 7.49919C14.5519 7.62641 14.6713 7.52445 14.7657 7.68336L14.7172 7.64471C14.8289 7.80877 14.893 7.79183 15.0878 7.80048C15.2658 7.80835 15.2099 7.80238 15.2843 7.93862L15.3146 7.92472C15.3075 7.8867 15.307 7.90574 15.3205 7.86606L15.3554 7.88717L15.3658 7.96932C15.4244 8.01936 15.5981 8.05768 15.6872 8.09525C15.6883 8.11201 15.6897 8.12877 15.6913 8.14548C15.7016 8.24881 15.7082 8.25669 15.7753 8.31224C16.2762 8.34167 16.2627 8.12106 16.6268 7.95338C16.876 7.83863 17.2075 7.67474 17.445 7.56669C17.6948 7.45309 18.2965 7.4967 18.5791 7.33848C18.9481 7.15595 18.3692 6.62427 18.5039 6.25881C18.6383 5.89425 19.0714 5.82085 19.1227 5.66015C19.1835 5.63284 19.4033 5.64838 19.4976 5.64509C20.0689 5.91907 20.5656 7.25968 20.6794 7.8669C20.8336 8.6904 20.8303 9.42062 20.4518 10.1925C20.3121 10.482 20.0944 10.8222 19.9192 11.1016C19.6413 11.5446 19.5439 11.9098 19.3758 12.3866C19.6344 12.6948 20.0632 12.909 20.3812 13.1547C22.3176 14.6502 23.9206 16.5814 24.7972 18.884C24.9246 19.2186 25.3897 20.6934 25.3729 21.0093C25.351 21.2902 25.3829 22.2685 25.4269 22.5445C25.4699 22.3518 25.5317 21.832 25.4666 21.6487L25.4914 21.6159C25.5141 21.6336 25.5518 21.767 25.5644 21.8049C25.6682 23.6138 25.7618 23.8921 23.8945 24.3641C22.9524 24.6021 22.1462 24.7739 21.168 24.8194C20.6206 24.8448 19.7615 25.2378 19.18 25.335C17.5565 25.6134 15.9094 25.7415 14.2696 25.5209C13.8153 25.4597 13.3808 25.4394 12.9248 25.3404C12.5814 25.2627 12.2404 25.1749 11.9022 25.0771C11.6059 24.9897 11.2857 24.8753 10.9816 24.8315C10.6721 24.7869 10.3483 24.7739 10.0361 24.7341C9.36525 24.6539 8.70178 24.521 8.05188 24.3364C7.9557 24.3099 7.63177 24.2281 7.56797 24.1902C7.49578 24.022 6.97725 23.9239 6.88702 23.8228L6.90778 23.7313C6.81164 23.6435 6.72413 23.5865 6.59503 23.5634C6.5835 23.514 6.58847 23.5367 6.59569 23.5009C6.62374 23.3622 6.49718 23.445 6.49449 23.2744C6.48736 22.8236 6.53604 22.3664 6.48155 21.9173C6.48042 21.8634 6.48813 21.8592 6.52106 21.8128L6.52247 21.8532C6.65991 21.714 6.64282 21.5496 6.62937 21.3717C6.62705 21.2714 6.63028 21.1638 6.63141 21.063C6.65956 20.6176 6.79596 20.1938 6.91922 19.7643C7.45256 17.9513 8.39752 16.286 9.68042 14.8984C9.88275 14.6831 10.1574 14.4614 10.3745 14.2508C10.4725 14.1556 10.6698 13.9192 10.7537 13.8537C11.0793 13.5997 11.4137 13.3078 11.7418 13.0647C12.0943 12.8035 12.3191 12.7334 12.622 12.4016ZM9.03127 22.9524C9.13137 23.0878 9.45281 23.1264 9.6139 23.1398C9.55301 23.1719 9.46716 23.1785 9.39671 23.1893L9.39059 23.2025C9.60441 23.2297 10.3627 23.3231 10.5341 23.1734C10.6336 23.0865 10.6 22.3735 10.5856 22.2086C10.6631 21.2913 11.6776 18.3581 12.4053 17.6857C12.5242 17.5759 12.7082 17.5831 12.8616 17.5954C13.1092 17.6153 13.272 17.7041 13.4288 17.8979C13.5501 18.0477 13.6274 18.2625 13.5949 18.4582C13.5207 18.9042 13.2155 19.3074 13.0433 19.7263C12.953 19.9458 12.8864 20.1619 12.8022 20.372C12.4714 21.197 12.2143 21.9979 12.1101 22.8846C12.0969 22.9964 12.0185 23.3561 12.085 23.4098C12.2542 23.5465 12.9057 23.699 13.0873 23.7202C13.11 23.7227 13.1327 23.7244 13.1555 23.7254C13.2265 23.8271 13.4206 23.9072 13.5408 23.9211L13.5297 23.9254C13.6957 23.9255 13.8097 23.9194 13.9715 23.9596L13.9913 23.9808C13.8947 23.9831 13.7981 23.9829 13.7014 23.9803C13.9442 24.1015 14.7049 24.0471 14.987 24.0282C15.1797 24.0153 15.5535 24.0414 15.7304 24.0127C15.9659 23.9837 16.5908 24.0034 16.8478 23.9951C17.4106 23.9769 19.5286 23.7038 19.8997 23.4228C19.9549 23.3183 19.9279 23.2694 19.9178 23.1641C19.7998 21.9334 19.3625 20.8161 18.9262 19.6715C18.7538 19.2421 18.4033 18.7862 18.3947 18.3108C18.3893 18.0154 18.7119 17.7683 18.9179 17.6131C18.9734 17.6069 19.0291 17.6019 19.0849 17.5982C19.3116 17.5822 19.4728 17.5932 19.6485 17.7483C20.3167 18.338 21.1119 20.8238 21.3185 21.7194C21.3995 22.0704 21.4866 22.733 21.512 23.0971C21.6777 23.1222 22.0249 23.1244 22.1818 23.0961C22.4128 23.0543 23.9204 22.7996 23.9111 22.5509C23.8613 21.2151 23.4242 19.7628 22.8121 18.5795C22.1117 17.2141 21.1578 15.9945 20.0013 14.9859C19.6516 14.6788 19.2054 14.3289 18.8429 14.0306C18.2964 13.5808 17.5119 13.5135 17.6014 12.584C17.7184 11.3674 18.4581 10.5027 19.0049 9.46409C19.0934 9.29647 19.1338 9.00624 19.1774 8.81349C18.4893 8.8123 17.7726 8.99462 17.1829 9.35466C17.0362 9.44422 16.9188 9.5855 16.7758 9.67679C16.6031 9.68579 16.4361 9.95143 16.2154 9.99158C16.0546 10.0208 15.7779 10.0268 15.6397 9.94086L15.6307 9.84652C15.5621 9.75195 15.4007 9.72477 15.3716 9.6815C15.2696 9.52958 15.4019 9.6282 15.2031 9.48856C14.633 9.08816 13.5304 8.64643 12.8305 8.78781C12.8844 9.76435 14.1421 11.02 14.3018 12.0841C14.364 12.4989 14.5573 12.9269 14.1627 13.3285C13.6896 13.7562 13.1107 13.994 12.6478 14.4547C12.5038 14.598 12.2474 14.7507 12.0831 14.8972C11.2221 15.6646 10.3799 16.5942 9.74546 17.559C8.92655 18.8042 8.42074 20.2242 8.157 21.6834C8.10488 21.9728 8.08381 22.2974 8.04321 22.5928C8.316 22.7551 8.48236 22.7924 8.78564 22.8791C8.81794 22.8883 9.01524 22.9437 9.03127 22.9524Z" fill="#AAC7E1"/>
<path d="M12.8306 8.78769C13.5305 8.64631 14.6331 9.08804 15.2032 9.48845C15.402 9.62809 15.2697 9.52946 15.3717 9.68138C15.4007 9.72465 15.5622 9.75184 15.6308 9.84641L15.6398 9.94074C15.7779 10.0267 16.0547 10.0207 16.2155 9.99146C16.4361 9.95131 16.6032 9.68567 16.7758 9.67667C16.6434 9.83141 16.465 10.057 16.2763 10.1501C15.659 10.4547 15.2634 9.6534 14.7648 9.35586C14.3356 9.09971 13.9586 8.94404 13.4551 8.87298C13.2603 8.84548 13.0029 8.84452 12.8306 8.78769Z" fill="#AAC7E1"/>
<path d="M10.5856 22.2085C10.6 22.3734 10.6336 23.0864 10.5341 23.1733C10.3626 23.323 9.60439 23.2296 9.39057 23.2024L9.39669 23.1892C9.46714 23.1784 9.55299 23.1718 9.61388 23.1397C9.4528 23.1263 9.13135 23.0878 9.03125 22.9523C9.5597 23.0348 9.87134 23.1552 10.4484 23.1343C10.531 22.8418 10.541 22.512 10.5856 22.2085Z" fill="#AAC7E1"/>
<path d="M13.1555 23.7253C13.8132 23.8627 14.3342 23.9296 15.0051 23.9771C15.2104 23.9916 15.5472 23.9907 15.7304 24.0126C15.5535 24.0413 15.1797 24.0152 14.9871 24.0281C14.7049 24.047 13.9443 24.1014 13.7015 23.9802C13.7981 23.9828 13.8947 23.983 13.9914 23.9808L13.9715 23.9595C13.8098 23.9193 13.6957 23.9255 13.5298 23.9253L13.5408 23.921C13.4206 23.9071 13.2266 23.827 13.1555 23.7253Z" fill="#AAC7E1"/>
<path d="M18.9165 5.61218C19.1313 5.58637 19.2898 5.57086 19.4976 5.64501C19.4033 5.64829 19.1835 5.63275 19.1227 5.66007C19.0714 5.82076 18.6383 5.89417 18.5039 6.25872C18.3692 6.62418 18.9481 7.15586 18.5791 7.33839C18.2965 7.49662 17.6948 7.453 17.445 7.5666C17.2075 7.67465 16.876 7.83855 16.6268 7.9533C16.2627 8.12097 16.2762 8.34159 15.7753 8.31215C15.7082 8.2566 15.7016 8.24873 15.6913 8.14539C15.6896 8.12868 15.6883 8.11193 15.6872 8.09517C15.5981 8.0576 15.4244 8.01928 15.3658 7.96924L15.3554 7.88709L15.3205 7.86597C15.307 7.90565 15.3075 7.88662 15.3146 7.92464L15.2842 7.93853C15.2099 7.80229 15.2658 7.80827 15.0878 7.80039C14.893 7.79175 14.8289 7.80869 14.7172 7.64463L14.7657 7.68328C14.6713 7.52437 14.5519 7.62632 14.5812 7.49911C14.9244 7.54912 15.5067 7.91716 15.8101 8.08556C15.8682 8.11464 15.9526 8.15236 16.0178 8.11954C16.4859 7.88397 16.8939 7.64224 17.3983 7.46807C17.7913 7.33239 18.1878 7.3435 18.5563 7.16768C18.6913 7.10329 18.2981 6.42222 18.41 6.25593C18.5057 5.89061 18.6221 5.82991 18.9165 5.61218Z" fill="#AAC7E1"/>
<path d="M6.39577 22.4127C6.45994 22.2512 6.4642 22.0909 6.48155 21.9172C6.53604 22.3664 6.48736 22.8235 6.49448 23.2743C6.49718 23.4449 6.62374 23.3622 6.59569 23.5009C6.58847 23.5366 6.5835 23.514 6.59503 23.5633C6.72412 23.5865 6.81164 23.6435 6.90778 23.7313L6.88702 23.8227C6.97725 23.9239 7.49578 24.022 7.56797 24.1901C6.34652 23.8756 6.37455 23.5488 6.39577 22.4127Z" fill="#AAC7E1"/>
<path d="M25.3728 21.0093C25.3968 21.0623 25.4169 21.1129 25.4057 21.1722C25.3679 21.3735 25.574 21.3747 25.5601 21.5737C25.5561 21.6322 25.5652 21.739 25.5643 21.8048C25.5517 21.7669 25.5141 21.6335 25.4913 21.6158L25.4666 21.6486C25.5317 21.8319 25.4698 22.3518 25.4268 22.5445C25.3828 22.2685 25.3509 21.2902 25.3728 21.0093Z" fill="#AAC7E1"/>
<path d="M6.62935 21.3717C6.64281 21.5495 6.65989 21.714 6.52246 21.8532L6.52105 21.8128C6.48812 21.8592 6.48041 21.8634 6.48153 21.9173C6.46419 22.0909 6.45992 22.2512 6.39575 22.4127C6.40372 22.158 6.41619 21.9035 6.43321 21.6492C6.46881 21.5049 6.43353 21.4462 6.50903 21.3704C6.56303 21.3781 6.57446 21.3764 6.62935 21.3717Z" fill="#AAC7E1"/>
<path d="M6.43313 21.6493C6.41993 21.5062 6.42771 21.2437 6.44018 21.1005L6.46826 21.0802C6.53459 21.0829 6.56681 21.0809 6.63131 21.063C6.63019 21.1639 6.62695 21.2714 6.62928 21.3717C6.57438 21.3764 6.56295 21.3782 6.50895 21.3704C6.43345 21.4462 6.46873 21.5049 6.43313 21.6493Z" fill="#AAC7E1"/>
</svg>
