<svg width="32" height="32" viewBox="0 0 32 32" fill="none" xmlns="http://www.w3.org/2000/svg">
<path d="M0 10C0 4.47715 4.47715 0 10 0H22C27.5228 0 32 4.47715 32 10V22C32 27.5228 27.5228 32 22 32H10C4.47715 32 0 27.5228 0 22V10Z" fill="#AAC7E1" fill-opacity="0.3"/>
<path d="M6.51502 21.1024C6.40651 20.7093 6.36662 20.3004 6.39716 19.8937C6.41804 19.6103 6.48554 19.3401 6.55224 19.0651C6.82949 17.922 7.2962 16.8589 7.88075 15.8414C8.04367 15.5578 8.23381 15.2876 8.41386 15.0148C8.8366 14.3744 9.27043 13.7417 9.76707 13.155C9.93404 12.9578 10.1235 12.7807 10.2943 12.5869C12.3197 10.2876 14.9791 7.97488 17.8873 6.90011C18.1417 6.80613 18.4028 6.69824 18.6645 6.62873C19.7605 6.33762 20.7854 6.20837 21.8123 6.80767C21.9967 6.91527 22.1768 7.03188 22.3386 7.17182C22.5176 7.32665 22.6764 7.50974 22.8417 7.67899L23.618 8.45906C23.7505 8.59106 23.9088 8.71417 24.0326 8.85006C24.596 9.46842 25.2736 9.98833 25.482 10.8447C25.9324 12.6946 24.9204 14.6685 24.0513 16.2488C23.1867 17.7286 22.1015 19.0187 20.9311 20.2486C20.6437 20.5506 20.0921 21.1524 19.7717 21.3732C19.6551 21.3731 19.6193 21.4361 19.4918 21.5007L19.5401 21.4397C19.426 21.4417 19.1697 21.8449 19.0514 21.9402C18.9192 22.0467 18.9543 21.9305 18.8556 22.0138C18.5488 22.2727 18.3287 22.5061 17.9788 22.7146C17.9792 22.7295 17.9688 22.8016 17.9553 22.8069C17.7096 22.9045 17.4504 23.0739 17.2673 23.263C17.1688 23.3647 16.9784 23.4247 16.8463 23.482L16.8631 23.5103L16.9666 23.4855L16.9617 23.513C16.9058 23.5616 16.5853 23.6037 16.4542 23.7561L16.4996 23.7843C16.4835 23.8264 16.4049 23.8464 16.3609 23.8576C16.1351 23.9153 16.0218 24.0374 15.8531 24.1619C15.7114 24.2665 15.4306 24.2125 15.3828 24.4711C15.2305 24.3887 14.9438 24.5902 14.8216 24.6891C14.6895 24.796 14.6314 24.7458 14.4862 24.7981C14.337 24.8518 14.1902 24.9421 14.0348 24.9834C13.9205 25.0157 13.7364 24.9986 13.6462 25.0573C13.7054 25.0653 13.8417 25.0725 13.875 25.1055C13.7526 25.1592 13.5505 25.1362 13.4319 25.1833C13.4115 25.1914 13.3591 25.2766 13.2431 25.3164L13.2436 25.2674L13.2229 25.2465C13.1274 25.2577 12.7969 25.2795 12.7483 25.3263C12.8407 25.3853 12.9057 25.3051 13.0159 25.3549L12.9797 25.3871C12.6646 25.4394 10.8375 25.5691 10.694 25.3429C10.7564 25.3339 10.8185 25.3233 10.8804 25.3113C10.7503 25.2232 10.2751 25.2329 10.1965 25.0979L10.2502 25.042C10.2105 24.9817 10.0029 24.9231 9.92361 24.8957C9.82463 24.7085 9.15153 24.1506 8.97484 23.9523C8.4305 23.3418 7.7851 22.8143 7.22239 22.2201C7.08622 22.0762 6.8952 21.6749 6.79095 21.4932C6.66884 21.2803 6.73538 21.2709 6.51502 21.1024ZM10.9397 22.0801C11.4208 21.979 11.9083 21.7185 12.3518 21.5061C14.1012 20.6683 15.7066 19.4512 17.1153 18.1252C17.3278 17.9252 17.5253 17.706 17.7315 17.4992C18.1512 17.0781 18.5763 16.6504 18.962 16.1974C19.1014 16.0336 19.2257 15.856 19.3607 15.6885C19.7471 15.2094 20.1319 14.7187 20.4684 14.2023C20.822 13.6595 22.2367 11.2259 22.1309 10.7223C22.1263 10.7002 22.1185 10.6822 22.1065 10.6634C22.0322 10.6382 21.9212 10.6556 21.8396 10.6626C21.2066 10.8447 20.5918 11.0914 19.991 11.3633C19.5535 11.5612 19.1289 11.8519 18.7209 12.109C16.0268 13.8151 13.7468 16.1002 12.0465 18.798C11.9208 18.9972 11.6224 19.4408 11.5324 19.6212C11.2554 20.1762 10.6185 21.4668 10.6382 22.0488C10.6889 22.1417 10.8455 22.093 10.9397 22.0801ZM12.1431 13.4481C12.2874 13.2106 12.2855 13.1253 12.4923 12.8804C12.9496 12.339 13.3251 12.0522 14.0549 11.9994C14.3941 12.1182 14.442 12.3624 14.3091 12.6831C13.9966 13.4371 13.4542 13.9511 12.733 14.3109C12.517 14.4185 12.1553 14.4715 12.05 14.19C11.9612 13.959 12.0605 13.6721 12.1431 13.4481ZM10.4539 18.3289L10.5187 18.3065C10.6543 18.1402 10.7753 17.9543 10.9249 17.7917C10.9519 17.7448 10.9741 17.5392 11.008 17.5111C11.2543 17.307 11.2719 17.2803 11.4027 16.9818L11.3891 17.0427C11.4122 16.9981 11.436 16.9539 11.4605 16.9101C11.6606 16.5532 11.7975 16.5463 12.0333 16.2385C12.1397 16.0997 12.3012 15.7852 12.4198 15.6294C12.4611 15.6177 12.4956 15.608 12.5233 15.6002C12.6294 15.4218 12.7922 15.2732 12.9118 15.1124C12.9138 15.0456 12.9155 14.9894 12.9169 14.9439C12.9999 14.8246 13.3711 14.4751 13.4924 14.3422C15.0006 12.6968 16.7636 11.3046 18.7138 10.219C19.3931 9.83634 19.9266 9.50889 20.6893 9.29899C20.9071 9.23903 21.6546 9.07628 21.7309 8.90369C21.7084 8.8502 21.6862 8.82133 21.6496 8.77626C20.8421 7.78272 19.9115 7.94512 18.7644 8.32101C16.656 9.0119 14.8505 10.4521 13.1915 11.9068C12.8695 12.2072 12.5645 12.5298 12.2533 12.8414C12.2158 12.879 12.1563 12.9337 12.1242 12.9739C11.6439 13.4296 11.2687 13.9124 10.8596 14.4268C9.83736 15.7123 8.86979 17.0671 8.33558 18.6363C8.07364 19.4056 7.68767 20.5751 8.36579 21.2336C8.5524 21.4151 8.74977 21.5968 8.94931 21.7638C9.13213 21.4281 9.1482 21.2361 9.25084 20.8782C9.51498 19.9573 9.93964 19.1356 10.4539 18.3289Z" fill="#AAC7E1"/>
<path d="M18.1951 8.97544C18.4349 8.97219 18.6969 9.04756 18.9239 9.11555C18.8499 9.76859 18.5989 9.90706 17.9994 10.0741C17.5909 10.1598 17.0783 10.0112 17.3798 9.4902C17.5432 9.20797 17.8874 9.05152 18.1951 8.97544Z" fill="#AAC7E1"/>
<path d="M9.48697 17.2515C9.57132 17.2411 9.66284 17.2322 9.7463 17.2535C9.82787 17.2738 9.8978 17.3261 9.9403 17.3987C10.1774 17.8118 9.69083 18.5944 9.30844 18.7992C8.4526 18.9035 8.87309 17.4008 9.48697 17.2515Z" fill="#AAC7E1"/>
<path d="M12.1436 13.4476C12.2878 13.2101 12.286 13.1247 12.4928 12.8798C12.9501 12.3384 13.3256 12.0517 14.0554 11.9988C14.3946 12.1176 14.4425 12.3618 14.3096 12.6825C13.9971 13.4365 13.4547 13.9506 12.7334 14.3103C12.5175 14.4179 12.1558 14.471 12.0505 14.1894C11.9617 13.9584 12.061 13.6715 12.1436 13.4476Z" fill="#AAC7E1"/>
<path d="M12.9183 14.9436C12.9169 14.9892 12.9152 15.0453 12.9132 15.1121C12.7936 15.2729 12.6308 15.4216 12.5247 15.5999C12.497 15.6077 12.4625 15.6175 12.4212 15.6291C12.3026 15.785 12.1411 16.0994 12.0347 16.2383C11.7989 16.546 11.662 16.553 11.4619 16.9099C11.4374 16.9537 11.4136 16.9979 11.3905 17.0424L11.4041 16.9815C11.2733 17.2801 11.2557 17.3068 11.0094 17.5108C10.9755 17.5389 10.9533 17.7445 10.9263 17.7914C10.7767 17.9541 10.6557 18.1399 10.5201 18.3062L10.4553 18.3287C10.8868 17.3432 12.2273 15.7697 12.9183 14.9436Z" fill="#AAC7E1"/>
<path d="M13.1936 11.9067C13.4719 12.0796 13.9297 11.9151 14.057 11.9993C13.3272 12.0522 12.9517 12.3389 12.4944 12.8804C12.2876 13.1252 12.2894 13.2106 12.1452 13.4481C12.1368 13.2764 12.2493 13.1081 12.1262 12.9738C12.1584 12.9337 12.2178 12.879 12.2553 12.8414C12.5666 12.5297 12.8716 12.2072 13.1936 11.9067Z" fill="#AAC7E1"/>
<path d="M6.5144 21.1028C6.73476 21.2713 6.66822 21.2807 6.79033 21.4936C6.89458 21.6753 7.0856 22.0766 7.22177 22.2204C7.78448 22.8147 8.42988 23.3422 8.97422 23.9527C9.15091 24.1509 9.82401 24.7089 9.92299 24.8961C10.0022 24.9234 10.2099 24.9821 10.2495 25.0424L10.1959 25.0983C10.2745 25.2332 10.7497 25.2236 10.8798 25.3117C10.8179 25.3237 10.7558 25.3343 10.6934 25.3433C10.8369 25.5695 12.664 25.4398 12.9791 25.3875L13.0153 25.3553C12.9051 25.3055 12.8401 25.3857 12.7477 25.3267C12.7962 25.2799 13.1267 25.2581 13.2223 25.2469L13.243 25.2677L13.2425 25.3168C13.3585 25.277 13.4109 25.1918 13.4313 25.1837C13.5499 25.1365 13.752 25.1596 13.8744 25.1059C13.8411 25.0729 13.7048 25.0657 13.6456 25.0577C13.7358 24.999 13.9199 25.0161 14.0341 24.9838C14.1896 24.9425 14.3364 24.8522 14.4856 24.7985C14.6308 24.7462 14.6889 24.7964 14.821 24.6894C14.9432 24.5906 15.2298 24.3891 15.3822 24.4715C15.4299 24.2128 15.7107 24.2669 15.8525 24.1623C16.0211 24.0377 16.1344 23.9157 16.3603 23.858C16.4043 23.8468 16.4829 23.8268 16.499 23.7847L16.4536 23.7565C16.5847 23.6041 16.9052 23.562 16.9611 23.5134L16.9659 23.4859L16.8625 23.5107L16.8457 23.4824C16.9778 23.425 17.1682 23.3651 17.2667 23.2633C17.4498 23.0743 17.709 22.9049 17.9547 22.8073C17.9682 22.802 17.9786 22.7299 17.9782 22.715C18.3281 22.5065 18.5482 22.2731 18.855 22.0142C18.9536 21.9309 18.9186 22.0471 19.0508 21.9406C19.169 21.8453 19.4254 21.4421 19.5395 21.44L19.4911 21.5011C19.6187 21.4365 19.6545 21.3735 19.7711 21.3736C19.6466 21.5107 19.2704 21.8198 19.1131 21.9686C18.4241 22.5943 17.7582 23.0876 16.9668 23.5978C15.1014 24.8005 12.0348 26.5305 9.90947 25.027C9.44076 24.6954 8.90334 24.0207 8.47242 23.6198C8.01075 23.1902 7.53883 22.7436 7.1156 22.2784C6.89332 22.0182 6.57028 21.4484 6.5144 21.1028Z" fill="#AAC7E1"/>
</svg>
