<svg width="32" height="32" viewBox="0 0 32 32" fill="none" xmlns="http://www.w3.org/2000/svg">
<path d="M0 10C0 4.47715 4.47715 0 10 0H22C27.5228 0 32 4.47715 32 10V22C32 27.5228 27.5228 32 22 32H10C4.47715 32 0 27.5228 0 22V10Z" fill="#AAC7E1" fill-opacity="0.3"/>
<path d="M7.51317 6.43408C8.71179 6.72042 9.10045 7.14632 9.06754 8.37314C9.04275 8.62275 9.05496 8.89999 9.05067 9.15492C9.04615 9.42382 8.95521 9.77043 9.11114 10.0028C9.19254 10.1241 9.38552 9.969 9.3007 10.1453C9.39691 10.22 9.70022 10.2358 9.83081 10.2489L9.82973 10.3153C10.1939 10.5854 10.5763 10.3859 10.8798 10.6514C10.8106 10.6301 10.7374 10.6045 10.6664 10.5931C10.7526 10.7234 11.1798 10.72 11.3397 10.711C11.7208 10.8195 12.2955 11.0815 12.6907 11.2237L16.8261 12.7421C17.1392 12.8561 17.4671 12.9475 17.7802 13.0616C18.1762 13.2059 18.5669 13.3706 18.9622 13.5181L21.9996 14.6498C22.5633 14.8652 23.0999 15.0134 23.6782 15.2636C24.4121 15.5811 24.8898 16.1939 24.7883 17.0287C24.6978 17.7727 23.9223 18.4923 23.1491 18.4069C22.6092 18.3472 21.9189 18.0671 21.3974 17.867L19.2953 17.0763C18.602 16.8129 18.0695 16.5608 17.331 16.4204C16.7906 16.6167 16.4902 16.8195 15.9992 17.0986C15.1629 17.5738 14.2962 18.0243 13.46 18.4967L11.9317 19.3432C11.1901 19.7587 10.6441 20.2098 9.7549 19.8915C9.41904 19.7713 9.0554 19.6065 8.88494 19.2768C9.12841 18.7986 9.78794 18.2654 10.1656 17.891C10.5993 17.461 11.0505 16.9757 11.4884 16.5499L12.3527 15.7018C12.6579 15.408 12.9797 15.2217 13.0584 14.7858C12.954 14.7317 12.8276 14.7015 12.7174 14.6584C11.3126 14.11 9.88973 13.6173 8.48147 13.0797C7.83536 12.8358 7.05546 12.685 6.65144 12.0587C6.28453 11.4899 6.41435 10.975 6.5674 10.3809L6.86784 9.23018C6.94026 8.94452 7.00476 8.6531 7.06244 8.36411C7.19189 7.71553 7.36884 7.08086 7.51317 6.43408Z" fill="#AAC7E1"/>
<path d="M7.07111 23.2279C7.86761 23.1799 9.04026 23.2179 9.86219 23.218L15.217 23.2184L21.4558 23.2174L23.538 23.2162C23.978 23.2161 24.9461 23.1511 25.2866 23.3646C25.4455 23.464 25.5566 23.6243 25.5942 23.8079C25.6889 24.2609 25.3842 24.7141 24.9352 24.8104C24.5287 24.8356 24.0871 24.8252 23.6765 24.8242L21.8375 24.8224L15.8932 24.8223L10.0581 24.8223L8.26246 24.8254C7.67877 24.8278 6.54086 24.9984 6.40501 24.158C6.32641 23.6716 6.5728 23.3104 7.07111 23.2279Z" fill="#AAC7E1"/>
<path d="M14.4122 6.7106C14.4432 6.60024 14.4258 6.59182 14.499 6.53166C14.6694 6.51511 14.8472 6.50257 15.0186 6.49613C15.0585 6.49463 15.1261 6.54612 15.164 6.56761L15.0293 6.57973L15.0296 6.6087C15.1234 6.65114 15.3722 6.69359 15.4124 6.71693C15.5981 6.82477 16.1234 7.20961 16.1812 7.40503C16.2863 7.76049 16.4681 8.11542 16.4505 8.48686C16.4478 8.54341 16.4594 8.68746 16.509 8.71674C16.532 8.59631 16.5379 8.47533 16.5467 8.35313L16.5632 8.34959C16.567 8.50092 16.6285 8.57023 16.6468 8.69766C16.6839 8.95561 16.6946 9.21399 16.7748 9.46627L16.7949 9.46922C16.8243 9.3844 16.8262 9.34369 16.8353 9.25509C16.8454 9.34001 16.8702 9.42783 16.9181 9.4995L16.9549 9.50602C17.0041 9.65653 17.1307 10.0213 17.1486 10.1588L17.1474 10.1692C17.1224 10.3973 17.2046 10.7054 17.1227 10.8601C17.0088 10.8665 16.8291 10.8319 16.7543 10.8731L16.7383 10.8523L16.7041 10.8903L16.7043 10.8904C16.7161 10.8702 16.7217 10.8614 16.7431 10.8513L16.7711 10.8662L16.7815 10.8607L16.838 10.8904L16.8379 10.9C16.6417 10.923 16.2095 10.7856 16.0409 10.6879L16.0337 10.6512C16.0063 10.6471 15.8686 10.6769 15.8152 10.6805C15.3945 10.5569 14.8444 10.353 14.4346 10.1983C14.3989 9.86707 14.4136 9.24591 14.4127 8.89969C14.4088 8.16999 14.4087 7.44028 14.4122 6.7106Z" fill="#AAC7E1"/>
<path d="M18.2225 17.6028C19.1563 17.5234 19.3507 18.3034 18.9694 19.0322C18.8093 19.1162 18.7534 19.1321 18.5799 19.1821C17.2985 19.259 17.4033 17.8302 18.2225 17.6028Z" fill="#AAC7E1"/>
<path d="M14.4161 6.3689C15.1035 6.42836 15.6035 6.45829 16.108 7.05925C16.2006 7.16819 16.2754 7.29102 16.3296 7.42323C16.4768 7.77859 16.5955 8.3113 16.7036 8.68579C16.777 8.94051 16.9222 9.2439 16.9524 9.50504L16.9156 9.49853C16.8677 9.42686 16.8429 9.33904 16.8328 9.25412C16.8237 9.34272 16.8218 9.38343 16.7924 9.46825L16.7723 9.4653C16.6921 9.21301 16.6814 8.95464 16.6443 8.69669C16.626 8.56926 16.5645 8.49995 16.5607 8.34862L16.5442 8.35215C16.5354 8.47436 16.5295 8.59534 16.5065 8.71576C16.4569 8.68649 16.4453 8.54244 16.448 8.48589C16.4656 8.11445 16.2838 7.75951 16.1787 7.40406C16.1209 7.20864 15.5956 6.82379 15.4099 6.71596C15.3697 6.69262 15.1209 6.65017 15.0271 6.60772L15.0268 6.57876L15.1615 6.56664C15.1236 6.54515 15.056 6.49365 15.0161 6.49515C14.8447 6.5016 14.6669 6.51414 14.4965 6.53069C14.4233 6.59085 14.4407 6.59926 14.4097 6.70963C14.4107 6.60283 14.4083 6.47357 14.4161 6.3689Z" fill="#AAC7E1"/>
<path d="M9.06636 8.3728C9.10215 8.79334 9.08038 9.50031 9.17528 9.87004C9.75768 10.2355 10.7254 10.4426 11.3385 10.7106C11.1786 10.7196 10.7514 10.7231 10.6652 10.5928C10.7362 10.6041 10.8094 10.6297 10.8786 10.6511C10.5751 10.3855 10.1927 10.585 9.82855 10.3149L9.82963 10.2486C9.69904 10.2355 9.39573 10.2197 9.29952 10.145C9.38434 9.96866 9.19136 10.1237 9.10996 10.0024C8.95403 9.7701 9.04497 9.42348 9.04949 9.15458C9.05378 8.89965 9.04157 8.62241 9.06636 8.3728Z" fill="#AAC7E1"/>
<path d="M17.146 10.1589C17.1898 10.3574 17.3892 11.042 17.3123 11.1949C17.2186 11.216 15.9896 10.7626 15.8125 10.6807C15.8659 10.677 16.0037 10.6473 16.0311 10.6514L16.0383 10.6881C16.2068 10.7857 16.639 10.9232 16.8352 10.9002L16.8353 10.8905L16.7788 10.8609L16.7684 10.8664L16.7405 10.8515C16.7191 10.8616 16.7134 10.8704 16.7017 10.8906L16.7014 10.8904L16.7357 10.8525L16.7517 10.8732C16.8265 10.8321 17.0062 10.8667 17.1201 10.8603C17.202 10.7056 17.1197 10.3974 17.1448 10.1693L17.146 10.1589Z" fill="#AAC7E1"/>
</svg>
