<svg width="32" height="32" viewBox="0 0 32 32" fill="none" xmlns="http://www.w3.org/2000/svg">
<path d="M0 10C0 4.47715 4.47715 0 10 0H22C27.5228 0 32 4.47715 32 10V22C32 27.5228 27.5228 32 22 32H10C4.47715 32 0 27.5228 0 22V10Z" fill="#AAC7E1" fill-opacity="0.3"/>
<path d="M8.58754 9.58508C8.95063 9.55576 9.37689 9.57057 9.74675 9.57151L11.6342 9.57423L17.7398 9.57406L21.5853 9.57334C22.1503 9.57277 22.8267 9.53966 23.3616 9.59495C23.9873 9.65961 24.3002 10.6706 23.686 11.0283C23.5498 11.1076 23.3796 11.1953 23.2606 11.2752C23.1822 11.4527 23.2208 12.1902 23.2212 12.4318L23.22 14.3933L23.2196 21.7594C23.2196 22.9798 23.2574 24.4216 23.211 25.6187C22.7827 25.6494 22.1979 25.6336 21.7564 25.6332L19.3394 25.6339C19.03 25.6399 18.6764 25.611 18.3813 25.6301C18.3999 25.1853 18.3866 24.6571 18.3869 24.2065L18.3834 21.5981C18.1433 21.6173 17.6879 21.603 17.4349 21.6026L15.5778 21.6004C15.2013 21.5992 14.8248 21.6004 14.4483 21.6041C14.2032 21.6073 13.8434 21.6263 13.6154 21.5955C13.5771 22.9176 13.6295 24.2932 13.6011 25.6256C12.2891 25.6628 10.961 25.6084 9.64717 25.6358C9.38415 25.6413 9.03826 25.609 8.78558 25.6477C8.77037 24.6046 8.78151 23.5356 8.78153 22.491L8.78197 15.4128C8.78741 14.0325 8.78427 12.6522 8.77253 11.2719C8.64114 11.2366 8.57626 11.1881 8.46137 11.1318C7.98036 10.896 7.82202 10.3427 8.15211 9.90779C8.27317 9.7483 8.41656 9.67756 8.58754 9.58508ZM12.0105 23.2156C11.9958 22.6844 12.0178 22.1386 12.0068 21.6007L11.0373 21.6068C10.8538 21.6083 10.602 21.6234 10.4279 21.5951C10.4174 22.1023 10.4427 22.7202 10.4157 23.2068C10.741 23.2165 11.7062 23.244 12.0105 23.2156ZM21.5683 23.2082C21.5752 22.6723 21.5755 22.1364 21.5693 21.6005L20.6001 21.6068C20.4178 21.6083 20.1629 21.6234 19.9904 21.5955C19.9799 22.1011 20.0054 22.7221 19.978 23.2068C20.2029 23.2121 21.4074 23.2556 21.5683 23.2082ZM10.4184 13.591C10.8962 13.6072 11.532 13.622 12.0116 13.6051C12.0138 13.0826 12.0122 12.5602 12.0068 12.0378L11.0376 12.0441C10.8563 12.0455 10.5989 12.0605 10.4277 12.0325C10.4178 12.5391 10.4373 13.0978 10.4184 13.591ZM16.7934 13.5911C17.2727 13.6069 17.9054 13.622 18.3866 13.6051C18.3887 13.0826 18.3872 12.5601 18.3818 12.0376L17.4129 12.0441C17.2307 12.0455 16.9751 12.0604 16.8026 12.0325C16.7928 12.5387 16.8126 13.0984 16.7934 13.5911ZM13.6059 13.5911C14.086 13.6068 14.7171 13.6219 15.1991 13.6051C15.2012 13.0826 15.1997 12.5602 15.1943 12.0378L14.2251 12.0441C14.0429 12.0455 13.7876 12.0604 13.6151 12.0325C13.6052 12.5388 13.6251 13.0984 13.6059 13.5911ZM19.9809 13.5911C20.4665 13.607 21.0863 13.621 21.5741 13.6052C21.5763 13.0827 21.5747 12.5602 21.5693 12.0376L20.6004 12.0441C20.4182 12.0455 20.1626 12.0604 19.9901 12.0325C19.9802 12.5392 20 13.0978 19.9809 13.5911ZM10.4184 16.7786C10.9223 16.7956 11.5049 16.8043 12.0116 16.7927C12.0137 16.2703 12.0121 15.7479 12.0068 15.2255L11.0373 15.2317C10.8535 15.2332 10.602 15.2484 10.4277 15.2201C10.4178 15.7268 10.4373 16.2852 10.4184 16.7786ZM13.6152 18.4076C13.6053 18.9139 13.625 19.4733 13.6059 19.9661C14.0866 19.9819 14.7164 19.9968 15.1991 19.9801C15.2012 19.4577 15.1996 18.9354 15.1943 18.413L14.2251 18.4192C14.0413 18.4207 13.7895 18.4359 13.6152 18.4076ZM13.6059 16.7786C14.0852 16.7943 14.7179 16.8096 15.1991 16.7926C15.2011 16.2702 15.1995 15.7479 15.1944 15.2255L14.2251 15.2317C14.0413 15.2331 13.7896 15.2484 13.6152 15.2202C13.6053 15.7265 13.625 16.2858 13.6059 16.7786ZM16.7934 19.9661C17.2727 19.9818 17.9054 19.997 18.3866 19.9801C18.3887 19.4577 18.3871 18.9354 18.3818 18.413L17.4126 18.4192C17.2288 18.4206 16.9771 18.4359 16.8027 18.4077C16.7927 18.914 16.8126 19.4733 16.7934 19.9661ZM16.7934 16.7786C17.2727 16.7943 17.9054 16.8095 18.3866 16.7926C18.3886 16.2702 18.3871 15.7479 18.3819 15.2255L17.4125 15.2317C17.2288 15.2331 16.977 15.2484 16.8027 15.2201C16.7928 15.7264 16.8125 16.2858 16.7934 16.7786ZM19.9902 18.4077C19.9803 18.914 20 19.4733 19.9809 19.9661C20.4665 19.982 21.0863 19.996 21.5741 19.9802C21.576 19.4578 21.5744 18.9354 21.5693 18.413L20.5998 18.4192C20.416 18.4207 20.1646 18.4359 19.9902 18.4077ZM19.9809 16.7786C20.4662 16.7945 21.0866 16.8086 21.5741 16.7927C21.5759 16.2703 21.5743 15.7479 21.5694 15.2255L20.5998 15.2317C20.416 15.2332 20.1646 15.2484 19.9902 15.2202C19.9803 15.7261 20.0001 16.2864 19.9809 16.7786ZM10.4277 18.4076C10.4177 18.9146 10.4374 19.4722 10.4184 19.966C10.9026 19.9824 11.5253 19.9959 12.0116 19.9802C12.0135 19.4578 12.0119 18.9354 12.0068 18.413L11.0376 18.4192C10.8538 18.4206 10.602 18.4359 10.4277 18.4076Z" fill="#AAC7E1"/>
<path d="M11.359 6.37763C13.5362 6.41037 15.7744 6.38613 17.956 6.38562L19.7341 6.38353C20.1244 6.38266 20.8397 6.32632 21.2107 6.49451C21.3806 6.57152 21.5216 6.84188 21.5528 7.02806C21.6083 7.35924 21.5094 7.58016 21.3234 7.84777C21.2391 7.87163 21.1854 7.90737 21.1048 7.94088C20.9437 8.0078 20.7884 8.01141 20.6164 8.01802C17.8389 7.96739 15.0477 8.02772 12.2687 8.01031C11.6485 8.00642 11.1257 8.14127 10.5909 7.76304C10.4549 7.51833 10.3874 7.26959 10.455 6.99277C10.5787 6.48584 10.9005 6.38241 11.359 6.37763Z" fill="#AAC7E1"/>
</svg>
