<svg width="1024" height="1024" viewBox="0 0 1024 1024" fill="none" xmlns="http://www.w3.org/2000/svg">
<g clip-path="url(#clip0_16_5080)">
<path d="M604.62 208.064C589.865 202.986 580.505 193.222 581.625 176.182C581.83 166.056 591.83 161.483 595.955 155.844C605.91 142.243 616.04 143.525 629.8 136.115C636.785 132.353 644.25 126.806 651.405 122.46C674.11 108.662 727.02 98.408 745.065 123.659C750.915 123.307 758.485 123.577 763.825 126.28C782.505 135.73 789.89 147.053 795.255 165.674C804.68 198.377 801.785 216.118 794.735 248.17C792.495 258.359 790.13 270.354 789.6 280.801C789.465 283.486 787.465 291.765 787.515 292.063C788.455 297.651 793.025 307.428 795.25 312.784C807.97 312.829 807.905 317.539 812.575 328.18C813.68 328.438 817.65 329.386 818.395 329.985C827.63 337.442 833.885 353.582 842.485 361.924C847.635 366.916 858.005 372.232 864.34 375.943L893.24 393.203C907.96 401.855 930.71 413.092 940.445 426.819C949.75 439.943 955.43 463.608 958.405 479.588C962.415 501.125 961.745 524.46 963.735 546.035C966.785 579.125 968.465 611.365 969.93 644.52C970.65 659.71 970.995 674.915 970.965 690.12C971.015 697.775 971.34 705.94 970.86 713.53C969.33 736.98 963.83 759.36 958.705 782.235C950.825 817.4 941.77 852.435 932.54 887.28C930.88 893.55 928.285 899.865 927.165 906.265C926.46 910.3 928.075 916.095 928.325 920.205C929.135 930.305 935.535 963.43 934.21 971.425C931.585 975.465 909.68 985.89 905.48 984.855C906.55 981.765 931.86 974.345 931.935 968.885C931.975 965.76 930.69 958.605 930.22 955.155L925.935 923.545C920.47 884.035 915.26 844.495 910.31 804.92C908.555 790.33 907.155 776.075 906.86 761.37C905.55 696.1 926.435 634.2 940.21 571.445C943.66 555.225 946.515 538.88 948.76 522.45C949.825 515.035 950.505 506.49 951.89 499.311C952.935 542.55 936.625 597.515 926.605 639.185C917.105 678.715 908.875 723.07 909.605 763.87C910.02 787 914.49 815.515 917.665 838.5C920.315 857.7 922.35 880.68 925.825 899.54C927.345 895.545 929.045 888.49 930.22 884.11L937.64 856.015C944.05 831.355 950.115 806.61 955.84 781.78C961.01 759.275 966.49 735.42 968.19 712.375C969.235 698.175 967.53 681.53 967.84 667.125C967.775 663.775 967.4 660.345 967.35 657.005C966.775 620.73 964.05 585.005 960.84 548.86C959.015 528.29 959.62 507.35 956.355 486.616C953.13 466.13 948.235 443.358 936.275 426C930.025 417.45 910.705 406.796 901.09 401.054L867.9 381.321C856.24 374.443 849.285 370.847 838.38 362.607C808.865 360.008 770.51 366.484 742.385 376.222C720.67 383.743 694.83 402.638 674.52 414.565C665.79 419.691 645 431.837 638.205 437.539C633.96 441.04 630.57 445.454 628.275 450.451C621.68 464.617 619.735 489.185 618.25 505.065C617.625 519.37 616.22 534.96 617.04 549.25C618.16 568.67 617.9 586.64 616.845 606.08C615.79 625.515 615.995 645.16 614.235 664.625C613.455 673.29 610.185 682.51 611.47 691.245C614.29 704.545 624.325 717.645 631.435 729.07C634.085 733.31 637.315 737.64 638.86 742.38C630.005 730.575 621.675 718.39 613.9 705.85C615.67 714.31 617.69 722.715 619.96 731.05C620.74 733.97 623.07 741.17 623.335 743.655C620.07 738.42 615.27 721.705 614.62 715.725C613.535 705.81 611.995 701.81 608.88 692.32C599.225 689.74 590.66 683.24 580.485 680.96C552.12 687.22 552.37 737.695 561.5 757.505C565.09 760.195 577.01 765.795 581.59 767.95C607.355 780.11 634.11 792.305 662.2 797.81C678.99 801.1 698.71 777.41 703.2 763.52C709.09 745.305 711.5 722.405 714.345 703.2L722.24 646.605C724.24 632.525 726.555 618.475 728.34 604.37C734.37 556.785 723.655 495.636 693.53 457.097C681.925 442.25 670.2 435.869 651.805 433.637C672.505 429.377 690.105 447.136 700.515 463.016C719.725 492.313 728.43 526.765 731.94 561.28C734.305 584.52 730.76 607.38 727.535 630.32C726.33 638.905 724.96 647.635 724.565 656.285C726.75 711.74 727.005 766.915 727.12 822.39C727.455 858.305 727.58 894.22 727.495 930.135C727.5 944.775 727.705 959.57 727.165 974.185C727.03 977.755 727.335 982.825 726.645 986.13L726.13 986.39C724.87 982.87 725.425 942.085 725.415 935.355L725.21 827.04C725.61 789.93 725.38 752.815 724.51 715.715C724.195 703.59 724 691.46 723.915 679.33C723.87 674.765 724.11 664.885 723.48 660.97C721.1 679.02 718.035 697.81 715.355 715.86C712.71 731.445 711.49 748.54 706.375 763.475C701.755 776.965 683.12 801.145 667.265 800.93C653.365 800.745 631.885 792.75 618.565 787.64C617.67 792.225 617.09 799.46 616.165 804.435C614.465 813.565 608.235 836.34 609.105 844.345C615.005 850.32 656.17 860.96 665.91 858.49C671.18 857.15 671.705 833.08 673.725 827.285L674.16 827.24C675.25 830.625 675.135 835.515 674.395 839C671.945 850.58 674.535 864.52 657.445 861.66C642.305 859.13 626.86 855.545 612.645 849.96C611.45 856.24 610.805 865.265 610.035 871.955L605.1 913.72C603.21 928.51 601.425 943.315 599.745 958.135C599.1 964.11 597.855 973.37 598.005 979.17C601.465 982.945 605.405 984.625 609.105 989.08C603.32 987.14 598.505 984.375 595.22 979.1C594.73 969.56 598.155 947.47 599.35 936.815C602.63 907.65 606.94 878.405 609.545 849.14C608.825 848.34 608.09 847.535 607.46 846.66C603.135 840.66 611.905 811.045 613.595 802.79C614.695 797.42 615.42 791.94 616.24 786.52C601.85 781.575 575.425 768.33 561.485 760.79C556.265 757.965 554.805 744.605 553.815 738.385C550.59 735.64 549.45 734.6 546.745 731.375C546.17 727.855 545.68 724.22 545.155 720.68C543.57 720.525 541.685 720.115 540.085 719.815C541.405 725.175 545.67 740.75 542.35 744.705C540.56 745.31 541.39 745.355 539.78 744.855C538 742.94 537.43 739.525 536.73 736.885C536.925 740.885 538.195 744.455 536.595 747.845C535.145 749.105 532.29 749.405 531.195 747.915C528.13 743.74 529.12 735.285 528.37 730.105L528.26 729.37C527.315 735.345 528.015 741.095 526.56 747.04C525.425 751.67 519.345 750.315 518.58 747.79C516.755 741.77 523.265 717.05 521.69 713.125L520.745 712.795C517.55 715.665 516.105 739.11 511.235 742.715C509.3 744.15 504.835 741.705 505.47 738.395C507.33 728.655 511.05 717.895 513.505 708.315L509.265 704.485C490.045 723.75 474.94 748.095 454.517 766.51C450.158 770.44 445.835 774.335 441.414 778.2C458.27 828.145 470.563 885.08 482 936.54C484.335 947.045 491.33 979.165 490.32 988.5C487.239 977.625 485.166 966.25 482.943 955.155C480.214 941.27 477.306 927.42 474.218 913.61C464.409 868.47 452.657 823.775 438.997 779.645C430.761 787.205 410.78 800.72 399.664 802.73C388.779 804.905 373.689 785.335 371.338 776.015C361.732 737.92 364.137 695.665 363.444 656.525C363.265 646.415 365.596 628.77 364.398 619.655C362.993 608.96 354.511 595.515 355.173 583.23C352.028 553.385 363.706 478.84 400.631 475.888C392.918 473.216 386.959 471.709 379.097 469.886C370.784 472.426 363.199 478.01 357.73 484.856C335.791 512.32 324.729 551.48 315.733 584.97C314.093 591.075 310.215 605.715 310.038 611.095C309.674 622.155 313.45 636.805 314.39 647.855C315.477 660.635 310.363 665.445 304.488 675.635C303.704 676.995 303.389 682.21 302.9 684.315C300.88 692.995 295.99 698.2 290.355 704.65C290.665 707.12 291.081 709.53 291.58 711.96C295.257 729.34 297.604 746.675 297.644 764.455C297.683 781.635 291.433 797.33 285.467 813.235C280.273 827.225 274.868 841.14 269.254 854.965C267.775 858.69 264.389 868.975 262.387 871.245C263.038 867.785 265.635 860.97 266.928 857.315C269.913 848.725 273.027 840.185 276.266 831.69C283.382 813.14 294.066 788.35 295.802 769.05C297.515 750.01 291.648 725.045 289.074 706.275C283.633 719.73 284.859 723.965 275.787 736.37C276.353 738.845 276.599 741.17 276.96 743.565C280.061 764.1 274.628 770.09 262.942 785.395C262.255 791.83 262.507 804.265 262.331 811.35C261.741 832.9 261.454 854.46 261.47 876.025C261.439 888.205 262.287 906.83 259.55 918.52C257.849 925.785 244.742 933.91 239.655 938.91C235.019 943.465 234.935 947.69 232.386 953.325C226.777 963.8 208.058 971.995 197.513 977.445C207.677 969.325 228.518 961.31 231.79 948.46C235.99 931.96 254.373 930.135 258.117 914.79C260.748 904.015 251.517 886.67 245.067 878.21C241.779 873.985 235.199 869.975 232.572 864.8C228.209 856.45 229.078 852.495 223.74 843.96C221.295 849.25 213.853 860.83 210.48 866.71C203.419 879.205 196.691 891.88 190.301 904.735C177.756 929.475 167.356 956.63 154.704 980.435C156.428 971.21 162.345 959.035 166.234 950.155C182.305 913.46 200.885 874.99 222.473 841.2C214.216 826.745 215.938 815.77 216.814 799.64C217.394 788.97 217.984 778.125 218.989 767.495C207.496 764.92 203.839 758.695 200.817 747.76C197.56 735.97 196.668 721.6 196.501 709.315C196.126 681.755 198.456 653.98 199.915 626.465C201.518 601.5 203.367 520.72 214.267 500.65C221.597 486.666 224.682 482.985 236.705 473.523C238.978 471.626 240.719 470.447 243.162 468.791C249.465 433.425 254.786 397.151 263.366 362.239C263.044 362.041 262.725 361.838 262.41 361.63C250.638 353.808 246.165 344.517 243.426 331.108C240.286 340.42 236.256 360.211 234.019 370.233C226.793 403.196 220.338 436.324 214.659 469.589L208.797 503.465C208.085 507.615 207.455 514.185 206.193 517.95C204.005 511.165 228.226 391.103 231.403 375.844C233.583 365.466 235.855 355.107 238.216 344.768C239.505 339.209 241.095 333.016 242.072 327.392C242.133 324.719 241.206 321.537 240.838 318.947C238.445 302.093 243.077 283.388 255.774 271.513C260.158 267.412 263.915 265.107 269.874 264.193C275.916 255.081 288.978 235.601 299.511 232.094L299.97 232.525C293.296 237.279 287.386 243.02 282.442 249.554C270.895 264.655 242.775 314.916 245.292 331.943C247.015 343.605 254.415 353.454 263.782 360.186C268.715 334.204 276.552 305.475 284.278 280.062C287.359 269.926 291.536 259.969 295.226 250.062C294.566 256.136 290.302 266.79 288.18 272.995C285.758 280.125 283.526 287.318 281.486 294.567C275.074 317.207 270.889 338.669 265.296 361.157C278.629 365.289 283.119 364.373 295.848 359.79C291.584 365.138 282.567 365.664 276.245 365.614C283.328 372.618 286.12 372.834 295.441 374.365C295.483 365.162 295.417 355.891 296.021 346.713C295.496 346.491 294.974 346.263 294.454 346.029C290.871 344.427 280.224 336.588 282.472 332.127C285.883 338.342 288.986 341.489 295.33 344.626L295.99 344.948C296.106 336.697 296.338 328.448 296.689 320.204C296.845 316.268 297.926 306.999 295.809 304.136L296.821 303.334C297.776 302.057 298.128 295.598 298.124 293.645C298.081 271.306 305.777 250.486 309.017 228.906C310.536 236.298 308.956 242.442 307.456 249.739C322.235 228.987 340.34 216.577 365.481 210.691C384.794 206.17 409.082 210.115 425.859 220.815C416.71 217.277 412.488 215.005 402.372 212.976C374.645 207.518 345.939 214.945 324.339 233.166C319.607 237.151 311.34 247.016 307.314 249.433C305.891 256.073 304.326 263.026 303.219 269.699C301.793 278.289 306.937 291.647 312.553 298.125C344.537 335.027 397.072 315.267 428.741 288.798C437.352 281.601 445.406 271.989 454.043 265.209L454.469 264.882C446.971 275.247 430.126 291.221 420.701 300.429L419.848 299.151L419.169 299.533C416.298 300.378 412.161 303.416 409.541 305.075C400.284 310.933 390.449 314.297 380.282 318.2C377.927 322.586 375.371 327.092 371.638 330.467C360.656 340.396 347.857 344.523 342.282 359.746C335.163 379.186 355.188 395.417 337.933 412.481C343.281 403.095 344.931 398.939 341.936 387.87C339.957 380.556 337.485 374.751 337.013 367.023C336.822 363.906 338.537 355.335 338.004 353.873C330.359 355.072 327.016 348.121 322.891 343.435C318.399 332.782 315.06 320.463 321.289 309.701C310.438 301.044 304.475 292.697 301.738 278.956C300.921 288.463 300.309 297.987 299.902 307.521C303.354 312.234 308.629 317.218 313.667 320.182L313.685 320.528C309.134 319.841 302.383 313.823 299.184 310.611L299.155 314.125C299.074 324.484 298.709 334.871 298.554 345.24C307.466 346.238 308.348 346.211 315.938 342.608L316.487 342.847C313.164 348.679 304.048 348.004 298.472 347.38L298.369 357.412C300.991 355.72 303.455 353.906 306.149 352.194C303.135 355.876 302.006 357.033 298.414 359.849C298.134 364.16 298.148 369.225 298.053 373.597C316.325 368.842 317.671 359.605 322.572 344.4L322.891 343.435C324.812 356.405 318.185 365.933 307.763 372.802C307.017 377.009 305.57 385.316 303.927 388.852C297.683 402.289 298.292 408.781 298.473 423.11C298.59 433.745 298.773 444.38 299.021 455.013C299.696 486.855 301.169 518.675 303.439 550.44C304.773 568.385 306.968 586.015 308.336 603.77C316.553 572.215 338.175 478.21 375.621 469.236C362.212 464.287 344.423 454.648 339.2 440.375C344.817 448.211 350.187 452.7 358.338 457.898C359.481 447.837 362.872 427.601 371.248 420.217C372.13 419.44 374.629 418.646 375.846 418.275C364.752 409.455 353.906 400.573 349.129 386.744C362.017 406.072 381.831 423.729 404.497 430.165C415.093 433.174 418.71 419.432 423.285 412.903C427.39 407.045 431.706 401.296 435.714 395.364C437.32 392.963 438.369 388.054 440.847 385.842C445.559 381.636 449.281 383.173 454.705 378.743L454.646 378.071C453.816 369.229 450.319 361.384 451.369 352.152C452.232 344.566 457.757 338.508 460.686 331.9C468.724 313.766 467.872 292.996 466.394 274.01C449.225 305.059 416.424 326.618 380.179 323.138C386.265 321.51 393.504 321.683 399.824 320.239C424.728 314.551 447.373 300.129 460.987 278.247C464.16 273.196 465.579 268.785 468.312 264.012L468.734 264.346C468.811 267.318 467.968 269.625 467.143 272.456C471.763 288.946 470.613 314.315 464.258 330.124C474.79 323.438 480.147 311.592 482.833 300.306C485.038 291.039 484.761 272.581 478.701 265.069C472.371 257.223 469.22 251.267 464.828 242.021C461.423 236.993 454.601 234.747 450.411 231.127C446.162 227.455 443.765 222.508 439.456 218.475C403.162 184.505 341.536 183.465 311.084 225.423C309.919 227.029 309.542 229.594 307.646 229.306C306.905 227.39 308.845 224.069 309.723 222.295C264.602 213 226.455 295.34 211.42 327.872C202.067 347.973 193.203 368.298 184.834 388.828C169.849 425.787 155.731 463.091 142.491 500.71C123.064 554.89 103.178 608.905 82.8373 662.745C72.4898 689.7 61.5883 716.44 50.1408 742.945C46.6273 750.99 43.0703 759.02 39.4703 767.03C38.1303 769.945 34.2795 776.88 33.8314 779.465C32.3447 788.035 40.9173 798.805 45.0173 805.325C48.6328 811.075 56.0703 818.44 59.0148 823.215L58.5273 823.44C49.0318 814.21 26.3192 789.215 32.8076 774.94C37.4434 764.745 42.5303 753.65 47.0248 743.225C56.8113 720.21 66.3028 697.07 75.4978 673.81C86.7598 645.195 96.9933 616.465 107.754 587.64C140.188 500.76 168.948 412.246 208.064 328.038C222.615 296.711 237.809 264.501 262.316 239.619C273.42 228.361 294.122 213.56 310.706 221.19C322.96 205.045 343.644 194.042 363.643 191.375C388.972 188.239 414.515 195.224 434.723 210.812C437.539 212.97 443.478 218.283 445.336 221.233C454.34 235.526 469.44 234.156 471.768 253.157L471.854 253.918C496.2 271.5 489.755 321.239 462.56 332.885C458.177 339.267 454.195 344.037 453.758 352.238C453.28 361.216 456.006 369.349 457.429 378.042C453.569 384.815 451.005 383.866 443.651 386.306C437.45 393.876 440.897 396.51 433.05 401.776C430.713 410.496 428.31 408.696 425.157 414.601C418.869 426.375 416.4 435.768 400.028 431.836C391.296 429.739 384.32 422.994 376.482 419.848C365.849 426.305 361.627 447.759 360.853 459.197C372.958 465.552 380.896 467.644 394.067 470.787C399.101 471.988 404.966 475.767 409.518 478.153C433.528 489.405 438.702 510.06 437.871 534.86C437.737 538.89 437.592 544.68 438.556 548.705C448.596 581.375 473.759 599.455 463.64 636.735C471.635 627.59 482.537 613.405 492.87 607.665C496.425 605.69 502.635 603.985 506.485 602.545C502.245 596.92 498.615 600.16 492.32 600.495C480.954 601.11 472.783 595.05 466.242 586.595C476.07 582.76 483.539 580.625 494.125 584.895C501.26 587.775 510.43 597.675 513.18 604.65C513.275 604.905 513.37 605.16 513.46 605.415C496.735 587.965 495.97 580.65 469.546 587.375C473.136 592.81 479.874 596.36 486.281 597.715C493.325 599.2 499.08 596.53 504.99 598.57C507.385 599.4 509.79 606.35 512.805 606.29L513.46 605.415C513.91 605.535 514.47 605.415 514.995 605.365L515.475 604.555C514.575 598.21 507.145 585.86 504.91 578.61C511.785 586.365 513.09 594.455 517.44 603.465C517.51 603.615 520.785 605.625 521.27 605.865C521.62 602.21 513.155 579.035 511.545 574.67C509.365 577.35 508.345 578.745 505.26 580.5C497.895 584.695 488.61 583.005 484.805 574.95C477.681 573.53 469.531 571.25 468.644 562.24C468.268 558.41 469.318 554.38 472.012 551.435C473.2 550.13 472.092 542.255 472.594 540.045C473.353 535.965 478.291 532.97 481.48 530.81C477.344 527.035 475.139 521.73 471.822 519.2C470.615 520.065 470.012 520.665 468.544 520.92C461.281 523.47 449.287 520.345 444.7 513.52C444.034 512.53 444.596 511.485 444.997 510.56C446.661 509.165 446.549 509.185 448.634 508.665C447.547 510.72 447.108 511.165 445.579 512.98C453.837 518.72 452.894 517.18 460.934 520.335L462.834 519.495C456.322 517.71 452.423 514.02 448.634 508.665C447.066 506.01 445.141 504.12 446.402 501.03C449.701 497.52 456.899 499.772 460.707 501.505C460.986 498.574 462.234 492.785 460.259 490.615C456.429 490.929 452.154 498.168 449.353 498.833L449.223 497.694C450.25 495.053 453.196 492.432 455.369 490.654C457.502 488.909 459.888 490.626 463.025 489.672C464.337 487.813 464.433 487.269 466.591 487.406C469.959 489.747 475.273 499.944 476.129 504.235C477.344 510.33 476.233 513.015 473.233 517.81C477.752 522.33 479.176 524.91 482.545 530.21C486.64 529.14 486.66 529.4 488.87 525.575C491.67 520.72 495.82 520.845 500.86 520.93C500.36 518.49 498.82 509.31 497.19 508.145C493.855 505.77 488.205 502.21 483.864 502.8C480.918 505.08 484.013 508.57 485.599 510.885C476.544 517.085 483.531 517.15 486.416 523.58L486.133 524.055L485.057 523.82C482.621 521.465 479.477 519.595 478.601 516.69C478.793 513.585 480.58 512.36 482.775 510.295C480.788 507.39 478.611 502.93 482.72 500.535C486.148 498.531 492.77 504.12 496.695 505.615C495.66 502.185 494.625 495.235 490.68 494.548C483.297 493.265 488.57 482.199 478.493 481.279C477.197 481.161 476.292 482.289 475.541 483.048C474.963 485.417 474.739 488.453 475.636 490.757C477.973 491.414 481.31 490.721 484.313 490.982L484.012 491.733C480.557 494.008 472.39 493.51 473.183 489.372C473.783 486.244 472.356 481.38 475.496 479.864C480.214 477.587 483.645 482.555 487.499 483.897L488.07 483.245C488.075 480.957 487.171 479.471 486.232 477.351C483.704 476.535 481.197 475.652 478.716 474.702C475.325 475.995 464.208 479.564 466.256 471.581C467.198 470.478 467.607 470.172 468.111 468.815C461.223 456.713 477.729 459.743 483.284 470.056L482.922 470.492C479.639 469.272 475.534 463.028 470.197 462.629C468.407 463.461 469.073 462.842 468.1 464.525C468.679 466.435 470.229 467.789 471.609 469.291C469.55 470.731 469.084 470.819 468.238 472.934L468.71 473.964C472.036 475.337 474.188 474.396 477.608 473.473C480.427 474.151 483.206 475.325 485.917 476.38C484.134 469.347 483.084 465.919 480.219 459.219C474.808 457.068 461.9 455.151 464.802 447.089C470.083 442.183 475.968 450.166 479.018 453.856C478.276 451.45 477.426 448.262 475.997 446.204C472.573 441.266 466.664 438.339 465.297 432.089C464.402 427.998 468.383 423.983 471.844 427.434C476.387 431.963 476.213 440.555 476.425 446.591C477.139 443.005 477.8 435.356 483.103 435.844C488.765 440.209 483.733 449.764 481.439 454.585L484.32 464.574C484.565 460.049 484.524 451.861 490.345 450.009C493.01 449.161 494.775 452.421 494.875 454.831C495.1 460.598 491.195 464.442 487.73 468.528C489.19 463.384 495.27 456.936 491.96 452.509L490.655 452.412C484.009 455.625 484.77 471.88 489.22 473.529C490.65 470.781 491.545 467.031 495.61 468.419C496.7 469.499 496.87 469.813 498.26 470.491C504.975 470.17 505.82 472.857 504.055 478.801L503.85 479.476C505.04 481.042 508.335 480.99 509.29 484.107C510.425 487.824 507.75 492.232 504.625 493.95C501.46 494.477 499.35 491.824 496.625 492.462C495.985 493.441 495.285 494.154 495.63 495.401C498.12 504.51 501.25 511.89 502.845 521.355C507.335 522.695 508.235 523.395 511.77 526.21C515.815 526.21 518 527.04 521.835 528.19C512.655 522.65 508.285 514.335 503.955 504.82C501.515 499.463 508.255 494.726 510.655 496.48C500.61 505.345 507.61 506.375 512.16 515.32C519.495 529.72 536.89 533.835 548.505 521.855C551.345 518.92 551.245 514.61 552.87 511.085C562.74 498.177 557.29 495.458 544.1 491.17C541.9 490.457 537.735 488.412 535.1 488.477C533.89 488.507 531.76 490.507 530.4 490.695C511.715 490.151 511.77 495.826 516.32 511.285C518.63 512.16 521.055 512.645 523.47 513.215C524.625 512.05 525.88 511.23 527.21 510.27C524.34 508.665 520.52 506.6 518.54 503.985L518.66 503.14C520.935 503.685 524.695 507.31 526.945 508.32C530.83 510.06 545.855 504.47 547.47 501.085C547.42 498.907 546.445 497.453 545.46 495.464L546.41 494.599C549.165 495.377 547.81 499.67 549.515 502.03L551.485 502.25C555.945 507.15 545.785 517.99 541.995 521.195C546.195 513.49 548.745 512.315 551.06 503.195C547.055 504.77 543.16 506.835 538.98 508.2C533.54 509.975 528.78 510.62 523.675 513.31C532.31 515.78 534.735 519.1 538.02 526.965C531.855 519.545 528.46 515.845 518.55 514.12C515.36 513.565 511.41 512.17 511.08 508.535C512.165 508.39 513.4 509.555 514.725 510.295C515.11 508.67 512.58 505.51 512.195 502.57C511.825 499.745 511.865 498.795 511.925 495.962C516.355 488.07 520.66 488.097 528.915 488.686C536.18 484.367 539.835 486.482 545.995 490.897C551.155 491.025 552.965 491.647 557.475 494.152C562.4 502.91 558.165 501.67 558.06 507.04C560.99 507.29 563.3 507.195 565.04 509.83C566.115 515.455 555.665 522.85 551.2 525.38C554.145 521.315 563.495 514.38 562.1 509.54C561.33 508.905 560.685 508.2 559.33 508.495C552.01 510.075 553.635 518.745 549.525 523.65C545.23 528.775 539.975 529.905 534.08 530.725C534.085 539.74 533.43 549.52 533.135 558.57C533.01 562.47 532.7 571.605 531.985 574.88C535.98 579.72 536.71 581.52 537.88 587.445C538.795 583.96 539.57 580.905 541.155 577.66C535.545 571.435 531.775 563.155 537.975 555.985C538.31 553.79 536.35 550.175 536.06 547.82C534.97 538.895 542.305 529.055 551.29 527.87C556.22 527.215 558.405 528.7 562.035 531.4C560.225 530.79 557.445 529.82 555.555 529.725C546.575 529.265 538.45 536.505 538.13 545.545C537.835 553.835 542.57 557.785 547.625 563.31C545.035 554.765 544.1 544.64 550.61 537.13C556.925 529.845 562.52 532.615 570.145 532.055L570.87 531.995C567.515 527.745 565.555 522.2 567.47 516.675C569.49 510.855 571.025 499.847 576.395 496.312C578.86 494.642 581.84 499.143 581.805 499.147C588.465 498.258 596.945 497.526 599.755 505.575C601.505 510.59 606.065 509.005 607.945 514.715C609.52 519.505 606.8 519.17 606.53 522.975C608.295 524.115 609.165 524.315 609.5 526.325C609.135 527.215 608.615 528.26 607.81 528.825C600.62 533.875 594.035 539.91 584.925 539.61C591.59 551.695 585.63 550.085 589.61 561.84C590.465 564.37 590.14 566.92 590.03 569.645C594.445 568.19 605.735 568.93 608.27 572.72C608.63 578.205 597.32 584.35 592.71 586.18C585.985 588.845 581.405 587.055 575.28 584.175C580.25 584.35 583.655 585.875 589.2 584.805C597.18 583.27 601.62 579.385 606.13 573.235C600.13 571.095 595.97 570.775 589.745 571.18C582.815 583.49 580.64 580.95 569.4 581.52C567.49 581.615 563.89 584.72 558.265 585.12C551.135 595.17 548.27 599.665 542.43 610.485L547.475 607.035C551.1 597.795 565.375 583.41 575.375 581.955C570.76 585.03 567.505 587.365 563.12 590.785C565.645 590.355 568.19 590.085 570.745 589.975C576.965 589.76 580.07 591.05 584.545 595.375C586.97 597.715 593.865 606.125 590.665 609.075C576.495 612.21 566.235 607.4 558.935 595.04C556.97 596.88 553.21 600.61 551.905 602.82L552.13 603.4C554.01 603.415 557.13 603.115 558.77 603.575C563.62 604.935 563.23 611.245 561.69 614.77C568.255 622.865 563.285 622.675 565.245 629.5C567.15 636.135 568.65 632.18 566.51 640.945C571.565 647.455 571.06 648.84 567.9 656.31C571.62 662.1 573.3 668.33 574.85 674.925C579.73 678.225 584.09 678.755 589.465 681.085C595.785 683.825 602.07 686.67 608.345 689.51C607.83 680.99 610.14 673.07 611.03 664.725C613.73 639.39 613.2 613.81 614.8 588.385C614.99 585.325 615.155 581.745 615.08 578.695C614.065 537.855 612.425 495.11 623.14 455.296C624.645 449.703 629.315 442.128 633.41 437.853C651.655 421.663 676.43 412.659 695.35 397.318C696.45 396.426 701.795 386.699 702.985 384.656C702.93 378.579 703.285 375.331 704.4 369.366C701.605 366.218 698.46 355.841 693.555 357.904C680.86 363.244 663.365 378.358 650.96 363.806C647.25 359.45 647.635 352.993 645.205 347.999C641.42 341.056 637.93 341.359 636.865 332.713C628.69 326.654 632.645 324.421 627.955 317.613C626.485 315.478 614.275 316.515 611.58 312.264C608.34 307.142 613.6 291.416 614.235 285.056C615.315 274.21 618.7 268.964 610.54 259.607C608.98 257.821 606.88 254.302 606.56 252.115C604.615 238.79 603.77 221.319 604.62 208.064ZM215.8 501.965C215.329 503.84 213.471 508.62 212.721 511.225C208.261 526.71 207.32 542.605 206.148 558.595C204.802 577.485 203.702 596.395 202.846 615.315C200.819 652.845 197.169 691.42 199.883 728.92C200.503 737.485 202.406 749.395 206.721 756.92C209.92 762.495 213.197 763.895 218.908 765.32C221.31 737.73 221.513 706.65 223.158 678.575L225.63 638.455C226.043 632.29 227.092 620.33 226.838 614.865C226.584 609.375 221.063 596.645 219.39 590.07C210.873 556.58 209.967 535.115 216.731 501.59L215.8 501.965ZM229.73 487.251C218.416 516.525 222.397 551.5 229.659 581.235C231.375 571.91 231.872 557.155 233.153 547.245C236.342 522.565 238.562 496.133 242.799 471.732L238.55 474.879C233.662 479.359 232.521 480.865 229.73 487.251ZM227.86 607.64C228.575 592.53 230.029 590.115 226.295 575.105C219.952 549.605 218.559 520.06 224.929 494.495C225.516 492.138 226.72 488.22 228.226 486.301L228.187 484.737C223.13 488.256 219.804 498.291 218.248 503.975C212.225 531.5 213.422 557.87 220.228 585.1C222.134 592.73 224.316 600.615 227.86 607.64ZM466.368 519.275C467.962 519.04 469.554 518.79 471.142 518.515C469.336 516.85 465.69 515.015 464.786 513.78C457.186 503.385 463.624 501.09 449.65 501.64L446.631 501.77C452.32 510.775 455.295 516.065 466.368 519.275ZM608.76 153.333L612.005 153.563L612.365 154.262C602.94 156.773 592.445 159.641 587.32 168.595C579.23 182.889 588.74 200.547 603.74 204.989C604.51 205.218 607.13 203.423 607.12 205.092C607.035 219.725 607.235 234.447 608.67 249.027C609.47 257.139 618.27 261.832 618.48 270.258C619.025 278.821 616.595 286.897 615.285 295.019C614.66 298.877 611.48 310.065 615.18 311.664C621.345 314.328 630.105 310.733 632.855 321.438C633.255 323.064 633.625 324.699 633.96 326.34C635.97 328.333 636.83 329.13 639.115 330.777C639.43 332.852 639.745 335.378 640.235 337.379C643.235 340.574 644.98 342.205 647 346.038C650.74 352.996 649.855 363.347 658.82 366.169C667.45 368.884 677.725 363.406 684.94 358.912C697.27 351.229 699.755 354.807 705.44 366.659C722.79 339.615 752.64 321.587 783.645 314.632C786.48 313.996 789.755 313.404 792.65 313.2C789.38 306.285 786.16 299.002 784.075 291.638C777.2 291.686 768.38 292.549 763.37 287.539C757.765 281.932 751.375 268.785 749.56 261.413C746.125 268.873 741.345 285.328 728.455 280.299C728.065 280.146 727.275 279.552 726.945 279.316L727.2 278.766C733.45 277.835 736.025 279.51 740.305 273.804C749.235 261.883 756.625 226.241 736.59 220.952C725.915 220.892 720.77 228.694 718.88 238.324L718.185 238.459C717.36 237.413 717.34 237.004 717.55 235.601C720.06 218.79 738.765 210.461 748.605 227.43C753.345 235.611 752.25 245.64 750.765 254.656C750.55 255.896 749.545 260.56 749.56 261.413C755.075 264.654 757.19 280.111 768.66 288.151C772.97 288.649 781.16 288.749 785.95 289.017C787.825 259.104 796.715 232.9 798.59 203.491C799.275 192.761 793.555 165.188 788.865 154.942C786.89 150.709 784.355 146.76 781.33 143.201C770.035 129.69 760.79 126.847 744.27 125.39C722.29 101.45 675.8 111.47 651.43 125.73C644.025 130.065 637.045 135.282 629.415 139.344C622.37 143.097 614.845 144.967 607.75 148.513C603.6 150.599 600.885 153.351 597.63 156.583C601.665 154.863 604.485 154.026 608.76 153.333ZM567.645 649.765C567.465 647.46 567.415 647.02 566.645 644.855L565.785 644.185C561.98 645.535 559.575 655.115 556.665 654.605C555.41 649.51 570.825 636.44 562.92 631.825C558.795 632.58 556.885 640.685 552.505 641.435C552.145 635.96 569.32 624.66 560.545 617.905C555.88 620.255 548.73 628.37 545.47 628.975C547.94 621.85 568.795 611.085 556.785 605.395C553.045 604.92 543.075 613.445 539.2 615.41C531.05 619.53 519.695 628.645 511.03 630.49C513.295 628.795 515.325 627.85 516.005 625.335C515.575 623.55 515.2 622.585 514.545 620.855C510.23 624.3 505.675 625.775 501.905 628.55C498.94 635.13 496.695 642.01 495.21 649.075C492.685 661.505 494.67 662.505 485.888 672.545C468.731 692.165 450.427 702.73 429.186 716.615C428.673 721.355 427.347 733.605 425.133 737.265L424.633 737.395C424.367 734.755 425.368 727.945 425.775 725.09C427.308 714.365 426.824 703.925 427.265 693.195L430.951 617.5C431.655 604.43 432.432 591.36 433.283 578.295C434.772 556.875 436.764 532.005 433.242 510.675C431.792 501.89 426.527 493.433 419.668 487.849C415.531 484.481 403.779 477.471 398.49 477.519C385.952 481.306 379.441 490.023 373.408 501.265C358.394 529.235 352.691 575.06 362.077 605.49C362.942 608.25 363.957 610.96 365.118 613.61C365.119 606.88 364.927 584.295 365.703 578.365C369.039 591.09 367.23 620.135 366.794 634.08C366.373 651.94 366.263 669.805 366.464 687.67C366.639 709.23 366.943 730.935 369.476 752.365C370.748 763.125 372.352 774.78 378.441 783.925C393.605 806.69 401.595 801.925 421.736 788.87C447.328 772.28 466.786 750.815 485.793 727.29C494.835 716.145 504.325 705.15 514.35 694.875C518.97 690.14 526.595 686.94 532.275 683.685C545.965 675.835 561.68 665.07 567.645 649.765ZM232.134 591.475L231.086 593.285C230.184 595.49 230.219 597.91 229.873 600.31C226.989 620.295 241.212 639.355 247.419 657.685C248.454 660.745 250.374 664.13 251.248 667.14C253.756 672.875 259.672 687.565 262.515 692.475L263.365 692.6L263.903 694.12C264.048 698.31 264.473 699.525 265.932 703.55C269.239 710.38 273.573 726.31 274.855 733.535C278.145 728.465 280.437 723.84 282.148 718.3C285.227 708.335 287.46 701.97 295.334 694.875C299.942 690.72 300.347 680.46 302.287 674.845C304.081 669.88 308.617 665.72 310.268 660.705C314.786 646.985 308.928 631.04 307.631 616.495C306.76 624.14 304.294 634.265 302.778 642.06C298.54 663.845 296.105 679.385 287.655 700.14C285.285 697.275 283.505 694.965 281.343 691.945C275.107 683.5 270.42 676.375 264.913 667.43C264.823 665.73 264.778 666.565 265.779 664.78C269.964 670.955 279.491 684.55 282.877 690.475C284.138 692.025 286.117 695.765 287.184 697.65C288.557 693.145 290.092 688.62 291.4 684.1C297.073 664.49 299.43 643.97 304.271 624.135C304.787 620.795 306.82 615.465 306.666 612.21C306.189 602.085 304.554 590.86 303.579 580.79C301.541 559.555 299.896 538.29 298.646 516.995C297.413 494.398 296.63 471.777 296.298 449.148C296.15 438.27 296.593 419.052 295.459 408.958C285.256 430.746 265.846 456.879 245.202 469.653C242.363 488.193 229.326 580.71 232.134 591.475ZM252.203 695.985C253.561 683.33 256.683 684.775 251.034 672.075C243.511 654.27 235.073 635.23 228.678 617.125C227.802 645.71 225.104 676.66 223.61 705.48L221.624 748.26C221.336 753.56 221.252 760.01 220.59 765.185C230.192 765.81 239.799 764.97 249.301 765.495C252.352 762.72 258.955 757.065 261.201 753.955C261.556 741.25 262.121 726.11 262.026 713.505C257.958 713.055 253.679 713.475 250.933 710.885C249.464 707.725 251.595 700.2 252.203 695.985ZM727.3 379.329C753.41 367.217 809.195 354.991 836.94 360.153C832.375 353.453 822.6 337.968 818.08 332.848C811.54 330.937 805.1 331.446 798.31 331.718C781.63 332.741 760.54 339.383 746.215 347.709C727.37 358.667 712.075 376.943 700.015 394.872C709.07 389.607 717.99 384.09 727.3 379.329ZM429.456 712.89L438.991 707.37C439.14 703.245 439.62 700.23 440.244 696.12C441.402 690.295 442.636 683.385 444.647 677.89C452.932 655.365 468.241 632.41 461.802 607.36C459.147 597.03 452.826 585.925 447.67 576.51C445.751 573.005 438.936 556.275 437.498 554.795L431.612 661.985C430.758 678.675 429.704 696.23 429.456 712.89ZM262.917 451.924C274.005 440.487 282.669 429.466 290.146 415.264C294.667 406.676 295.854 405.421 295.699 395.324C295.591 388.783 295.536 382.241 295.534 375.699C285.872 375.732 280.508 373.595 274.429 365.824C271.02 364.975 268.018 364.351 264.807 362.902C263.541 371.587 261.045 381.736 259.304 390.496C255.927 407.569 252.737 424.678 249.734 441.821C248.476 449.075 246.277 460.481 245.764 467.519C251.266 461.924 257.432 457.468 262.917 451.924ZM444.45 689.025C452.596 684.6 461.561 678.405 470.754 677.34C476.837 676.635 480.877 674.53 484.968 669.915C491.085 663.425 491.01 655.945 492.72 647.815C493.69 643.29 495.58 637.745 497.12 633.26L496.16 633.365C491.025 641.35 489.84 651.855 480.994 658.255C478.02 660.405 477.344 662.02 473.385 661.77L473.139 661.445C478.812 658.085 482.91 654.18 486.517 648.615C490.25 642.855 491.81 634.46 496.655 629.63C504.625 621.685 515.57 621.31 519.985 609.565C519.79 607.535 520.2 608.345 518.9 606.975C514.735 606.51 492.07 621.205 484.616 621.265C484.992 619.25 506.895 609.39 510.31 607.83L507.43 603.985C503.98 605.825 494.975 608.77 492.65 610.57C481.806 618.94 472.07 630.935 463.123 641.35C462.245 642.385 458.064 653.57 457.409 655.21C454.062 663.59 449.392 672.7 446.663 681.045C445.811 683.675 445.072 686.335 444.45 689.025ZM225.268 841.74C231.392 850.47 229.987 856.135 235.084 864.485C237.537 868.505 243.759 873.335 247.153 876.945C252.424 883.94 255.382 891.285 259.092 899.175C258.953 881.555 259.025 863.925 259.31 846.305C259.451 839.135 261.541 793.475 260.371 789.36C248.253 806.535 236.548 824 225.268 841.74ZM715.11 370.25C738.255 345.299 766.435 330.021 801 328.541C803.835 328.446 806.67 328.414 809.51 328.446C804.625 316.39 804.25 314.601 790.765 316.158C760.075 321.291 730.475 337.945 711.105 362.885C706.325 369.041 705.955 374.475 705.315 382.026L715.11 370.25ZM510.75 702.59C515.12 705.73 518.655 708.65 523.515 710.975C531.23 714.825 536.915 716.82 545.36 718.35C547.31 698.13 550.89 681.51 572.405 674.975C570.975 671.205 567.98 661.315 566.035 658.775C558.615 670.27 545.27 679.84 533.36 686.355C522.245 692.435 519.4 693.365 510.75 702.59ZM343.933 346.134C342.28 349.326 338.401 357.971 339.379 361.374C341.191 357.517 342.938 352.177 345.766 348.952C357.127 335.997 368.091 333.721 378.109 318.642C362.7 322.194 350.172 322.671 334.875 316.897C330.417 315.214 326.942 313.122 322.713 311.135C320.542 318.02 320.003 322.24 321.103 329.522C322.066 335.9 330.063 355.072 338.558 351.45C340.742 348.451 343.087 343.425 344.827 341.341C351.397 333.466 361.667 326.677 369.852 320.408C363.032 329.864 350.793 335.081 343.933 346.134ZM250.661 767.69C246.875 774 245.755 780.5 241.484 786.935C232.599 800.32 215.28 809.205 219.581 828.12C220.192 830.805 222.31 836.925 224.018 838.905C229.735 829.67 235.671 820.57 241.82 811.62C247.309 803.54 256.157 791.725 260.548 782.99C261.434 781.23 261.035 769.82 261.046 766.96L255.353 767.28C253.809 767.395 252.189 767.48 250.661 767.69ZM506.135 531.435C509.535 534.42 511.15 536.215 511.325 540.765L511.985 541.105L514 540.3L514.655 540.725L514.505 541.61C506.095 545.26 508.61 557.375 488.675 560.33C507.865 575.615 517.015 561.14 515.4 542.105C514.315 529.3 508.5 521.765 495.24 523.655C491.495 525.57 490.48 525.75 489.32 529.915C483.64 533.635 476.726 532.76 474.53 541.77C473.162 547.38 475.939 553.075 479.136 557.595C483.323 563.515 484.514 564.58 491.255 565.81C492.115 565.965 492.97 566.115 493.83 566.26C489.765 563.16 488.35 561.225 485.503 557.13C477.247 545.25 478.736 538.91 492.57 534.535C496.025 533.44 493.76 526.085 506.135 531.435ZM217.354 814.965C220.866 806.98 222.986 803.78 229.182 797.56C241.188 785.16 240.999 783.025 247.695 767.395C239.615 767.6 228.568 767.925 220.594 767.4C219.488 783 218.699 799.49 217.354 814.965ZM555.685 569.68C560.295 564.115 566.07 562.69 572.675 559.335C559.575 561.37 552.99 557.975 548.685 545.28C551.92 549.43 553.41 552.615 557.265 556.18C550.68 542.36 554.7 539.715 568.33 536.845C576.135 539.74 577.735 541.765 579.855 549.785C579.715 550.205 579.57 550.625 579.42 551.045C576.69 558.73 573.745 560.12 566.695 563.49C569.73 563.515 572.765 563.49 575.795 563.42C578.155 561.955 578.94 561.57 580.755 559.515L581.98 559.5L582.06 560.83L582.5 561.18C592.735 549.46 581.375 530.59 566.39 534.38C563.89 535.01 563.215 534.56 560.815 533.665C552.165 535.935 548.52 541.255 547.59 550.205C546.53 560.39 551.275 571.275 562.77 571.62C567.575 571.765 572.33 572.065 576.21 568.415C577.225 567.465 578.935 565.63 578.97 564.29L577.755 564.075C571.14 567.195 572.235 564.415 565.615 565.04C564.035 565.19 557.62 568.69 555.685 569.68ZM535.665 612.865C537.545 604.255 543.2 589.09 548.085 582.11C546.125 580.94 543.725 579.59 541.915 578.27C540.845 582.535 532.575 612.82 533.205 615.17L534.075 615.325C535.63 614.015 535.125 614.81 535.665 612.865ZM549.21 582.625C547.535 586.465 537.56 609.725 537.905 612.925C540.17 612.355 540.725 610.935 541.55 608.92C544.065 602.005 551.355 589.215 557.335 584.98C554.49 584.335 551.87 583.86 549.21 582.625ZM262.213 703.085C261.994 696.725 258.944 691.2 256.294 685.46C255.244 689.895 254.814 693.44 254.242 697.93C253.68 701.23 252.831 707.36 252.034 710.39C255.337 710.69 258.695 711.06 262.007 711.11C262.057 708.78 262.035 705.315 262.213 703.085ZM570.985 678.015C562.45 681.4 556.035 686.865 552.63 695.51C548.86 705.09 543.43 727.94 553.645 734.835C552.825 718.645 553.47 700.245 564.72 687.29C568.475 682.96 574.58 680.495 575.43 679.055C574.24 677.795 572.66 677.905 570.985 678.015ZM298.102 375.992C298.049 379.321 297.603 394.596 298.357 397.176C299.903 393.392 305.643 377.533 304.924 374.162L298.102 375.992ZM492.945 469.689C491.64 472.247 490.96 473.621 488.96 475.704C486.727 478.03 490.515 480.956 491.225 483.044L490.775 483.572C488.74 485.977 487.755 487.148 487.445 490.26C489.43 495.235 494.325 492.461 497.13 489.964C498.67 490.017 499.485 491.008 500.735 492.039C506.81 493.064 512.725 483.631 500.235 481.328C501.56 479.021 503.515 476.27 502.975 473.644C500.895 472.368 498.245 473.593 496.83 473.11C494.795 472.417 497.12 470.167 492.945 469.689ZM523.6 714.1L523.58 714.79C523.415 719.705 519.66 745.31 521.025 747.305C522.585 747.96 522.605 748.02 524.37 748.25C524.94 744.905 527.29 719.115 527.085 716.37C525.97 714.96 525.24 714.815 523.6 714.1ZM530.8 616.015C531.71 610.255 532.83 604.525 534.145 598.84C531.74 597.035 527.27 593.43 524.93 591.93C526.32 601.225 527.165 608.74 528.18 618.05C529.575 618.315 528.845 618.305 530.525 617.245C530.595 616.975 530.8 616.255 530.8 616.015ZM520.56 616.37L519.795 616.455L518.76 616.445C517.64 617.74 517.355 618.1 516.445 619.54C517.065 621.49 517.21 623.05 518.545 624.295C519.98 624.275 520.195 623.98 521.435 623.245L522.075 622.105L522.94 621.91L523.44 620.99C523.33 618.47 523.47 613.165 522.045 611.355L521.37 611.63C520.285 613.62 520.455 613.995 520.56 616.37ZM535.42 746.715C534.79 738.315 534 729.91 533.52 721.49C533.305 717.695 532.35 717.94 528.9 716.645C529.4 720.445 531.205 745.45 532.09 746.72C533.69 747.045 533.84 746.935 535.42 746.715ZM510.485 741.595C512.085 736.925 517.275 716.85 517.97 712.115C517.26 710.75 516.215 710.39 514.845 709.615C514.16 716.79 506.855 737.57 507.795 740.165C509.055 741.05 509.05 741.12 510.485 741.595ZM267.517 265.947C258.362 269.496 251.039 278.002 247.179 286.856C243.275 295.81 241.895 305.476 242.431 315.186C242.545 317.259 242.345 321.097 243.849 322.646C248.074 309.547 253.239 296.771 259.304 284.416C260.657 281.614 267.754 268.075 268.188 266.57L267.517 265.947ZM498.925 553.99C485.784 554.55 482.268 549 490.805 538.335L490.635 537.59L490.085 537.395C479.125 541.745 481.303 552.335 490.13 558.24C490.71 558.63 493.75 557.91 494.5 557.68C496.315 556.325 497.3 555.555 498.925 553.99ZM480.997 451.487C482.419 447.992 487.454 438.675 480.836 437.757C478.88 441.196 477.955 448.518 480.345 451.825L480.997 451.487ZM497.965 531.54C496.355 532.36 495.33 532.505 494.59 533.79C497.345 534.145 501.115 534.43 503.005 536.675C506.405 540.705 502.785 548.93 500.6 552.8L500.98 553.15L501.165 553.065C506.545 548.11 507.09 547.205 510.57 540.545C507.215 534.155 505.615 531.48 497.965 531.54ZM565.625 547.75C567 548.77 568.32 549.495 569.05 550.99L568.92 554.28L569.905 554.505C574.03 550.95 568.945 544.98 564.08 543.81C560.56 548.325 560.93 554.85 567.725 553.605L567.83 552.885C566.445 551.24 565.5 550.225 563.955 548.735C564.66 547.7 564.19 548.115 565.625 547.75ZM519.775 572.03C516.47 573.57 513.83 572.855 512.065 574.1C512.96 576.29 511.615 573.23 513.04 575.58C519.295 585.925 523.25 603.625 524.34 614.89C524.465 617.07 524.24 617.94 525.68 619.59L526.16 619.64C526.37 615.355 523.895 597.46 523.275 592.355C522.46 585.625 520.045 583.65 520.39 574.485L520.46 572.255L519.775 572.03ZM583.99 607.53L588.57 607.41L589.035 606.76C586.445 596.37 577.315 591.005 566.845 592.085C564.69 592.675 562.435 593.245 560.335 593.995C566.955 604.315 571.82 607.015 583.99 607.53ZM501.02 543.81C496.39 548.035 494.075 550.835 488.535 545.315L487.984 545.8C488.195 547.96 488.315 548.425 489.02 550.48C495.05 556.49 501.125 552.07 501.77 544.335L501.02 543.81ZM565.1 581.99L566.56 581.115C566.15 579.965 559.835 575.965 556.795 572.22C550.615 570.76 542.695 559.37 538.625 557.19C531.575 573.43 551.24 585.495 565.1 581.99ZM261.037 764.365C261.049 762.945 261.18 759.165 260.956 757.965C259.328 759.81 254.228 763.85 254.274 765.105C256.531 764.88 258.785 764.635 261.037 764.365ZM577.09 497.753C575.54 499.367 575.09 499.25 574.915 500.97C577.165 503.99 577.875 502.715 579.98 507.1C583.255 507.25 587.67 501.61 591.915 507.14C594.11 510.005 598.31 514.56 599.87 517.61C601.605 521 597.505 521.485 604.635 522.395C610.495 513.37 601.405 513.01 598.57 508.545C594.585 502.265 597.44 502.23 587.26 499.795C584.67 500.655 583.32 501.195 580.85 502.365C579.08 500.095 581.14 499.977 577.09 497.753ZM468.872 427.439C464.633 433.073 470.151 437.472 474.099 441.341L474.722 440.942C474.421 436.555 472.992 429.825 468.872 427.439ZM525.165 546.315C533.71 553.96 529.775 564.185 522.06 570.69C523.475 571.145 525.185 571.645 526.53 572.19L531.06 574.685C530.86 560.825 532.145 544.76 532.6 530.61C527.7 530.58 526.015 530.295 521.41 528.315C526.42 534.67 526.62 538.37 525.165 546.315ZM271.561 766.27L262.646 767.015C262.61 769.795 262.305 777.92 262.832 780.205L263.349 780.125C266.379 776.35 269.91 771.195 272.142 766.905L272.025 766.19L271.561 766.27ZM490.115 544.805C494.37 548.34 499.095 545.065 497.3 541.71L495.985 541.395C493.65 541.82 493.005 542.55 491.015 544C491.295 541.71 491.065 542.54 492.5 540.56C497.05 538.175 498.76 542.345 501.835 541.545C502.83 539.31 501.58 536.685 499.17 535.725C494.765 533.975 488.195 540.755 490.115 544.805ZM563.8 576.07C586.53 588.82 591.895 561.685 586.45 559.26C576.515 570.14 575.33 577.915 557.71 571.61C559.675 573.11 561.72 574.76 563.8 576.07ZM467.932 446.682C463.589 453.808 473.546 454.51 478.372 456.961L478.788 456.31C476.524 452.89 471.97 447.704 467.932 446.682ZM564.935 538.96C563.355 539.66 562.38 539.725 561.635 540.92C563.365 543.195 567.96 542.785 569.54 544.235C574.655 548.925 576.005 559.54 565.385 555.33C555.435 551.385 562.84 547.99 561.12 542.27C559.535 541.495 560.405 541.75 558.285 542.015L556.655 543.42C555.525 546.245 555.79 550.825 557.48 553.33C561.065 558.645 566.77 558.695 572.25 558.4C576.025 555.415 576.655 553.58 577.715 548.84C575.615 542.2 572.265 538.98 564.935 538.96ZM584.255 538.44C587.655 537.9 589.335 537.73 592.5 536.24C597.215 533.28 604.05 529.42 607.85 525.605C602.28 523.665 596.445 522.675 590.53 523.07C584.775 524.55 582.705 526.175 579.09 530.78L577.31 533.025C580.575 534.78 581.75 535.69 584.255 538.44ZM581.86 524.585C585.79 522.555 587.84 521.295 592.275 520.715C594.25 520.91 596.195 521.37 597.85 520.435C599.285 517.7 596.085 515.94 594.035 514.545C591.81 508.23 590.54 506.67 583.51 507.025C582.43 507.78 581.185 508.28 581.25 509.57C581.52 515.135 583.33 518.98 581.86 524.585ZM541.965 743.595C541.86 739.6 539.55 724.375 538.635 720.32C537.165 719.235 536.815 719.215 535.115 718.715C535.8 722.765 538.7 741.01 540.54 743.335L541.965 743.595ZM264.464 764.655C267.278 764.235 271.458 763.49 274.189 763.41C274.816 759.04 275.75 742.6 273.223 739.355C268.868 744.045 260.595 757.775 263.187 764.265L264.464 764.655ZM522.045 572.1C522.515 582.275 522.265 586.345 530.75 593.905C532.085 595.095 533.34 596.49 534.93 597.31L535.375 596.84C538.045 584.015 534.23 576.875 522.045 572.1ZM465.608 488.907C461.217 497.375 460.348 510.7 470.397 515.47C470.954 515.73 471.515 515.985 472.08 516.225C474.811 511.54 475.01 509.36 473.894 503.83C473.268 500.73 467.823 491.027 465.608 488.907ZM263.583 713.49C263.207 726.29 262.977 739.095 262.894 751.905C264.068 749.19 265.283 746.22 266.522 743.56C268.394 740.64 270.934 737.89 273.225 735.255C271.872 730.14 269.107 717.87 266.672 713.9C265.454 713.68 264.814 713.58 263.583 713.49ZM573.355 502.62C572.24 511.725 562.08 529.56 576.565 532.85C578.28 528.63 579.91 524.935 580.26 520.32C580.705 514.495 578.575 506.01 573.355 502.62ZM473.556 679.795C460.944 680.41 454.937 687.345 443.853 692.29C442.951 696.435 442.149 700.6 441.447 704.78L441.838 705.29L442.218 705.255C453.898 697.7 464.495 689.865 474.278 679.88L473.556 679.795ZM512.61 527.875C522.075 542.12 514.67 556.725 513.395 571.53L513.9 572.29C517.22 572.85 523.745 566.34 525.48 563.61C528.965 556.635 528.27 553.455 524.41 546.895C521.815 551.49 520.67 553.32 516.895 557.1C518.915 552.88 521.755 548.99 522.875 544.42C525.15 535.105 522.81 528.505 512.61 527.875ZM473.17 552.39C471.487 555.975 471.328 556.57 470.417 560.53C474.717 578.95 489.015 570.71 500.68 568.7C494.16 572.435 493.48 573.075 486.257 574.37C489.97 579.285 492.55 580.57 498.785 580.505C508.31 578.33 511.385 572.06 514.49 563.61C504.76 570.41 499.075 567.855 488.06 566.815C478.659 565.93 478.481 557.085 473.17 552.39Z" fill="#373737"/>
<path d="M214.268 500.65C221.598 486.666 224.682 482.985 236.706 473.523L238.551 474.879C233.662 479.359 232.522 480.865 229.73 487.251L228.227 486.301L228.187 484.737C223.13 488.256 219.804 498.291 218.249 503.975C216.708 502.69 217.17 503.475 216.731 501.59L215.8 501.965L214.268 500.65Z" fill="#29292A"/>
<path d="M468.544 520.92C461.281 523.47 449.288 520.345 444.7 513.52C444.034 512.53 444.597 511.485 444.997 510.56C446.662 509.165 446.55 509.185 448.635 508.665C447.547 510.72 447.109 511.165 445.58 512.98C453.837 518.72 452.895 517.18 460.934 520.335L462.834 519.495C464.152 519.495 464.713 519.665 466 519.895L466.368 519.275C467.963 519.04 469.555 518.79 471.143 518.515L471.823 519.2C470.615 520.065 470.013 520.665 468.544 520.92Z" fill="#373737"/>
<path d="M466.368 519.275C467.963 519.04 469.555 518.79 471.143 518.515L471.823 519.2C470.615 520.065 470.013 520.665 468.544 520.92C466.251 521.03 462.855 521.355 460.934 520.335L462.834 519.495C464.152 519.495 464.713 519.665 466 519.895L466.368 519.275Z" fill="#373737"/>
<path d="M605.215 169.087C627.465 167.59 649.915 193.958 672.71 196.684C674.63 196.914 679.49 197.24 680.965 197.856C666.54 199.058 656.53 193.919 644.2 187.243C634.25 181.504 613.59 167.222 602.41 172.591C599.63 173.916 597.55 176.361 596.68 179.315C593.7 189.422 600.575 194.27 604.125 201.64C592.835 192.06 586.995 174.28 605.215 169.087Z" fill="#373737"/>
<path d="M658.945 206.093C653.6 205.84 645.57 202.591 640.325 200.386C632.445 197.075 619.53 188.206 611.355 194.914C609.47 196.458 609.24 200.092 607.265 201.564C606.6 200.401 606.295 199.285 606.765 197.968C612.645 181.491 633.37 194.334 643.045 198.659C663.375 207.745 676.64 205.335 696.57 198.299C686.165 205.348 672.055 209.085 659.595 206.374L658.945 206.093Z" fill="#373737"/>
<path d="M658.945 206.093L659.595 206.374C663.71 215.439 665.68 223.792 676.4 227.459C693.8 233.408 696.925 243.099 702.845 258.97L703.835 259.242L702.67 260.329C701.995 260.304 701.535 260.501 701.17 259.832C697.03 252.251 692.82 237.207 683.95 233.392C669.775 227.298 661.105 224.089 658.945 206.093Z" fill="#373737" fill-opacity="0.984314"/>
<path d="M728.215 302.84C728.76 304.491 728.49 309.269 728.295 311.057C727.02 322.825 714.285 336.628 705.455 343.582C705.175 341.996 709.655 337.408 710.84 336.066C717.355 328.7 723.33 321.814 725.965 312.137C726.775 309.147 727.225 306.101 728.09 303.237L728.215 302.84Z" fill="#373737" fill-opacity="0.988235"/>
<path d="M709.9 256.115C710.04 249.855 709.64 235.298 716.13 232.557C712.45 239.153 712.15 249.425 711.41 257.039C708.645 257.714 706.51 258.181 703.835 259.242C705.855 257.604 707.505 257.101 709.9 256.115Z" fill="#373737"/>
<path d="M658.39 321.412L659.265 321.662L659.01 322.628C655.095 326.431 649.18 328.757 644.085 330.478C643.32 330.01 643.58 330.343 643.33 329.465C645.14 328.113 654.985 323.477 658.39 321.412Z" fill="#373737"/>
<path d="M272.099 512.3C272.732 514.005 271.611 522.75 271.41 525.075C270.571 535.52 270.253 546 270.458 556.48C270.813 573.08 272.049 589.645 274.161 606.115C275.642 617.12 277.255 628.105 278.999 639.075C279.902 644.505 284.214 662.715 283.538 666.65C282.067 661.66 279.962 650.275 278.91 644.765C271.878 607.935 264.856 549.295 272.099 512.3Z" fill="#373737" fill-opacity="0.976471"/>
<path d="M736.59 220.952C725.915 220.893 720.77 228.695 718.88 238.324L718.185 238.459C717.36 237.414 717.34 237.005 717.55 235.601C720.06 218.791 738.765 210.461 748.605 227.431C753.345 235.611 752.25 245.641 750.765 254.657C750.55 255.896 749.545 260.561 749.56 261.413C746.125 268.873 741.345 285.328 728.455 280.3C728.065 280.147 727.275 279.553 726.945 279.316L727.2 278.767C733.45 277.836 736.025 279.511 740.305 273.805C749.235 261.883 756.625 226.241 736.59 220.952Z" fill="#373737"/>
<path d="M231.086 593.285L232.134 591.475C239.353 615.905 251.285 639.455 263.89 661.495C263.959 648.85 264.322 636.21 264.977 623.58C265.181 619.63 265.404 611.845 266.082 608.235L266.573 612.085C266.266 618.31 263.853 660.74 265.779 664.78C264.778 666.565 264.823 665.73 264.913 667.43C263.996 675.105 264.578 685.695 263.903 694.12L263.365 692.6L262.515 692.475C263.473 689.31 262.771 670.53 263.515 664.6C253.562 649.58 234.63 610.765 231.086 593.285Z" fill="#373737" fill-opacity="0.984314"/>
<path d="M251.248 667.14C253.756 672.875 259.672 687.565 262.515 692.475L263.365 692.6L263.903 694.12C264.048 698.31 264.473 699.525 265.932 703.55C264.651 704.04 263.173 704.11 262.213 703.085C261.994 696.725 258.944 691.2 256.294 685.46C255.244 689.895 254.814 693.44 254.242 697.93L252.203 695.985C253.561 683.33 256.683 684.775 251.034 672.075C251.114 669.925 250.305 669.05 251.248 667.14Z" fill="#29292A"/>
<path d="M264.914 667.43C264.824 665.73 264.779 666.565 265.779 664.78C269.964 670.955 279.492 684.55 282.878 690.475L282.123 691.765L281.343 691.945C275.107 683.5 270.421 676.375 264.914 667.43Z" fill="#29292A"/>
<path d="M490.115 544.805C488.195 540.755 494.765 533.975 499.17 535.725C501.58 536.685 502.83 539.31 501.835 541.545C498.76 542.345 497.05 538.175 492.5 540.56C491.065 542.54 491.295 541.71 491.015 544L490.115 544.805Z" fill="#373737" fill-opacity="0.0156863"/>
<path d="M266.082 608.235C266.053 605.98 265.816 603.485 266.53 601.415C267.348 604.565 267.237 608.93 266.574 612.085L266.082 608.235Z" fill="#4E5650" fill-opacity="0.678431"/>
<path d="M520.56 616.37C521.46 618.495 521.645 619.88 522.075 622.105L521.435 623.245C520.395 620.275 520.25 619.535 519.795 616.455L520.56 616.37Z" fill="#373737" fill-opacity="0.94902"/>
<path d="M580.755 559.515C580.855 557.92 580.695 556.225 581.645 555.09L582.08 555.415C582.36 557.51 582.385 557.44 581.98 559.5L580.755 559.515Z" fill="#373737" fill-opacity="0.980392"/>
<path d="M608.76 153.333C611.885 152.943 612.55 152.936 615.68 153.273L615.94 153.694C614.37 154.078 613.92 154.116 612.365 154.262L612.005 153.563L608.76 153.333Z" fill="#373737" fill-opacity="0.752941"/>
<path d="M234.401 316.203L235.242 317.241C231.775 325.531 227.562 339.406 224.802 348.108C214.944 379.196 207.104 411.487 198.87 443.097C186.42 490.799 174.287 538.585 162.47 586.445C149.191 639.2 135.558 692.15 118.555 743.845C115.322 753.675 111.499 764.935 108.131 774.65C106.568 779.16 100.177 801.445 98.3458 804.54C98.0658 803.525 103.302 786.835 104.219 784.07C137.672 683.16 162.138 580.065 188.14 476.992C193.679 454.704 199.481 432.481 205.547 410.33C213.929 378.695 222.709 346.812 234.401 316.203Z" fill="#373737"/>
<path d="M859.625 513.85C861.285 520.65 861.485 535.09 861.66 542.34C862.465 574.86 859.565 608.035 856.675 640.425C854 668.32 851.72 696.255 849.84 724.215C848.745 741.145 847.69 758.93 847.67 775.865C847.655 789.48 848.685 803.735 849.225 817.365L854.375 925.27C855.24 943.61 856.395 963.725 856.56 982.045L856.135 981.97C854.045 976.11 852.8 931 852.33 921.88C850.6 888.89 849.08 855.885 847.775 822.875C846.91 800.12 846.06 778.505 846.575 755.75C848.265 681.055 862.155 607.015 860.34 532.275C860.205 526.64 859.23 519.15 859.625 513.85Z" fill="#373737"/>
<path d="M528.58 445.985C530.57 446.026 531.16 445.866 532.8 447.009C533.845 448.91 534.27 450.1 536.22 450.86C546.39 445.726 544.82 459.36 541.425 464.563C537.905 469.95 535.645 473.159 529.285 475.1C529.61 479.046 529.615 482.727 529.65 486.68C528.045 483.065 527.635 479.25 527.395 475.328C518.85 473.991 515.845 472.917 510.365 465.906C508.565 462.961 505.29 456.19 509.485 454.128C511.735 454.434 511.67 454.379 513.67 455.393L513.695 455.907C512.4 455.786 511.265 455.637 509.985 455.459L509.42 455.988C509.84 465.471 515.795 470.444 524.245 473.396C517.97 468.061 513.905 461.395 514.695 452.537C514.905 450.146 516.54 448.535 518.39 447.176C519.84 446.765 520.815 447.132 522.175 447.783C524.145 448.729 526.725 446.869 528.58 445.985ZM524.075 471.006C525.47 471.952 526.075 472.589 527.745 472.599C535.115 469.783 538.11 447.673 528.49 447.907L527.93 448.246C527.48 448.514 525.165 449.881 524.845 449.779C511.945 445.622 516.74 460.383 520.095 466.433C520.99 468.043 522.375 469.424 524.075 471.006ZM534.17 470.697C537.91 466.944 545.075 456.475 540.235 451.646C539.46 451.533 538.59 451.384 537.82 451.307C535.14 454.667 536.89 463.535 532.61 471.082L533.07 471.405L534.17 470.697Z" fill="#373737"/>
<path d="M184.274 645.985L184.695 646.48C179.89 675.53 174.813 704.54 169.466 733.495C155.992 808.59 137.781 896.405 110.964 968.065L110.498 967.78C117.185 945.02 124.224 922.71 130.531 899.82C140.962 862.005 149.998 823.815 157.619 785.33C163.276 756.71 168.771 728.06 174.104 699.38C176.689 684.99 180.477 659.505 184.274 645.985Z" fill="#373737"/>
<path d="M445.444 241.601C446.775 241.492 447.736 241.251 448.912 241.824C447.727 242.766 439.428 244.053 436.431 245.694C394.504 268.647 356.298 291.209 308.862 263.348C310.707 265.136 312.582 266.894 314.484 268.621C332.851 284.962 357.47 293.31 381.937 290.617C385.089 290.27 388.081 289.505 391.254 289.319L390.9 290.007C381.165 293.162 369.254 293.593 359.18 292.136C342.815 289.735 327.486 282.676 315.023 271.801C312.697 269.782 306.285 264.67 306.99 261.43C308.484 261.027 312.06 263.934 314.056 264.881C317.898 266.703 321.365 268.131 325.412 269.436C338.241 273.439 351.791 274.58 365.109 272.779C379.992 270.9 395.374 264.837 408.727 257.96C422.388 250.926 430.262 244.94 445.444 241.601Z" fill="#373737"/>
<path d="M575.155 451.652C575.865 444.877 579.53 433.283 575.18 426.83C572.955 425.531 571.155 425.77 570.165 428.313C570.525 431.583 573.95 434.687 576.035 437.593L575.54 437.887C568.595 435.553 565.785 427.018 572.285 424.165C579.63 424.468 578.935 436.147 579.045 441.514C581.32 438.022 582.93 432.205 586.44 430.658C588.465 429.922 590.01 431.338 591.515 432.524C602.17 440.913 586.465 441.16 581.99 440.996C577.09 444.609 575.45 458.289 572.965 465.266C574.07 464.121 575.305 462.995 576.375 461.86C580.655 457.32 586.595 463.778 591.06 459.779C591.59 458.263 591.675 458.349 591.275 456.822C589.885 455.459 587.91 455.293 585.95 454.858C586.555 452.313 587.655 449.848 585.905 447.643C581.15 448.355 580.145 456.473 576.7 458.84C576.425 454.317 581.77 444.587 587.2 445.547C590.33 448.493 587.74 450.109 588.96 453.148C590.405 454.01 592.74 454.925 593.545 456.504C596.115 461.557 586.445 465.327 583.035 462.555C577.87 458.353 574.15 468.711 570.52 469.134C569.335 463.295 574.265 448.617 569.245 442.469L568.34 442.393C567.04 443.868 566.71 445.842 566.16 447.773C564.42 448.458 563.17 446.385 560.82 447.124C559.17 450.217 562.54 449.604 563.325 452.489C561.45 454.169 560.445 452.585 558.515 454.591C559.375 458.176 567.705 457.515 570.28 461.978C570.185 463.527 570.435 462.832 569.425 464.102C567.78 463.161 567.815 461.175 566.84 460.838C563.165 459.563 556.78 459.845 556.41 454.392C557.19 452.758 557.285 453.089 559.045 451.899C559.595 450.029 558.665 449.472 558.49 446.695C560.685 443.406 562.125 445.36 564.95 444.709C565.895 441.771 565.68 441.38 568.735 440.46C573.215 441.523 573.445 448.254 573.525 452.103C573.035 455.104 572.91 456.303 572.795 459.335C573.535 456.969 574.55 453.998 575.155 451.652ZM582.385 439.638L588.99 439.518C590.505 438.651 591.46 438.299 592.4 436.832L592.175 435.852C590.745 435.175 589.455 434.535 587.965 433.988C587.53 432.936 587.57 432.538 586.735 431.792C584.685 434.117 583.695 436.799 582.385 439.638Z" fill="#373737"/>
<path d="M126.727 662.845C127.427 665.875 100.14 746.815 96.7425 756.345C84.688 790.27 71.0265 823.6 55.805 856.22C47.724 873.665 39.492 891.77 29.6003 908.19C29.2092 906.11 49.6355 864.92 52.363 859.21C68.955 824.46 83.581 788.18 96.522 751.91C107.057 722.38 116.552 692.5 126.727 662.845Z" fill="#373737"/>
<path d="M580.755 468.881C583.205 469.124 583.39 469.232 585.02 470.783C585.835 472.38 585.555 473.167 585.34 474.915C585.01 477.602 588.205 477.482 589.775 480.686C590.39 485.889 587.04 486.118 584.21 487.243C584.155 487.266 583.765 490.548 582.45 492.289C579.085 493.963 575.865 490.451 568.74 490.228C567.595 491.722 566.375 496.294 565.735 498.356C564.725 501.615 563.875 503.99 562.61 507.16L562.775 504.78C563.18 498.953 567.53 487.837 569.6 481.461C568.52 480.117 567.7 478.557 566.835 477.057C567.26 473.883 566.985 472.699 569.205 470.786C574.585 469.358 574.84 473.655 580.755 468.881ZM571.525 481.026C570.74 483.359 568.94 487.285 570.795 489.389C573.32 488.693 573.77 487.276 574.555 484.844C575.66 488.19 576.295 490.74 580.35 490.972C584.1 488.543 578.6 486.439 586.595 484.178C589.705 480.629 585.56 479.021 582.855 477.916C582.315 474.913 585.695 472.548 581.47 470.819C579.895 471.952 578.79 472.779 577.1 473.71C574.74 473.224 569.19 471.328 568.285 474.041C568.735 477.221 569.5 478.525 571.525 481.026Z" fill="#373737"/>
<path d="M557.85 464.378C560.365 464.33 560.935 464.047 562.485 465.826C566.675 470.65 566.265 470.855 564.63 476.308C564.115 478.012 569.88 484.999 564.84 487.721C562.49 488.99 561 488.503 558.59 488.315C558.39 489.87 558.6 489.395 557.915 490.712C556.97 489.598 556.955 488.5 556.69 487.031L556.77 486.521L556.315 486.049L555.795 486.243C550.985 487.988 542.645 487.807 546.97 479.716C549.715 474.573 545.32 476.118 546.435 471.171C547.28 467.413 551.855 470.141 555.025 468.295C555.985 466.186 556.15 465.951 557.85 464.378ZM552.92 484.945C554.37 484.367 555.835 483.502 557.225 483.884L557.855 484.655C559.36 486.483 559.365 486.715 561.4 487.104C563.425 486.507 563.375 486.602 564.875 485.176C566.4 480.518 562.45 479.492 562.95 474.717C563.38 470.67 563.3 467.61 558.97 466.226C555.185 469.617 557.885 470.08 555.215 471.912C553.215 471.537 551.97 470.311 550.135 470.712C548.705 471.941 549.12 471.223 548.54 472.763C549.185 475.068 549.635 475.305 551.34 477.13C550.99 480.265 547.135 479.142 547.93 483.799C549.31 485.315 550.89 486.411 552.92 484.945Z" fill="#373737"/>
<path d="M119.826 772.96L120.14 773.35C119.992 776.855 113.671 792.425 112.022 796.685C94.8856 841.345 75.5555 885.135 54.1031 927.89L53.6646 927.315C55.4421 922.24 58.8091 916.14 61.0721 911.1L78.6981 872.17C93.6336 838.495 106.246 807.075 119.826 772.96Z" fill="#373737" fill-opacity="0.988235"/>
<path d="M531.77 493.08C536.38 492.734 539.835 495.286 543.37 497.809C539.96 505.84 536.685 505.87 529.08 504.115C528.835 503.9 523.04 500.14 522.78 500.055C522.82 501.26 522.875 502.47 522.945 503.675L522.29 503.99L521.475 503.295C520.08 496.15 526.015 494.038 531.77 493.08ZM534.695 500.115C532.53 499.887 532.055 499.829 529.995 500.47L529.41 501.235C531.175 503.67 537.9 504.78 539.96 500.635C539.995 495.993 535.57 494.88 531.745 495.126C528.915 495.592 524.89 496.287 523.55 499.196C526.425 502.28 528.62 499.693 530.19 497.251C532.16 497.601 537.315 499.008 538.67 500.44C537.84 501.02 535.625 500.355 534.695 500.115Z" fill="#373737"/>
<path d="M460.25 528.2C467.822 528.915 467.157 535.055 464.904 540.44C468.742 542.565 469.582 543.29 472.526 546.31C466.933 543.96 456.481 534.495 452.41 536.12L451.996 537.425C452.419 539.335 453.734 540.39 455.091 541.825L450.742 545.9C451.561 551.635 461.335 545.885 464.897 544.715C461.372 547.455 455.196 552.555 450.439 550.395C446.697 546.595 451.052 543.835 451.258 540.66C446.348 530.885 456.259 534.7 458.044 533.925C458.663 531.25 458.683 530.445 460.25 528.2ZM463.943 539.76C465.534 535.305 465.784 532.3 460.864 530.14C459.088 535.015 460.29 536.425 463.943 539.76Z" fill="#373737" fill-opacity="0.984314"/>
<path d="M583.905 412.841C594.465 412.975 588.095 424.819 584.285 429.174C582.38 430.1 582.08 429.989 580.645 428.717C578.705 423.992 579.775 416.256 583.905 412.841ZM583.385 427.153C586.445 423.522 590.36 418.043 585.195 414.294C582.57 417.094 580.13 423.902 582.175 427.323C583.22 427.258 582.84 427.391 583.385 427.153Z" fill="#373737"/>
<path d="M616.45 804.95C618.36 804.925 633.76 810.105 637.06 811.125C644.935 813.555 668.65 817.2 674.525 820.4C663.215 820.275 625.66 811.735 616.45 804.95Z" fill="#373737"/>
<path d="M373.338 229.177L374.216 229.239C373.406 230.057 358.054 233.696 355.869 234.248C339.706 238.329 325.48 244.912 310.648 252.35C310.154 252.514 310.466 252.46 309.698 252.32C311.375 250.782 315.401 248.569 317.501 247.333C334.096 237.57 354.332 231.962 373.338 229.177Z" fill="#373737" fill-opacity="0.980392"/>
<path d="M615.56 810.515C617.785 810.74 636.86 816.75 640.91 817.94C648.12 820.055 665.66 823.215 670.945 825.35C664.2 826.12 634.085 818.695 626.82 815.855C622.74 814.26 619.35 812.825 615.56 810.515Z" fill="#373737" fill-opacity="0.988235"/>
<path d="M608.54 706.275C609.495 708.415 609.24 718.05 609.815 721.395C611.215 729.585 613.88 736.145 617.06 743.74C618.375 746.875 623.265 753.555 622.815 756.11C612.66 743.665 604.91 722.38 608.54 706.275Z" fill="#373737" fill-opacity="0.988235"/>
<path d="M470.662 270.743C473.887 272.476 476.561 277.364 477.494 280.732C481.424 294.924 479.633 307.571 472.91 320.286C472.54 320.627 472.775 320.504 472.165 320.561C479.394 301.657 479.923 288.937 470.662 270.743Z" fill="#373737"/>
<path d="M599.655 543.095C601.98 543.07 608 543.095 606.83 546.445C604.245 553.83 595.905 556.395 589.57 555.57C592.28 554.835 594.89 553.98 597.56 553.125C599.71 551.845 604.425 548.655 604.77 546.09L604.04 545.395C598.755 544.485 594.365 547.835 590.295 550.57C593.59 546.265 594.515 544.71 599.655 543.095Z" fill="#373737"/>
<path d="M463.873 563.555C465.566 563.46 465.028 563.275 466.462 563.85C466.242 564.055 459.151 567.685 457.197 568.995C462.695 572.46 464.989 572.825 471.152 573.275L471.11 573.47C469.028 575.395 454.151 573.555 455.902 567.41C457.955 565.285 461.05 564.24 463.873 563.555Z" fill="#373737" fill-opacity="0.988235"/>
<path d="M406.965 389.964C409.7 390.178 417.748 396.135 421.106 396.897C422.391 397.188 427.514 399.079 428.224 400.083C422.411 400.113 409.204 395.772 406.965 389.964Z" fill="#373737"/>
<path d="M419.169 299.533L419.848 299.151L420.702 300.429C415.269 305.895 402.879 315.879 395.553 317.499L395.157 317.125C406.349 311.384 410.118 308.222 419.169 299.533Z" fill="#373737" fill-opacity="0.956863"/>
<path d="M295.809 304.136C291.125 296.637 290.075 282.019 293.339 273.834L293.931 273.843C291.697 281.95 292.697 295.904 296.821 303.334L295.809 304.136Z" fill="#373737" fill-opacity="0.976471"/>
<path d="M234.401 316.203C235.536 313.073 236.802 309.001 238.594 306.318C238.483 308.276 236.026 314.876 235.242 317.241L234.401 316.203Z" fill="#373737" fill-opacity="0.890196"/>
<path d="M573.525 452.103L575.155 451.651C574.55 453.997 573.535 456.969 572.795 459.335C572.91 456.303 573.035 455.103 573.525 452.103Z" fill="#373737" fill-opacity="0.0196078"/>
</g>
<defs>
<clipPath id="clip0_16_5080">
<rect width="1024" height="1024" fill="white"/>
</clipPath>
</defs>
</svg>
