<svg width="1024" height="1024" viewBox="0 0 1024 1024" fill="none" xmlns="http://www.w3.org/2000/svg">
<g clip-path="url(#clip0_16_5128)">
<path d="M779.13 287.629C784.36 244.358 810.49 180.725 780.83 143.303C776.245 137.477 770.43 132.74 763.8 129.431C759.405 127.247 749.625 126.537 748.12 124.196C749.35 123.197 750.735 123.4 752.3 123.618C788.075 128.607 800.13 167.267 797.42 199.254C795.155 225.988 787.985 256.172 782.425 282.735C781.95 285.01 780.88 286.455 779.585 288.399C779.7 292.797 782.435 302.248 783.67 306.904C795.025 308.761 793.58 312.508 798.04 321.79C812.68 327.055 819.85 343.343 830.73 354.006C830.91 354.184 831.645 356.33 831.745 356.647C838.21 361.455 848.995 367.168 856.28 371.263L896.575 393.69C909.005 400.517 933.97 412.906 941.945 425.098C953.01 442.018 957.84 466.618 960.855 486.541C968.125 553.3 974.795 621.025 974.675 688.2C974.64 708.81 976.03 744.12 963.4 760.95C960.755 764.51 957.45 767.52 953.66 769.82C943.87 775.755 915.315 783.61 903.145 786.335C904.215 801.61 905.655 816.855 907.455 832.06L922.73 954.99C923.29 959.8 926.395 981.415 925.74 984.155C922.225 980.805 920.13 956.09 919.4 950.25L911.49 884.17L904.655 830.875C902.865 816.975 900.695 802.045 900.4 788.08C900.395 787.69 900.39 787.305 900.39 786.92C868.665 793.64 836.8 799.7 804.825 805.1C792.925 807.19 770.03 812.04 758.6 812.105L758.695 812.09C751.385 805.6 749.025 800.475 746.43 791.02C741.74 791.1 738.555 791.615 734.855 787.955C731.375 784.51 729.745 775.23 729.12 770.375C716.16 772.265 679.67 777.75 667.55 776.465C669.435 837.07 676.61 901.59 690.88 960.615C692.485 967.24 698.15 979.49 698.71 985.165L697.98 985.52C691.865 981.475 683.485 942.595 681.745 934.25C675.905 906.235 672.66 877.57 669.56 849.165C665.835 874.47 653.98 970.3 637.735 984.11L637.13 984.065C637.42 980.985 642.285 971.945 643.785 967.485C647.13 957.475 649.885 947.28 652.045 936.95C658.21 908.3 662.32 879.46 666.735 850.525C668.885 836.425 667.79 827.365 666.87 813.27C665.99 800.835 665.38 788.385 665.035 775.925C655.12 771.87 647.29 766.7 638.03 761.49C633.23 758.79 627.6 756.79 622.7 753.975C622.51 767.395 620.055 791.455 617.235 804.895C619.285 806.565 620.41 807.245 621.745 809.54L621.665 810.295C619.915 810.08 618.295 808.165 616.83 806.865C615.715 813.72 610.385 839.22 611.895 844.13L612.76 845.015C613.765 844.845 614.535 844.775 615.225 843.685C618.05 839.245 619.315 816.02 622.245 813.345C624.005 816.355 619.475 838.81 618.46 843.205C617.775 846.19 616.73 846.555 614.26 848.18C613.275 852.72 612.545 861.565 612.01 866.405L608.06 903.74C605.96 921.375 604.02 939.025 602.25 956.695C601.665 962.85 600.505 972.26 600.44 978.27C602.06 979.785 606.205 982.89 606.815 984.15C603.48 986.17 599.235 980.93 597.52 978.65C597.485 965.7 600.995 940.955 602.575 927.245L611.2 848.045C610.63 847.235 608.595 844.48 608.66 843.53C609.965 824.315 614.49 805.145 617.12 786.045C617.565 782.805 617.95 779.15 618.65 776C610.205 782.33 598.095 789.79 587.455 791.53C583.95 792.105 580.26 791.765 576.635 792.07C568.445 785.165 560.755 769.325 556.47 759.66C543.15 758.205 544.37 756.12 538.58 745.315C527.325 740.68 525.365 734.61 528.98 723.125C526.365 722.84 526.57 723.27 524.78 721.92C522.29 716.87 522.76 713.25 529.165 712.85C529.045 711.61 528.765 711.335 528.28 710.205C524.455 701.31 532.625 697.075 538.505 694.105L538.525 671.1C536.03 671.105 532.86 671.345 530.59 670.58L530.07 670.015C530.985 666.4 543.76 656.44 547.29 653.73C547.155 644.72 547.095 635.705 547.11 626.695C544.96 626.185 540.845 625.305 539.28 623.9C540.28 618.475 572.215 586.83 577.74 579.965C578.265 579.31 580.285 579.13 581.245 578.14C582.245 568.96 582.335 559.63 582.975 550.41C584.67 525.855 586.365 501.285 589.665 476.881C591.15 465.876 592.455 454.337 596.235 443.842C598.32 438.04 601.61 432.184 606.49 428.285C610.835 424.815 616.405 422.507 621.2 419.659C631.59 413.484 685.95 381.971 687.505 372.417C687.605 371.803 687.52 371.259 687.465 370.655C685.16 369.529 671.325 372.945 665.41 368.332C656.75 361.577 654.17 353.047 648.55 343.878C642.75 334.418 636.18 325.032 631.095 315.18C628.84 310.738 626.89 306.147 625.265 301.44C622.055 292.129 620.88 282.634 618.28 273.303C617.055 268.904 610.42 263.669 609.9 258.488C608.655 253.971 607.85 233.666 606.625 231.951L606.71 230.204C607.745 224.81 606.025 215.209 607.97 210.714L608.7 210.734C610.385 214.049 609.22 220.721 609.66 224.625C611.19 238.129 609.07 255.108 617.365 266.562C622.99 274.331 623.145 284.534 625.755 293.454C628.025 301.906 630.795 308.892 635.035 316.563C634.945 308.005 636.12 299.827 637.03 291.414C637.56 286.542 636.15 283.783 637.715 277.79L637.985 277.727C640.58 289.085 637.215 302.562 637.575 314.061C637.71 318.439 649.43 318.818 653.135 320.226C644.835 320.767 641.395 321.777 634.76 316.219C641.24 328.284 649.935 339.591 656.225 351.778C659.54 358.194 663.62 365.852 671.005 367.363C680.855 369.841 691.585 366.439 700.13 361.329C716.335 350.416 737.355 331.048 747.175 314.317C749.35 310.604 751 301.003 753.18 296.268C752.77 300.914 752.28 307.905 750.47 312.322C743.795 328.589 726.655 343.272 713.745 354.968C709.385 358.92 701.075 364.437 696.055 366.972C700.185 376.914 703.74 381.17 712.885 387.232C720.1 382.094 728.625 375.194 735.615 369.641C753.09 355.765 775.595 338.791 785.5 318.486C779.775 310.18 779.585 298.413 776.43 289.277C774.4 283.393 772.45 280.265 770.73 273.729C766.585 277.881 761.3 282.229 755.28 278.136L754.9 277.418C757.165 275.838 761.815 276.883 763.135 276.157C777.285 268.395 783.75 238.453 775.12 225.092C769.52 216.424 757.9 221.446 754.695 229.384C753.53 231.807 751.54 235.894 750.12 237.817C750.9 230.842 752.555 224.95 758.185 220.442C764.565 215.334 772.885 217.448 777.36 223.728C782.66 231.157 782.4 242.624 780.82 251.078C779.375 258.506 776.575 265.604 772.56 272.02C774.45 278.726 775.205 281.901 779.13 287.629ZM847.715 542.78C846.45 561.01 850.13 579.98 853.43 597.875L859.89 634.485C860.93 640.41 862.16 646.3 863.145 652.255C864.46 660.18 863.22 668.76 864.365 676.535C864.895 680.115 867.84 685.07 869.72 688.195C895.935 682.575 914.985 706.95 935.1 719.66L935.06 720.205C929.27 718.655 923.78 713.505 918.9 710.105C906.225 701.275 887.16 685.505 870.675 690.84C858.19 694.88 845.955 700.395 833.54 704.47C829.555 705.78 822.455 704.75 818.145 705.585C795.935 709.335 771.91 713.115 749.45 714.125C762.645 732.345 762.56 785.445 759.105 807.155C758.98 807.935 758.85 808.715 758.71 809.495C765.325 809.21 774.91 807.32 781.665 806.155C795.15 803.86 808.61 801.42 822.045 798.84C847.565 794.085 942.335 779.6 958.195 762.485C963.6 756.65 966.685 748.845 968.45 741.195C973.42 719.655 972.25 690.805 971.705 668.395C971.44 652.385 970.85 636.38 969.945 620.39C968.395 598.07 966.6 575.765 964.55 553.485C961.735 520.505 958.52 441.815 933.76 419.942C923.2 410.615 905.825 401.994 893.21 395.087C872.465 383.727 851.06 372.494 831.11 359.799C830.05 375.084 828.56 389.527 827.81 404.923C821.085 408.437 810.01 411.939 802.04 415.596C806.31 418.567 816.73 427.088 820.045 430.891C814.555 442.426 805.84 454.734 799.185 465.811C784.49 490.256 766.72 516.19 753.26 541.255L794.7 535.63C804.815 534.195 813.51 532.12 823.745 532.29C811.445 537.485 766.84 542.23 751.565 544.065C738.78 567.175 726.64 590.635 715.16 614.42C717.02 617.77 721.87 623.61 718.33 626.41C717.03 626.625 715.83 626.83 714.52 626.985C714.55 651.765 715.27 680.735 714.43 705.135C717.15 706.395 718.28 707.075 720.685 708.515C723.79 710.37 731.635 717.725 734.45 717.76C739.69 712.55 744.03 716.065 746.105 714.32C751.845 709.5 756.45 710.47 763.685 709.79C772.535 709.005 781.38 708.145 790.22 707.205C799.41 706.135 808.48 704.005 817.605 702.485C820.98 701.925 828.94 702.79 831.545 701.875C843.295 697.745 855.68 693.32 867.4 689.12C859.95 678.37 860.99 675.915 860.815 663.2C860.735 658.205 860.29 653.225 859.49 648.29C852.205 600.51 839.45 562.11 849.475 512.495C855.845 480.952 868.775 443.899 896.145 424.229C902.96 419.331 910.6 416.191 918.95 416.122L919.48 416.429C914.98 418.241 910.905 418.472 906.34 420.598C886.03 430.055 872.795 451.116 864.27 471.085C854.76 493.882 849.165 518.12 847.715 542.78ZM673.54 390.488C674.99 394.822 676.045 401.651 677.045 406.355C679.1 416.022 681.57 419.234 685.365 427.056C683.8 425.407 682.85 424.248 681.46 422.447C674.845 458.672 667.9 490.638 667.055 527.885C666.685 544.45 667.835 558.285 668.12 574.43C671.73 574.605 673.925 574.78 677.48 575.34L677.455 590.63C683.31 590.51 689.17 590.465 695.025 590.485C700.92 566.885 711.5 537.485 720.285 514.895C734.97 477.866 750.655 441.241 767.315 405.057C761.8 411.646 752.22 423.694 746.15 428.986L740.965 429.466C734.315 426.364 727.445 422.56 721.515 418.221C719.795 416.607 719.555 416.423 717.24 416.021L716.475 415.106L716.83 414.492C720.465 414.547 730.12 421.316 733.855 423.435C737.105 425.247 740.445 426.896 743.865 428.375C749.13 423.397 753.47 417.649 758.175 412.158C762.595 406.998 767.545 402.103 771.345 396.453C775.625 390.089 800.195 338.737 800.03 333.655C799.935 330.835 791.785 313.225 789.305 311.128C788.38 310.348 787.15 310.051 786.01 309.734L785.02 309.968C785.205 312.601 787.28 314.745 787.75 317.351C788.775 323.037 778.89 334.216 775.34 338.289C770.77 343.534 765.755 348.305 760.575 352.939C754.76 358.146 718.405 388.585 713.025 388.9C709.545 389.104 706.605 386.835 704.245 384.549C698.12 378.625 697.69 374.431 693.585 369.376C692.91 368.548 692.675 368.464 691.685 368.282C688.26 371.554 690.455 387.837 688.29 389.119C686.885 385.483 687.07 382.673 687.015 378.818C682.495 383.102 677.505 386.682 673.54 390.488ZM698.06 590.405C700.365 590.57 702.085 590.44 703.47 592.305C707.84 598.195 710.13 605.24 713.925 611.71C716.525 604.28 720.82 596.25 724.4 589.17C728.19 581.675 732.01 573.715 736.05 566.415C752.26 534.79 771.415 504.925 790.035 474.744C797.805 462.154 810.07 444.222 816.735 431.687C812.105 426.302 805.52 422.537 801.69 418.822C796.91 414.187 782.165 397.657 778.96 392.386C787.355 399.744 791.95 407.19 799.025 413.774C806.43 410.445 817.16 405.717 824.955 403.507C825.95 387.662 827.225 371.836 828.78 356.036C825.3 351.451 821.065 347.151 817.235 342.802C811.81 336.644 807.405 328.345 799.695 324.979C801.695 330.236 804.22 332.086 802.105 338.083C798.8 347.451 794.375 356.222 790.07 365.154C782.82 379.951 775.67 394.798 768.62 409.693C744.025 462.775 713.045 534.11 698.06 590.405ZM583.85 578.475C590.9 578.705 602.015 578.75 608.72 579.465C603.15 546.23 595.125 471.76 606.72 440.825L607.05 440.774C606.405 448.089 604.35 455.974 603.795 462.96C602.32 481.616 602.755 501.97 604.28 520.615C605.27 532.25 606.5 543.865 607.97 555.45C608.795 561.865 610.575 573.125 610.64 579.215C619.435 579.315 628.225 579.46 637.015 579.65C640.405 581.955 641.74 584.015 644.705 586.345C638.43 558.85 633.7 523.68 634.625 495.301C629.95 497.07 621.35 498.598 618.005 493.77C617.245 488.604 622.85 485.893 626.745 483.624C620.625 480.202 621.095 480.837 619.06 474.137C617.5 469.024 611.78 464.527 619.745 459.382C625.895 455.721 622 447.535 638.19 447.445C630.725 440.367 631.295 433.819 633.06 424.276C638.2 427.113 639.135 428.498 643.27 432.679L643.92 431.995L645.415 430.438C647.085 428.723 657.865 421.976 660.6 419.956C659.24 418.377 654.935 413.87 655.23 412.16C656.04 407.464 668.53 394.743 671.995 392.092C667.745 401.461 662.835 404.85 657.685 412.168C659.68 414.52 661.82 416.959 663.755 419.341C665.22 418.234 670.81 413.709 672.04 413.68C668.54 418.611 652.375 428.755 646.83 432.8C645.2 438.048 645.41 440.386 645.645 445.839C646.72 446.59 647.62 447.158 648.585 448.044C649.69 443.564 653.095 434.315 658.895 435.387C666.56 440.429 659.6 454.653 655.945 460.379C671.3 450.323 668.005 462.359 663.76 472.187C660.85 478.916 659.765 484.485 651.17 485.685C652.545 491.208 655.565 517.135 650.48 520.165C647.625 519.8 646.43 516.38 646.03 513.83C644.72 505.52 644.04 497.28 642.185 489.042L636.75 493.966C637.715 528.625 641.47 556.255 647.43 590.515L657.405 590.535C657.415 585.845 657.24 579.19 657.49 574.66C660.415 574.5 663.28 574.315 666.21 574.32C665.25 569.48 664.9 562.775 664.605 557.755C662.44 521.145 666.675 483.711 673.69 447.781C675.34 439.328 677.1 429.126 679.37 420.89C675.85 413.859 671.635 400.484 673.415 392.737C672.905 392.018 672.79 391.512 671.79 391.393C661.505 398.119 651.255 404.95 640.8 411.409C634.35 415.39 608.76 429.315 605.625 432.932C599.955 439.483 597.53 448.714 595.79 456.989C590.785 480.809 588.305 511.875 586.815 536.495C585.97 550.465 585.65 564.595 583.85 578.475ZM682.395 727.695C668.82 732.625 658.74 734.5 643.995 733.585C632.035 732.845 623.455 726.995 612.165 724.13C608.935 723.31 602.465 722.83 600.695 726.53C601.415 730.915 627.755 744.89 633.125 747.135C639.94 749.985 667.94 752.6 672.49 757.66C668.415 759.05 661.53 755.665 657.19 754.85C642.58 752.1 635.085 752.045 621.945 744.44C616.81 741.515 600.045 732.78 597.71 728.58C597.89 727.44 598.015 726.655 597.875 725.51C595.405 724.39 593.36 724.395 591.925 726.86C592.205 731.555 604.39 737.32 608.295 740.325C621.19 750.255 632.955 757.34 649.1 760.65C651.895 761.235 662.845 764.725 664.625 766.57C662.015 768.02 648.865 763.08 645.12 762.195C648.96 764.695 662.435 772.56 666.385 773.065C690.37 776.135 717.12 765.61 741.03 768.335C742.48 754.14 742.59 735.565 737.925 721.935C722.185 718.5 720.1 703.905 697.45 705.7C692.455 706.345 688.21 707.485 682.525 708.015C672 708.915 657.205 703.725 648.225 710.56C647.535 711.085 647.265 713.085 647.545 713.905C651.615 725.875 669.725 723.315 679.45 724.425C683.225 724.855 694.45 727.695 696.255 730.29L695.885 730.385L695.805 729.825L695.205 730.4C690.195 729.945 687.235 728.84 682.395 727.695ZM549.58 623.285C549.635 632.7 550.02 644.345 549.555 653.585C561.165 653.63 572.775 653.875 584.375 654.325C594.175 654.5 604.245 654.875 613.985 654.98C613.985 645.9 614.19 635.685 613.87 626.69C610.405 622.715 581.485 591.455 579.125 590.86C569.115 601.55 559.515 612.61 549.58 623.285ZM685.505 704.79C689.11 703.985 692.445 703.17 696.125 702.785C702.31 702.055 706.08 702.655 712.035 704.39V624.215C709.915 620.645 701.405 602.485 700.055 601.25C696.66 608.455 692.62 617.085 689.11 624.39C688.775 625.085 686.615 626.105 685.845 626.44C685.36 632.75 685.785 642.405 685.765 649.05C685.85 667.63 685.76 686.21 685.505 704.79ZM549.585 713.455L604.035 714.61C604.04 700.68 603.8 685.915 604.125 672.05C586.06 671.96 567.995 671.735 549.935 671.37L549.585 713.455ZM583.75 669.125C611.475 669.67 640.675 669.9 668.28 671.255C672.68 664.62 677.705 657.205 682.635 650.965C666.415 650.395 650.185 649.97 633.955 649.69L633.37 649.855C628.8 651.215 618.89 656.28 616.23 656.595C608.555 657.495 595.715 657.08 587.595 656.77C574.885 656.29 561.105 656.435 548.605 655.655C543.65 660.045 538.615 664.35 533.515 668.565C550.205 668.235 567.035 669.05 583.75 669.125ZM547.37 671.23L540.845 671.05C540.845 685.495 540.855 698.815 540.58 713.265L547.455 713.44C546.875 700.17 547.15 684.625 547.37 671.23ZM639.97 681.44C639.975 692.275 639.925 703.115 639.82 713.95C640.985 714.695 643.53 714.685 644.79 714.195L644.825 713.455C645.03 709.84 645.085 709.58 647.72 706.92C650.3 705.3 652.585 704.83 655.49 704.045C655.365 696.6 655.325 689.155 655.37 681.71C650.235 681.695 645.105 681.605 639.97 681.44ZM638.545 453.675C636.525 454.544 634.555 455.318 632.655 456.422L627.73 460.44C630.42 460.053 633.28 459.51 635.97 459.607L636.155 460.059C633.78 461.473 627.81 463.161 626.105 460.405C627 457.221 636.085 451.722 639.035 452.166C642.04 452.619 643.88 459.949 648.84 453.982C649.11 450.522 645.725 447.66 642.17 448.017L641.51 448.248C636.305 450.025 627.645 449.532 625.695 454.868C622.22 464.368 625.285 465.667 632.965 467.281C636.625 461.577 637.535 461.185 643.2 457.386C641.595 455.974 640.38 454.799 638.545 453.675ZM538.42 713.285C538.45 710.73 538.675 698.63 538.255 696.96C531.395 701.39 527.71 703.685 532.085 712.135C534.52 713.215 535.78 713.115 538.42 713.285ZM580.06 767.66C587.855 769.825 593.855 769.045 601.08 765.395C602.535 761.6 607.38 749 606.095 745.3C602.475 753.225 598.595 761.225 589.91 764.73C587.755 765.6 579.175 766.26 578.905 766.725L580.06 767.66ZM758.235 787.945C758.15 769.205 758.005 733.935 748.67 717.53L743.39 717.725C741.655 717.745 740.015 717.495 738.685 718.44C738.815 720.525 741.015 721.93 741.44 723.485C746.505 741.79 746.335 771.2 739.33 788.095C742.36 788.125 745.625 788.225 748.625 788.11L758.235 787.945ZM602.395 611.485C606.995 616.295 611.08 620.605 615.385 625.68C616.475 633.275 615.93 646.66 616.025 654.6C620.885 652.54 627.315 649.435 631.98 647.675C631.945 640.415 631.78 632.745 631.93 625.51C628.275 625.5 624.085 625.585 620.48 625.4C618.105 622.07 613.33 617.425 610.295 614.27L594.225 597.44C591.745 594.835 581.155 583.225 579.36 581.83C572.08 589.695 564.865 597.62 557.715 605.61C553.235 610.54 546.835 617.165 542.74 622.255L542.83 623.4C544.38 624.345 543.54 624.11 545.47 623.975C548.125 622.095 551.76 617.085 554.235 614.595C561.805 606.985 571.425 594.51 579.315 587.685C584.36 591.96 597.525 605.935 602.395 611.485ZM644.09 488.31C645.315 493.647 646.165 497.703 646.885 503.19C647.38 507 647.84 512.735 648.76 516.255L650.505 517.305C652.445 515.03 650.345 490.544 649.49 486.258L648.765 486.082L644.09 488.31ZM691.775 612.63C694.85 606.225 697.975 599.84 701.14 593.48C695.34 592.795 681.045 593.175 674.63 593.15L622.115 592.935C626.685 602.04 632.795 613.635 636.48 622.92L686.505 623.475C688.22 619.96 690.175 616.16 691.775 612.63ZM671.875 728.3L673.56 727.78L673.35 727.3C669.935 726.495 665.8 726.56 662.255 726.275C650.205 725.315 638.1 726.05 626.015 725.2C627.28 727.125 634.1 729.14 636.46 729.585C647.81 731.715 660.72 731.08 671.875 728.3ZM669.285 590.575C669.18 586.08 669.105 581.59 669.065 577.095L659.935 577.07L659.94 590.535L669.285 590.575ZM643.945 445.884C643.365 437.038 642.325 432.178 634.42 426.77C633.345 434.741 632.96 446.675 643.945 445.884ZM632.975 672.575L633.05 696.985C633.025 701.945 632.75 709.435 633.38 714.07C634.76 714.825 634.995 714.655 636.57 714.55C637.25 714.135 637.81 714.005 637.84 713.375C638.35 703.16 637.565 689.785 638.115 679.665C644.545 679.41 650.98 679.535 657.39 680.05C657.595 688.045 657.64 696.045 657.535 704.04L668.135 704.175C668.035 693.98 668.04 683.785 668.145 673.59L647.155 673.03C643 672.95 636.955 673.075 632.975 672.575ZM631.355 714.61C631.29 701.73 630.885 685.435 631.57 672.7C627.035 672.625 620.345 672.72 615.985 672.32C615.97 686.385 616.165 701.03 615.875 715.045C621.035 714.865 626.195 714.72 631.355 714.61ZM618.885 492.638C623.86 494.847 626.46 494.999 631.955 494.224C635.77 492.551 637.605 490.793 640.84 488.235C632.58 488.278 632.39 485.015 627.605 485.545C623.435 487.919 622.09 488.805 618.885 492.638ZM731.515 770.33C732.24 773.535 734.27 783.95 737.27 785.595C738.27 784.84 737.865 785.325 738.19 783.87C739.245 779.25 740.045 775.325 740.805 770.65L731.515 770.33ZM655.155 454.129L655.43 456.625C659.27 456.692 661.34 440.74 658.375 436.433C652.69 440.846 651.57 443.414 649.95 450.306C652.15 451.143 654.46 451.64 655.155 454.129ZM574.375 778.85C577.225 781.675 580.58 785.495 584.925 785.235C591.775 784.82 596.945 774.615 599.555 769.235C591.115 772.155 582.635 773.46 575.215 767.19C566.635 766.42 566.21 766.26 559.75 760.645C563.2 768.42 570.67 783.235 577.625 789.245C578.23 789.77 580.65 789.375 581.61 788.98C581.13 787.8 576.25 783.43 573.91 779.57L574.375 778.85ZM757.52 790.755C754.775 790.825 751.935 790.93 749.2 790.96C750.79 795.325 752.165 798.62 754.09 802.85C755.14 804.475 754.895 804.76 756.3 805.155C757.9 802.95 757.93 794.42 758.075 791.24L757.52 790.755ZM651.12 476.439C648.02 479.786 647.35 480.696 643.28 483.035C640.205 484.802 635.325 484.329 634.17 485.681L634.655 486.33C644.965 487.394 646.705 487.007 651.255 477.386L651.12 476.439ZM652.39 474.027C655.75 468.764 656.73 454.602 650.18 451.624C650.38 454.319 650.275 454.203 651.105 456.538C652.455 460.341 651.06 470.478 650.5 474.595C651.78 474.624 651.145 474.693 652.39 474.027ZM674.665 590.78C675.295 588.13 675.24 580.455 674.815 577.75C673.275 577.36 672.58 577.205 671.02 576.99C670.985 580.16 670.205 588.065 671.885 590.415C673.21 590.745 673.3 590.745 674.665 590.78ZM592.825 733.575C589.55 736.735 585.34 740.465 581.7 743.195C576.995 746.305 566.675 754.27 561.175 753.46C561.835 751.385 583.625 739.51 587.195 735.75C593.055 729.575 587.575 733.275 588.975 725.475C586.95 724 579.42 724.9 577.23 726.665C575.19 732.67 575.57 731.87 568.39 735.445C562.735 738.265 551.37 743.86 545.44 743.38L544.435 742.71C545.34 740.64 570.88 734.255 574.3 727.25C573.9 720.32 547.45 725.905 542.75 725.905L542.24 725.465C543.45 724.79 543.96 724.54 545.245 724.02C542.065 723.37 535.29 723.455 531.525 723.015C527.22 738.9 531.655 736.405 541.49 745.1C543.485 746.865 545.025 755.65 550.095 756.015C559.13 755.945 560.575 758.8 566.68 762.84C570.86 765.61 588.82 763.175 592.71 760.015C596.435 756.99 605.965 744.88 603.55 740.08C603.01 739.92 602.335 739.59 602.03 739.915C597.5 744.745 586.48 758.095 580.4 760.13L579.715 759.675C580.055 756.08 585.53 753.565 588.17 750.915C592.235 746.84 595.9 742.275 599.935 738.24L592.825 733.575ZM633.635 625.36C633.725 632.465 633.99 640.485 633.585 647.49C643.74 647.6 653.895 647.805 664.05 648.11C669.665 648.23 677.935 648.22 683.48 648.765C683.505 642.03 683.25 632.455 683.695 625.945C672.465 625.91 661.23 625.82 650 625.67C645.385 625.61 638.085 625.73 633.635 625.36ZM638.045 483.327C630.88 477.592 629.44 473.309 620.09 474.114C622.48 481.675 630.915 483.939 638.045 483.327ZM661.345 469.378C656.985 471.523 649.735 478.689 650.715 483.668L651.455 484.126C656.57 482.18 662.135 475.061 662.28 469.716L661.345 469.378ZM657.06 461.822C656.965 465.011 656.81 466.956 656.385 470.119L656.945 470.378L657.65 469.997C659.85 468.805 661.06 468.23 663.39 467.316C664.775 464.581 666.505 461.753 666.18 458.693C665.285 457.856 665.83 458.097 664.515 458.062C660.965 458.903 659.84 459.459 657.06 461.822ZM701.91 595.665C700.735 599.17 702.375 601.53 703.95 604.71C705.5 607.835 713.175 623.945 715.36 624.67C715.67 624.77 716.215 624.825 716.55 624.865C717.13 622.485 704.06 597.4 701.91 595.665ZM670.445 672.515C670.445 676.22 670.025 703.195 671.06 704.405C675.37 705.055 679.1 705.17 683.46 705.035L683.55 668.66C683.555 666.05 683.74 655.085 683.385 653.37C679.465 659.265 674.02 666.725 670.445 672.515ZM631.87 468.757C628.97 468.36 626.21 468.235 624.13 466.163C623.04 463.714 623.225 460.872 622.395 459.936C609.12 470.795 623.52 470.738 629.305 473.494L630.405 474.225C631.55 473.147 631.57 470.64 631.87 468.757ZM647.02 457.405C642.085 460.456 634.685 465.11 633.205 471.161C632.66 473.297 633.02 475.561 634.19 477.428C635.05 478.785 636.77 480.116 638.02 481.171C648.255 485.563 651.855 465.283 649.485 458.282C648.315 457.127 649.04 457.554 647.02 457.405ZM606.05 672.05C606.105 685.7 605.71 701.43 606.17 714.87C607.99 714.94 612.85 715.47 614.035 714.375C614.02 701.74 613.515 684.555 614.22 672.28L606.05 672.05ZM608.53 744.135C608.535 757.505 602.535 774.245 593.24 784.285C590.985 786.72 586.53 787.335 586.075 788.87C588.515 789.375 593.525 787.14 595.995 786.15C604.29 781.97 610.975 777.705 618.875 772.795L620.485 752.41C616.895 749.53 612.57 746.33 608.53 744.135ZM626.015 605.715C624.285 602.16 620.46 595.49 620.84 591.855C621.445 591.055 622.075 590.205 623.315 590.215C630.24 590.285 637.885 590.555 644.78 590.59C642.265 587.855 639.71 585.16 637.11 582.51C619.325 582.035 600.11 581.275 582.475 581.015C584.235 583.385 586.25 585.515 588.255 587.675C599.35 599.625 610.795 611.25 621.905 623.195L634.75 622.975C631.565 617.41 628.815 611.495 626.015 605.715ZM645.245 716.89C605.41 717.23 566.265 716.49 526.44 715.42C526.46 717.31 526.25 718.3 526.915 719.975C531.38 720.625 536.59 720.48 541.175 720.575C560.38 720.97 579.57 722.105 598.775 722.38C601.85 722.42 605.065 720.365 608.175 720.34C611.655 720.255 616.76 722.73 619.68 722.855C630.33 723.31 641.135 722.805 651.78 723.585L651.99 723.16C649.415 721.18 647.295 719.5 645.245 716.89Z" fill="#373737"/>
<path d="M815.32 554.68C816.11 554.45 815.645 554.51 816.73 554.71C812.04 559.335 755.415 564.26 747.02 564.67C746.8 564.695 745.91 564.59 745.65 564.565C746.1 564.095 806.975 555.92 815.32 554.68Z" fill="#373737"/>
<path d="M885.63 679.61C903.72 677.415 927.005 686.43 939.985 699.065C938.31 698.305 936.365 696.97 934.78 695.96C921.78 687.965 909.385 683.01 893.96 681.395C889.685 680.945 885.325 681.495 880.94 680.985C882.035 680.16 884.18 679.905 885.63 679.61Z" fill="#373737"/>
<path d="M906.755 694.21C916.44 692.7 937.875 708.885 937.4 718.7C935.995 717.605 936.765 717.02 936.105 715.92C931.69 708.565 924.95 702.685 917.445 698.64C913.69 696.62 910.485 695.81 906.755 694.21Z" fill="#373737" fill-opacity="0.933333"/>
<path d="M822.415 532.65L823.185 533.265C824.02 536.415 822.1 550.695 820.945 554.135L820.53 553.885C819.95 551.055 821.975 536.055 822.415 532.65Z" fill="#373737"/>
<path d="M706.32 423.17L707.165 423.581C707.65 425.31 699.96 459.271 699.135 463.588C693.7 490.767 689.45 518.17 686.4 545.72C685.43 554.22 684.615 562.735 683.94 571.265C683.53 576.44 683.055 584.63 682.05 589.565L681.72 589.525C680.585 587.22 681.97 571.94 682.265 568.53C685.085 534.215 689.88 500.085 696.625 466.322C698.88 454.608 702.685 434.599 706.32 423.17Z" fill="#373737"/>
<path d="M697.09 529.325C703.94 529.82 703.51 536.25 698.64 539.375C692.13 538.425 692.285 532.885 697.09 529.325ZM698.68 537.7C699.76 535.83 700.08 535.51 700.405 533.445C699.82 531.45 699.65 531.315 697.535 530.63C696.175 532.325 695.885 532.495 695.48 534.54C696.085 536.635 696.485 536.95 698.68 537.7Z" fill="#373737"/>
<path d="M708.22 458.367C709.77 457.884 711.455 458.275 712.635 459.388C713.815 460.502 714.295 462.166 713.9 463.738C713.505 465.31 712.295 466.547 710.73 466.971C708.37 467.61 705.935 466.244 705.255 463.899C704.57 461.554 705.89 459.094 708.22 458.367ZM709.835 465.846C711.43 464.313 711.62 464.249 712.18 462.2C711.645 459.861 711.09 459.766 708.85 459.177C707.9 460.773 707.14 461.657 707.125 463.5C707.93 464.996 707.755 465 709.835 465.846Z" fill="#373737" fill-opacity="0.988235"/>
<path d="M568.57 625.27C575.555 624.91 587.415 625.28 594.42 625.565C594.83 629.025 595.83 647.45 593.505 649.035C588.725 649.045 568.885 649.705 566.34 647.765C566.025 646.18 565.41 628.3 566.69 626.04C567.04 625.415 567.7 625.475 568.57 625.27ZM581.4 646.97C584.53 647.095 589.915 647.465 592.83 647.17C592.725 640.62 592.785 634.07 593 627.52C589.255 627.505 585.15 627.57 581.435 627.445L581.4 646.97ZM568.05 646.915C571.11 646.995 576.075 647.275 578.93 646.915L579.365 646.38C579.235 640.965 578.94 632.78 579.36 627.44C575.875 627.44 571.6 627.55 568.185 627.365C568.27 633.675 568.54 640.68 568.05 646.915Z" fill="#373737"/>
<path d="M696.055 677.62L705.39 677.365C705.45 682.82 705.915 690.7 705.19 696.12C705.04 697.265 704.32 697.335 703.375 697.8C700.825 698.12 696.22 699.34 694.29 697.655C693.455 693.675 693.845 683.665 694.245 679.37C694.355 678.17 695.08 678.115 696.055 677.62ZM695.87 696.86L702.89 696.195C704.01 693.965 703.42 682.69 703.465 679.31L696.03 679.635C695.835 685.375 695.78 691.12 695.87 696.86Z" fill="#373737"/>
<path d="M695.345 629.135C698.69 628.995 701.96 629.055 705.3 629.09C705.495 632.575 706.52 647.405 703.89 649.005C700.635 649.655 697.47 649.515 694.145 649.52C694.045 644.355 693.695 635.605 694.315 630.335C694.66 629.935 695.005 629.535 695.345 629.135ZM702.815 647.39C703.895 645.81 703.485 633.695 703.465 630.795L697.46 630.7L696.33 631.255C695.655 634.12 695.985 643.98 696.035 647.64L702.815 647.39Z" fill="#373737"/>
<path d="M562.73 678.055C572.175 677.735 585.175 678.125 594.53 678.575C594.59 684.475 594.985 698.28 594.17 703.745C584.225 703.995 572.625 703.345 562.6 702.915C562.415 695.95 561.965 684.89 562.73 678.055ZM592.755 701.14C592.445 696.415 592.425 685.125 592.91 680.53C588.295 680.285 584.005 680.055 579.375 680.065C579.365 686.63 579.54 694.66 579.09 701.085C581.96 701.28 590.51 702.005 592.755 701.14ZM577.335 700.41C577.195 693.63 577.23 686.85 577.435 680.075L564.455 679.9L564.465 700.885C566.735 700.965 575.485 701.53 577.045 700.925L577.335 700.41Z" fill="#373737"/>
<path d="M644.025 630.33C653.08 630.315 662.48 630.17 671.49 630.595C671.725 634.475 671.895 639.305 671.385 643.115C665.595 643.735 658.44 643.07 652.55 643.115C651.225 643.125 644.91 643.055 644.3 642.065C642.875 639.74 643.61 632.96 644.025 630.33ZM669.52 640.955L669.895 632.41C661.74 632.43 653.58 632.055 645.61 632.085L645.63 640.795C649.88 640.89 666.395 641.465 669.52 640.955Z" fill="#373737"/>
<path d="M651.12 476.439L651.255 477.386C646.705 487.007 644.965 487.394 634.655 486.33L634.17 485.681C635.325 484.329 640.205 484.802 643.28 483.035C647.35 480.696 648.02 479.786 651.12 476.439Z" fill="#373737" fill-opacity="0.01"/>
<path d="M694.345 425.875L694.52 426.995C691.985 427.833 688.22 428.557 685.62 427.815L685.365 427.056C689.22 427.877 690.785 427.447 694.345 425.875Z" fill="#373737" fill-opacity="0.8"/>
<path d="M694.345 425.874C695.705 425.052 697.03 423.919 698.38 423.956C697.635 425.476 696.06 426.092 694.52 426.995L694.345 425.874Z" fill="#373737" fill-opacity="0.431373"/>
<path d="M573.91 779.57C572.45 777.78 571.395 776.75 570.595 774.575C571.875 775.12 573.45 777.615 574.375 778.85L573.91 779.57Z" fill="#373737" fill-opacity="0.8"/>
<path d="M311.792 222.363C325.588 204.456 345.958 192.794 368.384 189.96C392.737 186.806 418.902 194.878 438.322 209.63C441.48 212.029 450.417 220.044 452.375 223.423C457.928 233.005 464.98 235.298 472.115 242.538C474.853 245.317 477.307 252.52 478.141 256.444C496.01 273.497 495.665 308.586 478.476 326.23C473.498 331.339 467.171 333.598 464.002 340.197C457.12 352.015 458.287 364.581 453.911 377.187C448.085 388.187 439.34 398.408 432.036 408.444C427.606 414.531 423.431 422.878 418.337 427.813C407.027 438.772 390.444 428.062 380.366 421.897C374.807 431.687 371.436 442.997 369.89 454.118C379.57 463.063 382.646 461.292 394.522 464.073C400.634 465.504 412.506 471.111 417.702 474.54C443.966 491.875 439.352 533.79 447.317 560.795C448.737 565.61 454.603 574.795 457.31 579.61C460.39 585.175 463.011 590.985 465.147 596.975C470.849 573.715 474.165 555.505 485.015 533.705C493.875 515.9 494.74 509.615 515.89 502.62C525.415 499.371 527.645 498.259 534.34 507.07C546.38 506.835 544.25 508.585 548.725 516.605C550.145 519.145 554.08 518.755 557.435 524.665C557.525 527.83 557.6 530.285 557.385 533.455C568.975 538.42 561.545 550.57 553.61 554.975C550.915 556.47 547.805 553.2 545.815 556.92C546.05 560.35 547.485 562.915 547.24 566.46C546.78 573.185 543.145 576.315 538 579.745C537.755 590.245 537.8 601.225 537.47 611.605C536.085 613.31 534.87 615.39 532.455 615.58C527.375 615.97 523.675 611.31 524.08 606.455C524.53 600.97 526.32 600.165 524.06 594.55C524.225 592.45 525 591.22 526.255 589.475C524.125 587.055 523.695 586.38 522.495 583.39C520.94 583.74 511.655 590.605 509.4 592.095C505.43 602.75 504.095 613.53 502.1 624.665C501.505 627.995 500.72 633.785 499.85 636.89C506.95 640.175 511.68 644.47 514.105 652.03C520.095 670.745 518.995 688.735 499.935 698.36C500.505 703.28 500.6 707.73 500.575 712.665C504.66 709.18 518.415 699.205 517.94 712.29C517.875 714.175 523.46 714.865 522.175 718.18C519.39 725.94 511.15 735.02 505.97 741.325C507.655 744.63 508.88 749.63 508.58 753.045C508.005 760.505 506.295 757.745 512.605 761.195C513.76 761.825 515.305 767.845 515.54 769.45C517.035 779.74 518.515 781.69 509.93 787.82C510.665 791.55 510.565 790.91 509.8 794.295C507.77 803.29 516.035 817.055 509.015 824.735C506.82 827.14 501.36 822.745 499.67 821.205C498.79 816.095 495.805 792.325 494.27 789.355L493.625 789.185L493.22 789.935C489.816 796.215 487.937 793.025 485.344 796.31C485.103 798.03 484.924 799.905 484.579 801.54C484.417 803.015 479.825 805.43 481.461 807.09C484.729 810.4 480.002 816.01 480.256 817.3C481.223 822.185 481.714 826.885 475.783 829.75C471.801 831.675 469.821 829.9 467.01 826.605C468.015 815.76 469.82 804.17 470.663 793.655C468.616 792.405 464.719 790.35 464.172 787.745C463.083 782.57 464.035 772.52 466.388 767.72C467.165 766.13 470.18 764.99 471.533 763.905L472.522 763.945L473.826 763.745L474.355 762.985C474.482 760.595 474.057 758.77 471.83 757.72C471.505 758.545 471.528 758.76 470.997 759.415C467.94 759.215 460.092 765.395 455.796 765.775C449.114 766.36 441.593 764.575 435.093 763.29C434.293 781.415 436.234 779.045 444.691 794.745C449.813 804.335 454.629 814.085 459.13 823.985C464.917 836.74 470.323 849.66 475.338 862.74C480.39 875.825 518.855 981.56 515.825 986.035C513.265 983.7 507.71 963.26 506.26 958.845C499.805 939.335 493.165 919.89 486.342 900.505C477.048 873.71 466.54 847.35 454.852 821.51C449.478 809.865 443.539 797.685 437.109 786.635C431.31 776.67 431.889 774.22 432.484 762.96C424.27 761.53 406.143 758.005 398.849 758.835C386.549 760.23 368.89 767.005 356.808 771.165C341.511 776.51 326.107 781.55 310.605 786.27C299.302 789.715 287.83 792.575 276.234 794.84C270.121 796.04 260.58 797.345 254.905 798.73C250.198 805.125 234.337 824.98 232.462 831.27L231.325 831.515C229.456 833.965 228.022 835.74 225.966 838.035C229.348 842.25 232.927 845.11 236.629 849.02C237.224 855.105 236.449 862.16 242.579 866.265C245.604 868.295 246.372 868.415 248.629 871.435C249.763 894.84 264.466 887.835 264.713 908.745C265.534 924.71 254.51 926.285 245.797 934.025C242.133 937.28 241.672 949.37 234.325 956.225C221.727 967.985 205.639 974.375 194.14 986.09C198.925 975.84 205.908 974.8 214.049 969.035C221.287 963.91 232.591 956.425 237.079 948.815C239.513 944.69 241.127 937.775 242.81 932.91C248.676 927.98 255.618 926.885 259.737 918.85C261.813 914.805 262.216 912.48 262.384 908.12C262.838 896.31 254.873 894.58 249.397 886.195C248.26 884.455 247.29 880.915 246.654 878.75C244.404 884.84 240.677 892.69 238.087 898.85C233.532 909.855 229.085 920.91 224.749 932.005C222.406 937.975 216.073 957.415 213.67 961.74C216.853 949.29 221.212 936.855 225.745 924.82C228.751 916.835 245.953 878.12 245.972 873.655C245.989 869.635 239.699 867.525 237.326 864.995C234.079 861.53 234.407 854.41 234.462 849.99C229.982 846.505 228.319 845.37 225.053 840.73C200.579 879.94 178.263 920.46 158.206 962.1C156.337 965.905 147.667 984.485 144.815 986.195L144.391 985.875C144.565 982.035 150.739 971.04 152.714 966.94C173.836 922.47 197.584 879.3 223.832 837.655C218.132 826.475 219.039 814.355 219.45 802.03C212.765 803.14 203.408 803.1 198.997 797.205C182.817 775.565 183.048 734.81 184.508 708.84C187.646 658.25 190.169 607.41 195.128 556.98C196.48 543.24 199.933 528.505 203.94 515.285C205.551 509.97 210.563 502.745 211.382 497.557C213.203 486.032 228.581 391.248 232.679 387.471C232.366 391.389 231.264 395.676 230.56 399.577C224.759 431.764 217.498 464.099 213.137 496.501C221.513 481.378 229.508 474.558 245.955 467.667C249.041 448.349 252.453 429.085 256.192 409.883C259.104 394.322 262.356 376.139 266.585 360.883C255.817 353.756 249.951 345.493 245.929 333.293C238.312 310.187 242.72 275.191 269.284 266.557C246.038 282.815 242.852 298.813 245.739 326.408C254.39 298.124 272.926 250.479 299.288 235.254C294.999 239.993 290.673 242.729 285.984 248.74C267.334 272.645 256.579 300.534 246.605 328.616C249.404 337.269 251.894 344.619 258.588 351.118C261.411 353.86 264.482 356.583 266.952 359.623C272.723 326.624 282.541 292.916 293.529 261.351C294.275 259.208 295.03 257.095 296.471 255.319C296.449 255.767 296.427 256.216 296.405 256.664C284.562 289.273 276.545 323.247 269.244 357.132C261.587 392.673 253.66 429.209 248.726 465.211C260.523 454.069 274.406 444.953 284.239 431.752C288.258 426.357 298.524 412.58 298.833 405.676C299.288 395.548 298.903 384.252 298.802 374.039C297.407 373.964 296.013 373.856 294.622 373.716C287.724 372.972 281.836 369.439 277.578 364.069C275.345 363.574 271.753 362.956 270.272 361.243C271.943 360.629 287.46 363.353 291.875 360.76C292.457 360.418 293.969 360.245 294.696 360.185L294.413 360.786C289.066 363.401 285.658 363.806 279.826 363.947C286.635 369.518 290.128 370.791 298.702 372.181C299.329 364.645 299.042 352.935 299.087 345.094C297.458 344.377 296.528 344.106 295.226 342.868C296.806 342.914 297.522 343.6 299.044 344.438C299.158 337.947 299.339 331.457 299.586 324.969C299.859 318.921 301.033 310.907 298.595 305.451L299.603 305.153C300.982 302.522 301.767 287.021 302.034 283.239C302.529 276.202 307.869 238.43 311.322 234.622C314.836 243.824 301.001 272.049 307.034 285.705C332.06 342.349 407.573 314.334 440.726 281.223C442.044 279.907 454.099 269.351 454.285 269.27C453.004 272.512 437.333 287.237 434.23 290.59C428.261 297.04 405.992 317.427 397.916 316.983C400.726 314.878 403.722 314.059 406.471 312.338C411.939 308.916 418.75 303.186 423.251 298.484C408.077 307.981 397.181 314.238 379.237 318.485C372.069 340.246 351.11 338.472 343.158 360.025C336.206 378.868 355.83 397.151 338.913 412.37C352.152 390.874 332.635 378.087 339.453 353.358C326.733 355.997 319.391 341.245 317.47 330.777C316.031 322.936 316.693 315.485 319.98 308.168C311.882 300.519 307.675 294.544 304.414 283.702C303.897 292.004 303.177 301.281 303.038 309.583C305.933 312.557 310.14 316.042 313.46 318.671C308.724 316.7 306.599 315.839 302.513 312.597L301.564 344.85C308.96 345.141 311.735 344.62 318.864 342.459C313.45 346.457 310.448 347.625 303.421 346.551C302.78 346.453 302.14 346.348 301.501 346.237L301.502 371.456C317.961 367.002 317.423 358.532 324.833 345.512C322.779 354.551 320.75 363.016 313.199 369.245C312.022 379.603 309.356 388.726 305.759 398.456C305.082 400.289 301.98 406.073 301.929 407.338C300.969 430.877 302.416 455.769 302.612 479.24C309.964 480.24 317.337 481.072 324.727 481.737C335.272 482.742 345.694 481.718 353.624 489.754C343.186 483.825 336.67 484.682 325.036 483.662C318.145 483.057 309.283 482.081 302.559 480.477C303.172 487.663 303.491 495.689 303.68 502.93C316.972 517.29 329.836 530.555 344.813 543.265C358.83 555.16 373.396 566.22 386.816 578.815C392.623 584.27 398.08 590.09 403.153 596.235C405.947 599.56 410.179 605.025 413.05 607.985C422.142 576.705 409.3 527.54 399.111 497.32C396.176 488.614 392.446 477.275 388.087 469.402C387.417 468.191 386.705 467.004 385.952 465.843C378.276 464.033 375.06 462.366 369.056 457.139C368.597 462.291 368.73 466.058 368.435 470.849C364.247 456.402 369.62 432.178 378.459 420.38C369.73 413.246 360.256 405.62 354.235 395.987L353.788 395.281L354.358 395.736C359.518 399.888 363.963 405.212 368.905 409.287C380.265 418.653 405.482 440.314 418.898 422.978C422.527 418.288 425.333 412.714 428.891 407.925C434.538 399.974 441.158 392.311 446.63 384.329C443.557 384.928 440.699 385.447 437.599 384.87C440.54 382.688 450.738 382.322 450.678 377.965C450.58 370.886 444.3 357.991 448.222 350.492C448.867 353.465 448.42 355.816 448.843 358.904C449.547 364.04 450.584 369.04 451.675 374.102C454.317 364.984 455.625 356.992 458.052 347.979C459.333 343.219 464.668 335.405 466.066 330.967C471.918 312.385 473.818 295.047 469.572 276.212C455.564 299.255 432.883 315.703 406.627 321.858C402.27 322.906 386.756 325.288 383.247 323.215L383.482 322.808C389.552 322.508 390.636 321.877 395.862 321.154C420.309 317.773 439.569 307.084 456.414 289.161C465.66 279.323 466.951 273.653 473.343 262.823C472.798 267.474 472.564 269.922 470.544 274.297C477.703 289.603 473.259 315.019 468.97 330.756L469.582 330.372C489.928 317.38 493.915 284.433 481.795 264.656C480.562 262.644 478.859 260.612 477.809 258.51C474.009 250.908 470.667 242.164 462.691 237.93C454.666 233.671 451.417 225.908 445.35 219.577C410.562 185.239 353.194 181.772 318.622 218.482C316.184 221.068 311.482 229.133 309.682 230.334L309.016 230.003C308.201 226.892 310.935 226.214 308.223 223.385C304.874 222.314 297.251 224.373 293.897 225.701C253.396 241.735 233.667 284.273 217.097 321.495C207.359 343.248 198.097 365.212 189.318 387.37C159.241 461.947 132.689 536.28 104.962 611.72C95.9359 636.52 86.6524 661.23 77.1124 685.84C64.4159 718.685 48.4794 757.115 30.946 787.71C32.8304 777.07 39.1778 766.875 43.7934 757.08C59.4079 723.93 72.7129 689.94 85.5764 655.615C116.474 573.16 145.375 489.874 177.862 408.019C193.461 368.717 209.432 329.4 227.987 291.391C238.605 269.768 254.266 246.707 274.195 233.02C282.022 227.644 296.994 219.312 307.342 220.767C308.321 220.905 310.752 221.929 311.792 222.363ZM294.503 698.22L294.388 698.735C293.215 704.175 293.232 710.755 290.413 715.615C286.429 722.485 283.75 722.175 281.232 730.045C296.812 731.32 312.46 731.58 328.074 730.82C338.585 730.26 348.235 729.09 358.584 728.26C353.973 723.52 348.432 723.815 349.029 716.375C349.98 704.525 349.677 687.065 352.553 675.96C356.135 662.135 378.348 656.54 390.626 657.495C406.568 658.495 421.069 658.54 435.289 666.5L435.42 665.67C435.866 662.79 436.035 662.12 435.301 659.305L435.066 658.375C433.699 653.09 428.824 644.36 429.924 640.495C432.566 636.83 439.601 637.38 443.783 637.21C448.188 628.5 455.215 626.135 464.325 625.08C470.876 595.225 442.489 564.315 431.01 538.285C421.497 516.715 414.644 494.444 404.64 473.248C402.498 468.89 394.55 466.729 390.007 465.859L389.107 465.695C405.837 498.321 426.438 570.155 415.645 607.91C415.289 609.155 414.842 610.395 413.743 611.15C411.724 611 408.087 606.655 406.814 605.035C377.176 567.335 334.547 543.655 303.968 506.46C305.276 534.6 307.419 562.69 310.395 590.7C312.639 612.055 316.686 635.12 315.737 656.645C315.477 662.535 311.664 668.975 307.623 673.285C307.381 680.665 307.69 687.16 301.914 692.29C300.136 693.865 295.441 697.17 294.503 698.22ZM240.564 780.425C243.472 778.35 245.252 777.255 248.376 775.51C252.258 769.365 251.284 768.07 253.339 762.105C259.675 757.675 262.842 756.095 265.741 748.805C266.203 747.115 266.748 744.855 267.358 743.255C271.595 739.73 275.048 737.28 278.106 732.66C257.552 731.7 253.242 730.74 233.861 738.34C240.829 732.99 245.094 731.295 253.896 729.755C256.397 705.57 260.988 677.655 265.039 653.445C268.462 632.995 271.838 596.78 279.68 579.24C279.218 585.475 277.03 595.35 275.892 601.785C274.512 609.59 273.491 617.445 272.154 625.165C304.871 599.8 287.333 525.97 265.893 497.079C260.7 490.082 253.739 486.76 246.076 483.246C242.037 515.26 237.481 546.83 234.803 579.1C231.939 615.705 229.48 652.34 227.427 689C225.519 725.975 224.227 762.49 221.428 799.51C223.674 799.305 225.889 798.785 227.793 799.74L227.854 800.485C225.713 802.02 223.804 801.885 221.132 802.075C221.049 808.065 220.72 831.36 225.085 834.675C226.594 834.16 228.458 830.745 229.494 829.13C220.51 803.03 232.053 801.81 240.564 780.425ZM199.574 793.34C205.92 801.18 210.673 800.425 219.873 799.375C220.607 779.82 222.593 760.225 223.377 740.76C226.148 671.95 229.393 603.03 237.293 534.585C237.976 528.665 244.038 484.12 243.263 483.121C241.053 482.665 240.825 482.784 238.538 483.163C229.339 484.639 221.57 489.017 216.115 496.654C209.272 506.235 204.785 520.9 202.293 532.24C195.127 564.885 194.721 598.325 192.272 631.54C190.448 656.29 188.397 681.81 187.404 706.535C186.417 731.09 184.935 772.935 199.574 793.34ZM255.514 763.485C253.412 773.65 252.524 776.9 242.919 781.55C240.169 789.045 238.142 791.625 233.707 798.185C255.966 795.73 277.388 792.405 299.069 786.49C313.673 782.505 328.329 777.325 342.762 772.76C359.448 767.005 380.16 758.645 397.479 756.205C408.448 754.655 424.632 759.1 435.717 760.605C446.962 762.605 452.445 764.5 463.597 760.265L455.085 759.915C465.448 756.795 474.832 753.55 485.491 750.53C484.854 745.78 485.262 742.585 485.582 737.815C478.082 740.2 468.074 740.93 460.52 739.025C449.044 736.13 445.063 739.23 434.348 741.23C439.645 738.025 440.514 737.535 446.332 735.935C454.3 733.74 479.902 736.385 484.178 728.695C483.996 719.225 458.831 722.775 451.82 721.285C442.339 719.27 427.201 713.605 417.72 715.2C403.735 716.74 395.407 724.4 382.816 727.2C352.705 733.905 310.855 735.63 280.635 732.93C277.85 738.585 274.647 740.955 269.712 744.465C266.359 755.57 265.47 757.34 255.514 763.485ZM291.703 698.705C294.2 692.46 298.585 693.58 302.048 688.605C305.269 683.715 303.764 677.755 305.601 672.355C306.878 668.6 311.832 664.25 312.374 660.73C315.409 641.005 310.63 616.615 308.435 596.905C307.197 585.095 306.049 573.28 304.992 561.455C303.305 543.43 301.657 521.405 301.213 503.435C285.238 486.982 271.221 470.589 246.963 469.737C267.406 463.662 288.512 486.696 301.175 500.205C300.544 494.104 299.976 486.151 300.013 479.978C298.504 479.615 296.247 479.296 295.209 478.392C297.317 478.367 297.938 478.425 300.031 478.743C299.075 457.987 299.412 437.234 298.961 416.465C298.944 415.663 298.822 414.905 298.254 414.35C287.55 434.582 270.195 453.415 249.98 465.548C247.639 466.954 246.723 478.781 246.154 481.777C257.182 484.051 264.947 490.832 270.987 500.28C287.433 526.01 296.485 567.205 290.797 597.255C289.088 606.28 283.69 620.4 275.615 625.75C273.273 627.315 271.895 626.825 271.463 630.135C270.415 638.17 268.436 647.615 267.619 655.555C266.993 661.635 262.812 680.36 263.933 685.31L264.131 686.22C265.096 690.52 267.068 695.305 268.435 699.54C271.202 708.11 275.294 720.655 276.391 729.5C277.554 730.565 276.89 730.32 278.432 730.31C279.735 728.455 279.717 724.87 280.767 723.76C288.363 715.75 290.498 710.065 291.703 698.705ZM391.894 721.395L393.564 720.61L393.532 720.175C382.22 717.995 364.051 719.325 351.767 715.66C351.901 717.845 351.733 719.06 352.859 720.825C356.237 723.345 379.115 724.43 384.36 724.035C385.349 723.96 390.549 721.92 391.894 721.395ZM548.51 520.055C547.76 527.975 547.09 534.91 542.84 541.885C541.68 543.79 538.655 545.29 536.695 546.285C537.045 548.19 540.5 550.775 542.315 550.845C549.525 544.3 563.655 525.715 548.51 520.055ZM538.275 543.78C541.945 539.005 544.655 533.255 545.335 527.27C546.72 515.155 547.725 510.98 535.17 509.07C536.64 513.365 545.76 530.36 539.22 532.655C537.455 533.275 537.83 532.11 536.105 534.005C535.655 536.365 536.085 541.88 536.825 544.155C537.92 544.1 537.445 544.255 538.275 543.78ZM340.063 363.124C346.168 339.256 376.278 331.396 376.829 319.146C376.478 319.16 376.126 319.174 375.775 319.188C373.984 319.459 372.027 319.713 370.261 320.031C359.138 334.125 344.225 339.18 340.462 355.938C339.847 358.68 339.299 360.742 339.63 363.586L340.063 363.124ZM466.867 635.49C472.482 635.385 477.203 634.94 482.775 634.41C477.105 630.4 471.942 627.77 464.705 628.205C456.642 629.115 454.674 630.35 447.871 634.66C454.756 635.175 459.994 635.5 466.867 635.49ZM301.402 373.998C301.409 377.165 301.099 398.107 301.95 399.107L302.109 399.149C304.21 394.544 310.87 375.528 310.141 371.283L310.046 371.197C306.667 372.543 304.929 373.09 301.402 373.998ZM499.075 688.66C499.235 690.83 499.03 693.31 500.305 694.74C501.675 694.7 501.975 694.32 503.14 693.565C509.245 688.755 513.755 682.475 514.23 674.655C515.17 659.295 511.815 640.69 493.735 638.76C491.835 638.57 489.93 638.425 488.022 638.325L491.045 646.31C505.695 645.38 507.7 658.265 508.315 670.05C508.745 678.355 505.72 683.925 499.075 688.66ZM244.163 481.499C244.428 479.461 245.671 472.042 245.102 470.685L244.772 470.452C238.621 473.735 226.339 481.09 222.346 486.688L222.799 487.059L223.247 486.987C229.358 482.655 236.595 479.44 244.163 481.499ZM493.925 729.47C484.538 734.275 486.048 752.655 491.46 760.02L492.13 759.27L491.835 758.67C487.946 750.68 488.023 737.31 494.24 730.455C494.135 730.125 494.03 729.795 493.925 729.47ZM532.46 591.875C532.425 595.52 531.66 610.085 533.43 612.255C534.075 611.91 534.845 611.51 534.92 610.59C535.735 600.145 534.33 588.325 535.95 578.025C548.375 569.405 547.36 558.835 535.54 550.2C533.945 554.47 535.91 559.145 532.67 561.28C531.6 561.98 528.445 561.7 527.075 561.205C524.43 558.145 527.445 553.87 529.335 550.955C527.93 550.715 527.175 550.9 525.99 550.64L522.615 553.225C519.36 555.685 516.72 559.89 516.265 563.675C515.475 570.325 521.875 574.1 524.855 579.18C525.135 579.66 524.765 582.42 524.66 583.225C526.385 585.16 527.285 586.195 528.715 588.335C527.525 591.255 526.765 592.24 527.21 595.27C528.025 600.81 528.39 602.52 525.625 607.475C527.825 610.42 528.555 611.345 531.24 613.855C530.065 606.24 530.425 588.29 531.185 580.5L531.535 580.11C532.69 584.72 532.49 587.17 532.46 591.875ZM552.885 552.81C558.61 548.205 565.77 540.57 556.39 535.44C554.57 539.54 546.415 550.395 550.445 553.08C551.495 553.015 551.865 553.045 552.885 552.81ZM488.302 728.805C487.657 729.19 485.413 730.6 485.153 731.195C483.115 735.86 467.574 736.66 466.765 737.345L468.04 737.785C474.592 737.92 480.096 737.19 486.375 735.275C487.145 733.71 489.238 730.28 488.921 729.015L488.302 728.805ZM475.278 756.665C475.673 758.72 475.896 759.87 476.03 761.95C477.344 763.925 477.736 763.49 480.119 763.71C483.892 764.245 484.905 764.82 488.021 762.305L489.766 760.88C488.334 758.78 486.227 753.865 485.164 753.465C481.931 754.525 478.523 755.705 475.278 756.665ZM439.527 640.21C437.167 640.46 434.597 640.675 432.265 640.985C433.103 643.805 435.947 654.445 437.494 656.2C437.944 654.855 443.769 639.48 443.683 640.225C441.818 639.89 441.362 640.01 439.527 640.21ZM496.395 787.17C499.06 794.06 499.915 818.785 503.95 821.37C505.21 819.695 502.99 805.99 502.585 802.52C502.185 799.735 500.585 790.42 501.585 788.375C504.88 797.4 504.88 818.785 506.905 821.93C508.285 821.435 509.145 819.765 509.735 818.595C511.345 815.405 508.75 812.97 507.995 810.62C505.85 803.905 508.59 792.115 507.26 786.265C510.87 783.77 513.145 782.8 513.975 778.17C514.685 774.21 512.13 765.815 510.43 762.38C504.935 760.735 502.16 760.41 496.335 760.655L495.275 761.38C496.825 762.96 504.365 761.92 504.32 767.165C504.275 772.87 495.145 773.575 494.03 767.005C494.48 765.525 494.565 765.55 495.5 764.28C494.465 763.225 493.66 763.135 492.245 762.705C484.71 764.735 486.564 775.38 487.978 781.095C489.03 785.345 492.715 785.955 496.395 787.17ZM529.245 534.32C527.74 537.87 527.245 538.425 525.055 541.495C525.48 544.155 525.775 546.505 526.07 549.175C528.685 548.78 528.145 549.28 529.45 547.695C530.28 543.87 530.36 537.985 529.245 534.32ZM369.147 727.025L368.904 726.27L358.054 724.81C358.468 725.825 358.844 727.48 359.617 727.58C363.653 728.12 364.289 726.725 369.147 727.025ZM515.725 716.07C509.42 718.85 495.07 731.54 492.14 738.19C490.921 740.955 490.884 744.075 491.055 747.05L491.52 747.795C492.785 747.615 492.995 747.595 494.19 747.18C503.265 742.33 510.735 730.915 516.975 722.79C518.085 721.35 519.945 718.525 519.61 716.64C518.285 715.69 517.7 715.96 515.725 716.07ZM256.275 729.335C260.803 729.355 265.331 729.455 269.856 729.63L274.422 729.925C273.197 725.025 264.945 692.655 262.249 689.875C259.77 702.81 258.673 716.805 256.275 729.335ZM494.305 727.85C494.885 727.805 496.715 727.65 497.195 727.24C502.965 722.355 508.605 717.4 514.49 712.63C515.18 712.07 515.37 711.21 515.505 710.505L515.08 709.155C513.945 708.74 514.14 708.715 512.975 708.61C503.72 710.325 497.85 720.2 491.735 727.325L491.78 727.86L494.305 727.85ZM496.925 765.865C496.805 768.18 496.455 767.26 497.51 768.88C499.14 769.61 499.78 769.395 501.555 769.23C502.205 767.16 502.405 767.685 501.685 766.22C499.825 765.575 498.94 765.775 496.925 765.865ZM431.219 712.345C429.087 711.36 427.946 709.01 428.493 706.725C429.04 704.44 431.122 702.86 433.469 702.95C435.815 703.035 437.774 704.77 438.148 707.085C438.523 709.405 437.21 711.665 435.01 712.485C433.778 712.945 432.413 712.895 431.219 712.345ZM475.431 766.175C472.889 766.56 470.622 766.63 469.014 768.98C466.227 773.055 465.683 780.485 466.347 785.295C466.819 788.71 470.407 790.315 473.285 792.15C472.805 797.545 469.267 823.98 470.074 826.935L470.819 826.885C474.134 821.64 474.238 796.06 476.791 794.7C477.291 798.89 476.244 805.62 475.68 810.015C474.951 816.18 473.997 822.24 473.241 828.355C476.221 825.9 477.788 825.27 478.257 821.15C478.879 815.695 478.779 808.94 479.79 803.61C479.884 803.11 482.236 800.34 482.775 799.705L483.249 793.49C485.858 792.635 488 792.11 490.286 790.595C491.555 788 487.424 786.07 485.724 783.61C485.408 781.65 484.962 777.015 484.008 775.79C480.938 776.16 478.897 776.785 476.279 775.025C475.344 773.62 475.483 773.645 475.496 771.92C477.397 767.49 482.931 769.235 484.343 767.15C482.659 765.84 477.612 765.97 475.431 766.175ZM487.969 727.25C489.385 725.835 491.165 724.445 491.8 722.72L490.806 722.735C487.839 722.975 488.485 722.475 486.666 724.095C486.331 725.28 486.354 724.835 486.538 726.075C487.298 726.925 487.052 726.92 487.969 727.25ZM528.085 556.005C528.4 558.33 527.995 557.82 529.29 559.4C530.91 559.865 530.82 559.82 532.515 559.645C533 557.405 533.195 558.355 532.49 556.605C531.13 555.7 529.79 555.97 528.085 556.005ZM529.985 527.705C531.5 535.355 532.355 543.37 531.525 551.22C531.52 551.24 530.135 553.285 529.93 553.82L531.94 553.965C535.105 548.645 535.695 530.82 529.985 527.705ZM432.412 705.78C431.551 706.15 430.969 706.965 430.901 707.9C430.834 708.835 431.294 709.73 432.093 710.22C432.892 710.71 433.897 710.71 434.699 710.225C435.826 709.545 436.234 708.11 435.632 706.935C435.029 705.765 433.623 705.26 432.412 705.78ZM497.97 711.095C483.981 716.73 464.088 716.795 449.293 714.6C447.02 714.265 444.566 713.49 443.703 715.205C444.724 716.915 445.186 716.995 447.12 717.73C455.984 719.47 461.76 718.67 470.463 719.185C478.246 719.65 499.625 726.74 497.97 711.095ZM491.915 648.925C496.045 662.965 497.34 671.21 499.16 685.82C500.285 684.64 501.495 683.45 502.515 682.195C508.415 672.785 506.94 648.815 491.915 648.925ZM250.219 799.29C245.05 799.795 236.884 800.805 231.988 800.78C228.296 807.08 227.599 815.065 229.446 822.065C229.822 823.49 230.242 824.905 230.705 826.305L231.698 826.125C237.829 817.28 244.078 808.17 250.768 799.755L250.596 799.215L250.219 799.29ZM488.803 542.59C495.875 537.32 503.025 534.28 510.845 530.265C515.355 527.95 520.795 524.61 525.265 522.59L522.16 518.995C516.955 522.205 513.245 525.08 507.285 521.5C507.67 521.165 521.895 521.705 520.535 516.1C520.375 515.415 520.205 514.735 520.025 514.06L520.52 513.59C524.08 515.165 533.1 530.98 537.97 530.96C541.41 526.29 532.48 507.71 528.265 504.11C526.805 502.865 524.55 502.995 522.77 503.045C516.34 505.195 503.76 510.345 498.605 514.79C496.85 516.3 494.145 520.925 493.09 523.225C488.062 534.18 481.718 546.04 478.061 557.45C475.594 565.145 473.853 574.145 471.757 582.025C470.797 585.63 467.025 598.41 467.024 601.38C467.018 611.1 468.99 614.505 467.361 624.94C474.936 626.23 480.813 627.575 485.704 634.295C486.07 634.805 486.42 635.325 486.754 635.855C490.124 635.775 494.025 635.87 497.355 636.365C499.505 624.605 501.49 601.43 507.77 590.63C508.665 589.09 519.55 581.435 522.165 579.3C510.66 569.675 510.61 556.905 524.09 549.2L523.825 542.705C520.88 544.53 510.96 549.68 509.915 552.855C509.82 553.14 509.695 554.295 509.675 554.465C508.13 567.85 506.83 573.575 494.775 581.145C506.705 567.74 504.61 568.7 508.465 552.56L501.775 557.05C501.905 556.85 502.04 556.65 502.17 556.45C507.645 546.32 529.535 541.525 527.1 528.55C526.73 526.58 526.705 526.555 525.495 525.47C523.325 525.76 516.86 530.015 514.46 531.235C507.445 534.79 496.32 541.21 488.803 542.59ZM407.76 472.638C412.761 484.654 436.488 548.885 443.046 553.705C441.17 544.45 439.824 534.96 438.259 525.58C435.28 507.715 432.514 487.761 416.238 476.728C413.869 475.122 410.519 473.27 407.76 472.638ZM493.73 759.235C497.21 758.095 499.12 757.775 502.77 757.345L503.92 757.5L505.275 757.96L506.16 757.23C507.21 754.22 506.885 745.345 504.455 743.13L503.65 743.63L502.415 745.05C497.97 748.765 496.555 749.455 491.05 751.33C491.91 753.98 492.8 756.615 493.73 759.235ZM351.874 713.79C366.629 716.33 383.801 717.31 398.815 717.755C399.751 717.785 404.324 715.6 405.527 715.105C414.157 711.535 421.238 711.86 430.318 713.195L435.788 714.37L442.09 715.91C441.958 705.445 441.062 675.095 435.643 670.82C418.541 657.335 353.953 650.85 353.675 685.08C353.586 696.035 352.368 704.435 351.874 713.79ZM483.915 773.62L484.344 771.96C483.081 770.2 479.998 770.875 477.897 770.985C478.184 773.45 477.657 772.51 479.203 774.075C481.236 774.555 481.81 774.205 483.915 773.62ZM321.901 309.748C317.4 322.068 319.517 334.546 326.987 345.299C329.774 349.312 334.311 352.753 339.422 351.057C340.268 350.721 342.251 345.222 343.184 344.504C345.714 341 348.336 338.272 351.436 335.323C357.868 330.235 363.113 326.221 368.866 320.369C349.65 321.628 338.675 320.37 321.901 309.748ZM446.23 636.08C443.441 647.33 439.887 656.8 437.427 668.185C444.16 677.95 444.136 699.37 444.136 711.5C458.502 713.66 475.169 714.41 489.408 711.325C492.46 710.555 494.985 709.88 497.98 708.91L497.9 708.295C497.14 702.36 497.235 696.32 496.655 690.375C494.82 671.605 492.005 653.28 483.5 636.23C473.579 638.095 455.875 639.24 446.23 636.08Z" fill="#373737"/>
<path d="M428.955 674.645C432.565 675.885 429.464 678.695 432.348 680.5C435.531 680.255 439.961 680.235 437.76 685.05C436.138 686.12 433.961 686.24 431.99 686.55C432.462 690.275 432.496 693.875 432.601 697.625C432.564 698.475 432.435 698.81 432.245 699.645L431.56 700.05C429.046 696.53 431.397 690.59 429.885 686.9C429.683 686.41 427.819 687.01 426.358 685.1C426.025 682.705 429.267 680.9 428.997 675.425L428.955 674.645ZM434.034 684.325L435.713 683.615L435.895 682.875C433.627 682.19 432.16 682.49 429.82 682.77L428.321 683.51L428.49 684.105C430.969 684.615 431.447 684.5 434.034 684.325Z" fill="#373737"/>
<path d="M369.5 666.14C375.956 665.66 408.564 666 412.098 670.52C411.063 671.3 410.996 670.98 409.303 670.88C399.535 668.96 388.381 668.32 378.412 667.97C374.185 667.825 368.745 668.345 364.756 667.865L364.587 667.34C365.789 666.53 367.966 666.375 369.5 666.14Z" fill="#373737"/>
<path d="M379.356 662.085C386.025 661.83 412.942 662.545 417.804 665.55L417.598 666.225L415.758 666.81C404.836 665.355 393.774 664.155 382.752 663.865C380.29 663.8 377.901 664.16 375.482 663.715C376.479 662.575 377.604 662.6 379.356 662.085Z" fill="#373737"/>
<path d="M415.963 674.915C422.236 679.075 423.136 704.03 422.141 711.15L421.427 711.01C419.501 705.99 420.025 690.33 419.019 684.205C418.546 681.33 416.939 677.79 415.963 674.915Z" fill="#373737"/>
<path d="M465.58 651.92C466.645 652.03 467.605 652.17 468.612 652.55C470.138 653.135 471.364 654.125 472.015 655.67C474.068 660.545 475.543 691.985 473.524 696.57C472.618 698.63 471.11 699.31 469.099 700.045C457.574 699.645 459.915 687.23 460.002 678.225C460.081 670.115 457.68 655.575 465.58 651.92ZM469.347 697.805C471.231 696.15 472.513 693.925 472.17 691.38C471.058 683.125 475.168 657.2 466.207 653.815C464.438 655.145 462.679 656.345 462.621 658.86C462.355 670.425 462.018 682.325 462.788 693.855C463.008 697.14 466.699 697.685 469.347 697.805Z" fill="#373737"/>
<path d="M431.22 712.345C429.088 711.36 427.946 709.01 428.493 706.725C429.04 704.44 431.122 702.86 433.469 702.95C435.815 703.035 437.774 704.77 438.148 707.085C438.523 709.405 437.21 711.665 435.01 712.485C433.778 712.945 432.414 712.895 431.22 712.345ZM434.699 710.225C435.826 709.545 436.234 708.11 435.632 706.935C435.029 705.765 433.623 705.26 432.412 705.78C431.551 706.15 430.969 706.965 430.901 707.9C430.834 708.835 431.294 709.73 432.093 710.22C432.892 710.71 433.897 710.71 434.699 710.225Z" fill="#373737"/>
<path d="M493.925 729.47C494.03 729.795 494.135 730.125 494.24 730.455C488.024 737.31 487.946 750.68 491.835 758.67L492.13 759.27L491.46 760.02C486.049 752.655 484.539 734.275 493.925 729.47Z" fill="#373737" fill-opacity="0.01"/>
<path d="M488.302 728.805L488.921 729.015C489.238 730.28 487.145 733.71 486.376 735.275C480.097 737.19 474.592 737.92 468.041 737.785L466.766 737.345C467.575 736.66 483.115 735.86 485.154 731.195C485.413 730.6 487.657 729.19 488.302 728.805Z" fill="#373737" fill-opacity="0.01"/>
<path d="M358.054 724.81L368.904 726.27L369.147 727.025C364.289 726.725 363.653 728.12 359.617 727.58C358.844 727.48 358.468 725.825 358.054 724.81Z" fill="#373737" fill-opacity="0.0156863"/>
<path d="M502.415 745.05L503.65 743.63C504.195 747.515 505.21 753.835 503.92 757.5L502.77 757.345C503.035 753.395 503.395 748.9 502.415 745.05Z" fill="#373737" fill-opacity="0.980392"/>
<path d="M431.22 712.345C432.414 712.895 433.779 712.945 435.011 712.485L435.789 714.37L430.319 713.195L431.22 712.345Z" fill="#373737" fill-opacity="0.0901961"/>
<path d="M240.62 305.328C241.097 307.05 235.746 321.688 234.733 324.84C228.413 344.307 222.631 363.946 217.393 383.732L179.723 528.5C166.677 579.94 154.397 631.215 139.991 682.375C128.918 721.715 116.505 760.665 102.772 799.155C102.242 796.965 111.584 769.375 112.808 765.575C119.177 746.06 125.27 726.455 131.086 706.765C168.154 579.77 193.256 449.071 234.032 323.138C235.866 317.474 238.147 310.72 240.62 305.328Z" fill="#373737"/>
<path d="M695.86 106.212C710.125 105.413 722.84 106.972 735.77 113.706C738.655 115.206 745.91 119.862 746.82 122.922C744.11 122.855 738.23 118.388 735.7 116.913C710.465 102.197 673.735 109.286 650.16 124.245C637.91 132.017 624.75 144.112 613.9 153.697C621.01 152.036 631.105 148.753 638.01 148.073C627.8 153.682 617.85 154.457 607.33 159.004C585.27 165.828 583.375 193.261 603.13 204.242C605.19 205.386 608.345 206.11 609.73 207.801L609.44 208.482C608 208.69 606.26 208.352 604.875 207.862C591.19 202.977 582.28 186.984 587.975 172.976C592.105 162.808 600.79 158.539 610.255 154.624C610.85 153.722 611.7 152.552 612.455 151.795C635.79 128.448 662.05 108.56 695.86 106.212Z" fill="#373737"/>
<path d="M186.55 649.805C186.612 649.985 186.675 650.165 186.738 650.345C171.481 740.335 156.238 831.145 130.411 918.9C125.868 934.335 119.622 956.555 112.456 970.62C111.989 969.01 114.83 961.525 115.551 959.315C122.332 939.19 128.491 918.865 134.019 898.365C152.532 830.875 165.135 762.46 177.799 693.705C180.511 678.98 182.984 664.365 186.55 649.805Z" fill="#373737"/>
<path d="M447.101 242.572C449.378 242.373 449.654 242.323 451.869 242.705C451.691 242.895 441.117 245.846 439.446 246.688C391.659 270.777 367.975 286.992 312.793 266.429C313.653 267.193 314.468 267.867 315.361 268.578C334.136 283.523 358.174 293.461 382.49 290.573C386.373 290.112 390.286 289.638 394.184 289.138C389.33 292.155 378.298 293.013 372.466 293.003C351.358 292.967 328.613 283.372 313.29 269.009C312.107 267.9 310.123 265.73 310.135 264.181C348.318 277.096 372.466 277.759 410.032 258.808C423.358 252.085 432.356 246.275 447.101 242.572Z" fill="#373737"/>
<path d="M879.35 816.72L880.675 817.56C882.03 819.89 882.665 822.34 883.125 824.97C884.295 831.645 887.67 847.14 883.37 852.7C878.365 859.18 831.3 862.905 820.49 863.87C812.08 864.62 784.24 868.58 778.365 863.35C771.645 857.37 771.745 842.275 771.04 833.75L771.01 832.84C770.97 831.44 770.85 828.575 771.715 827.665C774.245 831.92 774.03 838.745 774.64 843.65C775.3 848.98 775.74 858.02 780.425 861.385C787.235 866.28 850.985 857.89 862.52 856.175C867.005 855.51 879.77 854.165 881.995 850.05C885.2 844.115 880.685 823.845 879.35 816.72Z" fill="#373737"/>
<path d="M127.553 669.38C127.96 671.405 122.182 688.04 121.189 691.22C107.086 737.59 90.5219 783.175 71.5674 827.78C65.1669 842.765 57.6265 858.455 50.665 873.23C47.271 880.43 38.162 901.015 33.692 906.135C33.6454 905.685 33.5987 905.23 33.552 904.775C42.389 886.125 55.6324 858.58 63.6169 840.655C79.1274 805.94 93.0495 770.54 105.34 734.56C109.644 722.15 113.825 709.7 117.882 697.21C120.702 688.595 124.088 677.545 127.553 669.38Z" fill="#373737"/>
<path d="M363.623 802.3C364.367 804.105 363.573 809.75 363.298 811.945C356.48 866.555 351.618 921.335 345.437 976.005C345.132 978.705 344.501 982.21 343.447 984.695C341.978 980.555 360.471 817.67 363.623 802.3Z" fill="#373737"/>
<path d="M710.84 189.038L711.17 189.506C707.785 195.702 699.225 199.74 692.78 201.978C675.665 207.922 657.31 205.157 640.765 198.736C635.235 196.591 618.195 190.581 613.69 196.209C612.46 200.831 617.315 203.822 620.52 206.022C616.3 205.34 610.84 202.162 611.07 197.827C611.515 189.577 624.17 191.001 628.685 192.215C642.235 195.857 653.79 201.578 667.915 202.339C683.285 203.167 699.105 199.308 710.84 189.038Z" fill="#373737"/>
<path d="M612.845 205.346C608.245 202.73 605.15 200.925 602.925 195.862C601.255 192.057 600.845 187.67 603 183.969C616.09 162.798 648.03 179.655 665.06 185.656C680.94 191.255 692.83 192.297 708.55 186.805L708.66 187.604C704.78 189.879 699.67 191.267 695.28 191.938C669.65 195.846 649.37 177.598 624.725 176.023C618.625 175.799 612.255 176.919 607.73 181.28C598.175 190.497 605.89 198.213 612.845 205.346Z" fill="#373737"/>
<path d="M344.182 796.35C344.761 798.885 335.6 822.015 333.99 826.32C323.973 852.915 314.687 879.785 306.142 906.89C301.823 920.705 297.8 937.625 293.152 950.86L292.763 950.385C303.115 902.365 325.359 841.795 344.182 796.35Z" fill="#373737" fill-opacity="0.988235"/>
<path d="M432.125 972.315C430.144 955.03 428.901 937.155 427.141 919.745C424.646 895.865 421.718 872.025 418.359 848.25C417.31 840.835 410.258 802.805 410.885 799.035C412.057 801.28 411.998 802 412.343 804.585L413.192 809.675C423.903 864.72 428.994 916.705 433.181 972.415L432.125 972.315Z" fill="#373737"/>
<path d="M379.884 209.206C389.053 208.032 422.634 211.991 426.816 219.622C425.886 219.659 419.768 216.642 417.947 216.04C393.349 207.912 367.976 210.35 344.815 221.774C331.524 228.974 323.496 234.939 313.467 246.236L313.045 246.002C313.479 244.543 314.457 243.345 315.439 242.183C331.565 223.096 355.187 211.52 379.884 209.206Z" fill="#373737" fill-opacity="0.984314"/>
<path d="M119.676 782.39L120.206 782.855C118.906 787.385 115.768 794.685 113.932 799.195L102.986 825.91C94.0079 847.915 84.5559 869.73 74.6369 891.33C70.7134 899.895 64.5744 913.79 60.0304 921.775L59.6614 921.61C59.3844 919.37 72.2129 892.395 74.1984 887.965C84.2639 865.52 94.0539 842.955 103.566 820.27C108.511 808.575 114.293 793.535 119.676 782.39Z" fill="#373737" fill-opacity="0.984314"/>
<path d="M401.418 388.789C402.42 388.921 430.034 396.92 429.904 396.829C428.49 398.81 427.979 399.518 426.987 401.736L426.779 402.212C425.992 403.427 424.435 404.411 423.082 404.841C414.128 407.683 403.707 396.453 401.418 388.789ZM425.338 401.304L428.15 398.026C421.268 396.435 410.206 392.911 404.561 391.783C408.32 396.806 418.744 408.814 425.338 401.304Z" fill="#373737"/>
<path d="M253.022 861.485C259.304 847.435 275.18 813.785 284.45 802.61L284.596 802.57C284.611 803.78 272.823 824.605 271.208 827.835C265.424 839.41 259.72 851.12 254.241 862.85C258.327 870.97 263.152 879.755 263.029 889.005L262.682 889.035C260.43 881.22 257.467 871.845 252.736 865.125L251.639 864.855C252.044 862.76 243.237 847.91 241.693 845.7C238.306 840.865 234.343 836.635 231.325 831.515L232.462 831.27C236.306 836.995 239.67 840.505 243.452 845.695C246.445 849.805 250.032 856.805 253.022 861.485Z" fill="#373737" fill-opacity="0.976471"/>
<path d="M413.319 804.115L413.697 803.45C415.38 806.395 417.33 813.235 419.308 820.03C432.253 864.49 441.471 910.9 447.449 956.815C447.374 957.005 447.299 957.195 447.223 957.385C445.711 952.1 445.074 946.245 444.151 940.775L438.952 910.21C434.972 888.085 430.215 866.11 424.692 844.32C422.216 834.5 417.736 817.295 414.249 807.595L413.319 804.115Z" fill="#373737" fill-opacity="0.980392"/>
<path d="M654.025 822.35C658.335 822.32 659.14 823.63 661.405 826.99C661.85 833.6 662.655 837.81 656.415 841.665C646.645 839.885 647.065 827.79 654.025 822.35ZM655.92 839.195C660.7 835.04 661.38 827.15 655.04 824.19C650.585 828.225 649.275 837.325 655.92 839.195Z" fill="#373737"/>
<path d="M420.847 781.255L422.076 781.03L422.428 781.43C422.267 781.56 422.106 781.695 421.944 781.83C401.064 788.62 352.62 787.08 334.092 782.845C332.829 782.61 332.472 782.395 331.28 781.88C332.374 781.245 351.606 783.165 354.153 783.375C368.811 784.54 383.537 784.57 398.2 783.47C405.787 782.89 413.236 781.815 420.847 781.255Z" fill="#373737"/>
<path d="M874.255 809.695L875.55 809.68L875.91 810.195C874.235 811.395 868.165 812.115 865.845 812.5C846.13 815.75 825.925 817.375 806.005 819.01C796.38 819.805 787.135 819.9 777.44 821.09C776.61 821.03 776.455 820.955 775.64 820.75C779.43 818.6 812.51 816.58 819.295 815.925C837.64 814.1 855.965 812.025 874.255 809.695Z" fill="#373737"/>
<path d="M873.71 815.7C875.515 815.585 874.8 815.3 876.12 816.08C873.755 818.295 815.61 824.485 808.76 825.06C799.06 825.81 789.345 826.395 779.625 826.82C778.365 826.93 778.22 826.875 776.95 826.685L776.765 826.145C780.58 824.195 800.91 823.58 806.725 823.245C829.355 821.94 851.365 818 873.71 815.7Z" fill="#373737"/>
<path d="M692.66 206.072L693.86 206.47C697.82 210.869 698.58 216.322 701.62 221.355C707.13 230.477 717.94 230.354 725.86 235.301C733.845 240.284 738.13 255.515 739.945 264.358C735.855 258.902 734.195 252.438 731.485 246.77C726.115 235.532 720.075 234.349 709.56 231.824C701.515 229.893 695.9 213.8 692.66 206.072Z" fill="#373737" fill-opacity="0.988235"/>
<path d="M374.214 230.219L375.717 230.206L375.733 230.739C370.214 232.34 363.075 233.091 357.388 234.669C341.451 239.093 328.331 244.465 313.746 252.03C313.009 252.359 313.471 252.215 312.316 252.279C312.392 252.152 312.468 252.025 312.544 251.898C325.767 240.356 359.172 231.488 374.214 230.219Z" fill="#373737" fill-opacity="0.988235"/>
<path d="M474.032 272.797C479.2 273.232 481.884 281.25 482.83 285.551C485.218 296.401 483.933 310.752 477.964 320.254L477.496 320.732C475.948 317.627 491.015 294.689 474.032 272.797Z" fill="#373737"/>
<path d="M606.625 231.951C597.955 228.156 590.98 217.73 592.34 208.098C592.575 206.417 592.87 204.248 594.235 203.224C594.72 204.253 594.785 207.948 594.75 209.279C594.495 219.119 600.555 223.8 606.71 230.204L606.625 231.951Z" fill="#373737" fill-opacity="0.984314"/>
<path d="M692.66 206.072C691.285 205.749 691.135 205.72 690.14 204.716C692.03 204.315 705.415 206.691 710.41 206.422C713.915 206.234 727.325 203.015 728.33 203.195C726.815 204.976 719.78 206.919 717.41 207.543C709.285 209.681 701.85 208.429 693.86 206.47L692.66 206.072Z" fill="#373737"/>
<path d="M748.355 231.699C748.64 231.798 748.42 231.693 749.17 232.256C748.13 240.282 747.48 248.705 746.235 256.698C745.95 258.538 744.99 258.667 743.45 259.548L742.705 259.306C746.425 250.369 743.87 241.35 748.355 231.699Z" fill="#373737"/>
<path d="M685.875 325.429C686.38 325.819 686.155 325.546 686.4 326.361C680.135 332.383 665.18 336.009 656.615 335.534C656.4 335.263 656.345 334.898 656.225 334.574C657.575 333.588 666.115 333.152 668.94 332.299C675.295 330.381 680.11 328.927 685.875 325.429Z" fill="#373737" fill-opacity="0.988235"/>
<path d="M682.875 835.155C686.71 834.925 700.96 834.335 703.265 835.855L702.88 836.74C699.255 837.03 685.04 838.02 682.84 836.345L682.875 835.155Z" fill="#373737"/>
<path d="M298.595 305.451C293.888 296.371 293.04 287.734 295.192 277.439C295.273 277.053 295.454 276.758 295.638 276.419C296.741 288.182 293.274 291.302 299.603 305.153L298.595 305.451Z" fill="#373737" fill-opacity="0.972549"/>
<path d="M432.125 972.315L433.181 972.415C433.517 974.86 434.084 977.775 432.948 979.87L432.693 979.215L433.295 980.035L433.02 979.98C432.131 977.545 432.232 974.945 432.125 972.315Z" fill="#111012" fill-opacity="0.87451"/>
<path d="M251.64 864.855L252.736 865.125C252.153 866.62 251.243 869.3 249.982 870.1C249.895 868.395 250.93 866.5 251.64 864.855Z" fill="#373737" fill-opacity="0.882353"/>
<path d="M470.997 759.415C471.528 758.76 471.505 758.545 471.83 757.72C472.096 759.815 472.375 761.835 472.522 763.945L471.534 763.905C470.883 762.295 471.014 761.145 470.997 759.415Z" fill="#373737" fill-opacity="0.980392"/>
<path d="M413.319 804.115L414.249 807.595L413.192 809.675L412.343 804.585L413.319 804.115Z" fill="#111012" fill-opacity="0.0431373"/>
<path d="M708.55 186.806C710.175 185.82 710.78 185.075 712.42 185.005C711.63 186.393 710.15 186.917 708.66 187.604L708.55 186.806Z" fill="#373737" fill-opacity="0.870588"/>
</g>
<defs>
<clipPath id="clip0_16_5128">
<rect width="1024" height="1024" fill="white"/>
</clipPath>
</defs>
</svg>
