<svg width="1024" height="1024" viewBox="0 0 1024 1024" fill="none" xmlns="http://www.w3.org/2000/svg">
<g clip-path="url(#clip0_16_5194)">
<path d="M613.76 199.686C595.86 194.424 581.37 156.586 613.805 150.495C607.14 155.24 598.98 158.071 597.625 167.232C595.725 180.1 604.555 191.496 614.41 198.215C615 196.807 615.245 195.708 616.49 194.895C617.445 196.487 615.56 206.721 615.56 209.234C615.575 221.043 610.92 239.363 618.355 249.41C630.535 265.874 614.29 285.104 615.56 302.217C615.88 306.502 632.14 304.988 633.525 309.786C637.135 317.037 633.475 319.715 641.695 323.609C642.03 326.421 642.34 329.365 642.725 332.158C644.255 333.399 647.31 335.773 648.185 337.309C654.48 348.332 648.99 361.953 667.26 361.211C684.7 360.503 699.48 337.482 709.685 361.925C714.415 355.929 718.815 350.633 724.49 345.393C744.02 327.364 774.56 312.13 800.95 308.849L801.15 308.827C797.985 301.94 795.97 296.312 793.88 289.017C787.3 291.115 775.15 288.904 768.94 285.593C757.605 279.547 753.945 266.765 749.29 255.645C747.07 250.311 744.61 245.08 741.915 239.968C756.945 252.315 754.505 284.469 779.93 286.21C786.475 286.658 788.535 287.181 795.33 286.436C797.965 292.085 801.415 302.278 803.31 308.441C807.01 308.336 810.35 307.729 813.15 310.388C815.915 313.011 818.105 319.672 819.615 323.423C822.3 323.609 826.255 323.762 827.725 326.17C832.44 333.913 843.255 350.688 846.29 358.346C865.96 373.911 886.695 389.45 904.185 407.319C925.18 428.773 930.925 461.76 934.85 490.431C941.6 538.45 928.875 585.485 920.13 632.34C912.595 672.12 904.91 711.275 902.925 751.935C902.05 769.945 904.485 785.65 906.74 803.425C908.895 821.275 911.26 839.095 913.83 856.89C919.26 897.54 924 938.28 928.055 979.095C922.52 982.925 917.35 985.15 910.805 986.415L910.06 985.745L909.6 986.06C912.625 983.18 921.06 979.87 925.18 977.945C920.765 934.42 915.63 890.97 909.79 847.615C907.175 828.165 904.285 808.625 902.16 789.125C901.06 779.05 899.79 768.295 900.05 758.165C901.365 707.41 912.265 658.415 921.685 608.77C926.09 585.535 932.455 557.26 933.745 533.445C935.595 499.328 929.465 451.945 912.085 421.949C905.36 410.342 889.935 397.387 879.845 388.81C868.35 379.035 853.385 369.264 843.1 358.444C807.285 360.25 772.305 362.542 740.05 380.047C726.13 387.6 713.045 396.96 699.96 405.85C686.615 414.918 671.055 424 660.23 436.027C630.945 468.558 634.24 564.43 627.325 608.375C625.945 617.125 623.345 625.695 621.06 634.24C618.09 645.325 615.465 656.3 613.935 667.69C613.34 672.14 612.625 676.65 612.9 681.15C613.12 684.74 613.545 688.275 613.155 691.87C611.045 693.775 605.295 693.815 602.08 694.44C598.855 697.375 596.675 702.79 593.585 704.74C588.7 707.575 582.535 707.155 577.3 709.07C560.195 715.375 544.535 725.19 526.4 728.48C511.92 731.11 497.24 734.99 482.878 738.025C478.303 738.995 441.023 745.225 440.42 746.875C431.78 770.495 446.008 821.17 459.826 841.48C491.947 835.91 531.415 825.77 563.245 817.38C589.28 810.515 682.51 789.46 695.545 767.82C720.325 726.695 736.555 668.195 751.155 622.35C761.975 588.16 772.895 556.5 765.23 520.995C757.655 479.757 735.015 423.216 683.52 426.398C680.4 426.591 673.985 429.114 670.67 430.034C679.85 423.9 688.94 423.192 699.7 425.197C717.62 428.535 733.85 442.459 743.63 457.386C765.6 490.927 774.47 541.915 766 580.925C762.2 596.74 757.385 612.6 752.525 628.135C742.65 659.67 733.25 691.825 720.725 722.455C713.805 739.37 702.715 770.34 686.755 780.365C672.67 789.215 652.915 794.73 637.145 800.095C632.02 801.775 623.925 804.63 618.89 805.31C617.09 819.11 612.54 832.665 612.045 846.125C612.23 846.235 612.415 846.35 612.6 846.46C622.985 852.495 675.295 864.705 685.925 861.96C687.33 861.595 688.395 861.025 689.12 859.685C692.605 853.22 692.57 829.315 695.325 826.73C697.535 829.96 694.42 850.31 693.535 854.955C692.96 857.945 691.995 861.865 689.26 863.62C681.695 868.475 642.515 858.98 633.325 856.5C627.555 854.925 621.835 853.175 616.165 851.265C614.515 875.845 611.685 900.865 609.605 925.51L606.785 959.79C606.36 965.305 606.255 980.51 604.49 984.575L603.98 984.285C602.175 976.525 603.715 966.72 604.2 958.705C606.385 922.605 610.71 886.63 613.755 850.63C612.01 849.475 609.615 848.15 609.55 845.965C609.195 834.485 614.05 817.935 616.34 806.62C569.245 818.155 519.555 833.92 471.935 842.18C479.943 861.71 487.769 884.94 494.305 904.995C500.925 925.235 507.225 945.58 513.205 966.02C514.53 970.635 518.455 980.86 517.96 985.5C515.42 984.925 509.405 962.46 508.335 958.985C503.025 941.19 497.485 923.47 491.708 905.82C487.441 892.9 483.052 880.015 478.54 867.18C476.027 860.195 471.52 849.23 469.595 842.48C465.091 843.35 461.64 844.645 457.423 841.88C454.202 839.77 449.681 828.775 448.603 824.995C435.038 825.76 435.159 822.585 430.309 810.835C422.27 813.87 412.682 817.815 404.412 819.33C390.472 821.775 376.254 820.68 362.163 820.185C356.387 819.985 349.119 819.99 343.401 819.02C335.587 817.695 323.476 812.605 319.367 805.425C317.872 802.81 320.517 800.185 322.088 798.2C319.933 795.2 303.914 791.53 304.34 783.1C304.415 781.615 306.09 778.86 306.893 777.535C303.273 774.665 294.94 771.01 300.4 764.995C302.026 763.205 304.467 762.97 305.091 760.695C304.393 758.56 303.202 755.74 304.323 753.855C305.563 751.775 307.209 750.37 309.473 749.785C318.34 747.505 328.009 747.75 337.12 747.09C349.191 746.24 361.166 744.355 372.911 741.445C370.763 740.255 368.642 739.135 366.304 738.345C357.227 735.285 341.626 733.925 338.556 722.63C337.982 720.52 337.969 717.995 339.119 716.07C339.743 715.025 340.896 714.04 342.072 713.7C346.344 712.465 393.533 722.63 399.463 724.74C392.051 703.155 385.646 681.24 380.266 659.065C377.765 649.075 375.463 639.045 373.104 629.02C371.873 623.795 367.64 620.91 365.037 616.685C363.386 614.01 360.657 607.61 359.544 604.525C348.087 572.755 352.636 527.795 366.197 497.228C370.333 487.905 379.508 476.313 389.42 473.237C392.969 472.135 394.778 472.31 398.372 472.411C389.276 469.15 375.111 463.083 366.065 468.372C332.747 487.853 322.525 539.125 313.886 574.215C309.246 593.065 320.666 629.285 319.217 649.79C318.471 660.34 318.056 665.12 309.989 672.89C310.698 686.235 309.24 691.39 296.692 697.325C295.576 705.985 295.869 716.895 287.379 721.76C288.371 727.27 290.119 732.16 291.056 737.04C293.58 750.185 296.343 768.03 294.757 781.18C294.003 776.73 294.106 772.875 293.594 768.66C292.297 757.985 291.057 743.735 288.186 733.445C287.767 745.325 288.563 759.235 288.535 771.485C288.198 775.135 287.606 790.185 288.936 792.895L290.556 793.44C287.62 799.8 289.14 810.465 288.933 817.54C288.641 827.56 288.633 837.695 288.543 847.725C288.291 870.135 287.643 892.54 286.6 914.93C286.138 925.39 286.038 937.71 284.301 947.935C282.823 956.635 279.63 960.05 272.655 964.725C270.946 974.97 270.007 979.215 259.44 983.19C257.397 983.96 253.09 988.15 250.92 987.39C251.017 982.695 259.347 981.465 262.848 978.795C268.775 974.275 269.096 970.125 270.289 963.415C282.26 954.22 282.458 948.14 283.351 933.69C284.127 921.14 284.547 908.51 285.042 895.945C286.402 854.565 286.896 813.16 286.525 771.755C286.542 756.28 286.362 740.805 285.985 725.335C285.87 719.54 285.944 708.3 285.202 703.015L284.098 702.115C285.568 698.085 285.595 682.275 284.66 678.38C281.095 676.865 275.927 681.14 275.68 684.98C277.055 686.43 279.898 685.17 281.766 684.665C280.443 686.815 277.78 687.87 275.326 687.35C270.87 683.135 277.774 676.6 284.351 676.88C286.274 673.39 279.649 551.3 281.412 537.85C281.588 536.51 280.562 530.14 281.892 529.555C282.582 539.21 282.651 551.23 282.95 561.02L284.673 621.42L285.731 656.035C285.984 662.515 286.667 670.885 286.452 677.125C288.363 674.825 290.824 671.695 292.83 669.59C293.419 665.9 293.944 662.655 294.257 658.935C289.346 654.065 285.387 644.5 288.533 637.985C291.685 636.095 294.762 642.71 295.774 645.02C296.267 646.175 296.721 647.35 297.135 648.535C298.487 640.175 300.06 631.85 301.854 623.57C296.867 623.705 292.9 623.77 289.096 620.015C284.876 615.855 286.703 610.34 291.919 608.315C294.258 604.32 289.037 600.245 297.911 602.665C297.935 599.315 297.592 595.565 299.364 592.76C302.04 591.365 303.328 593.66 304.777 595.695L304.517 595.97L303.975 595.65C302.542 594.83 301.975 594.305 300.336 594.36C297.056 597.965 300.898 606.285 302.744 609.97C300.698 607.675 297.39 602.975 294.351 603.06C293.031 604.885 293.963 607.83 294.374 610.01L293.834 610.52C291.674 610.345 291.617 609.955 289.983 611.265C288.945 612.105 288.212 613.26 287.896 614.56C288.414 620.9 297.29 622.075 302.269 622.06C303.402 615.27 305.972 600.965 307.975 594.77L308.661 594.57L308.681 594.24L308.233 594.09L308.409 593.725L308.72 593.62L308.759 593.875L308.183 594.455L308.169 594.545L308.708 595.19C308.321 598.305 303.931 621.435 304.134 621.895L305.201 622.25C304.696 624.04 302.825 625.005 302.605 626.14C301.469 632.01 300.704 638.025 299.253 643.84C297.184 652.125 296.331 660.83 294.399 669.095C307.65 657.845 309.686 652.36 311.158 635.225L311.684 635.47C314.589 650.8 305.807 661.76 294.769 670.79C293.23 681.17 290.271 689.055 287.717 698.865C286.587 703.21 287.597 714.5 287.57 719.655C290.969 714.19 292.282 710.04 293.115 703.715C293.434 701.29 293.664 698.81 294.648 696.55C298.014 688.795 307.85 697.86 307.552 671.765C316.128 662.465 317.092 657.28 316.596 644.605C316.035 630.265 312.636 614.83 311.317 600.61C309.687 583.035 307.856 565.25 306.316 547.7C302.168 500.395 302.316 453.13 302.059 405.693C301.71 376.82 301.903 347.944 302.639 319.078C303.494 294.597 304.748 270.451 311.058 246.754C311.821 243.889 312.024 240.536 312.771 237.872L313.903 237.531L312.913 237.387L313.957 237.021L313.07 236.887L313.962 234.86L314.454 235.243C314.974 241.848 313.701 246.403 312.308 252.852C309.081 267.793 306.811 283.349 306.501 298.622C311.086 304.039 313.385 306.791 319.592 310.362C323.026 312.337 333.319 313.464 334.666 314.774C323.502 318.265 312.843 308.725 306.095 301.254C305.332 314.209 305.678 330.42 304.569 342.663C310.931 342.756 314.384 342.168 320.246 339.661C322.224 338.815 325.364 336.011 326.344 336.715C324.674 343.031 310.146 345.098 304.563 344.977C304.531 349.794 304.557 354.73 304.445 359.535L305.106 359.322C316.019 355.699 323.073 346.354 328.591 336.791C329.91 334.505 332.561 329.861 334.419 328.177L334.933 328.444C334.537 333.651 327.235 344.312 324.114 348.477C319.124 355.134 312.302 360.12 304.337 362.565C305.306 402.552 304.606 443.072 305.622 483.279C306.622 513.645 308.503 543.975 311.264 574.23C318.746 540.975 332.674 478.121 368.117 464.749C353.955 458.466 342.479 451.858 336.066 437.069C342.925 444.67 347.438 450.438 356.192 455.887C354.174 444.347 359.068 430.109 365.101 420.137C371.397 409.729 379.942 416.689 386.209 420.971C403.064 432.488 414.987 436.519 422.674 413.708C423.456 411.387 428.205 409.046 430.771 407.823C431.736 405.701 431.585 405.088 433.195 403.941L433.975 404.391C434.828 411.013 427.382 411.098 425.618 413.741C419.533 423.051 422.028 430.797 408.665 432.789C395.197 434.798 383.64 419.134 373.999 417.304C363.356 415.284 357.956 449.829 357.944 456.517C360.805 458.145 366.626 461.515 369.735 462.163C376.895 463.655 381.74 463.865 388.879 466.035C397.259 468.583 398.646 470.981 404.893 474.47C420.188 483.01 427.938 490.179 432.821 507.505C435.899 518.425 436.872 529.65 439.123 540.66C440.226 546.055 447.762 559.77 451.036 564.405C452.21 558.395 454.085 543.515 459.178 540.04C463.212 537.285 469.979 535.55 474.308 532.92C479.396 530.14 477.739 524.72 484.045 525.07C485.649 525.16 491.585 521.28 495.125 520.205C498.58 520.95 511.6 524.455 513.61 524.615C514.265 523.185 510.86 516.89 520.145 514.06C525.1 512.55 541.97 505.66 546.94 506.55C554.56 507.46 583.505 517.77 587.355 523.15C594.265 532.795 600.885 550.34 606.905 561.485C615.22 576.885 612.645 572.655 627.355 579.775C628.84 562.045 629.835 542.815 631.87 525.36C632.89 516.645 633.965 507.935 635.105 499.234C635.65 495.365 637.285 487.208 637.1 483.772C636.21 482.962 635.92 482.875 634.84 482.299C630.375 484.644 625.995 487.252 620.845 487.665C617.095 487.966 608.495 488.948 610.39 482.575C614.47 477.951 623.52 476.928 629.325 477.717C624.4 475.299 616.855 471.328 614.32 465.816C613.645 464.349 614.575 462.742 615.275 461.415C614.885 459.609 614.77 459.471 614.015 457.858C614.03 455.943 614.35 455.586 615.2 453.906L616.225 453.371L616.765 453.815C616.56 455.652 615.645 459.266 617.03 459.981C622.71 462.904 624.045 466.33 628.025 470.623L628.035 471.169C621.18 467.288 624.235 465.117 616.58 463.516L615.805 464.04C616.22 466.694 619.935 469.299 621.885 470.948C628.92 476.9 629.395 470.521 636.34 476.215L636.29 476.943C633.86 478.477 631 474.443 628.325 474.457L628.005 474.964C629.445 477.222 635.04 480.408 637.68 482.755C637.89 481.173 639.155 475.018 638.965 474.371C634.245 473.299 633.72 473.712 631.235 468.832C629.675 465.772 631.6 461.749 630.065 459.983C628.09 459.506 620.78 460.361 620.59 459.706C619.12 454.674 620.415 453.517 617.49 448.711C618.555 445.651 619.09 442.787 621.92 441.232C625.595 441.048 626.84 441.207 630.35 440.012C633.835 435.533 637.475 434.957 642.2 438.469C646.615 441.748 644.64 447.578 646.305 450.121C648.215 449.722 649.595 446.103 649.65 444.307C645.525 442.393 646.715 441.505 646.425 436.93C645.095 436.003 645.56 436.467 644.115 436C634.4 432.862 635.245 418.876 636.355 412.085C653.71 424.805 644.565 437.155 649.52 442.782L650.39 442.858C651.125 440.552 648.29 437.227 649.19 433.213L649.385 432.318C650.35 428.037 653.47 419.174 658.645 419.417C660.2 421.466 659.605 426.799 659.23 429.352C659.06 430.461 658.855 431.565 658.62 432.662C670.61 422.022 677.525 417.562 690.36 408.491C687.56 403.47 680.34 381.723 685.905 376.243C688.805 373.39 700.25 378.49 704.235 380.527C705.135 374.798 706.085 369.762 707.975 364.254C706.135 360.902 703.65 354.731 699.71 353.56C690.87 350.934 663.79 376.511 651.65 356.783C646.96 349.161 650.665 341.84 642.285 335.225L640.255 333.612L639.255 325.098C636.385 324.138 635.675 323.227 633.41 321.124C630.495 297.422 614.75 315.759 612.485 300.851C611.37 293.554 621.04 271.536 620.505 262.698C620.82 254.755 613.845 250.034 612.32 242.725C610.82 229.38 612.585 213.035 613.76 199.686ZM402.513 726.745C412.187 733.75 419.07 739.635 428.297 746.81C436.453 744.645 444.431 742.015 452.711 740.64C473.388 737.2 494.36 732.425 514.77 727.655C522.13 725.935 530.155 724.96 537.48 723.125C523.37 721.435 480.062 721.24 469.103 714.19C465.089 704.91 461.247 684.555 458.979 674.02C451.315 639.55 444.969 604.8 439.953 569.84C436.805 546.845 434.837 519.275 426.029 497.635C422.011 487.762 404.213 473.847 393.159 474.651C357.073 484.374 350.398 566.19 359.557 596.005C362.587 605.87 365.187 613.485 371.688 621.5C369.983 614.275 364.093 590.645 363.602 584.44C368.978 594.83 371.375 607.965 374.105 619.335C377.271 632.525 379.905 646.13 383.264 659.24C386.875 673.5 390.776 687.68 394.964 701.78C397.304 709.69 400.423 718.94 402.513 726.745ZM630.96 458.618C632.9 454.345 634.885 452.034 638.06 448.59C636.19 447.797 634.57 447.014 632.585 446.572C628.44 447.673 625.615 447.636 626.27 452.87C628.195 452.149 628.205 452.252 629.57 450.793C629.895 449.782 630.21 448.769 630.515 447.753L631.295 447.573C633.155 449.921 629.37 455.112 625.725 454.432C622.26 450.7 624.155 444.5 630.15 445.003C638.465 445.7 635.535 443.092 637.975 437.397C637.93 439.95 637.405 445.016 638.09 446.884C640.185 449.022 641.11 448.23 644.04 447.67C642.34 438.963 642.315 439.862 634.8 438.466C632.66 439.201 632.105 440.521 630.79 442.437C624.215 441.747 618.415 442.803 620.57 451.264L621.275 451.886L621.69 451.414C622.19 450.853 622.5 450.549 623.04 450.043L623.425 450.451C622.945 453.402 621.34 454.298 621.71 456.662C623.32 458.151 627.255 457.422 630.96 458.618ZM539.42 538.24C543.565 539.31 546.58 539.935 550.605 541.515C556.13 543.68 562.16 547.27 567.87 548.38L568.645 548.31C571.885 548.805 575.7 549.02 578.225 551.01L577.565 551.49C564.88 553.66 553.05 543.575 540.9 541.315C538.49 539.865 530.09 542.225 530.745 546.17C532.795 558.58 554.765 560.755 562.33 567.715C566.795 571.825 568.635 580.74 571.97 585.56C576.905 592.7 582.455 594.625 587.77 600.055C572.325 594.765 567.845 585.165 562.495 570.72C554.08 564.56 546.3 563.48 536.84 558.225C539.405 561.385 542.965 565.625 543.685 569.745C543.835 570.61 543.39 574.545 543.37 574.49C545.305 578.95 545.84 578.99 546.025 584.075C552.63 593.08 561.205 603.24 571.345 608.16C581.75 613.21 586.095 612.475 594.59 621.285C604.57 607.37 611.53 595.665 615.75 578.905C601.83 566.255 592.535 529.77 583.15 522.8C579.855 520.355 561.46 513.605 556.64 511.685C553.72 510.52 550.305 509.275 547.14 509.18C541.02 508.995 526.775 514.225 521.04 516.69C519.105 517.525 516.48 518.42 515.915 520.73C515.6 522.03 516.045 522.605 516.64 523.69C521.22 525.075 523.32 518.31 535.19 526.335C537.57 525.545 546.58 521.94 548.325 523.195C547.225 524.245 547.5 523.63 547.09 524.93C549.575 526.73 555.605 529.05 558.675 530.355C562.49 528.72 564.16 528.06 568.15 527.05C559.375 535.53 553.705 531.255 544.615 526.535C541.98 526.985 539.365 527.615 536.755 528.205C538.595 532.13 539.305 533.925 539.42 538.24ZM632.585 467.893C634.075 470.146 634.4 470.761 636.475 472.437C638.19 472.481 638.47 472.722 639.87 472.015C642.03 464.873 643.465 459.133 646.18 452.143C645.02 450.645 644.585 449.543 643.09 448.923C633.805 452.243 632.225 458.935 632.585 467.893ZM698.55 400.38C704.585 390.672 702.495 392.559 704.255 382.723C699.81 381.206 691.33 377.959 686.935 377.888C686.325 388.713 688.715 397.275 691.965 407.475C695.76 404.98 696.47 404.386 698.55 400.38ZM452.603 567.28C461.456 583.645 471.852 595.165 472.652 614.635C491.543 602.045 486.768 596.83 499.29 580.975C504.185 574.78 517.24 563.84 523.365 557.195C516.015 549.905 508.69 555.42 501.89 560.43C497.165 564.72 483.49 577.65 476.879 573.45L476.66 572.83C478.435 572.215 481.767 572.075 482.312 571.77C479.953 569.635 475.749 566.455 475.346 563.375C477.455 555.795 491.952 549.575 499.305 549.825C506.46 550.07 514.485 551.29 521.755 551.87C515.49 548.575 514.355 547.43 511.14 541.13C500.78 538.715 495.255 536.855 484.595 540.32C477.953 542.475 469.489 544.105 462.583 545.235C467.671 542.115 490.157 535.745 496.955 535.9C499.235 535.95 506.545 538.235 510.095 538.32C510.57 536.27 510.72 535.19 510.95 533.09C506.805 531.925 499.695 529.52 495.74 530.09C489.1 531.635 480.479 535.22 474.743 536.375C455.178 540.31 456.697 549.68 452.603 567.28ZM492.275 565.835C497.46 561.33 502.95 556.125 509.09 553.105C505.445 552.655 500.12 551.865 496.62 552.06C493.918 553.175 491.046 554.3 488.414 555.54C486.351 561.4 485.368 564.24 484.48 570.315C487.179 569.085 490.016 567.805 492.275 565.835ZM611.195 666.89C613.605 640.85 625.425 616.145 626.61 589.72C626.735 586.94 628.03 582.43 625.235 581.155C622.375 601.43 606.095 641.07 589.335 652.955L599.51 659.285C603.665 661.78 607.21 664.17 611.195 666.89ZM520.665 572.845C524.155 578.465 535.92 588.08 542.89 584.19C543.455 581.45 543.585 579.94 542.18 577.525C539.855 576.83 536.785 578.17 534.685 577.24C529.925 575.13 524.525 566.93 520.825 564.245C520.55 567.645 520.52 569.43 520.665 572.845ZM429.606 808.31C424.736 790.405 420.79 767.345 427.21 749.39C417.391 742.87 408.997 733.685 398.647 727.785C393.003 724.565 384.102 724.09 377.675 722.755L352.689 717.8C349.651 717.22 345.797 716.145 342.805 715.85C338.819 721.005 342.158 725.33 346.92 728.415C356.129 734.385 366.16 734.02 375.562 740.22C377.39 739.915 379.013 739.44 380.735 740.01L380.732 740.705C374.104 747.01 346.796 748.75 337.165 749.805C332.061 750.36 306.81 749.03 306.875 757.115C306.955 767.15 349.552 762.935 350.191 767.895C346.853 770.405 330.505 767.25 324.868 766.89C323.455 766.8 293.526 758.97 304.275 772.41C306.698 775.44 323.29 780.625 327.395 781.68C336.393 783.75 347.429 782.93 355.271 788.02C352.21 787.81 348.818 787.555 345.846 787.09C336.235 785.57 326.134 785.905 317.286 781.365C315.308 780.35 310.597 778.345 308.727 779.97C303 784.945 314.31 790.565 317.602 792.455C323.336 795.365 326.327 796.785 332.536 798.305C340.766 800.33 353.821 799.7 360.694 804.4L360.501 804.905C359.126 805.44 342.541 804.955 339.724 805C335.394 805.075 325.682 796.66 322.079 802.59C321.898 803.785 322.105 805.61 323.031 806.48C334.697 817.435 351.762 817.13 366.583 817.505C380.302 817.85 392.904 819.19 406.239 815.935C414.365 813.975 421.803 810.395 429.606 808.31ZM534.285 557.08C529.79 561.285 525.77 558.055 523.07 561.565C523.33 563.915 531.15 571.17 533.3 573.08C535.93 574.83 537.81 576.525 540.35 573.85C542.26 567.35 536.62 563.235 535.315 557.845L534.285 557.08ZM591.12 703.21C592.69 701.675 594.925 698.885 596 696.985C599.79 690.295 604.53 691.09 611.445 689.935C608.845 680.31 609.09 678.945 610.87 669.08C603.79 665.405 592.005 658.48 585.935 653.535C586.81 647.69 587.66 644.235 589.645 638.64C586.785 636.655 584.585 635.685 584.01 631.995C583.39 628.02 586.4 622.375 588.09 618.61L587.43 618.255C582.475 615.59 576.32 613.455 571.06 611.135C559.145 605.875 552.13 596.23 544.4 586.215C541.215 587.91 539.615 588.405 535.915 587.245C530.14 585.435 522.055 580.47 519.24 575.06C517.735 572.175 518.36 569.035 518.235 565.955C514.285 569.55 501.71 581.515 499.215 585.425C490.076 599.775 489.289 608.765 472.592 617.315C472.127 630.725 466.85 650.9 459.68 662.095C461.85 674.72 467.307 702.035 471.462 713.74C490.684 717.01 509.525 718.2 528.835 720.21C544.695 721.86 543.565 720.095 557.38 714.29C565.02 710.96 573.29 707.025 581.315 704.845C584.29 704.035 587.98 703.85 591.12 703.21ZM292.191 672.405C290.356 674.225 288.572 676.095 286.559 677.71C286.555 682.95 286.387 689.31 287.182 694.395C288.255 690.86 292.9 675.075 292.191 672.405ZM480.22 567.47L481.821 568.66L482.521 568.315C483.749 564.46 484.048 561.025 485.393 556.875L484.962 556.51C480.899 558.445 480.026 559.17 476.743 562.5C477.804 564.06 479.065 566.025 480.22 567.47ZM527.87 552.7L524.845 552.825C523.895 553.965 524.14 553.32 524.145 554.85C525.29 556.555 525.24 556.475 526.93 557.675L529.005 557.89C531.165 557.495 531.205 557.87 532.39 556.6C532.225 554.155 530.32 552.49 527.87 552.7ZM591.61 647.68C593.12 645.92 594.475 644.355 595.885 642.5C593.74 641.48 592.825 641.035 590.89 639.685C590.53 641.84 589.075 647.755 589.26 649.16L589.84 649.315L591.61 647.68ZM440.466 552.345C442.365 565.36 444.321 578.515 446.027 591.555C448.957 613.94 455.188 636.575 458.553 658.725C459.725 655.98 460.877 653.23 462.01 650.465C476.6 612.375 469.696 600.135 449.257 567.69C447.331 564.63 442.796 554.215 440.466 552.345ZM513.67 526.93C509.18 525.815 498.445 522.84 494.235 522.99C492.13 524 486.741 526.4 485.724 528.355L485.874 529.425C490.414 530.565 493.092 526.315 502.75 528.36L503.625 528.54L504.145 528.655L511.57 531.13C512.225 529.725 512.86 528.245 513.67 526.93ZM656.86 421.848C653.59 425.409 647.885 436.695 652.11 440.697C654.18 438.077 655.64 436.379 656.545 433.071C657.25 430.488 659.015 423.956 656.86 421.848ZM611.695 484.647C616.085 485.352 620.01 486.26 624.385 485.341C627.48 484.212 630.19 482.882 633.16 481.475C628.575 479.162 626.83 478.429 621.395 479.095C616.795 480.56 615.385 481.485 611.695 484.647ZM528.82 543.41L531.015 540.385C529.945 538.595 520.12 536.105 517.325 534.755C517.445 537.525 517.32 538.575 519.42 540.54C521.63 542.615 525.095 544.6 528.165 544.73C528.87 543.83 528.715 544.295 528.82 543.41ZM589.675 619.64C588.68 622.39 587 626.525 586.66 629.28L587.12 629.74L588.36 628.98C590.24 626.8 591.82 624.945 593.55 622.635C592.49 621.75 590.81 620.225 589.675 619.64ZM523.41 524.09C504.7 528.99 513.545 552.84 528.085 550.125L528.755 549.64C528.14 544.105 519.87 549.365 515.99 539.32C515.81 535.755 515.695 531.055 518.64 528.79C527.455 522.01 533.79 530.775 534.83 538.41C536.17 538.57 536.08 538.605 537.305 538.04C538.27 530.155 530.985 524.225 523.41 524.09ZM646.045 434.612C646.065 427.387 643.83 419.538 637.475 415.322C637.38 423.082 637.24 431.497 646.045 434.612ZM295.266 656.765C295.76 650.99 294.72 641.37 289.082 638.22C289.051 642.56 289.351 656.09 295.266 656.765ZM618.36 578.235C614.655 593.785 600.895 623.85 587.555 632.2C587.145 632.455 586.73 632.705 586.31 632.945C588.81 634.715 591.45 636.505 593.825 638.43L597.045 640.66C606.985 626.67 621.33 597.67 622.79 580.735L618.36 578.235ZM531.1 537.53L532.2 537.875C533.465 534.76 530.07 530.125 526.98 529.345C524.91 528.825 524.215 528.84 522.08 529.01C520.235 530.505 520.135 530.125 519.4 532.025C520.53 534.54 528.14 536.055 531.1 537.53ZM434.052 748.06C430.308 748.86 431.216 748.5 429.273 752.02C423.065 763.265 429.2 818.31 441.073 822.39C443.3 822.625 445.343 822.875 447.589 822.93C439.484 802.15 433.893 780.66 434.891 758.205C435.029 755.1 436.097 751.345 435.723 748.32C434.819 748.085 434.959 748.04 434.052 748.06ZM805.585 311.209C773.62 314.449 736.205 333.745 715.83 358.595C708.3 367.778 706.485 376.815 705.84 388.588C707.635 386.321 709.45 384.07 711.15 381.729C740.145 346.855 769.745 324.988 817.275 323.396C813.205 317.112 814.375 310.29 805.585 311.209ZM842.54 356.027C839.21 350.922 836.05 345.712 833.055 340.404C827.685 330.93 827.895 325.161 815.855 326.22C774.255 329.757 745.8 345.464 718.825 377.134C711.965 385.189 706.395 394.862 699.99 402.331C705.745 398.339 711.545 394.413 717.385 390.552C725.055 385.445 732.72 380.382 740.955 376.208C772.875 360.029 807.205 356.161 842.54 356.027Z" fill="#373737"/>
<path d="M555.825 533.245L556.67 534.02C556.545 536.65 554.735 538.43 553.085 540.44L552.525 540.065C552.3 538.53 554.84 534.88 555.825 533.245Z" fill="#373737" fill-opacity="0.960784"/>
<path d="M578.11 533.885C574.845 540.045 573.03 542.875 568.645 548.31L567.87 548.38C569.4 543.345 574.32 537.485 578.11 533.885Z" fill="#373737" fill-opacity="0.952941"/>
<path d="M299.167 254.844C299.683 257.076 295.995 266.039 295.166 268.604C281.824 309.904 272.234 353.448 263.78 395.969C252.324 454.347 243.859 513.275 238.419 572.515C233.2 629.365 230.704 684.975 228.167 741.88L225.57 793.375C224.819 808.055 221.874 827.19 230.505 840.035C232.776 843.415 236.387 846.15 239.552 848.685C239.349 862.94 241.285 862.93 251.988 870.89C252.442 885.09 253.887 887.77 266.456 894.775C266.458 904.35 266.462 909.63 274.143 916.14C276.062 917.77 277.515 919.58 278.701 921.79C280.492 925.13 281.264 934.23 280.017 937.76C277.923 937.575 278.391 929.815 277.865 927.38C276.455 920.845 274.009 919.54 269.611 915.11C263.811 909.27 263.954 903.86 263.986 896.38C252.796 891.29 249.474 884.22 249.568 872.325C239.754 865.705 236.295 862.19 237.334 849.815C232.812 846.695 231.276 845.43 227.977 841.07C224.745 847.83 215.106 862.225 210.801 869.17C201.068 884.935 191.709 900.93 182.732 917.135C171.823 937.08 162.502 957.525 152.414 977.845C151.077 980.535 150.28 983.995 148.075 986.03L147.105 985.955L146.68 985.27C147.483 981.02 153.46 970.305 155.395 965.895C166.915 939.64 180.252 915.575 194.529 890.74C204.636 873.915 215.877 854.9 226.926 838.76C220.238 824.635 222.316 813.095 223.033 798.035L225.602 753.285C227.028 730.12 227.185 706.295 228.742 682.99C229.512 671.475 230.558 657.545 230.423 646.21C230.375 642.185 223.794 628.245 221.981 623.005C213.356 598.09 206.825 577.825 205.288 551.325C204.634 555.94 203.29 560.01 202.642 564.475L202.578 564.94C202.5 555.555 231.617 393.88 235.355 387.672C235.617 388.913 230.851 412.637 230.24 415.97L220.398 470.583C218.845 478.769 213.955 501.82 213.663 509.11C212.166 546.355 218.988 583.07 232.939 617.275C233.168 600.95 236.145 574.01 237.8 557.445C244.545 488.637 255.599 420.32 270.897 352.897C277.853 321.96 286.872 283.946 299.167 254.844ZM230.024 637.865L230.845 638.89C231.957 637.525 232.342 624.7 232.277 622.155C232.224 620.09 230.054 614.745 229.126 612.5C218.229 586.175 213.204 557.15 212.101 528.775C212.009 526.415 212.092 522.935 211.209 520.825C210.189 525.665 206.465 542.465 206.616 546.85C207.584 574.915 219.395 612.46 230.024 637.865Z" fill="#373737"/>
<path d="M475.712 264.303C476.936 267.297 475.029 269.714 474.371 272.766C482.476 283.882 476.955 319.242 469.893 330.856C465.978 337.297 461.127 341.252 459.452 349.5C457.074 361.202 464.33 374.172 460.21 385.02C457.585 388.705 450.369 387.373 446.836 388.207C438.7 390.127 445.262 400.159 436.117 401.423L435.521 400.941C436.142 399.331 437.32 398.896 438.918 397.724C439.497 393.907 439.593 392.165 441.385 388.724L444.842 386.191C449.977 385.386 455.323 386.304 458.75 382.408C460.341 377.332 455.033 357.246 456.97 349.153C458.938 340.929 461.802 339.579 465.639 332.917C477.11 313.001 476.47 294.009 474.279 272.488C472.955 275.406 471.373 278.2 469.552 280.837C453.164 305.062 428.783 317.44 400.791 322.852C391.455 333.03 385.069 335.775 373.116 341.919C355.41 351.02 351.796 370.357 355.06 388.438C356.015 393.728 356.307 405.438 350.426 407.974C350.53 405.444 354.217 402.789 353.714 396.567C353.345 392.008 352.702 389.973 351.549 385.193C348.378 372.039 347.517 365.343 351.809 352.719C347.53 351.424 345.612 348.677 343.413 345.123C342.714 343.754 342.078 342.354 341.507 340.927C337.886 332.124 336.844 322.524 340.534 313.577C325.999 305.553 311.158 289.536 308.927 272.595C319.081 293.839 332.036 312.505 357.393 315.297C383.48 318.169 414.261 308.543 433.874 291.079C439.032 286.439 444.057 281.652 448.941 276.724C452.017 273.653 455.957 269.274 459.354 266.804C453.259 275.353 411.383 318.87 402.648 315.813C408.943 313.104 416.67 307.14 421.61 302.307C400.909 314.586 387.142 317.392 363.578 318.051C379.339 321.449 397.741 321.894 413.412 317.248C435.166 310.799 454.177 297.715 467.368 279.135C470.27 275.047 473.191 268.876 475.712 264.303ZM368.163 334.578C374.964 329.867 380.888 327.214 387.795 323.108C374.299 323.18 354.669 319.651 342.297 314.194C339.736 328.6 340.859 334.658 348.672 347.894C349.337 349.021 350.371 350.014 351.613 350.477C353.47 350.077 356.928 344.7 358.595 342.911C361.617 339.668 364.529 337.117 368.163 334.578ZM352.25 371.781C354.345 338.102 380.171 341.746 398.656 322.762L393.24 323.204C392.262 323.265 389.827 323.418 389.098 323.827C370.007 334.543 348.141 346.847 351.109 372.353C351.243 373.498 350.917 373.942 351.72 374.718L351.444 375.222L351.856 375.521L352.007 375.008L351.667 374.846C352.412 373.494 352.21 373.296 352.25 371.781Z" fill="#373737" fill-opacity="0.988235"/>
<path d="M313.043 223.812C348.211 175.816 418.113 180.599 455.704 222.743C457.697 224.978 460.871 230.483 462.892 232.161C470.612 238.57 481.639 246.071 480.964 257.818C477.848 254.142 476.736 249.029 473.625 245.157C469.954 240.589 465.251 237.867 461.068 233.881C457.752 230.436 454.289 224.313 450.708 220.918C434.969 205.995 413.979 195.538 392.596 192.861C369.843 190.077 346.93 196.603 329.059 210.958C324.978 214.182 315.525 222.487 313.822 228.206C313.682 228.678 313.711 229.756 313.418 230.716L312.71 230.988C310.679 227.816 313.218 224.841 309.071 224.304C284.524 221.126 256.279 254.842 244.793 272.496C235.002 287.544 226.781 306.32 219.892 321.845C211.211 341.344 202.89 361.001 194.933 380.806C163.886 457.769 135.949 534.8 107.596 612.775C91.0795 658.195 73.7445 705.025 53.5835 748.92C48.596 759.775 41.6496 774.895 35.5039 784.85L34.8179 785.6C34.6521 783.78 35.4415 780.12 36.2694 778.525C51.8145 748.515 64.4555 717.595 76.8465 686.2C92.0455 646.825 106.729 607.255 120.895 567.495C148.893 488.643 179.116 410.598 211.529 333.455C222.62 307.781 235.1 278.719 252.678 256.778C263.114 243.753 294.785 212.083 313.043 223.812Z" fill="#373737"/>
<path d="M240.197 313.929L240.651 314.253C240.359 316.324 236.964 326.511 236.18 329.02C232.941 339.204 229.86 349.438 226.938 359.717C217.625 393.489 208.583 427.335 199.815 461.252C180.087 534.885 163.487 609.265 142.841 682.9C131.86 721.705 119.603 760.135 106.088 798.13L105.901 798.095L105.562 797.535C112.928 773.1 121.741 748.085 129.197 723.515C140.057 686.785 150.177 649.84 159.552 612.705C174.714 550.915 190.435 489.262 206.713 427.756C217.412 387.671 226.33 353.074 240.197 313.929Z" fill="#373737"/>
<path d="M191.54 635.295C192.69 638.1 186.046 672.745 185.03 678.54C170.841 759.44 156.635 840.855 133.145 919.675C128.599 934.93 122.578 956.885 115.445 970.605C115.03 969.12 124.908 939.875 126.145 935.955C130.669 921.225 134.927 906.41 138.916 891.525C161.953 806.065 174.633 721.73 191.54 635.295Z" fill="#373737"/>
<path d="M761.585 123.218C775.745 120.891 792.815 133.04 800.825 143.847C825.035 176.507 814.605 214.537 805.13 250.194C802.17 261.331 801.405 274.145 799.73 285.558C799.515 285.677 798.815 285.803 798.54 285.866C793.505 278.373 810.32 219.552 811.745 207.971C812.65 200.625 813.61 192.48 813.075 185.11C811.36 161.503 798.375 137.504 775.94 128.051C771.91 126.353 764.15 126.498 761.585 123.218Z" fill="#373737"/>
<path d="M448.032 243.078C450.776 242.82 451.698 242.607 454.449 243.13L454.703 243.732C437.537 245.506 418.988 259.712 401.522 266.831C372.717 278.572 345.613 279.109 316.811 267.08C332.91 280.495 356.335 291.422 377.434 291.652C385.481 291.74 390.398 290.459 397.235 290.318L397.513 290.746L396.371 291.175C385.214 293.895 374.989 294.301 363.706 292.27C345.444 288.982 321.391 277.047 310.599 261.596C317.608 267.23 327.731 269.047 336.388 271.121C362.79 277.449 390.014 270.976 413.585 258.447C424.586 252.599 435.841 246.17 448.032 243.078Z" fill="#373737"/>
<path d="M284.452 724.49L284.776 725.045C283.483 727.225 283.325 728.795 282.695 731.265C280.772 738.8 278.005 740.4 271.788 743.93C274.073 752.25 276.229 765.88 274.521 774.36C274.26 775.655 273.5 777.44 272.778 778.46C268.303 784.795 238.272 826.84 236.284 828.06L235.829 827.245C237.127 821.275 267.657 783.35 272.774 773.88C273.527 764.625 272.454 757.61 270.709 748.455C268.824 757.05 265.941 759.555 258.08 762.61C257.171 774.385 256.425 776.43 245.574 781.49C243.742 788.645 241.873 792.445 235.546 796.715C233.94 797.795 231.263 801.125 229.674 801.39C227.995 796.175 238.177 793.465 239.723 789.845C243.373 781.305 242.48 779.425 251.64 775.185C255.369 773.455 255.301 764.835 255.525 761.235C266.074 755.69 267.676 754.88 268.8 742.42C284.251 734.03 277.099 730.32 284.452 724.49Z" fill="#373737"/>
<path d="M714.035 106.213C721.625 106.096 729.195 107.091 736.495 109.166C740.545 110.299 759.37 117.879 757.935 122.98C756.39 122.746 751.56 119.08 749.855 118.052C716.475 97.94 683.115 115.732 653.44 131.206C650.185 132.613 645.525 134.578 642.185 135.446C627.29 139.314 621.965 139.44 611.865 151.819C612.695 148.851 613.48 145.63 615.7 143.341C623.53 135.265 636.315 135.13 646.28 131.014C653.075 128.209 658.585 125.117 664.95 121.803C680.395 113.76 696.465 107.286 714.035 106.213Z" fill="#373737"/>
<path d="M129.675 670.83C130.349 673.415 123.946 691.95 122.67 695.98C109.482 738.94 94.1425 781.21 76.7085 822.63C69.964 838.29 62.901 853.82 55.524 869.195C51.506 877.785 41.9545 899.47 36.7083 906.14C36.2444 903.78 42.2615 892.86 43.6473 889.995C47.9915 880.935 52.2695 871.85 56.482 862.735C72.447 828.79 86.9 794.15 99.798 758.925C110.432 729.475 119.339 699.905 129.675 670.83Z" fill="#373737"/>
<path d="M235.317 650.29C238.208 652.895 258.774 705.915 262.831 714.64C264.645 716.025 264.253 714.085 266.596 714.765L266.261 715.63C265.061 716.215 264.796 716.21 263.941 717.19C264.47 722.045 271.137 734.46 268.93 737.965C267.756 736.985 262.658 719.795 261.919 717.475C258.634 718.715 248.439 721.97 250.94 726.96C252.832 727.945 256.106 727.855 258.673 728.265C262.829 732.075 254.15 745.125 250.538 747.955C245.188 752.14 244.081 749.985 241.44 745.45C239.717 744.51 240.598 744.685 238.727 744.8C235.985 746.91 236.82 752.045 237.5 754.95C237.779 764.55 233.543 772.605 227.122 779.495C229.181 772.875 234.343 767.82 235.811 760.75C237.04 754.825 231.738 745.24 240.095 742.73C243.933 743.69 242.181 746.82 245.31 748.98C251.984 749.01 257.537 734.875 258.721 729.34C255.182 729.555 251.823 730.065 249.427 727.005C247.644 721.045 257.144 717.415 261.341 715.885C258.065 709 253.442 697.5 250.445 690.36C245.799 679.29 237.141 661.65 235.317 650.29Z" fill="#373737" fill-opacity="0.984314"/>
<path d="M723.13 215.657C734.545 217.106 739.735 225.942 741.205 237.613C742.71 249.582 736.95 277.311 722.26 280.132C720.61 280.449 717.05 279.763 715.6 278.491L715.865 277.893C725.895 277.509 726.075 277.148 731.65 268.594C731.84 268.268 732.025 267.939 732.205 267.606C737.71 257.323 740.13 243.16 737.24 231.768C735.09 224.146 727.78 215.935 719.16 219.015C712.29 221.469 711.47 226.553 709.085 232.483C708.65 233.567 708.475 234.014 707.45 234.352L707.05 233.693C706.55 223.69 713.455 216.913 723.13 215.657Z" fill="#373737"/>
<path d="M364.146 822.785L364.726 823.29C365.053 825.175 359.932 866.135 359.449 870.85C355.954 904.98 352.514 939.38 348.765 973.495C348.417 976.66 347.596 981.35 346.67 984.39L346.133 984.025C349.288 950.68 352.657 917.355 356.241 884.055C358.012 867.47 360.554 838.08 364.146 822.785Z" fill="#373737"/>
<path d="M384.253 209.208C393.932 207.796 422.636 211.74 430.109 218.497C429.195 218.62 425.084 216.731 423.635 216.252C398.416 207.934 370.924 209.995 347.227 221.979C335.453 228.251 325.783 235.346 316.941 245.476L316.31 246.208L316.076 245.769C316.612 243.99 318.916 241.27 320.196 239.851C336.667 221.592 360.08 211.169 384.253 209.208Z" fill="#373737" fill-opacity="0.988235"/>
<path d="M122.636 782.325L122.896 783.32C121.456 789.235 112.353 810.35 109.434 817.47C99.1065 843.11 88.1395 868.485 76.5425 893.575C73.614 899.935 66.0135 917.03 62.58 922.465C62.031 920.255 71.314 900.785 72.987 897.22C90.7165 859.4 106.107 820.63 122.636 782.325Z" fill="#373737"/>
<path d="M337.648 821.35L338.175 822.095C336.633 827.765 333.376 835.73 331.28 841.575C326.448 854.995 321.737 868.46 317.145 881.965C312.473 895.885 308.098 909.9 304.023 924.005C301.499 932.725 298.895 943.14 296.045 951.605L295.545 951.3C301.354 921.145 313.69 886.56 323.644 857.455C326.183 850.03 334.03 827.86 337.648 821.35Z" fill="#373737"/>
<path d="M419.352 832.255C424.745 838.295 436.328 965.92 436.486 980.71C435.068 978.62 433.09 950.04 432.669 945.68C430.503 921.755 427.89 897.87 424.831 874.045C423.274 861.87 420.069 843.67 419.352 832.255Z" fill="#373737"/>
<path d="M480.965 257.818C483.738 258.418 486.389 261.449 487.765 263.795C499.62 284.009 495.645 320.6 472.391 331.32L471.224 331.516L470.851 330.99C471.779 328.852 474.566 327.508 476.396 325.991C492.045 313.012 495.095 289 488.279 270.65C487.135 267.57 481.316 260.008 480.965 257.818Z" fill="#373737"/>
<path d="M299.594 236.884L300.121 237.045C299.901 237.999 294.696 242.2 293.383 243.697C274.322 265.432 260.903 294.03 252.391 321.427C251.862 323.127 252.652 329.073 252.686 331.171C251.866 330.457 251.501 327.951 251.174 326.635L250.876 325.224C249.636 325.192 250.523 327.334 248.334 329.103C248.138 328.129 250.649 319.8 251.156 318.344C259.827 293.418 276.956 251.43 299.594 236.884Z" fill="#373737" fill-opacity="0.976471"/>
<path d="M620.2 691.36C626.385 693.47 655.94 729.605 654.75 737.19L653.89 737.78C642.315 738.135 620.44 711.6 615.36 701.74L615.16 700.225L615.575 699.69C617.545 702.12 619.445 706.065 621.71 708.94C631.64 721.515 640.145 730.445 654.375 737.56C648.385 722.725 635.52 709.96 625.225 697.96C623.355 695.775 621.505 693.965 620.2 691.36Z" fill="#373737" fill-opacity="0.972549"/>
<path d="M612.775 162.065C628.225 161.648 639.84 180.263 653.895 187.186C667.75 194.01 672.95 194.638 687.84 196.52C684 197.367 682.285 197.615 678.375 197.237C660.835 196.051 645.61 186.131 633.265 174.539C629.465 170.971 623.41 166.239 618.5 164.643C613.155 162.906 611.15 164.087 606.62 166.335L606.36 165.97C608.425 163.117 609.31 162.954 612.775 162.065Z" fill="#373737" fill-opacity="0.988235"/>
<path d="M609.1 180.75C611.765 181.548 617.285 187.958 620.11 189.891C633.485 199.039 649.825 201.71 665.745 200.845C667.985 200.723 678.36 199.457 679.2 199.659L678.85 200.318C662.54 205.75 643.205 203.924 627.5 197.085C620.905 194.214 611.675 187.776 609.1 180.75Z" fill="#373737"/>
<path d="M646.185 204.333C649.5 207.162 648.82 217.034 656.67 222.491C661.39 226.309 667.755 227.297 672.94 230.249C680.695 234.668 683.31 243.134 686.725 250.734C688.205 254.036 690.595 256.377 691.565 260.156C683.285 252.805 679.905 238.584 674.57 234.672C660.355 224.255 648.405 229.255 646.185 204.333Z" fill="#373737" fill-opacity="0.984314"/>
<path d="M247.686 882.945C247.882 884.245 242.413 897.115 241.565 899.23C235.426 914.55 229.623 930 224.16 945.57C221.941 951.905 212.979 978.32 210.335 982.6C209.395 976.28 242.719 889.85 247.686 882.945Z" fill="#373737"/>
<path d="M631.955 484.853C633.85 485.11 632.95 484.792 634.615 486.121C637.315 491.702 627.63 501.715 623.345 504.63C621.565 505.135 621.295 505.085 620.235 503.845C619.345 496.855 625.825 487.991 631.955 484.853ZM623.565 502.125C626.205 499.808 636.07 489.791 633.2 486.481L632.58 486.273C626.635 490.207 623.845 494.797 622.355 501.77L622.8 502.39L623.565 502.125Z" fill="#373737" fill-opacity="0.988235"/>
<path d="M236.929 628.775C237.286 629.01 266.25 689.135 271.714 692.74C271.611 692.675 277.135 700.965 277.623 701.68C268.769 698.285 238.515 640.075 236.929 628.775Z" fill="#373737" fill-opacity="0.984314"/>
<path d="M260.183 854.265C260.39 854.48 260.596 854.695 260.803 854.91C259.978 861.475 261.135 870.17 264.958 875.66C266.576 877.985 270.791 882.04 273.066 882.31C274.216 879.735 275.736 877.56 278.746 877.345C281.482 878.675 281.786 881.24 281.325 884.055C279.055 886.61 276.998 884.38 274.587 886.42C272.683 890.125 274.825 896.555 275.898 900.585C277.562 904.63 279.893 906.905 281.417 910.915C273.588 903.05 271.272 895.44 272.957 884.605C262.84 878.14 255.591 866.3 260.183 854.265ZM278.774 884.78C279.617 883.02 279.955 882.645 279.788 880.68C278.836 879.3 278.854 879.17 276.732 878.75C275.807 880.255 274.9 881.265 275.009 882.965C276.051 884.355 276.856 884.47 278.774 884.78Z" fill="#373737" fill-opacity="0.976471"/>
<path d="M298.688 367.344C299.303 370.018 296.754 376.775 295.697 379.392C287.875 398.763 275.013 421.148 259.898 435.784C259.342 432.294 266.076 426.062 268.579 422.98C283.509 404.599 289.505 388.203 298.688 367.344Z" fill="#373737"/>
<path d="M424.958 835.29C427.004 836.715 429.191 847.255 429.9 850.01C437.217 877.63 442.983 905.635 447.169 933.9C448.01 939.23 450.494 953.43 450.493 958.175C449.636 956.21 449.111 953.175 448.81 951.05C443.195 911.52 434.93 873.965 424.958 835.29Z" fill="#373737" fill-opacity="0.956863"/>
<path d="M619.815 810.06C621.82 809.865 644.015 814.995 646.705 815.77C654.885 818.115 689.015 821.825 693.635 824.365C691.13 824.675 681.83 823.44 679.16 823.085C664.93 821.195 631.725 816.715 619.815 810.06Z" fill="#373737"/>
<path d="M624.44 805.15C627.33 804.66 631.725 805.82 634.675 806.55C653.585 811.23 672.75 813.92 691.965 816.95C693.835 817.245 694.955 817.715 696.415 818.88C687.86 819.67 633.57 809.66 624.44 805.15Z" fill="#373737"/>
<path d="M230.219 803.905C231.188 805 231.558 820.165 233.377 824.655C237.749 835.45 241.438 838.425 251.296 843.465C250.81 842.18 250.342 840.78 249.897 839.49C248.791 836.27 248.572 822.21 252.464 821.395C255.093 823.9 257.922 835.43 256.572 838.58C255.706 837.195 255.572 834.59 255.347 832.875C254.765 828.235 253.803 825.91 251.978 821.745C251.206 824.425 250.687 827.17 250.43 829.945C249.72 837.395 250.795 841.19 255.38 846.775C242.869 841.395 242.942 841.69 234.544 831.37L233.956 831.365C233.466 832.535 232.945 833.695 232.393 834.835L231.865 834.275C232.009 832.22 232.594 831.545 233.628 829.68C229.904 821.105 229.103 813.09 230.219 803.905Z" fill="#373737" fill-opacity="0.964706"/>
<path d="M270.977 266.073C270.885 267.071 260.577 273.69 258.615 275.819C249.561 285.643 246.182 298.799 245.529 311.859C245.288 316.679 245.881 320.631 245.957 325.248L245.339 325.632C240.088 304.044 247.446 273.433 270.977 266.073Z" fill="#373737" fill-opacity="0.988235"/>
<path d="M376.769 230.205C377.823 230.045 377.547 230.109 378.652 230.308C377.988 231.102 373.83 231.792 372.579 232.025C352.656 235.728 334.682 242.447 316.893 252.047C316.146 252.378 316.204 252.268 315.332 252.322L315.684 251.491C330.199 240.586 358.537 232.075 376.769 230.205Z" fill="#373737"/>
<path d="M215.728 476.995C215.865 478.109 213.938 481.176 213.358 482.42C205.878 498.457 205.039 517.07 205.062 534.505C205.065 536.955 205.279 539.355 204.576 541.69C201.869 525.675 203.673 488.68 215.728 476.995Z" fill="#373737"/>
<path d="M264.128 830.93C270.542 830.915 274.899 836.585 272.529 842.7C271.263 845.97 268.073 845.635 266.303 847.26L266.79 848.36C273.528 852.43 272.948 858.13 276.687 865.745C272.213 864.955 263.909 862.48 263.957 856.76L265.097 857.075C266.527 859.405 266.822 859.77 268.822 861.635C270.204 862.5 272.918 863.65 274.486 864.375C270.263 854.645 271.623 852.645 262.286 846.385C264.786 845.87 267.625 845.48 269.712 843.58C274.169 839.51 270.288 832.03 264.57 832.775C261.513 833.175 258.994 838.835 257.383 841.475L257.594 840.635C258.916 835.41 259.42 833.725 264.128 830.93Z" fill="#373737" fill-opacity="0.964706"/>
<path d="M476.937 272.395C482.873 274.369 485.522 282.624 486.21 288.304C487.703 300.632 485.965 312.078 478.405 322.162L477.808 322.069C486.944 304.449 488.584 289.056 476.937 272.395Z" fill="#373737" fill-opacity="0.984314"/>
<path d="M261.554 739.835C262 740.145 261.72 739.905 262.18 740.745C258.675 755.635 247.94 753.735 244.375 757.445C241.007 760.95 242.768 770.405 233.29 777.455C232.303 776.13 233.994 774.875 235.08 773.71C239.854 768.61 241.362 761.93 242.624 755.265C253.394 754.605 257.067 748.58 261.554 739.835Z" fill="#373737" fill-opacity="0.968627"/>
<path d="M273.236 942.305C276.715 945.7 266.346 960.805 260.966 961.385C258.584 961.64 257.123 962.13 254.44 962.23C252.794 970.06 249.829 975.845 243.122 980.55L242.76 980.105C248.988 974.085 251.181 969.44 253.274 961.125C266.831 959.69 269.021 954.36 273.236 942.305Z" fill="#373737" fill-opacity="0.976471"/>
<path d="M250.285 443.066C250.01 447.676 229.464 463.923 224.955 467.506L224.805 466.859C227.336 461.798 232.522 458.745 236.714 455C241.153 451.035 245.636 446.746 250.285 443.066Z" fill="#373737" fill-opacity="0.980392"/>
<path d="M434.369 321.203C440.397 320.52 446.503 321.235 452.21 323.293C455.676 324.575 459.608 326.813 461.192 330.305C457.477 329.701 451.537 325.426 446.751 324.111C443.018 323.085 436.78 323.47 434.664 322.362L434.369 321.203Z" fill="#373737"/>
<path d="M247.979 333.79C250.225 338.232 249.173 342.972 254.149 349.291C257.328 353.33 265.997 358.376 267.113 361.008C257.75 359.288 245.039 343.621 247.979 333.79Z" fill="#373737" fill-opacity="0.988235"/>
<path d="M704.44 228.402C704.55 229.798 702.415 234.144 701.605 235.571C698.42 241.178 698.2 253.043 696.23 257.934C692.345 251.828 699.1 233.364 704.44 228.402Z" fill="#373737" fill-opacity="0.988235"/>
<path d="M290.308 361.534C291.591 361.305 294.865 361.17 296.31 361.068L296.98 362.397L297.204 362.319L297.124 361.068L297.402 361.073L297.846 362.055L298.366 361.733C293.768 363.881 285.377 365.792 280.099 365.529C277.511 364.986 274.827 364.335 272.633 362.788C278.48 361.988 285.213 365.658 290.308 361.534Z" fill="#373737"/>
<path d="M431.043 339.948C432.923 340.451 447.445 349.125 448.155 350.97C443.099 351.352 431.509 344.892 431.043 339.948Z" fill="#373737"/>
<path d="M607.705 467.638C609.685 467.373 611.535 468.682 611.945 470.639C612.355 472.596 611.185 474.537 609.26 475.088C607.885 475.483 606.405 475.075 605.425 474.033C604.45 472.99 604.135 471.488 604.615 470.14C605.095 468.793 606.285 467.827 607.705 467.638Z" fill="#373737"/>
<path d="M308.128 625.28L308.77 625.92C309.091 631.745 304.094 641.555 301.635 647.13C301.471 646.965 301.391 646.735 301.288 646.53C300.575 645.095 307.106 628.31 308.128 625.28Z" fill="#373737"/>
<path d="M284.098 702.115L285.203 703.015C279.537 710.1 278.689 715.705 267.51 716.45L267.188 715.895C277.031 712.14 278.38 710.635 284.098 702.115Z" fill="#373737" fill-opacity="0.964706"/>
<path d="M417.615 392.385C418.615 392.581 432.801 400.659 433.229 401.261C429.17 401.909 419.011 396.546 417.615 392.385Z" fill="#373737"/>
<path d="M264.658 930.805C268.692 934.37 258.053 943.735 255.001 945.355L254.629 944.935C257.26 940.45 261.782 939.645 264.658 930.805Z" fill="#373737" fill-opacity="0.960784"/>
<path d="M251.047 945.275L251.546 945.495C252.637 948.395 241.542 951.395 250.469 959.505C248.71 959.855 248.158 959.45 246.582 958.5C243.715 953.88 247.039 948.05 251.047 945.275Z" fill="#373737" fill-opacity="0.960784"/>
<path d="M288.536 771.485C289.071 777.85 288.91 786.94 288.925 793.52C290.994 789.405 292.449 786.195 295.655 782.815C293.98 786.54 292.497 789.855 290.557 793.44L288.936 792.895C287.606 790.185 288.199 775.135 288.536 771.485Z" fill="#373737" fill-opacity="0.945098"/>
<path d="M248.433 846.715L249.306 847.57C250.257 855.155 251.309 855.37 254.084 861.86C248.609 858.605 247.961 852.445 248.433 846.715Z" fill="#373737" fill-opacity="0.980392"/>
<path d="M264.435 951.045C264.513 951.345 264.592 951.645 264.671 951.94C261.762 956.97 254.993 957.075 250.155 955.015L249.516 953.925L249.955 953.625C256.757 956.265 258.751 955.28 264.435 951.045Z" fill="#373737" fill-opacity="0.972549"/>
<path d="M280.897 656.29L282.42 656.63C282.105 658.58 277.543 659.395 276.63 663.735C277.186 665.83 276.698 664.88 278.405 666.54L278.431 666.865C276.622 666.87 277.535 667.02 275.689 665.85C273.468 661.73 277.734 658.34 280.897 656.29Z" fill="#373737" fill-opacity="0.976471"/>
<path d="M653.72 317.438L654.79 317.685L654.685 318.572C652.395 321.188 648.315 322.812 645.12 324.088L644.51 323.935L644.225 323.372C645.48 321.955 651.615 318.7 653.72 317.438Z" fill="#373737" fill-opacity="0.988235"/>
<path d="M283.38 806.47L283.699 807.18C281.754 812.395 278.637 819.19 276.03 824.11L275.469 823.785C277.828 817.585 280.052 812.215 283.38 806.47Z" fill="#373737" fill-opacity="0.917647"/>
<path d="M290.94 338.896C292.873 339.111 298.275 341.962 300.228 342.96C295.975 342.385 294.153 341.638 290.94 338.896Z" fill="#373737" fill-opacity="0.87451"/>
</g>
<defs>
<clipPath id="clip0_16_5194">
<rect width="1024" height="1024" fill="white"/>
</clipPath>
</defs>
</svg>
